<?xml version="1.0" encoding="utf-8"?>
<!-- Generator: Adobe Illustrator 15.0.0, SVG Export Plug-In . SVG Version: 6.00 Build 0)  -->
<!DOCTYPE svg PUBLIC "-//W3C//DTD SVG 1.1//EN" "http://www.w3.org/Graphics/SVG/1.1/DTD/svg11.dtd" [
	<!ENTITY ns_extend "http://ns.adobe.com/Extensibility/1.0/">
	<!ENTITY ns_ai "http://ns.adobe.com/AdobeIllustrator/10.0/">
	<!ENTITY ns_graphs "http://ns.adobe.com/Graphs/1.0/">
	<!ENTITY ns_vars "http://ns.adobe.com/Variables/1.0/">
	<!ENTITY ns_imrep "http://ns.adobe.com/ImageReplacement/1.0/">
	<!ENTITY ns_sfw "http://ns.adobe.com/SaveForWeb/1.0/">
	<!ENTITY ns_custom "http://ns.adobe.com/GenericCustomNamespace/1.0/">
	<!ENTITY ns_adobe_xpath "http://ns.adobe.com/XPath/1.0/">
]>
<svg version="1.1" id="Layer_1" xmlns:x="&ns_extend;" xmlns:i="&ns_ai;" xmlns:graph="&ns_graphs;"
	 xmlns="http://www.w3.org/2000/svg" xmlns:xlink="http://www.w3.org/1999/xlink" x="0px" y="0px" width="58px" height="48px"
	 viewBox="0 0 58 48" enable-background="new 0 0 58 48" xml:space="preserve">
<metadata>
	<sfw  xmlns="&ns_sfw;">
		<slices></slices>
		<sliceSourceBounds  x="332.502" y="412.331" width="55.967" height="40.692" bottomLeftOrigin="true"></sliceSourceBounds>
	</sfw>
</metadata>
<polygon fill="#848778" points="11.242,33.93 4.668,24.604 11.242,15.275 8.576,15.275 2.002,24.604 8.576,33.93 "/>
<path fill="#CFF219" d="M21.338,30.673c-2.516-2.229-6.672-2.789-8.479-2.276c2.96,5.975,3.586,11.646,7.545,14.539
	c8.387,5.399,32.506-9.127,37.552-1.791c0.399-13.227-8.673-15.274-9.905-15.733c-1.68-0.627-7.515-2.202-10.109-3.824
	c-4.227-2.249-7.053-6.022-4.491-18.111c-6.789,4.6-11.512,11.97-8.339,20.175c-2.748-1.607-10.155-2.287-14.437,1.39
	C12.859,25.318,19.566,26.254,21.338,30.673z"/>
<g>
	<path fill="#A7CD5F" d="M56.032,36.658c-3.605-5.146-8.123-5.391-13.3-5.667c-1.98-0.106-4.029-0.218-6.181-0.606
		c-4.005-0.725-8.739-3.631-10.289-8.485c-1.04-3.261-0.954-8.479,5.135-15.032c-1.707,11.119,1.178,14.527,7.76,17.453
		c1.35,0.513,2.746,0.928,4.101,1.33C48.872,27.32,54.189,28.904,56.032,36.658z"/>
	<path fill="#BAE24B" d="M30.988,7.735c-1.438,10.577,1.525,13.938,8.056,16.84l0.015,0.005l0.016,0.007
		c1.343,0.511,2.746,0.929,4.104,1.331c5.18,1.542,10.102,3.007,12.196,9.423c-3.519-4.139-7.79-4.368-12.626-4.629
		c-1.973-0.106-4.012-0.217-6.145-0.603c-3.926-0.709-8.561-3.551-10.074-8.296C25.549,18.737,25.599,13.871,30.988,7.735
		 M31.818,6.021c-12.67,12.966-3.809,23.102,4.686,24.639c8.234,1.488,15.139-1.069,20.098,7.4
		c-1.887-11.317-10.293-11.324-17.33-13.997C32.562,21.083,29.838,17.729,31.818,6.021L31.818,6.021z"/>
</g>
<g>
	<path fill="#A7CD5F" d="M33.416,37.42c-2.99,0-3.843-0.445-4.301-0.688c-0.096-0.049-0.178-0.092-0.259-0.123
		c-3.012-1.228-4.533-4.125-5.538-6.041c-0.204-0.389-0.38-0.724-0.548-1.01c-0.943-1.599-3.191-4.264-7.96-5.17
		c1.362-0.305,2.685-0.459,3.944-0.459c6.095,0,9.612,3.553,11.713,5.674c0.46,0.465,0.855,0.864,1.195,1.142
		c3.837,3.116,9.966,4.806,17.75,4.897C42.264,36.822,36.893,37.42,33.416,37.42C33.416,37.42,33.417,37.42,33.416,37.42z"/>
	<path fill="#BAE24B" d="M18.755,24.208c5.979,0,9.444,3.502,11.515,5.594c0.465,0.472,0.867,0.876,1.217,1.16
		c3.406,2.765,8.576,4.421,15.082,4.853c-5.75,0.881-10.159,1.326-13.151,1.326c-2.921,0-3.733-0.426-4.172-0.652
		c-0.095-0.051-0.184-0.098-0.283-0.139c-2.916-1.187-4.408-4.029-5.396-5.91c-0.205-0.393-0.382-0.729-0.554-1.021
		c-0.88-1.486-2.856-3.877-6.855-5C17.046,24.278,17.915,24.208,18.755,24.208 M18.755,23.649c-1.604,0-3.383,0.242-5.354,0.815
		c5.565,0.593,8.125,3.538,9.128,5.237c1.015,1.722,2.511,5.654,6.223,7.165c0.491,0.2,1.072,0.832,4.664,0.832
		c3.271,0,9.034-0.523,19.494-2.371c-0.039-0.002-0.085-0.003-0.141-0.003c-0.438,0-1.39,0.041-2.678,0.041
		c-4.439,0-12.898-0.488-18.254-4.838C30.01,29.042,26.321,23.649,18.755,23.649L18.755,23.649z"/>
</g>
<g>
	<path fill="#A7CD5F" d="M25.987,42.614c-5.641,0-7.032-3.56-8.795-8.063c-0.598-1.525-1.213-3.102-2.045-4.658
		c3.237,0.183,4.81,1.733,6.618,3.52c2.208,2.18,4.711,4.65,10.795,5.318c0.715,0.08,1.571,0.117,2.553,0.117
		c4.246,0,10.054-0.72,14.113-1.261c-12.554,3.274-18.66,4.392-21.745,4.952C26.977,42.587,26.465,42.614,25.987,42.614z"/>
	<path fill="#BAE24B" d="M15.628,30.212c2.792,0.29,4.201,1.681,5.94,3.396c2.241,2.215,4.782,4.723,10.961,5.4
		c0.725,0.079,1.595,0.12,2.584,0.12c2.877,0,6.467-0.33,9.744-0.71c-9.657,2.425-14.689,3.346-17.401,3.84
		c-0.513,0.051-1.008,0.076-1.469,0.076c-5.449,0-6.812-3.48-8.534-7.886C16.91,33.061,16.351,31.634,15.628,30.212 M14.666,29.598
		c3.522,6.264,3.354,13.295,11.321,13.295c0.485,0,0.998-0.024,1.545-0.078c3.446-0.629,10.653-1.955,25.886-6.047
		c-1.889,0.153-11.941,1.801-18.305,1.801c-0.932,0-1.785-0.033-2.521-0.114C21.331,37.215,22.529,29.702,14.666,29.598
		L14.666,29.598z"/>
</g>
</svg>
