<?xml version="1.0" encoding="utf-8"?>
<!-- Generator: Adobe Illustrator 15.0.0, SVG Export Plug-In . SVG Version: 6.00 Build 0)  -->
<!DOCTYPE svg PUBLIC "-//W3C//DTD SVG 1.1//EN" "http://www.w3.org/Graphics/SVG/1.1/DTD/svg11.dtd" [
	<!ENTITY ns_extend "http://ns.adobe.com/Extensibility/1.0/">
	<!ENTITY ns_ai "http://ns.adobe.com/AdobeIllustrator/10.0/">
	<!ENTITY ns_graphs "http://ns.adobe.com/Graphs/1.0/">
	<!ENTITY ns_vars "http://ns.adobe.com/Variables/1.0/">
	<!ENTITY ns_imrep "http://ns.adobe.com/ImageReplacement/1.0/">
	<!ENTITY ns_sfw "http://ns.adobe.com/SaveForWeb/1.0/">
	<!ENTITY ns_custom "http://ns.adobe.com/GenericCustomNamespace/1.0/">
	<!ENTITY ns_adobe_xpath "http://ns.adobe.com/XPath/1.0/">
]>
<svg version="1.1" id="Layer_1" xmlns:x="&ns_extend;" xmlns:i="&ns_ai;" xmlns:graph="&ns_graphs;"
	 xmlns="http://www.w3.org/2000/svg" xmlns:xlink="http://www.w3.org/1999/xlink" x="0px" y="0px" width="48px" height="48px"
	 viewBox="0 0 48 48" enable-background="new 0 0 48 48" xml:space="preserve">
<metadata>
	<sfw  xmlns="&ns_sfw;">
		<slices></slices>
		<sliceSourceBounds  height="41.457" width="45.182" y="459.772" x="246.909" bottomLeftOrigin="true"></sliceSourceBounds>
	</sfw>
</metadata>
<g>
	<polygon fill="#924221" points="5.643,41.268 1.873,40.219 1.873,17.737 5.643,17.737 	"/>
</g>
<g>
	<polygon fill="#924221" points="46.212,40.219 42.44,41.268 42.44,17.737 46.212,17.737 	"/>
</g>
<g opacity="0.72">
	<g>
		<g>
			<rect x="45.396" y="21.055" fill="#ECCBA1" width="0.316" height="0.628"/>
		</g>
		<g>
			<path fill="#ECCBA1" d="M45.712,40.219h-0.316v-1.265h0.316V40.219z M45.712,38.533h-0.316V37.27h0.316V38.533z M45.712,36.848
				h-0.316v-1.264h0.316V36.848z M45.712,35.162h-0.316V33.9h0.316V35.162z M45.712,33.478h-0.316v-1.263h0.316V33.478z
				 M45.712,31.793h-0.316v-1.264h0.316V31.793z M45.712,30.108h-0.316v-1.264h0.316V30.108z M45.712,28.424h-0.316V27.16h0.316
				V28.424z M45.712,26.738h-0.316v-1.264h0.316V26.738z M45.712,25.053h-0.316V23.79h0.316V25.053z M45.712,23.369h-0.316v-1.265
				h0.316V23.369z"/>
		</g>
	</g>
</g>
<g opacity="0.72">
	<g>
		<g>
			<rect x="2.453" y="21.055" fill="#ECCBA1" width="0.315" height="0.628"/>
		</g>
		<g>
			<path fill="#ECCBA1" d="M2.769,40.219H2.453v-1.265h0.315V40.219z M2.769,38.533H2.453V37.27h0.315V38.533z M2.769,36.848H2.453
				v-1.264h0.315V36.848z M2.769,35.162H2.453V33.9h0.315V35.162z M2.769,33.478H2.453v-1.263h0.315V33.478z M2.769,31.793H2.453
				v-1.264h0.315V31.793z M2.769,30.108H2.453v-1.264h0.315V30.108z M2.769,28.424H2.453V27.16h0.315V28.424z M2.769,26.738H2.453
				v-1.264h0.315V26.738z M2.769,25.053H2.453V23.79h0.315V25.053z M2.769,23.369H2.453v-1.265h0.315V23.369z"/>
		</g>
	</g>
</g>
<g>
	<g>
		<path fill="#924221" d="M44.393,3.271c1.21,0,2.198,0.989,2.198,2.199V23.35c0,1.21-0.988,2.199-2.198,2.199L3.609,25.553
			c-1.21,0-2.201-0.99-2.201-2.199V5.477c0-1.21,0.991-2.2,2.201-2.201L44.393,3.271z"/>
	</g>
	<g>
		<g>
			<defs>
				<path id="SVGID_1_" d="M44.393,3.271c1.21,0,2.198,0.989,2.198,2.199V23.35c0,1.21-0.988,2.199-2.198,2.199L3.609,25.553
					c-1.21,0-2.201-0.99-2.201-2.199V5.477c0-1.21,0.991-2.2,2.201-2.201L44.393,3.271z"/>
			</defs>
			<clipPath id="SVGID_3_">
				<use xlink:href="#SVGID_1_"  overflow="visible"/>
			</clipPath>
			<rect x="1.409" y="3.271" clip-path="url(#SVGID_3_)" fill="#56251C" width="0.557" height="22.281"/>
			<rect x="1.965" y="3.271" clip-path="url(#SVGID_3_)" fill="#56251C" width="0.095" height="22.281"/>
			<rect x="2.06" y="3.271" clip-path="url(#SVGID_3_)" fill="#57251C" width="0.094" height="22.281"/>
			<rect x="2.154" y="3.271" clip-path="url(#SVGID_3_)" fill="#58251C" width="0.095" height="22.281"/>
			<rect x="2.249" y="3.271" clip-path="url(#SVGID_3_)" fill="#59251B" width="0.095" height="22.281"/>
			<rect x="2.344" y="3.271" clip-path="url(#SVGID_3_)" fill="#5A251B" width="0.095" height="22.281"/>
			<rect x="2.438" y="3.271" clip-path="url(#SVGID_3_)" fill="#5B251B" width="0.095" height="22.281"/>
			<rect x="2.533" y="3.271" clip-path="url(#SVGID_3_)" fill="#5C251B" width="0.094" height="22.281"/>
			<rect x="2.627" y="3.271" clip-path="url(#SVGID_3_)" fill="#5D241A" width="0.095" height="22.281"/>
			<rect x="2.722" y="3.271" clip-path="url(#SVGID_3_)" fill="#5E241A" width="0.095" height="22.281"/>
			<rect x="2.817" y="3.271" clip-path="url(#SVGID_3_)" fill="#5F241A" width="0.095" height="22.281"/>
			<rect x="2.912" y="3.271" clip-path="url(#SVGID_3_)" fill="#60241A" width="0.095" height="22.281"/>
			<rect x="3.006" y="3.271" clip-path="url(#SVGID_3_)" fill="#61241A" width="0.094" height="22.281"/>
			<rect x="3.101" y="3.271" clip-path="url(#SVGID_3_)" fill="#622419" width="0.095" height="22.281"/>
			<rect x="3.195" y="3.271" clip-path="url(#SVGID_3_)" fill="#632419" width="0.095" height="22.281"/>
			<rect x="3.29" y="3.271" clip-path="url(#SVGID_3_)" fill="#642419" width="0.095" height="22.281"/>
			<rect x="3.385" y="3.271" clip-path="url(#SVGID_3_)" fill="#652419" width="0.095" height="22.281"/>
			<rect x="3.479" y="3.271" clip-path="url(#SVGID_3_)" fill="#662418" width="0.094" height="22.281"/>
			<rect x="3.574" y="3.271" clip-path="url(#SVGID_3_)" fill="#672418" width="0.095" height="22.281"/>
			<rect x="3.668" y="3.271" clip-path="url(#SVGID_3_)" fill="#682418" width="0.095" height="22.281"/>
			<rect x="3.763" y="3.271" clip-path="url(#SVGID_3_)" fill="#692418" width="0.095" height="22.281"/>
			<rect x="3.858" y="3.271" clip-path="url(#SVGID_3_)" fill="#6B2418" width="0.095" height="22.281"/>
			<rect x="3.953" y="3.271" clip-path="url(#SVGID_3_)" fill="#6C2317" width="0.094" height="22.281"/>
			<rect x="4.047" y="3.271" clip-path="url(#SVGID_3_)" fill="#6D2317" width="0.095" height="22.281"/>
			<rect x="4.142" y="3.271" clip-path="url(#SVGID_3_)" fill="#6E2317" width="0.095" height="22.281"/>
			<rect x="4.236" y="3.271" clip-path="url(#SVGID_3_)" fill="#6F2317" width="0.095" height="22.281"/>
			<rect x="4.331" y="3.271" clip-path="url(#SVGID_3_)" fill="#702316" width="0.095" height="22.281"/>
			<rect x="4.426" y="3.271" clip-path="url(#SVGID_3_)" fill="#712316" width="0.094" height="22.281"/>
			<rect x="4.52" y="3.271" clip-path="url(#SVGID_3_)" fill="#722316" width="0.095" height="22.281"/>
			<rect x="4.615" y="3.271" clip-path="url(#SVGID_3_)" fill="#732316" width="0.095" height="22.281"/>
			<rect x="4.709" y="3.271" clip-path="url(#SVGID_3_)" fill="#742315" width="0.095" height="22.281"/>
			<rect x="4.804" y="3.271" clip-path="url(#SVGID_3_)" fill="#752315" width="0.096" height="22.281"/>
			<rect x="4.9" y="3.271" clip-path="url(#SVGID_3_)" fill="#762315" width="0.093" height="22.281"/>
			<rect x="4.993" y="3.271" clip-path="url(#SVGID_3_)" fill="#772315" width="0.095" height="22.281"/>
			<rect x="5.088" y="3.271" clip-path="url(#SVGID_3_)" fill="#782315" width="0.097" height="22.281"/>
			<rect x="5.185" y="3.271" clip-path="url(#SVGID_3_)" fill="#792214" width="0.093" height="22.281"/>
			<rect x="5.277" y="3.271" clip-path="url(#SVGID_3_)" fill="#7A2214" width="0.095" height="22.281"/>
			<rect x="5.372" y="3.271" clip-path="url(#SVGID_3_)" fill="#7B2214" width="0.096" height="22.281"/>
			<rect x="5.468" y="3.271" clip-path="url(#SVGID_3_)" fill="#7C2214" width="0.095" height="22.281"/>
			<rect x="5.563" y="3.271" clip-path="url(#SVGID_3_)" fill="#7D2213" width="0.093" height="22.281"/>
			<rect x="5.656" y="3.271" clip-path="url(#SVGID_3_)" fill="#7E2213" width="0.097" height="22.281"/>
			<rect x="5.752" y="3.271" clip-path="url(#SVGID_3_)" fill="#7F2213" width="0.094" height="22.281"/>
			<rect x="5.847" y="3.271" clip-path="url(#SVGID_3_)" fill="#7F2213" width="0.421" height="22.281"/>
			<rect x="6.268" y="3.271" clip-path="url(#SVGID_3_)" fill="#802314" width="0.423" height="22.281"/>
			<rect x="6.691" y="3.271" clip-path="url(#SVGID_3_)" fill="#812414" width="0.421" height="22.281"/>
			<rect x="7.112" y="3.271" clip-path="url(#SVGID_3_)" fill="#822515" width="0.423" height="22.281"/>
			<rect x="7.535" y="3.271" clip-path="url(#SVGID_3_)" fill="#832615" width="0.423" height="22.281"/>
			<rect x="7.958" y="3.271" clip-path="url(#SVGID_3_)" fill="#842716" width="0.421" height="22.281"/>
			<rect x="8.379" y="3.271" clip-path="url(#SVGID_3_)" fill="#852816" width="0.423" height="22.281"/>
			<rect x="8.803" y="3.271" clip-path="url(#SVGID_3_)" fill="#862917" width="0.423" height="22.281"/>
			<rect x="9.226" y="3.271" clip-path="url(#SVGID_3_)" fill="#872A17" width="0.421" height="22.281"/>
			<rect x="9.647" y="3.271" clip-path="url(#SVGID_3_)" fill="#882B18" width="0.423" height="22.281"/>
			<rect x="10.07" y="3.271" clip-path="url(#SVGID_3_)" fill="#892C18" width="0.421" height="22.281"/>
			<rect x="10.491" y="3.271" clip-path="url(#SVGID_3_)" fill="#8A2D19" width="0.423" height="22.281"/>
			<rect x="10.914" y="3.271" clip-path="url(#SVGID_3_)" fill="#8B2E19" width="0.423" height="22.281"/>
			<rect x="11.337" y="3.271" clip-path="url(#SVGID_3_)" fill="#8C2F1A" width="0.421" height="22.281"/>
			<rect x="11.758" y="3.271" clip-path="url(#SVGID_3_)" fill="#8D301B" width="0.423" height="22.281"/>
			<rect x="12.182" y="3.271" clip-path="url(#SVGID_3_)" fill="#8E311B" width="0.421" height="22.281"/>
			<rect x="12.603" y="3.271" clip-path="url(#SVGID_3_)" fill="#8F321C" width="0.423" height="22.281"/>
			<rect x="13.026" y="3.271" clip-path="url(#SVGID_3_)" fill="#90331C" width="0.423" height="22.281"/>
			<rect x="13.449" y="3.271" clip-path="url(#SVGID_3_)" fill="#91341D" width="0.423" height="22.281"/>
			<rect x="13.872" y="3.271" clip-path="url(#SVGID_3_)" fill="#92351D" width="0.421" height="22.281"/>
			<rect x="14.293" y="3.271" clip-path="url(#SVGID_3_)" fill="#93361E" width="0.423" height="22.281"/>
			<rect x="14.716" y="3.271" clip-path="url(#SVGID_3_)" fill="#95381E" width="0.421" height="22.281"/>
			<rect x="15.137" y="3.271" clip-path="url(#SVGID_3_)" fill="#96391F" width="0.423" height="22.281"/>
			<rect x="15.56" y="3.271" clip-path="url(#SVGID_3_)" fill="#973A1F" width="0.421" height="22.281"/>
			<rect x="15.981" y="3.271" clip-path="url(#SVGID_3_)" fill="#983B20" width="0.423" height="22.281"/>
			<rect x="16.404" y="3.271" clip-path="url(#SVGID_3_)" fill="#993C20" width="0.423" height="22.281"/>
			<rect x="16.828" y="3.271" clip-path="url(#SVGID_3_)" fill="#9A3D21" width="0.421" height="22.281"/>
			<rect x="17.249" y="3.271" clip-path="url(#SVGID_3_)" fill="#9B3E21" width="0.423" height="22.281"/>
			<rect x="17.672" y="3.271" clip-path="url(#SVGID_3_)" fill="#9C3F22" width="0.423" height="22.281"/>
			<rect x="18.095" y="3.271" clip-path="url(#SVGID_3_)" fill="#9D4023" width="0.422" height="22.281"/>
			<rect x="18.517" y="3.271" clip-path="url(#SVGID_3_)" fill="#9E4123" width="0.422" height="22.281"/>
			<rect x="18.938" y="3.271" clip-path="url(#SVGID_3_)" fill="#9F4224" width="0.422" height="22.281"/>
			<rect x="19.36" y="3.271" clip-path="url(#SVGID_3_)" fill="#A04324" width="0.423" height="22.281"/>
			<rect x="19.783" y="3.271" clip-path="url(#SVGID_3_)" fill="#A14425" width="0.423" height="22.281"/>
			<rect x="20.206" y="3.271" clip-path="url(#SVGID_3_)" fill="#A24525" width="0.422" height="22.281"/>
			<rect x="20.628" y="3.271" clip-path="url(#SVGID_3_)" fill="#A34626" width="0.423" height="22.281"/>
			<rect x="21.051" y="3.271" clip-path="url(#SVGID_3_)" fill="#A44726" width="0.423" height="22.281"/>
			<rect x="21.474" y="3.271" clip-path="url(#SVGID_3_)" fill="#A54827" width="0.422" height="22.281"/>
			<rect x="21.896" y="3.271" clip-path="url(#SVGID_3_)" fill="#A64927" width="0.422" height="22.281"/>
			<rect x="22.317" y="3.271" clip-path="url(#SVGID_3_)" fill="#A74A28" width="0.422" height="22.281"/>
			<rect x="22.739" y="3.271" clip-path="url(#SVGID_3_)" fill="#A84B28" width="0.423" height="22.281"/>
			<rect x="23.162" y="3.271" clip-path="url(#SVGID_3_)" fill="#A94C29" width="0.423" height="22.281"/>
			<rect x="23.585" y="3.271" clip-path="url(#SVGID_3_)" fill="#A94C29" width="1.021" height="22.281"/>
			<rect x="24.605" y="3.271" clip-path="url(#SVGID_3_)" fill="#A84B28" width="1.021" height="22.281"/>
			<rect x="25.626" y="3.271" clip-path="url(#SVGID_3_)" fill="#A74A28" width="1.021" height="22.281"/>
			<rect x="26.646" y="3.271" clip-path="url(#SVGID_3_)" fill="#A54827" width="1.022" height="22.281"/>
			<rect x="27.669" y="3.271" clip-path="url(#SVGID_3_)" fill="#A44726" width="1.021" height="22.281"/>
			<rect x="28.689" y="3.271" clip-path="url(#SVGID_3_)" fill="#A44726" width="0.412" height="22.281"/>
			<rect x="29.102" y="3.271" clip-path="url(#SVGID_3_)" fill="#A34626" width="0.411" height="22.281"/>
			<rect x="29.513" y="3.271" clip-path="url(#SVGID_3_)" fill="#A24525" width="0.414" height="22.281"/>
			<rect x="29.927" y="3.271" clip-path="url(#SVGID_3_)" fill="#A14425" width="0.41" height="22.281"/>
			<rect x="30.337" y="3.271" clip-path="url(#SVGID_3_)" fill="#A04324" width="0.412" height="22.281"/>
			<rect x="30.749" y="3.271" clip-path="url(#SVGID_3_)" fill="#9F4224" width="0.414" height="22.281"/>
			<rect x="31.163" y="3.271" clip-path="url(#SVGID_3_)" fill="#9E4123" width="0.412" height="22.281"/>
			<rect x="31.575" y="3.271" clip-path="url(#SVGID_3_)" fill="#9D4023" width="0.412" height="22.281"/>
			<rect x="31.987" y="3.271" clip-path="url(#SVGID_3_)" fill="#9B3E22" width="0.411" height="22.281"/>
			<rect x="32.398" y="3.271" clip-path="url(#SVGID_3_)" fill="#9A3D22" width="0.412" height="22.281"/>
			<rect x="32.811" y="3.271" clip-path="url(#SVGID_3_)" fill="#993C21" width="0.412" height="22.281"/>
			<rect x="33.223" y="3.271" clip-path="url(#SVGID_3_)" fill="#983B21" width="0.411" height="22.281"/>
			<rect x="33.634" y="3.271" clip-path="url(#SVGID_3_)" fill="#973A20" width="0.412" height="22.281"/>
			<rect x="34.046" y="3.271" clip-path="url(#SVGID_3_)" fill="#963920" width="0.412" height="22.281"/>
			<rect x="34.458" y="3.271" clip-path="url(#SVGID_3_)" fill="#95381F" width="0.412" height="22.281"/>
			<rect x="34.87" y="3.271" clip-path="url(#SVGID_3_)" fill="#95381F" width="0.282" height="22.281"/>
			<rect x="35.152" y="3.271" clip-path="url(#SVGID_3_)" fill="#94371E" width="0.28" height="22.281"/>
			<rect x="35.433" y="3.271" clip-path="url(#SVGID_3_)" fill="#93361E" width="0.281" height="22.281"/>
			<rect x="35.714" y="3.271" clip-path="url(#SVGID_3_)" fill="#92351D" width="0.281" height="22.281"/>
			<rect x="35.995" y="3.271" clip-path="url(#SVGID_3_)" fill="#91341D" width="0.279" height="22.281"/>
			<rect x="36.274" y="3.271" clip-path="url(#SVGID_3_)" fill="#90331C" width="0.28" height="22.281"/>
			<rect x="36.555" y="3.271" clip-path="url(#SVGID_3_)" fill="#8F321C" width="0.28" height="22.281"/>
			<rect x="36.835" y="3.271" clip-path="url(#SVGID_3_)" fill="#8E311B" width="0.282" height="22.281"/>
			<rect x="37.117" y="3.271" clip-path="url(#SVGID_3_)" fill="#8D301A" width="0.28" height="22.281"/>
			<rect x="37.397" y="3.271" clip-path="url(#SVGID_3_)" fill="#8C2F1A" width="0.281" height="22.281"/>
			<rect x="37.679" y="3.271" clip-path="url(#SVGID_3_)" fill="#8B2E19" width="0.281" height="22.281"/>
			<rect x="37.96" y="3.271" clip-path="url(#SVGID_3_)" fill="#892C19" width="0.279" height="22.281"/>
			<rect x="38.239" y="3.271" clip-path="url(#SVGID_3_)" fill="#882B18" width="0.281" height="22.281"/>
			<rect x="38.521" y="3.271" clip-path="url(#SVGID_3_)" fill="#872A18" width="0.279" height="22.281"/>
			<rect x="38.8" y="3.271" clip-path="url(#SVGID_3_)" fill="#862917" width="0.282" height="22.281"/>
			<rect x="39.082" y="3.271" clip-path="url(#SVGID_3_)" fill="#852816" width="0.28" height="22.281"/>
			<rect x="39.362" y="3.271" clip-path="url(#SVGID_3_)" fill="#842716" width="0.28" height="22.281"/>
			<rect x="39.643" y="3.271" clip-path="url(#SVGID_3_)" fill="#832615" width="0.282" height="22.281"/>
			<rect x="39.925" y="3.271" clip-path="url(#SVGID_3_)" fill="#822515" width="0.279" height="22.281"/>
			<rect x="40.204" y="3.271" clip-path="url(#SVGID_3_)" fill="#812414" width="0.283" height="22.281"/>
			<rect x="40.487" y="3.271" clip-path="url(#SVGID_3_)" fill="#802314" width="0.279" height="22.281"/>
			<rect x="40.767" y="3.271" clip-path="url(#SVGID_3_)" fill="#7F2213" width="0.28" height="22.281"/>
			<rect x="41.047" y="3.271" clip-path="url(#SVGID_3_)" fill="#7F2213" width="0.136" height="22.281"/>
			<rect x="41.183" y="3.271" clip-path="url(#SVGID_3_)" fill="#7E2213" width="0.133" height="22.281"/>
			<rect x="41.315" y="3.271" clip-path="url(#SVGID_3_)" fill="#7D2213" width="0.138" height="22.281"/>
			<rect x="41.453" y="3.271" clip-path="url(#SVGID_3_)" fill="#7C2214" width="0.136" height="22.281"/>
			<rect x="41.589" y="3.271" clip-path="url(#SVGID_3_)" fill="#7B2214" width="0.133" height="22.281"/>
			<rect x="41.722" y="3.271" clip-path="url(#SVGID_3_)" fill="#7A2214" width="0.137" height="22.281"/>
			<rect x="41.858" y="3.271" clip-path="url(#SVGID_3_)" fill="#792214" width="0.137" height="22.281"/>
			<rect x="41.995" y="3.271" clip-path="url(#SVGID_3_)" fill="#782315" width="0.134" height="22.281"/>
			<rect x="42.129" y="3.271" clip-path="url(#SVGID_3_)" fill="#772315" width="0.136" height="22.281"/>
			<rect x="42.265" y="3.271" clip-path="url(#SVGID_3_)" fill="#762315" width="0.135" height="22.281"/>
			<rect x="42.399" y="3.271" clip-path="url(#SVGID_3_)" fill="#752315" width="0.136" height="22.281"/>
			<rect x="42.535" y="3.271" clip-path="url(#SVGID_3_)" fill="#742315" width="0.136" height="22.281"/>
			<rect x="42.671" y="3.271" clip-path="url(#SVGID_3_)" fill="#732316" width="0.135" height="22.281"/>
			<rect x="42.806" y="3.271" clip-path="url(#SVGID_3_)" fill="#722316" width="0.134" height="22.281"/>
			<rect x="42.939" y="3.271" clip-path="url(#SVGID_3_)" fill="#712316" width="0.136" height="22.281"/>
			<rect x="43.075" y="3.271" clip-path="url(#SVGID_3_)" fill="#702316" width="0.135" height="22.281"/>
			<rect x="43.21" y="3.271" clip-path="url(#SVGID_3_)" fill="#6F2317" width="0.136" height="22.281"/>
			<rect x="43.346" y="3.271" clip-path="url(#SVGID_3_)" fill="#6E2317" width="0.136" height="22.281"/>
			<rect x="43.481" y="3.271" clip-path="url(#SVGID_3_)" fill="#6D2317" width="0.135" height="22.281"/>
			<rect x="43.616" y="3.271" clip-path="url(#SVGID_3_)" fill="#6C2317" width="0.135" height="22.281"/>
			<rect x="43.751" y="3.271" clip-path="url(#SVGID_3_)" fill="#6B2418" width="0.135" height="22.281"/>
			<rect x="43.886" y="3.271" clip-path="url(#SVGID_3_)" fill="#692418" width="0.136" height="22.281"/>
			<rect x="44.021" y="3.271" clip-path="url(#SVGID_3_)" fill="#682418" width="0.136" height="22.281"/>
			<rect x="44.157" y="3.271" clip-path="url(#SVGID_3_)" fill="#672418" width="0.135" height="22.281"/>
			<rect x="44.292" y="3.271" clip-path="url(#SVGID_3_)" fill="#662418" width="0.136" height="22.281"/>
			<rect x="44.428" y="3.271" clip-path="url(#SVGID_3_)" fill="#652419" width="0.136" height="22.281"/>
			<rect x="44.563" y="3.271" clip-path="url(#SVGID_3_)" fill="#642419" width="0.135" height="22.281"/>
			<rect x="44.698" y="3.271" clip-path="url(#SVGID_3_)" fill="#632419" width="0.136" height="22.281"/>
			<rect x="44.834" y="3.271" clip-path="url(#SVGID_3_)" fill="#622419" width="0.134" height="22.281"/>
			<rect x="44.968" y="3.271" clip-path="url(#SVGID_3_)" fill="#61241A" width="0.135" height="22.281"/>
			<rect x="45.103" y="3.271" clip-path="url(#SVGID_3_)" fill="#60241A" width="0.138" height="22.281"/>
			<rect x="45.24" y="3.271" clip-path="url(#SVGID_3_)" fill="#5F241A" width="0.134" height="22.281"/>
			<rect x="45.374" y="3.271" clip-path="url(#SVGID_3_)" fill="#5E241A" width="0.135" height="22.281"/>
			<rect x="45.509" y="3.271" clip-path="url(#SVGID_3_)" fill="#5D241A" width="0.137" height="22.281"/>
			<rect x="45.646" y="3.271" clip-path="url(#SVGID_3_)" fill="#5C251B" width="0.135" height="22.281"/>
			<rect x="45.78" y="3.271" clip-path="url(#SVGID_3_)" fill="#5B251B" width="0.135" height="22.281"/>
			<rect x="45.915" y="3.271" clip-path="url(#SVGID_3_)" fill="#5A251B" width="0.135" height="22.281"/>
			<rect x="46.05" y="3.271" clip-path="url(#SVGID_3_)" fill="#59251B" width="0.135" height="22.281"/>
			<rect x="46.185" y="3.271" clip-path="url(#SVGID_3_)" fill="#58251C" width="0.136" height="22.281"/>
			<rect x="46.32" y="3.271" clip-path="url(#SVGID_3_)" fill="#57251C" width="0.136" height="22.281"/>
			<rect x="46.456" y="3.271" clip-path="url(#SVGID_3_)" fill="#56251C" width="0.135" height="22.281"/>
			<path clip-path="url(#SVGID_3_)" fill="#56251C" d="M46.591,25.553V3.271V25.553z"/>
		</g>
	</g>
</g>
<g>
	<g>
		<path fill="#91321B" d="M4.387,19.147v6.029v17.24c0,1.267,1.035,2.305,2.303,2.305h34.599c1.268,0,2.305-1.038,2.305-2.305V25.01
			v-5.863H4.387L4.387,19.147z"/>
	</g>
	<g>
		<g>
			<defs>
				<path id="SVGID_4_" d="M4.387,19.147v6.029v17.24c0,1.267,1.035,2.305,2.303,2.305h34.599c1.268,0,2.305-1.038,2.305-2.305
					V25.01v-5.863H4.387L4.387,19.147z"/>
			</defs>
			<clipPath id="SVGID_5_">
				<use xlink:href="#SVGID_4_"  overflow="visible"/>
			</clipPath>
			<path clip-path="url(#SVGID_5_)" fill="#7F2213" d="M4.387,44.721h39.206H4.387z"/>
			<rect x="4.387" y="44.45" clip-path="url(#SVGID_5_)" fill="#7F2213" width="39.206" height="0.271"/>
			<rect x="4.387" y="44.18" clip-path="url(#SVGID_5_)" fill="#802314" width="39.206" height="0.271"/>
			<rect x="4.387" y="43.908" clip-path="url(#SVGID_5_)" fill="#812414" width="39.206" height="0.271"/>
			<rect x="4.387" y="43.637" clip-path="url(#SVGID_5_)" fill="#822515" width="39.206" height="0.271"/>
			<rect x="4.387" y="43.367" clip-path="url(#SVGID_5_)" fill="#832615" width="39.206" height="0.27"/>
			<rect x="4.387" y="43.096" clip-path="url(#SVGID_5_)" fill="#852816" width="39.206" height="0.271"/>
			<rect x="4.387" y="42.826" clip-path="url(#SVGID_5_)" fill="#862917" width="39.206" height="0.27"/>
			<rect x="4.387" y="42.556" clip-path="url(#SVGID_5_)" fill="#872A17" width="39.206" height="0.271"/>
			<rect x="4.387" y="42.285" clip-path="url(#SVGID_5_)" fill="#882B18" width="39.206" height="0.271"/>
			<rect x="4.387" y="42.014" clip-path="url(#SVGID_5_)" fill="#892C18" width="39.206" height="0.271"/>
			<rect x="4.387" y="41.742" clip-path="url(#SVGID_5_)" fill="#8A2D19" width="39.206" height="0.271"/>
			<rect x="4.387" y="41.408" clip-path="url(#SVGID_5_)" fill="#8A2D19" width="39.206" height="0.334"/>
			<rect x="4.387" y="41.074" clip-path="url(#SVGID_5_)" fill="#8B2E1A" width="39.206" height="0.334"/>
			<rect x="4.387" y="40.739" clip-path="url(#SVGID_5_)" fill="#8C2F1A" width="39.206" height="0.335"/>
			<rect x="4.387" y="40.404" clip-path="url(#SVGID_5_)" fill="#8D301B" width="39.206" height="0.335"/>
			<rect x="4.387" y="40.07" clip-path="url(#SVGID_5_)" fill="#8E311B" width="39.206" height="0.334"/>
			<rect x="4.387" y="39.735" clip-path="url(#SVGID_5_)" fill="#8F321C" width="39.206" height="0.335"/>
			<rect x="4.387" y="39.4" clip-path="url(#SVGID_5_)" fill="#90331C" width="39.206" height="0.335"/>
			<rect x="4.387" y="39.065" clip-path="url(#SVGID_5_)" fill="#91341D" width="39.206" height="0.335"/>
			<rect x="4.387" y="38.731" clip-path="url(#SVGID_5_)" fill="#92351D" width="39.206" height="0.334"/>
			<rect x="4.387" y="38.396" clip-path="url(#SVGID_5_)" fill="#93361E" width="39.206" height="0.335"/>
			<rect x="4.387" y="38.062" clip-path="url(#SVGID_5_)" fill="#94371E" width="39.206" height="0.335"/>
			<rect x="4.387" y="37.727" clip-path="url(#SVGID_5_)" fill="#96391F" width="39.206" height="0.335"/>
			<rect x="4.387" y="37.393" clip-path="url(#SVGID_5_)" fill="#973A20" width="39.206" height="0.334"/>
			<rect x="4.387" y="37.058" clip-path="url(#SVGID_5_)" fill="#983B20" width="39.206" height="0.335"/>
			<rect x="4.387" y="36.723" clip-path="url(#SVGID_5_)" fill="#993C21" width="39.206" height="0.335"/>
			<rect x="4.387" y="36.389" clip-path="url(#SVGID_5_)" fill="#9A3D21" width="39.206" height="0.334"/>
			<rect x="4.387" y="36.055" clip-path="url(#SVGID_5_)" fill="#9B3E22" width="39.206" height="0.334"/>
			<rect x="4.387" y="35.719" clip-path="url(#SVGID_5_)" fill="#9C3F22" width="39.206" height="0.336"/>
			<rect x="4.387" y="35.385" clip-path="url(#SVGID_5_)" fill="#9D4023" width="39.206" height="0.334"/>
			<rect x="4.387" y="35.051" clip-path="url(#SVGID_5_)" fill="#9E4123" width="39.206" height="0.334"/>
			<rect x="4.387" y="34.715" clip-path="url(#SVGID_5_)" fill="#9F4224" width="39.206" height="0.336"/>
			<rect x="4.387" y="34.381" clip-path="url(#SVGID_5_)" fill="#A04324" width="39.206" height="0.334"/>
			<rect x="4.387" y="34.047" clip-path="url(#SVGID_5_)" fill="#A14425" width="39.206" height="0.334"/>
			<rect x="4.387" y="33.438" clip-path="url(#SVGID_5_)" fill="#A14425" width="39.206" height="0.609"/>
			<rect x="4.387" y="32.831" clip-path="url(#SVGID_5_)" fill="#A24526" width="39.206" height="0.606"/>
			<rect x="4.387" y="32.225" clip-path="url(#SVGID_5_)" fill="#A34626" width="39.206" height="0.606"/>
			<rect x="4.387" y="31.617" clip-path="url(#SVGID_5_)" fill="#A44727" width="39.206" height="0.607"/>
			<rect x="4.387" y="31.009" clip-path="url(#SVGID_5_)" fill="#A64927" width="39.206" height="0.608"/>
			<rect x="4.387" y="30.401" clip-path="url(#SVGID_5_)" fill="#A74A28" width="39.206" height="0.607"/>
			<rect x="4.387" y="29.793" clip-path="url(#SVGID_5_)" fill="#A84B28" width="39.206" height="0.608"/>
			<rect x="4.387" y="29.188" clip-path="url(#SVGID_5_)" fill="#A94C29" width="39.206" height="0.605"/>
			<rect x="4.387" y="19.147" clip-path="url(#SVGID_5_)" fill="#A94C29" width="39.206" height="10.041"/>
		</g>
	</g>
</g>
<g opacity="0.72">
	<g opacity="0.26">
		
			<image overflow="visible" enable-background="new    " width="339" height="253" xlink:href="A74E09CA.png"  transform="matrix(0.1047 0 0 0.1047 6.1567 18.2295)">
		</image>
	</g>
</g>
<g>
	<g>
		<g>
			<defs>
				<path id="SVGID_6_" d="M24.001,44.721c0,0-12.558,0-17.332,0c-1.976,0-2.282-1.985-2.282-1.985V24.149h19.614V44.721z"/>
			</defs>
			<clipPath id="SVGID_7_">
				<use xlink:href="#SVGID_6_"  overflow="visible"/>
			</clipPath>
			<polygon clip-path="url(#SVGID_7_)" fill="#56251C" points="4.387,42.932 5.22,44.721 4.387,44.721 			"/>
			<polygon clip-path="url(#SVGID_7_)" fill="#56251C" points="4.387,42.152 5.583,44.721 5.22,44.721 4.387,42.932 			"/>
			<polygon clip-path="url(#SVGID_7_)" fill="#57251C" points="4.387,41.371 5.947,44.721 5.583,44.721 4.387,42.152 			"/>
			<polygon clip-path="url(#SVGID_7_)" fill="#58261C" points="4.387,40.59 6.312,44.721 5.947,44.721 4.387,41.371 			"/>
			<polygon clip-path="url(#SVGID_7_)" fill="#59261C" points="4.387,39.809 6.676,44.721 6.312,44.721 4.387,40.59 			"/>
			<polygon clip-path="url(#SVGID_7_)" fill="#5A271D" points="4.387,39.028 7.04,44.721 6.676,44.721 4.387,39.809 			"/>
			<polygon clip-path="url(#SVGID_7_)" fill="#5B271D" points="4.387,38.246 7.404,44.721 7.04,44.721 4.387,39.028 			"/>
			<polygon clip-path="url(#SVGID_7_)" fill="#5C281D" points="4.387,37.466 7.769,44.721 7.404,44.721 4.387,38.246 			"/>
			<polygon clip-path="url(#SVGID_7_)" fill="#5D281D" points="4.387,36.686 8.133,44.721 7.769,44.721 4.387,37.466 			"/>
			<polygon clip-path="url(#SVGID_7_)" fill="#5E291D" points="4.387,35.902 8.497,44.721 8.133,44.721 4.387,36.686 			"/>
			<polygon clip-path="url(#SVGID_7_)" fill="#5F291D" points="4.387,35.123 8.862,44.721 8.497,44.721 4.387,35.902 			"/>
			<polygon clip-path="url(#SVGID_7_)" fill="#602A1E" points="4.387,34.342 9.226,44.721 8.862,44.721 4.387,35.123 			"/>
			<polygon clip-path="url(#SVGID_7_)" fill="#612A1E" points="4.387,33.561 9.589,44.721 9.226,44.721 4.387,34.342 			"/>
			<polygon clip-path="url(#SVGID_7_)" fill="#622B1E" points="4.387,32.78 9.953,44.721 9.589,44.721 4.387,33.561 			"/>
			<polygon clip-path="url(#SVGID_7_)" fill="#632B1E" points="4.387,31.999 10.318,44.721 9.953,44.721 4.387,32.78 			"/>
			<polygon clip-path="url(#SVGID_7_)" fill="#642C1E" points="4.387,31.218 10.682,44.721 10.318,44.721 4.387,31.999 			"/>
			<polygon clip-path="url(#SVGID_7_)" fill="#652C1E" points="4.387,30.437 11.046,44.721 10.682,44.721 4.387,31.218 			"/>
			<polygon clip-path="url(#SVGID_7_)" fill="#662D1E" points="4.387,29.655 11.412,44.721 11.046,44.721 4.387,30.437 			"/>
			<polygon clip-path="url(#SVGID_7_)" fill="#682D1F" points="4.387,28.875 11.775,44.721 11.412,44.721 4.387,29.655 			"/>
			<polygon clip-path="url(#SVGID_7_)" fill="#692E1F" points="4.387,28.094 12.139,44.721 11.775,44.721 4.387,28.875 			"/>
			<polygon clip-path="url(#SVGID_7_)" fill="#6A2E1F" points="4.387,27.312 12.502,44.721 12.139,44.721 4.387,28.094 			"/>
			<polygon clip-path="url(#SVGID_7_)" fill="#6B2F1F" points="4.387,26.531 12.868,44.721 12.502,44.721 4.387,27.312 			"/>
			<polygon clip-path="url(#SVGID_7_)" fill="#6C2F1F" points="4.387,25.75 13.231,44.721 12.868,44.721 4.387,26.531 			"/>
			<polygon clip-path="url(#SVGID_7_)" fill="#6D301F" points="4.387,24.971 13.595,44.721 13.231,44.721 4.387,25.75 			"/>
			<polygon clip-path="url(#SVGID_7_)" fill="#6E301F" points="4.387,24.189 13.959,44.721 13.595,44.721 4.387,24.971 			"/>
			<polygon clip-path="url(#SVGID_7_)" fill="#6F3120" points="4.732,24.149 14.325,44.721 13.959,44.721 4.387,24.189 
				4.387,24.149 			"/>
			<polygon clip-path="url(#SVGID_7_)" fill="#703120" points="5.095,24.149 14.688,44.721 14.325,44.721 4.732,24.149 			"/>
			<polygon clip-path="url(#SVGID_7_)" fill="#713220" points="5.459,24.149 15.052,44.721 14.688,44.721 5.095,24.149 			"/>
			<polygon clip-path="url(#SVGID_7_)" fill="#723220" points="5.825,24.149 15.416,44.721 15.052,44.721 5.459,24.149 			"/>
			<polygon clip-path="url(#SVGID_7_)" fill="#733320" points="6.188,24.149 15.781,44.721 15.416,44.721 5.825,24.149 			"/>
			<polygon clip-path="url(#SVGID_7_)" fill="#743320" points="6.552,24.149 16.145,44.721 15.781,44.721 6.188,24.149 			"/>
			<polygon clip-path="url(#SVGID_7_)" fill="#753421" points="6.917,24.149 16.508,44.721 16.145,44.721 6.552,24.149 			"/>
			<polygon clip-path="url(#SVGID_7_)" fill="#763421" points="7.281,24.149 16.874,44.721 16.508,44.721 6.917,24.149 			"/>
			<polygon clip-path="url(#SVGID_7_)" fill="#773521" points="7.645,24.149 17.238,44.721 16.874,44.721 7.281,24.149 			"/>
			<polygon clip-path="url(#SVGID_7_)" fill="#783521" points="8.008,24.149 17.601,44.721 17.238,44.721 7.645,24.149 			"/>
			<polygon clip-path="url(#SVGID_7_)" fill="#783521" points="8.335,24.149 17.928,44.721 17.601,44.721 8.008,24.149 			"/>
			<polygon clip-path="url(#SVGID_7_)" fill="#793521" points="8.662,24.149 18.255,44.721 17.928,44.721 8.335,24.149 			"/>
			<polygon clip-path="url(#SVGID_7_)" fill="#7A3621" points="8.988,24.149 18.581,44.721 18.255,44.721 8.662,24.149 			"/>
			<polygon clip-path="url(#SVGID_7_)" fill="#7B3622" points="9.315,24.149 18.907,44.721 18.581,44.721 8.988,24.149 			"/>
			<polygon clip-path="url(#SVGID_7_)" fill="#7C3722" points="9.641,24.149 19.233,44.721 18.907,44.721 9.315,24.149 			"/>
			<polygon clip-path="url(#SVGID_7_)" fill="#7D3722" points="9.968,24.149 19.561,44.721 19.233,44.721 9.641,24.149 			"/>
			<polygon clip-path="url(#SVGID_7_)" fill="#7E3822" points="10.294,24.149 19.886,44.721 19.561,44.721 9.968,24.149 			"/>
			<polygon clip-path="url(#SVGID_7_)" fill="#7F3822" points="10.619,24.149 20.212,44.721 19.886,44.721 10.294,24.149 			"/>
			<polygon clip-path="url(#SVGID_7_)" fill="#803922" points="10.946,24.149 20.538,44.721 20.212,44.721 10.619,24.149 			"/>
			<polygon clip-path="url(#SVGID_7_)" fill="#813923" points="11.272,24.149 20.865,44.721 20.538,44.721 10.946,24.149 			"/>
			<polygon clip-path="url(#SVGID_7_)" fill="#823A23" points="11.599,24.149 21.191,44.721 20.865,44.721 11.272,24.149 			"/>
			<polygon clip-path="url(#SVGID_7_)" fill="#833A23" points="11.925,24.149 21.519,44.721 21.191,44.721 11.599,24.149 			"/>
			<polygon clip-path="url(#SVGID_7_)" fill="#843B23" points="12.252,24.149 21.845,44.721 21.519,44.721 11.925,24.149 			"/>
			<polygon clip-path="url(#SVGID_7_)" fill="#853B23" points="12.579,24.149 22.171,44.721 21.845,44.721 12.252,24.149 			"/>
			<polygon clip-path="url(#SVGID_7_)" fill="#863C23" points="12.905,24.149 22.496,44.721 22.171,44.721 12.579,24.149 			"/>
			<polygon clip-path="url(#SVGID_7_)" fill="#873C24" points="13.231,24.149 22.823,44.721 22.496,44.721 12.905,24.149 			"/>
			<polygon clip-path="url(#SVGID_7_)" fill="#883D24" points="13.556,24.149 23.149,44.721 22.823,44.721 13.231,24.149 			"/>
			<polygon clip-path="url(#SVGID_7_)" fill="#893D24" points="13.883,24.149 23.476,44.721 23.149,44.721 13.556,24.149 			"/>
			<polygon clip-path="url(#SVGID_7_)" fill="#8A3E24" points="14.209,24.149 23.802,44.721 23.476,44.721 13.883,24.149 			"/>
			<polygon clip-path="url(#SVGID_7_)" fill="#8B3E24" points="14.536,24.149 24.001,44.444 24.001,44.721 23.802,44.721 
				14.209,24.149 			"/>
			<polygon clip-path="url(#SVGID_7_)" fill="#8C3F24" points="14.863,24.149 24.001,43.745 24.001,44.444 14.536,24.149 			"/>
			<polygon clip-path="url(#SVGID_7_)" fill="#8D3F25" points="15.189,24.149 24.001,43.045 24.001,43.745 14.863,24.149 			"/>
			<polygon clip-path="url(#SVGID_7_)" fill="#8E4025" points="15.516,24.149 24.001,42.346 24.001,43.045 15.189,24.149 			"/>
			<polygon clip-path="url(#SVGID_7_)" fill="#8F4025" points="15.842,24.149 24.001,41.646 24.001,42.346 15.516,24.149 			"/>
			<polygon clip-path="url(#SVGID_7_)" fill="#914125" points="16.167,24.149 24.001,40.945 24.001,41.646 15.842,24.149 			"/>
			<polygon clip-path="url(#SVGID_7_)" fill="#924125" points="16.494,24.149 24.001,40.246 24.001,40.945 16.167,24.149 			"/>
			<polygon clip-path="url(#SVGID_7_)" fill="#934125" points="16.82,24.149 24.001,39.545 24.001,40.246 16.494,24.149 			"/>
			<polygon clip-path="url(#SVGID_7_)" fill="#944226" points="17.146,24.149 24.001,38.846 24.001,39.545 16.82,24.149 			"/>
			<polygon clip-path="url(#SVGID_7_)" fill="#954226" points="17.473,24.149 24.001,38.146 24.001,38.846 17.146,24.149 			"/>
			<polygon clip-path="url(#SVGID_7_)" fill="#964326" points="17.8,24.149 24.001,37.445 24.001,38.146 17.473,24.149 			"/>
			<polygon clip-path="url(#SVGID_7_)" fill="#974326" points="18.126,24.149 24.001,36.746 24.001,37.445 17.8,24.149 			"/>
			<polygon clip-path="url(#SVGID_7_)" fill="#984426" points="18.453,24.149 24.001,36.047 24.001,36.746 18.126,24.149 			"/>
			<polygon clip-path="url(#SVGID_7_)" fill="#994426" points="18.778,24.149 24.001,35.348 24.001,36.047 18.453,24.149 			"/>
			<polygon clip-path="url(#SVGID_7_)" fill="#9A4527" points="19.106,24.149 24.001,34.646 24.001,35.348 18.778,24.149 			"/>
			<polygon clip-path="url(#SVGID_7_)" fill="#9B4527" points="19.431,24.149 24.001,33.947 24.001,34.646 19.106,24.149 			"/>
			<polygon clip-path="url(#SVGID_7_)" fill="#9C4627" points="19.757,24.149 24.001,33.246 24.001,33.947 19.431,24.149 			"/>
			<polygon clip-path="url(#SVGID_7_)" fill="#9D4627" points="20.084,24.149 24.001,32.547 24.001,33.246 19.757,24.149 			"/>
			<polygon clip-path="url(#SVGID_7_)" fill="#9E4727" points="20.411,24.149 24.001,31.848 24.001,32.547 20.084,24.149 			"/>
			<polygon clip-path="url(#SVGID_7_)" fill="#9F4727" points="20.737,24.149 24.001,31.147 24.001,31.848 20.411,24.149 			"/>
			<polygon clip-path="url(#SVGID_7_)" fill="#A04828" points="21.063,24.149 24.001,30.447 24.001,31.147 20.737,24.149 			"/>
			<polygon clip-path="url(#SVGID_7_)" fill="#A14828" points="21.39,24.149 24.001,29.747 24.001,30.447 21.063,24.149 			"/>
			<polygon clip-path="url(#SVGID_7_)" fill="#A24928" points="21.717,24.149 24.001,29.048 24.001,29.747 21.39,24.149 			"/>
			<polygon clip-path="url(#SVGID_7_)" fill="#A34928" points="22.042,24.149 24.001,28.348 24.001,29.048 21.717,24.149 			"/>
			<polygon clip-path="url(#SVGID_7_)" fill="#A44A28" points="22.368,24.149 24.001,27.648 24.001,28.348 22.042,24.149 			"/>
			<polygon clip-path="url(#SVGID_7_)" fill="#A54A28" points="22.694,24.149 24.001,26.948 24.001,27.648 22.368,24.149 			"/>
			<polygon clip-path="url(#SVGID_7_)" fill="#A64B29" points="23.021,24.149 24.001,26.249 24.001,26.948 22.694,24.149 			"/>
			<polygon clip-path="url(#SVGID_7_)" fill="#A74B29" points="23.348,24.149 24.001,25.549 24.001,26.249 23.021,24.149 			"/>
			<polygon clip-path="url(#SVGID_7_)" fill="#A84C29" points="23.675,24.149 24.001,24.849 24.001,25.549 23.348,24.149 			"/>
			<polygon clip-path="url(#SVGID_7_)" fill="#A94C29" points="24.001,24.849 23.675,24.149 24.001,24.149 			"/>
		</g>
	</g>
</g>
<g>
	<g>
		<g>
			<defs>
				<path id="SVGID_8_" d="M23.828,44.721c0,0,12.556,0,17.332,0c1.976,0,2.282-1.985,2.282-1.985V24.149H23.828V44.721z"/>
			</defs>
			<clipPath id="SVGID_9_">
				<use xlink:href="#SVGID_8_"  overflow="visible"/>
			</clipPath>
			<polygon clip-path="url(#SVGID_9_)" fill="#56251C" points="42.609,44.721 43.442,42.932 43.442,44.721 			"/>
			<polygon clip-path="url(#SVGID_9_)" fill="#56251C" points="42.245,44.721 43.442,42.15 43.442,42.932 42.609,44.721 			"/>
			<polygon clip-path="url(#SVGID_9_)" fill="#57251C" points="41.882,44.721 43.442,41.371 43.442,42.15 42.245,44.721 			"/>
			<polygon clip-path="url(#SVGID_9_)" fill="#58261C" points="41.517,44.721 43.442,40.589 43.442,41.371 41.882,44.721 			"/>
			<polygon clip-path="url(#SVGID_9_)" fill="#59261C" points="41.153,44.721 43.442,39.809 43.442,40.589 41.517,44.721 			"/>
			<polygon clip-path="url(#SVGID_9_)" fill="#5A271D" points="40.789,44.721 43.442,39.027 43.442,39.809 41.153,44.721 			"/>
			<polygon clip-path="url(#SVGID_9_)" fill="#5B271D" points="40.423,44.721 43.442,38.246 43.442,39.027 40.789,44.721 			"/>
			<polygon clip-path="url(#SVGID_9_)" fill="#5C281D" points="40.06,44.721 43.442,37.465 43.442,38.246 40.423,44.721 			"/>
			<polygon clip-path="url(#SVGID_9_)" fill="#5D281D" points="39.696,44.721 43.442,36.686 43.442,37.465 40.06,44.721 			"/>
			<polygon clip-path="url(#SVGID_9_)" fill="#5E291D" points="39.331,44.721 43.442,35.902 43.442,36.686 39.696,44.721 			"/>
			<polygon clip-path="url(#SVGID_9_)" fill="#5F291D" points="38.967,44.721 43.442,35.121 43.442,35.902 39.331,44.721 			"/>
			<polygon clip-path="url(#SVGID_9_)" fill="#602A1E" points="38.604,44.721 43.442,34.342 43.442,35.121 38.967,44.721 			"/>
			<polygon clip-path="url(#SVGID_9_)" fill="#612A1E" points="38.239,44.721 43.442,33.561 43.442,34.342 38.604,44.721 			"/>
			<polygon clip-path="url(#SVGID_9_)" fill="#622B1E" points="37.876,44.721 43.442,32.78 43.442,33.561 38.239,44.721 			"/>
			<polygon clip-path="url(#SVGID_9_)" fill="#632B1E" points="37.511,44.721 43.442,31.998 43.442,32.78 37.876,44.721 			"/>
			<polygon clip-path="url(#SVGID_9_)" fill="#642C1E" points="37.147,44.721 43.442,31.218 43.442,31.998 37.511,44.721 			"/>
			<polygon clip-path="url(#SVGID_9_)" fill="#652C1E" points="36.783,44.721 43.442,30.437 43.442,31.218 37.147,44.721 			"/>
			<polygon clip-path="url(#SVGID_9_)" fill="#662D1E" points="36.417,44.721 43.442,29.655 43.442,30.437 36.783,44.721 			"/>
			<polygon clip-path="url(#SVGID_9_)" fill="#682D1F" points="36.054,44.721 43.442,28.875 43.442,29.655 36.417,44.721 			"/>
			<polygon clip-path="url(#SVGID_9_)" fill="#692E1F" points="35.69,44.721 43.442,28.094 43.442,28.875 36.054,44.721 			"/>
			<polygon clip-path="url(#SVGID_9_)" fill="#6A2E1F" points="35.325,44.721 43.442,27.312 43.442,28.094 35.69,44.721 			"/>
			<polygon clip-path="url(#SVGID_9_)" fill="#6B2F1F" points="34.961,44.721 43.442,26.531 43.442,27.312 35.325,44.721 			"/>
			<polygon clip-path="url(#SVGID_9_)" fill="#6C2F1F" points="34.597,44.721 43.442,25.75 43.442,26.531 34.961,44.721 			"/>
			<polygon clip-path="url(#SVGID_9_)" fill="#6D301F" points="34.233,44.721 43.442,24.969 43.442,25.75 34.597,44.721 			"/>
			<polygon clip-path="url(#SVGID_9_)" fill="#6E301F" points="33.868,44.721 43.442,24.188 43.442,24.969 34.233,44.721 			"/>
			<polygon clip-path="url(#SVGID_9_)" fill="#6F3120" points="33.505,44.721 43.097,24.149 43.442,24.149 43.442,24.188 
				33.868,44.721 			"/>
			<polygon clip-path="url(#SVGID_9_)" fill="#703120" points="33.141,44.721 42.731,24.149 43.097,24.149 33.505,44.721 			"/>
			<polygon clip-path="url(#SVGID_9_)" fill="#713220" points="32.775,44.721 42.368,24.149 42.731,24.149 33.141,44.721 			"/>
			<polygon clip-path="url(#SVGID_9_)" fill="#723220" points="32.411,44.721 42.005,24.149 42.368,24.149 32.775,44.721 			"/>
			<polygon clip-path="url(#SVGID_9_)" fill="#733320" points="32.048,44.721 41.641,24.149 42.005,24.149 32.411,44.721 			"/>
			<polygon clip-path="url(#SVGID_9_)" fill="#743320" points="31.685,44.721 41.275,24.149 41.641,24.149 32.048,44.721 			"/>
			<polygon clip-path="url(#SVGID_9_)" fill="#753421" points="31.321,44.721 40.911,24.149 41.275,24.149 31.685,44.721 			"/>
			<polygon clip-path="url(#SVGID_9_)" fill="#763421" points="30.955,44.721 40.548,24.149 40.911,24.149 31.321,44.721 			"/>
			<polygon clip-path="url(#SVGID_9_)" fill="#773521" points="30.591,44.721 40.185,24.149 40.548,24.149 30.955,44.721 			"/>
			<polygon clip-path="url(#SVGID_9_)" fill="#783521" points="30.228,44.721 39.819,24.149 40.185,24.149 30.591,44.721 			"/>
			<polygon clip-path="url(#SVGID_9_)" fill="#783521" points="29.901,44.721 39.492,24.149 39.819,24.149 30.228,44.721 			"/>
			<polygon clip-path="url(#SVGID_9_)" fill="#793521" points="29.575,44.721 39.167,24.149 39.492,24.149 29.901,44.721 			"/>
			<polygon clip-path="url(#SVGID_9_)" fill="#7A3621" points="29.248,44.721 38.841,24.149 39.167,24.149 29.575,44.721 			"/>
			<polygon clip-path="url(#SVGID_9_)" fill="#7B3622" points="28.921,44.721 38.515,24.149 38.841,24.149 29.248,44.721 			"/>
			<polygon clip-path="url(#SVGID_9_)" fill="#7C3722" points="28.595,44.721 38.188,24.149 38.515,24.149 28.921,44.721 			"/>
			<polygon clip-path="url(#SVGID_9_)" fill="#7D3722" points="28.269,44.721 37.861,24.149 38.188,24.149 28.595,44.721 			"/>
			<polygon clip-path="url(#SVGID_9_)" fill="#7E3822" points="27.942,44.721 37.536,24.149 37.861,24.149 28.269,44.721 			"/>
			<polygon clip-path="url(#SVGID_9_)" fill="#7F3822" points="27.617,44.721 37.208,24.149 37.536,24.149 27.942,44.721 			"/>
			<polygon clip-path="url(#SVGID_9_)" fill="#803922" points="27.29,44.721 36.882,24.149 37.208,24.149 27.617,44.721 			"/>
			<polygon clip-path="url(#SVGID_9_)" fill="#813923" points="26.964,44.721 36.555,24.149 36.882,24.149 27.29,44.721 			"/>
			<polygon clip-path="url(#SVGID_9_)" fill="#823A23" points="26.638,44.721 36.229,24.149 36.555,24.149 26.964,44.721 			"/>
			<polygon clip-path="url(#SVGID_9_)" fill="#833A23" points="26.312,44.721 35.903,24.149 36.229,24.149 26.638,44.721 			"/>
			<polygon clip-path="url(#SVGID_9_)" fill="#843B23" points="25.984,44.721 35.577,24.149 35.903,24.149 26.312,44.721 			"/>
			<polygon clip-path="url(#SVGID_9_)" fill="#853B23" points="25.657,44.721 35.251,24.149 35.577,24.149 25.984,44.721 			"/>
			<polygon clip-path="url(#SVGID_9_)" fill="#863C23" points="25.331,44.721 34.924,24.149 35.251,24.149 25.657,44.721 			"/>
			<polygon clip-path="url(#SVGID_9_)" fill="#873C24" points="25.007,44.721 34.597,24.149 34.924,24.149 25.331,44.721 			"/>
			<polygon clip-path="url(#SVGID_9_)" fill="#883D24" points="24.68,44.721 34.272,24.149 34.597,24.149 25.007,44.721 			"/>
			<polygon clip-path="url(#SVGID_9_)" fill="#893D24" points="24.354,44.721 33.946,24.149 34.272,24.149 24.68,44.721 			"/>
			<polygon clip-path="url(#SVGID_9_)" fill="#8A3E24" points="24.026,44.721 33.62,24.149 33.946,24.149 24.354,44.721 			"/>
			<polygon clip-path="url(#SVGID_9_)" fill="#8B3E24" points="23.828,44.444 33.293,24.149 33.62,24.149 24.026,44.721 
				23.828,44.721 			"/>
			<polygon clip-path="url(#SVGID_9_)" fill="#8C3F24" points="23.828,43.744 32.966,24.149 33.293,24.149 23.828,44.444 			"/>
			<polygon clip-path="url(#SVGID_9_)" fill="#8D3F25" points="23.828,43.045 32.64,24.149 32.966,24.149 23.828,43.744 			"/>
			<polygon clip-path="url(#SVGID_9_)" fill="#8E4025" points="23.828,42.346 32.313,24.149 32.64,24.149 23.828,43.045 			"/>
			<polygon clip-path="url(#SVGID_9_)" fill="#8F4025" points="23.828,41.646 31.987,24.149 32.313,24.149 23.828,42.346 			"/>
			<polygon clip-path="url(#SVGID_9_)" fill="#914125" points="23.828,40.945 31.66,24.149 31.987,24.149 23.828,41.646 			"/>
			<polygon clip-path="url(#SVGID_9_)" fill="#924125" points="23.828,40.246 31.333,24.149 31.66,24.149 23.828,40.945 			"/>
			<polygon clip-path="url(#SVGID_9_)" fill="#934125" points="23.828,39.545 31.007,24.149 31.333,24.149 23.828,40.246 			"/>
			<polygon clip-path="url(#SVGID_9_)" fill="#944226" points="23.828,38.846 30.683,24.149 31.007,24.149 23.828,39.545 			"/>
			<polygon clip-path="url(#SVGID_9_)" fill="#954226" points="23.828,38.145 30.356,24.149 30.683,24.149 23.828,38.846 			"/>
			<polygon clip-path="url(#SVGID_9_)" fill="#964326" points="23.828,37.445 30.029,24.149 30.356,24.149 23.828,38.145 			"/>
			<polygon clip-path="url(#SVGID_9_)" fill="#974326" points="23.828,36.746 29.702,24.149 30.029,24.149 23.828,37.445 			"/>
			<polygon clip-path="url(#SVGID_9_)" fill="#984426" points="23.828,36.046 29.376,24.149 29.702,24.149 23.828,36.746 			"/>
			<polygon clip-path="url(#SVGID_9_)" fill="#994426" points="23.828,35.346 29.05,24.149 29.376,24.149 23.828,36.046 			"/>
			<polygon clip-path="url(#SVGID_9_)" fill="#9A4527" points="23.828,34.646 28.724,24.149 29.05,24.149 23.828,35.346 			"/>
			<polygon clip-path="url(#SVGID_9_)" fill="#9B4527" points="23.828,33.947 28.398,24.149 28.724,24.149 23.828,34.646 			"/>
			<polygon clip-path="url(#SVGID_9_)" fill="#9C4627" points="23.828,33.246 28.069,24.149 28.398,24.149 23.828,33.947 			"/>
			<polygon clip-path="url(#SVGID_9_)" fill="#9D4627" points="23.828,32.547 27.743,24.149 28.069,24.149 23.828,33.246 			"/>
			<polygon clip-path="url(#SVGID_9_)" fill="#9E4727" points="23.828,31.847 27.419,24.149 27.743,24.149 23.828,32.547 			"/>
			<polygon clip-path="url(#SVGID_9_)" fill="#9F4727" points="23.828,31.147 27.092,24.149 27.419,24.149 23.828,31.847 			"/>
			<polygon clip-path="url(#SVGID_9_)" fill="#A04828" points="23.828,30.447 26.766,24.149 27.092,24.149 23.828,31.147 			"/>
			<polygon clip-path="url(#SVGID_9_)" fill="#A14828" points="23.828,29.747 26.438,24.149 26.766,24.149 23.828,30.447 			"/>
			<polygon clip-path="url(#SVGID_9_)" fill="#A24928" points="23.828,29.048 26.112,24.149 26.438,24.149 23.828,29.747 			"/>
			<polygon clip-path="url(#SVGID_9_)" fill="#A34928" points="23.828,28.348 25.786,24.149 26.112,24.149 23.828,29.048 			"/>
			<polygon clip-path="url(#SVGID_9_)" fill="#A44A28" points="23.828,27.648 25.459,24.149 25.786,24.149 23.828,28.348 			"/>
			<polygon clip-path="url(#SVGID_9_)" fill="#A54A28" points="23.828,26.948 25.134,24.149 25.459,24.149 23.828,27.648 			"/>
			<polygon clip-path="url(#SVGID_9_)" fill="#A64B29" points="23.828,26.248 24.808,24.149 25.134,24.149 23.828,26.948 			"/>
			<polygon clip-path="url(#SVGID_9_)" fill="#A74B29" points="23.828,25.549 24.481,24.149 24.808,24.149 23.828,26.248 			"/>
			<polygon clip-path="url(#SVGID_9_)" fill="#A84C29" points="23.828,24.849 24.155,24.149 24.481,24.149 23.828,25.549 			"/>
			<polygon clip-path="url(#SVGID_9_)" fill="#A94C29" points="24.155,24.149 23.828,24.849 23.828,24.149 			"/>
		</g>
	</g>
</g>
<g>
	<g>
		<g>
			<defs>
				<path id="SVGID_10_" d="M35.907,5.952l7.595,6.902v13.77l0,0c-10.831,10.831-28.361,10.831-39.191,0v-13.77l7.594-6.902"/>
			</defs>
			<clipPath id="SVGID_11_">
				<use xlink:href="#SVGID_10_"  overflow="visible"/>
			</clipPath>
			<rect x="4.311" y="5.952" clip-path="url(#SVGID_11_)" fill="#7F2213" width="39.191" height="0.259"/>
			<rect x="4.311" y="6.211" clip-path="url(#SVGID_11_)" fill="#802314" width="39.191" height="0.259"/>
			<rect x="4.311" y="6.47" clip-path="url(#SVGID_11_)" fill="#812414" width="39.191" height="0.259"/>
			<rect x="4.311" y="6.729" clip-path="url(#SVGID_11_)" fill="#822515" width="39.191" height="0.259"/>
			<rect x="4.311" y="6.987" clip-path="url(#SVGID_11_)" fill="#832615" width="39.191" height="0.26"/>
			<rect x="4.311" y="7.247" clip-path="url(#SVGID_11_)" fill="#842716" width="39.191" height="0.259"/>
			<rect x="4.311" y="7.506" clip-path="url(#SVGID_11_)" fill="#852816" width="39.191" height="0.259"/>
			<rect x="4.311" y="7.765" clip-path="url(#SVGID_11_)" fill="#862917" width="39.191" height="0.259"/>
			<rect x="4.311" y="8.023" clip-path="url(#SVGID_11_)" fill="#872A17" width="39.191" height="0.26"/>
			<rect x="4.311" y="8.283" clip-path="url(#SVGID_11_)" fill="#882B18" width="39.191" height="0.259"/>
			<rect x="4.311" y="8.542" clip-path="url(#SVGID_11_)" fill="#892C19" width="39.191" height="0.259"/>
			<rect x="4.311" y="8.801" clip-path="url(#SVGID_11_)" fill="#8A2D19" width="39.191" height="0.259"/>
			<rect x="4.311" y="9.06" clip-path="url(#SVGID_11_)" fill="#8B2E1A" width="39.191" height="0.26"/>
			<rect x="4.311" y="9.319" clip-path="url(#SVGID_11_)" fill="#8C2F1A" width="39.191" height="0.259"/>
			<rect x="4.311" y="9.579" clip-path="url(#SVGID_11_)" fill="#8E311B" width="39.191" height="0.259"/>
			<rect x="4.311" y="9.837" clip-path="url(#SVGID_11_)" fill="#8F321B" width="39.191" height="0.259"/>
			<rect x="4.311" y="10.096" clip-path="url(#SVGID_11_)" fill="#90331C" width="39.191" height="0.259"/>
			<rect x="4.311" y="10.355" clip-path="url(#SVGID_11_)" fill="#91341C" width="39.191" height="0.26"/>
			<rect x="4.311" y="10.615" clip-path="url(#SVGID_11_)" fill="#92351D" width="39.191" height="0.259"/>
			<rect x="4.311" y="10.874" clip-path="url(#SVGID_11_)" fill="#93361E" width="39.191" height="0.259"/>
			<rect x="4.311" y="11.132" clip-path="url(#SVGID_11_)" fill="#94371E" width="39.191" height="0.259"/>
			<rect x="4.311" y="11.391" clip-path="url(#SVGID_11_)" fill="#95381F" width="39.191" height="0.26"/>
			<rect x="4.311" y="11.651" clip-path="url(#SVGID_11_)" fill="#96391F" width="39.191" height="0.258"/>
			<rect x="4.311" y="11.909" clip-path="url(#SVGID_11_)" fill="#973A20" width="39.191" height="0.26"/>
			<rect x="4.311" y="12.168" clip-path="url(#SVGID_11_)" fill="#983B20" width="39.191" height="0.26"/>
			<rect x="4.311" y="12.428" clip-path="url(#SVGID_11_)" fill="#993C21" width="39.191" height="0.258"/>
			<rect x="4.311" y="12.687" clip-path="url(#SVGID_11_)" fill="#9A3D21" width="39.191" height="0.26"/>
			<rect x="4.311" y="12.946" clip-path="url(#SVGID_11_)" fill="#9B3E22" width="39.191" height="0.259"/>
			<rect x="4.311" y="13.205" clip-path="url(#SVGID_11_)" fill="#9B3E22" width="39.191" height="0.353"/>
			<rect x="4.311" y="13.558" clip-path="url(#SVGID_11_)" fill="#9C3F23" width="39.191" height="0.353"/>
			<rect x="4.311" y="13.91" clip-path="url(#SVGID_11_)" fill="#9D4023" width="39.191" height="0.353"/>
			<rect x="4.311" y="14.263" clip-path="url(#SVGID_11_)" fill="#9E4124" width="39.191" height="0.353"/>
			<rect x="4.311" y="14.615" clip-path="url(#SVGID_11_)" fill="#9F4224" width="39.191" height="0.353"/>
			<rect x="4.311" y="14.968" clip-path="url(#SVGID_11_)" fill="#A04325" width="39.191" height="0.353"/>
			<rect x="4.311" y="15.32" clip-path="url(#SVGID_11_)" fill="#A14425" width="39.191" height="0.353"/>
			<rect x="4.311" y="15.673" clip-path="url(#SVGID_11_)" fill="#A34626" width="39.191" height="0.353"/>
			<rect x="4.311" y="16.025" clip-path="url(#SVGID_11_)" fill="#A44726" width="39.191" height="0.353"/>
			<rect x="4.311" y="16.378" clip-path="url(#SVGID_11_)" fill="#A54827" width="39.191" height="0.353"/>
			<rect x="4.311" y="16.73" clip-path="url(#SVGID_11_)" fill="#A64927" width="39.191" height="0.353"/>
			<rect x="4.311" y="17.083" clip-path="url(#SVGID_11_)" fill="#A74A28" width="39.191" height="0.353"/>
			<rect x="4.311" y="17.436" clip-path="url(#SVGID_11_)" fill="#A84B28" width="39.191" height="0.353"/>
			<rect x="4.311" y="17.788" clip-path="url(#SVGID_11_)" fill="#A94C29" width="39.191" height="0.353"/>
			<rect x="4.311" y="18.141" clip-path="url(#SVGID_11_)" fill="#A94C29" width="39.191" height="14.152"/>
			<rect x="4.311" y="32.293" clip-path="url(#SVGID_11_)" fill="#A94C29" width="39.191" height="1.393"/>
			<rect x="4.311" y="33.686" clip-path="url(#SVGID_11_)" fill="#A94C29" width="39.191" height="3.769"/>
		</g>
	</g>
</g>
<g opacity="0.57">
	<g>
		<g>
			<defs>
				<path id="SVGID_12_" d="M35.907,5.952l7.595,6.902c0,0,0,10.326,0,13.77l0,0c-10.831,10.831-28.361,10.831-39.191,0v-13.77
					l7.594-6.902"/>
			</defs>
			<clipPath id="SVGID_13_">
				<use xlink:href="#SVGID_12_"  overflow="visible"/>
			</clipPath>
			<rect x="4.311" y="5.952" clip-path="url(#SVGID_13_)" fill="#7F2213" width="39.191" height="0.259"/>
			<rect x="4.311" y="6.211" clip-path="url(#SVGID_13_)" fill="#802314" width="39.191" height="0.259"/>
			<rect x="4.311" y="6.47" clip-path="url(#SVGID_13_)" fill="#812414" width="39.191" height="0.259"/>
			<rect x="4.311" y="6.729" clip-path="url(#SVGID_13_)" fill="#822515" width="39.191" height="0.259"/>
			<rect x="4.311" y="6.987" clip-path="url(#SVGID_13_)" fill="#832615" width="39.191" height="0.26"/>
			<rect x="4.311" y="7.247" clip-path="url(#SVGID_13_)" fill="#842716" width="39.191" height="0.259"/>
			<rect x="4.311" y="7.506" clip-path="url(#SVGID_13_)" fill="#852816" width="39.191" height="0.259"/>
			<rect x="4.311" y="7.765" clip-path="url(#SVGID_13_)" fill="#862917" width="39.191" height="0.259"/>
			<rect x="4.311" y="8.023" clip-path="url(#SVGID_13_)" fill="#872A17" width="39.191" height="0.26"/>
			<rect x="4.311" y="8.283" clip-path="url(#SVGID_13_)" fill="#882B18" width="39.191" height="0.259"/>
			<rect x="4.311" y="8.542" clip-path="url(#SVGID_13_)" fill="#892C19" width="39.191" height="0.259"/>
			<rect x="4.311" y="8.801" clip-path="url(#SVGID_13_)" fill="#8A2D19" width="39.191" height="0.259"/>
			<rect x="4.311" y="9.06" clip-path="url(#SVGID_13_)" fill="#8B2E1A" width="39.191" height="0.26"/>
			<rect x="4.311" y="9.319" clip-path="url(#SVGID_13_)" fill="#8C2F1A" width="39.191" height="0.259"/>
			<rect x="4.311" y="9.579" clip-path="url(#SVGID_13_)" fill="#8E311B" width="39.191" height="0.259"/>
			<rect x="4.311" y="9.837" clip-path="url(#SVGID_13_)" fill="#8F321B" width="39.191" height="0.259"/>
			<rect x="4.311" y="10.096" clip-path="url(#SVGID_13_)" fill="#90331C" width="39.191" height="0.259"/>
			<rect x="4.311" y="10.355" clip-path="url(#SVGID_13_)" fill="#91341C" width="39.191" height="0.26"/>
			<rect x="4.311" y="10.615" clip-path="url(#SVGID_13_)" fill="#92351D" width="39.191" height="0.259"/>
			<rect x="4.311" y="10.874" clip-path="url(#SVGID_13_)" fill="#93361E" width="39.191" height="0.259"/>
			<rect x="4.311" y="11.132" clip-path="url(#SVGID_13_)" fill="#94371E" width="39.191" height="0.259"/>
			<rect x="4.311" y="11.391" clip-path="url(#SVGID_13_)" fill="#95381F" width="39.191" height="0.26"/>
			<rect x="4.311" y="11.651" clip-path="url(#SVGID_13_)" fill="#96391F" width="39.191" height="0.258"/>
			<rect x="4.311" y="11.909" clip-path="url(#SVGID_13_)" fill="#973A20" width="39.191" height="0.26"/>
			<rect x="4.311" y="12.168" clip-path="url(#SVGID_13_)" fill="#983B20" width="39.191" height="0.26"/>
			<rect x="4.311" y="12.428" clip-path="url(#SVGID_13_)" fill="#993C21" width="39.191" height="0.258"/>
			<rect x="4.311" y="12.687" clip-path="url(#SVGID_13_)" fill="#9A3D21" width="39.191" height="0.26"/>
			<rect x="4.311" y="12.946" clip-path="url(#SVGID_13_)" fill="#9B3E22" width="39.191" height="0.259"/>
			<rect x="4.311" y="13.205" clip-path="url(#SVGID_13_)" fill="#9B3E22" width="39.191" height="0.353"/>
			<rect x="4.311" y="13.558" clip-path="url(#SVGID_13_)" fill="#9C3F23" width="39.191" height="0.353"/>
			<rect x="4.311" y="13.91" clip-path="url(#SVGID_13_)" fill="#9D4023" width="39.191" height="0.353"/>
			<rect x="4.311" y="14.263" clip-path="url(#SVGID_13_)" fill="#9E4124" width="39.191" height="0.353"/>
			<rect x="4.311" y="14.615" clip-path="url(#SVGID_13_)" fill="#9F4224" width="39.191" height="0.353"/>
			<rect x="4.311" y="14.968" clip-path="url(#SVGID_13_)" fill="#A04325" width="39.191" height="0.353"/>
			<rect x="4.311" y="15.32" clip-path="url(#SVGID_13_)" fill="#A14425" width="39.191" height="0.353"/>
			<rect x="4.311" y="15.673" clip-path="url(#SVGID_13_)" fill="#A34626" width="39.191" height="0.353"/>
			<rect x="4.311" y="16.025" clip-path="url(#SVGID_13_)" fill="#A44726" width="39.191" height="0.353"/>
			<rect x="4.311" y="16.378" clip-path="url(#SVGID_13_)" fill="#A54827" width="39.191" height="0.353"/>
			<rect x="4.311" y="16.73" clip-path="url(#SVGID_13_)" fill="#A64927" width="39.191" height="0.353"/>
			<rect x="4.311" y="17.083" clip-path="url(#SVGID_13_)" fill="#A74A28" width="39.191" height="0.353"/>
			<rect x="4.311" y="17.436" clip-path="url(#SVGID_13_)" fill="#A84B28" width="39.191" height="0.353"/>
			<rect x="4.311" y="17.788" clip-path="url(#SVGID_13_)" fill="#A94C29" width="39.191" height="0.353"/>
			<rect x="4.311" y="18.141" clip-path="url(#SVGID_13_)" fill="#A94C29" width="39.191" height="14.152"/>
			<rect x="4.311" y="32.293" clip-path="url(#SVGID_13_)" fill="#A94C29" width="39.191" height="1.393"/>
			<rect x="4.311" y="33.686" clip-path="url(#SVGID_13_)" fill="#A94C29" width="39.191" height="3.769"/>
		</g>
	</g>
	<g opacity="0.67" enable-background="new    ">
		<path fill="#7F2213" d="M23.906,34.955c-7.454,0-14.465-2.907-19.744-8.186l-0.061-0.061V12.761l7.663-6.964l0.282,0.31
			L4.52,12.946v13.589c5.192,5.16,12.072,8.001,19.386,8.001c7.312,0,14.194-2.841,19.388-8.001V12.946l-7.527-6.839l0.281-0.31
			l7.666,6.964v13.948l-0.062,0.061C38.372,32.048,31.361,34.955,23.906,34.955z"/>
	</g>
</g>
<g opacity="0.71">
	<g opacity="0.71" enable-background="new    ">
		<path fill="#ECCBA1" d="M23.906,33.741c-0.108,0-0.218-0.001-0.327-0.002l0.004-0.314c0.416,0.005,0.834,0,1.251-0.015
			l0.011,0.314C24.531,33.736,24.216,33.741,23.906,33.741z M23.158,33.73c-0.419-0.012-0.845-0.033-1.262-0.065l0.024-0.313
			c0.412,0.031,0.831,0.053,1.246,0.064L23.158,33.73z M25.267,33.706l-0.018-0.313c0.414-0.021,0.834-0.053,1.246-0.093
			l0.031,0.312C26.108,33.652,25.684,33.685,25.267,33.706z M21.476,33.63c-0.418-0.038-0.839-0.087-1.254-0.146l0.042-0.311
			c0.41,0.057,0.829,0.105,1.241,0.144L21.476,33.63z M26.945,33.566l-0.035-0.312c0.41-0.048,0.825-0.104,1.235-0.173l0.053,0.311
			C27.782,33.461,27.36,33.52,26.945,33.566z M19.804,33.423c-0.414-0.065-0.833-0.14-1.243-0.225l0.063-0.308
			c0.406,0.084,0.82,0.158,1.229,0.222L19.804,33.423z M28.612,33.32l-0.055-0.309c0.406-0.073,0.818-0.157,1.223-0.25l0.07,0.307
			C29.44,33.161,29.025,33.246,28.612,33.32z M18.148,33.11c-0.41-0.092-0.822-0.192-1.228-0.304l0.083-0.303
			c0.401,0.109,0.809,0.209,1.214,0.299L18.148,33.11z M30.261,32.969l-0.074-0.304c0.401-0.099,0.808-0.21,1.205-0.327l0.09,0.301
			C31.077,32.759,30.667,32.87,30.261,32.969z M16.516,32.693c-0.402-0.117-0.809-0.246-1.206-0.381l0.102-0.298
			c0.394,0.134,0.792,0.261,1.191,0.376L16.516,32.693z M31.885,32.515l-0.095-0.3c0.395-0.125,0.793-0.26,1.182-0.404l0.109,0.295
			C32.687,32.252,32.284,32.39,31.885,32.515z M14.913,32.172c-0.395-0.143-0.791-0.297-1.178-0.457l0.121-0.29
			c0.382,0.159,0.774,0.311,1.166,0.452L14.913,32.172z M33.477,31.956l-0.114-0.292c0.387-0.15,0.775-0.312,1.153-0.479
			l0.128,0.287C34.26,31.643,33.866,31.805,33.477,31.956z M13.347,31.551c-0.384-0.169-0.77-0.348-1.146-0.533l0.139-0.28
			c0.371,0.183,0.753,0.358,1.133,0.524L13.347,31.551z M35.028,31.297l-0.133-0.285c0.377-0.174,0.754-0.359,1.121-0.551
			l0.145,0.278C35.79,30.934,35.41,31.12,35.028,31.297z M11.825,30.83c-0.373-0.192-0.746-0.396-1.111-0.604l0.158-0.273
			c0.36,0.207,0.729,0.407,1.097,0.597L11.825,30.83z M36.534,30.541l-0.15-0.275c0.365-0.2,0.729-0.408,1.084-0.624l0.163,0.269
			C37.272,30.129,36.903,30.34,36.534,30.541z M10.352,30.013c-0.36-0.214-0.72-0.442-1.069-0.675l0.172-0.26
			c0.345,0.229,0.702,0.452,1.058,0.664L10.352,30.013z M37.991,29.688l-0.169-0.266c0.351-0.221,0.701-0.454,1.041-0.69l0.18,0.258
			C38.7,29.229,38.345,29.465,37.991,29.688z M8.935,29.104c-0.345-0.238-0.69-0.487-1.024-0.74l0.189-0.25
			c0.33,0.251,0.671,0.496,1.013,0.731L8.935,29.104z M39.388,28.744l-0.184-0.255c0.334-0.241,0.668-0.495,0.995-0.755l0.196,0.244
			C40.065,28.242,39.726,28.5,39.388,28.744z M7.578,28.105c-0.331-0.258-0.659-0.529-0.976-0.804l0.206-0.236
			c0.313,0.271,0.638,0.538,0.963,0.794L7.578,28.105z M40.722,27.714l-0.197-0.242c0.318-0.264,0.636-0.538,0.943-0.817
			l0.212,0.232C41.368,27.169,41.047,27.447,40.722,27.714z M6.287,27.024c-0.312-0.278-0.624-0.569-0.924-0.864l0.221-0.225
			c0.297,0.292,0.603,0.58,0.911,0.854L6.287,27.024z M41.989,26.602l-0.215-0.23c0.198-0.186,0.396-0.377,0.592-0.569v-0.3h0.313
			v0.43l-0.046,0.045C42.424,26.188,42.206,26.397,41.989,26.602z M5.446,25.706H5.132v-1.258h0.314V25.706z M42.68,25.082h-0.313
			v-1.255h0.313V25.082z M5.446,24.031H5.132v-1.257h0.314V24.031z M42.68,23.407h-0.313v-1.256h0.313V23.407z M5.446,22.354H5.132
			v-1.256h0.314V22.354z M42.68,21.732h-0.313v-1.257h0.313V21.732z M5.446,20.679H5.132v-1.257h0.314V20.679z M42.68,20.056h-0.313
			v-1.257h0.313V20.056z M5.446,19.002H5.132v-1.257h0.314V19.002z M42.68,18.38h-0.313v-1.256h0.313V18.38z M5.446,17.327H5.132
			V16.07h0.314V17.327z M42.68,16.704h-0.313v-1.257h0.313V16.704z M5.446,15.651H5.132v-1.257h0.314V15.651z M42.68,15.028h-0.313
			v-1.257h0.313V15.028z M5.446,13.975H5.132v-0.579l0.605-0.549l0.21,0.232l-0.501,0.457V13.975z M42.333,13.505l-0.93-0.845
			l0.211-0.232l0.93,0.844L42.333,13.505z M6.259,12.798l-0.211-0.233l0.93-0.845l0.211,0.233L6.259,12.798z M41.093,12.378
			l-0.93-0.845l0.213-0.233l0.929,0.846L41.093,12.378z M7.498,11.67l-0.211-0.232l0.93-0.846l0.211,0.233L7.498,11.67z
			 M39.854,11.252l-0.932-0.846l0.211-0.232l0.93,0.845L39.854,11.252z M8.738,10.543l-0.21-0.232l0.93-0.846l0.211,0.233
			L8.738,10.543z M38.612,10.124l-0.93-0.845l0.212-0.232l0.93,0.845L38.612,10.124z M9.979,9.416L9.768,9.184l0.93-0.845
			l0.211,0.232L9.979,9.416z M37.373,8.998l-0.93-0.845l0.21-0.233l0.932,0.845L37.373,8.998z M11.218,8.29l-0.209-0.232l0.93-0.845
			l0.211,0.233L11.218,8.29z M36.134,7.871l-0.932-0.845l0.211-0.233l0.93,0.845L36.134,7.871z"/>
	</g>
</g>
<g>
	<g>
		<path fill="#C2B59B" d="M24.014,31.006c-1.724,0-3.231-1.625-3.231-3.478l-0.027-7.322c0-1.851,1.512-3.476,3.232-3.476
			c1.723,0,3.232,1.625,3.232,3.477l0.024,7.322C27.244,29.381,25.733,31.006,24.014,31.006z"/>
	</g>
	<g>
		<path fill="#9B8579" d="M23.987,16.993c1.583,0,2.971,1.502,2.971,3.217l0.024,7.319c0,1.712-1.388,3.216-2.969,3.216
			c-1.583,0-2.971-1.504-2.971-3.217l-0.026-7.32C21.017,18.495,22.405,16.993,23.987,16.993 M23.987,16.469
			c-1.93,0-3.493,1.809-3.493,3.739l0.024,7.321c0,1.931,1.563,3.739,3.495,3.739c1.928,0,3.492-1.809,3.492-3.739l-0.024-7.321
			C27.481,18.278,25.917,16.469,23.987,16.469L23.987,16.469z"/>
	</g>
</g>
<g>
	<g>
		<g>
			<path fill="#2C2724" d="M25.931,21.462c0-1.066-0.865-1.931-1.93-1.931c-1.066,0-1.932,0.865-1.932,1.931
				c0,0.731,0.408,1.367,1.008,1.695v5.208h1.846v-5.208C25.524,22.829,25.931,22.194,25.931,21.462z"/>
		</g>
	</g>
	<defs>
		<filter id="Adobe_OpacityMaskFilter" filterUnits="userSpaceOnUse" x="22.069" y="19.531" width="3.861" height="8.833">
			<feColorMatrix  type="matrix" values="1 0 0 0 0  0 1 0 0 0  0 0 1 0 0  0 0 0 1 0"/>
		</filter>
	</defs>
	<mask maskUnits="userSpaceOnUse" x="22.069" y="19.531" width="3.861" height="8.833" id="SVGID_2_">
		<g filter="url(#Adobe_OpacityMaskFilter)">
			
				<image overflow="visible" enable-background="new    " width="35" height="72" xlink:href="A74E09CE.jpg"  transform="matrix(0.1309 0 0 0.1309 21.7256 19.2036)">
			</image>
		</g>
	</mask>
	<g mask="url(#SVGID_2_)">
		<g>
			<path d="M25.931,21.462c0-1.066-0.865-1.931-1.93-1.931c-1.066,0-1.932,0.865-1.932,1.931c0,0.731,0.408,1.367,1.008,1.695v5.208
				h1.846v-5.208C25.524,22.829,25.931,22.194,25.931,21.462z"/>
		</g>
	</g>
</g>
<g>
	<g opacity="0.71" enable-background="new    ">
		<path fill="#A94C29" d="M6.654,11.471L6.11,10.93l0.223-0.223l0.542,0.541L6.654,11.471z M5.815,10.634L4.925,9.746l0.223-0.223
			l0.889,0.888L5.815,10.634z M4.628,9.45L3.739,8.562L3.96,8.341l0.891,0.887L4.628,9.45z M3.442,8.267L3.331,8.155L2.93,7.057
			l0.297-0.107l0.375,1.034l0.063,0.062L3.442,8.267z M2.787,6.664L2.358,5.481l0.295-0.107l0.428,1.182L2.787,6.664z M2.216,5.088
			L1.869,4.135l0.239-0.262L2.511,4.98L2.216,5.088z"/>
	</g>
</g>
<g>
	<g opacity="0.71" enable-background="new    ">
		<path fill="#A94C29" d="M41.108,11.471l-0.223-0.223l0.564-0.562l0.223,0.223L41.108,11.471z M41.968,10.613l-0.221-0.223
			l0.889-0.888l0.223,0.223L41.968,10.613z M43.155,9.429l-0.223-0.223l0.889-0.888l0.223,0.223L43.155,9.429z M44.341,8.245
			l-0.223-0.223l0.046-0.044l0.472-1.034l0.285,0.13L44.426,8.16L44.341,8.245z M45.096,6.694l-0.286-0.13l0.523-1.143l0.285,0.131
			L45.096,6.694z M45.792,5.169l-0.286-0.13l0.489-1.069l0.219,0.274L45.792,5.169z"/>
	</g>
</g>
</svg>
