<?xml version="1.0" encoding="utf-8"?>
<!-- Generator: Adobe Illustrator 15.0.0, SVG Export Plug-In . SVG Version: 6.00 Build 0)  -->
<!DOCTYPE svg PUBLIC "-//W3C//DTD SVG 1.1//EN" "http://www.w3.org/Graphics/SVG/1.1/DTD/svg11.dtd" [
	<!ENTITY ns_extend "http://ns.adobe.com/Extensibility/1.0/">
	<!ENTITY ns_ai "http://ns.adobe.com/AdobeIllustrator/10.0/">
	<!ENTITY ns_graphs "http://ns.adobe.com/Graphs/1.0/">
	<!ENTITY ns_vars "http://ns.adobe.com/Variables/1.0/">
	<!ENTITY ns_imrep "http://ns.adobe.com/ImageReplacement/1.0/">
	<!ENTITY ns_sfw "http://ns.adobe.com/SaveForWeb/1.0/">
	<!ENTITY ns_custom "http://ns.adobe.com/GenericCustomNamespace/1.0/">
	<!ENTITY ns_adobe_xpath "http://ns.adobe.com/XPath/1.0/">
]>
<svg version="1.1" id="Layer_1" xmlns:x="&ns_extend;" xmlns:i="&ns_ai;" xmlns:graph="&ns_graphs;"
	 xmlns="http://www.w3.org/2000/svg" xmlns:xlink="http://www.w3.org/1999/xlink" x="0px" y="0px" width="58px" height="48px"
	 viewBox="0 0 58 48" enable-background="new 0 0 58 48" xml:space="preserve">
<metadata>
	<sfw  xmlns="&ns_sfw;">
		<slices></slices>
		<sliceSourceBounds  height="41.457" width="58" y="459.77" x="240.5" bottomLeftOrigin="true"></sliceSourceBounds>
	</sfw>
</metadata>
<polygon fill="#848778" points="9.24,33.93 2.666,24.604 9.24,15.275 6.574,15.275 0,24.604 6.574,33.93 "/>
<g>
	<polygon fill="#924221" points="17.052,41.27 13.282,40.221 13.282,17.739 17.052,17.739 	"/>
</g>
<g>
	<polygon fill="#924221" points="57.621,40.221 53.85,41.27 53.85,17.739 57.621,17.739 	"/>
</g>
<g opacity="0.72">
	<g>
		<g>
			<rect x="56.805" y="21.057" fill="#ECCBA1" width="0.316" height="0.628"/>
		</g>
		<g>
			<path fill="#ECCBA1" d="M57.121,40.221h-0.316v-1.265h0.316V40.221z M57.121,38.535h-0.316v-1.264h0.316V38.535z M57.121,36.85
				h-0.316v-1.264h0.316V36.85z M57.121,35.164h-0.316v-1.262h0.316V35.164z M57.121,33.479h-0.316v-1.263h0.316V33.479z
				 M57.121,31.795h-0.316v-1.264h0.316V31.795z M57.121,30.11h-0.316v-1.264h0.316V30.11z M57.121,28.426h-0.316v-1.264h0.316
				V28.426z M57.121,26.74h-0.316v-1.264h0.316V26.74z M57.121,25.055h-0.316v-1.263h0.316V25.055z M57.121,23.371h-0.316v-1.265
				h0.316V23.371z"/>
		</g>
	</g>
</g>
<g opacity="0.72">
	<g>
		<g>
			<rect x="13.862" y="21.057" fill="#ECCBA1" width="0.315" height="0.628"/>
		</g>
		<g>
			<path fill="#ECCBA1" d="M14.178,40.221h-0.315v-1.265h0.315V40.221z M14.178,38.535h-0.315v-1.264h0.315V38.535z M14.178,36.85
				h-0.315v-1.264h0.315V36.85z M14.178,35.164h-0.315v-1.262h0.315V35.164z M14.178,33.479h-0.315v-1.263h0.315V33.479z
				 M14.178,31.795h-0.315v-1.264h0.315V31.795z M14.178,30.11h-0.315v-1.264h0.315V30.11z M14.178,28.426h-0.315v-1.264h0.315
				V28.426z M14.178,26.74h-0.315v-1.264h0.315V26.74z M14.178,25.055h-0.315v-1.263h0.315V25.055z M14.178,23.371h-0.315v-1.265
				h0.315V23.371z"/>
		</g>
	</g>
</g>
<g>
	<g>
		<path fill="#924221" d="M55.802,3.273c1.21,0,2.198,0.989,2.198,2.199v17.879c0,1.21-0.988,2.199-2.198,2.199l-40.783,0.004
			c-1.21,0-2.201-0.99-2.201-2.199V5.479c0-1.21,0.991-2.2,2.201-2.201L55.802,3.273z"/>
	</g>
	<g>
		<g>
			<defs>
				<path id="SVGID_2_" d="M55.802,3.273c1.21,0,2.198,0.989,2.198,2.199v17.879c0,1.21-0.988,2.199-2.198,2.199l-40.783,0.004
					c-1.21,0-2.201-0.99-2.201-2.199V5.479c0-1.21,0.991-2.2,2.201-2.201L55.802,3.273z"/>
			</defs>
			<clipPath id="SVGID_3_">
				<use xlink:href="#SVGID_2_"  overflow="visible"/>
			</clipPath>
			<rect x="12.818" y="3.273" clip-path="url(#SVGID_3_)" fill="#56251C" width="0.557" height="22.281"/>
			<rect x="13.375" y="3.273" clip-path="url(#SVGID_3_)" fill="#56251C" width="0.095" height="22.281"/>
			<rect x="13.469" y="3.273" clip-path="url(#SVGID_3_)" fill="#57251C" width="0.094" height="22.281"/>
			<rect x="13.563" y="3.273" clip-path="url(#SVGID_3_)" fill="#58251C" width="0.095" height="22.281"/>
			<rect x="13.658" y="3.273" clip-path="url(#SVGID_3_)" fill="#59251B" width="0.095" height="22.281"/>
			<rect x="13.753" y="3.273" clip-path="url(#SVGID_3_)" fill="#5A251B" width="0.095" height="22.281"/>
			<rect x="13.848" y="3.273" clip-path="url(#SVGID_3_)" fill="#5B251B" width="0.095" height="22.281"/>
			<rect x="13.942" y="3.273" clip-path="url(#SVGID_3_)" fill="#5C251B" width="0.094" height="22.281"/>
			<rect x="14.037" y="3.273" clip-path="url(#SVGID_3_)" fill="#5D241A" width="0.095" height="22.281"/>
			<rect x="14.131" y="3.273" clip-path="url(#SVGID_3_)" fill="#5E241A" width="0.095" height="22.281"/>
			<rect x="14.226" y="3.273" clip-path="url(#SVGID_3_)" fill="#5F241A" width="0.095" height="22.281"/>
			<rect x="14.321" y="3.273" clip-path="url(#SVGID_3_)" fill="#60241A" width="0.095" height="22.281"/>
			<rect x="14.416" y="3.273" clip-path="url(#SVGID_3_)" fill="#61241A" width="0.094" height="22.281"/>
			<rect x="14.51" y="3.273" clip-path="url(#SVGID_3_)" fill="#622419" width="0.095" height="22.281"/>
			<rect x="14.604" y="3.273" clip-path="url(#SVGID_3_)" fill="#632419" width="0.095" height="22.281"/>
			<rect x="14.699" y="3.273" clip-path="url(#SVGID_3_)" fill="#642419" width="0.095" height="22.281"/>
			<rect x="14.794" y="3.273" clip-path="url(#SVGID_3_)" fill="#652419" width="0.095" height="22.281"/>
			<rect x="14.889" y="3.273" clip-path="url(#SVGID_3_)" fill="#662418" width="0.094" height="22.281"/>
			<rect x="14.983" y="3.273" clip-path="url(#SVGID_3_)" fill="#672418" width="0.095" height="22.281"/>
			<rect x="15.078" y="3.273" clip-path="url(#SVGID_3_)" fill="#682418" width="0.095" height="22.281"/>
			<rect x="15.172" y="3.273" clip-path="url(#SVGID_3_)" fill="#692418" width="0.095" height="22.281"/>
			<rect x="15.267" y="3.273" clip-path="url(#SVGID_3_)" fill="#6B2418" width="0.095" height="22.281"/>
			<rect x="15.362" y="3.273" clip-path="url(#SVGID_3_)" fill="#6C2317" width="0.094" height="22.281"/>
			<rect x="15.456" y="3.273" clip-path="url(#SVGID_3_)" fill="#6D2317" width="0.095" height="22.281"/>
			<rect x="15.551" y="3.273" clip-path="url(#SVGID_3_)" fill="#6E2317" width="0.095" height="22.281"/>
			<rect x="15.646" y="3.273" clip-path="url(#SVGID_3_)" fill="#6F2317" width="0.095" height="22.281"/>
			<rect x="15.74" y="3.273" clip-path="url(#SVGID_3_)" fill="#702316" width="0.095" height="22.281"/>
			<rect x="15.835" y="3.273" clip-path="url(#SVGID_3_)" fill="#712316" width="0.094" height="22.281"/>
			<rect x="15.929" y="3.273" clip-path="url(#SVGID_3_)" fill="#722316" width="0.095" height="22.281"/>
			<rect x="16.024" y="3.273" clip-path="url(#SVGID_3_)" fill="#732316" width="0.095" height="22.281"/>
			<rect x="16.119" y="3.273" clip-path="url(#SVGID_3_)" fill="#742315" width="0.095" height="22.281"/>
			<rect x="16.213" y="3.273" clip-path="url(#SVGID_3_)" fill="#752315" width="0.096" height="22.281"/>
			<rect x="16.31" y="3.273" clip-path="url(#SVGID_3_)" fill="#762315" width="0.093" height="22.281"/>
			<rect x="16.402" y="3.273" clip-path="url(#SVGID_3_)" fill="#772315" width="0.095" height="22.281"/>
			<rect x="16.497" y="3.273" clip-path="url(#SVGID_3_)" fill="#782315" width="0.097" height="22.281"/>
			<rect x="16.594" y="3.273" clip-path="url(#SVGID_3_)" fill="#792214" width="0.093" height="22.281"/>
			<rect x="16.687" y="3.273" clip-path="url(#SVGID_3_)" fill="#7A2214" width="0.095" height="22.281"/>
			<rect x="16.781" y="3.273" clip-path="url(#SVGID_3_)" fill="#7B2214" width="0.096" height="22.281"/>
			<rect x="16.877" y="3.273" clip-path="url(#SVGID_3_)" fill="#7C2214" width="0.095" height="22.281"/>
			<rect x="16.972" y="3.273" clip-path="url(#SVGID_3_)" fill="#7D2213" width="0.093" height="22.281"/>
			<rect x="17.065" y="3.273" clip-path="url(#SVGID_3_)" fill="#7E2213" width="0.097" height="22.281"/>
			<rect x="17.162" y="3.273" clip-path="url(#SVGID_3_)" fill="#7F2213" width="0.094" height="22.281"/>
			<rect x="17.256" y="3.273" clip-path="url(#SVGID_3_)" fill="#7F2213" width="0.421" height="22.281"/>
			<rect x="17.677" y="3.273" clip-path="url(#SVGID_3_)" fill="#802314" width="0.423" height="22.281"/>
			<rect x="18.1" y="3.273" clip-path="url(#SVGID_3_)" fill="#812414" width="0.421" height="22.281"/>
			<rect x="18.521" y="3.273" clip-path="url(#SVGID_3_)" fill="#822515" width="0.423" height="22.281"/>
			<rect x="18.944" y="3.273" clip-path="url(#SVGID_3_)" fill="#832615" width="0.423" height="22.281"/>
			<rect x="19.368" y="3.273" clip-path="url(#SVGID_3_)" fill="#842716" width="0.421" height="22.281"/>
			<rect x="19.789" y="3.273" clip-path="url(#SVGID_3_)" fill="#852816" width="0.423" height="22.281"/>
			<rect x="20.212" y="3.273" clip-path="url(#SVGID_3_)" fill="#862917" width="0.423" height="22.281"/>
			<rect x="20.635" y="3.273" clip-path="url(#SVGID_3_)" fill="#872A17" width="0.421" height="22.281"/>
			<rect x="21.056" y="3.273" clip-path="url(#SVGID_3_)" fill="#882B18" width="0.423" height="22.281"/>
			<rect x="21.479" y="3.273" clip-path="url(#SVGID_3_)" fill="#892C18" width="0.421" height="22.281"/>
			<rect x="21.9" y="3.273" clip-path="url(#SVGID_3_)" fill="#8A2D19" width="0.423" height="22.281"/>
			<rect x="22.323" y="3.273" clip-path="url(#SVGID_3_)" fill="#8B2E19" width="0.423" height="22.281"/>
			<rect x="22.747" y="3.273" clip-path="url(#SVGID_3_)" fill="#8C2F1A" width="0.421" height="22.281"/>
			<rect x="23.167" y="3.273" clip-path="url(#SVGID_3_)" fill="#8D301B" width="0.423" height="22.281"/>
			<rect x="23.591" y="3.273" clip-path="url(#SVGID_3_)" fill="#8E311B" width="0.421" height="22.281"/>
			<rect x="24.012" y="3.273" clip-path="url(#SVGID_3_)" fill="#8F321C" width="0.423" height="22.281"/>
			<rect x="24.435" y="3.273" clip-path="url(#SVGID_3_)" fill="#90331C" width="0.423" height="22.281"/>
			<rect x="24.858" y="3.273" clip-path="url(#SVGID_3_)" fill="#91341D" width="0.423" height="22.281"/>
			<rect x="25.281" y="3.273" clip-path="url(#SVGID_3_)" fill="#92351D" width="0.421" height="22.281"/>
			<rect x="25.702" y="3.273" clip-path="url(#SVGID_3_)" fill="#93361E" width="0.423" height="22.281"/>
			<rect x="26.125" y="3.273" clip-path="url(#SVGID_3_)" fill="#95381E" width="0.421" height="22.281"/>
			<rect x="26.546" y="3.273" clip-path="url(#SVGID_3_)" fill="#96391F" width="0.423" height="22.281"/>
			<rect x="26.969" y="3.273" clip-path="url(#SVGID_3_)" fill="#973A1F" width="0.421" height="22.281"/>
			<rect x="27.391" y="3.273" clip-path="url(#SVGID_3_)" fill="#983B20" width="0.423" height="22.281"/>
			<rect x="27.813" y="3.273" clip-path="url(#SVGID_3_)" fill="#993C20" width="0.423" height="22.281"/>
			<rect x="28.237" y="3.273" clip-path="url(#SVGID_3_)" fill="#9A3D21" width="0.421" height="22.281"/>
			<rect x="28.658" y="3.273" clip-path="url(#SVGID_3_)" fill="#9B3E21" width="0.423" height="22.281"/>
			<rect x="29.081" y="3.273" clip-path="url(#SVGID_3_)" fill="#9C3F22" width="0.423" height="22.281"/>
			<rect x="29.504" y="3.273" clip-path="url(#SVGID_3_)" fill="#9D4023" width="0.422" height="22.281"/>
			<rect x="29.926" y="3.273" clip-path="url(#SVGID_3_)" fill="#9E4123" width="0.422" height="22.281"/>
			<rect x="30.348" y="3.273" clip-path="url(#SVGID_3_)" fill="#9F4224" width="0.422" height="22.281"/>
			<rect x="30.77" y="3.273" clip-path="url(#SVGID_3_)" fill="#A04324" width="0.423" height="22.281"/>
			<rect x="31.192" y="3.273" clip-path="url(#SVGID_3_)" fill="#A14425" width="0.423" height="22.281"/>
			<rect x="31.615" y="3.273" clip-path="url(#SVGID_3_)" fill="#A24525" width="0.422" height="22.281"/>
			<rect x="32.037" y="3.273" clip-path="url(#SVGID_3_)" fill="#A34626" width="0.423" height="22.281"/>
			<rect x="32.46" y="3.273" clip-path="url(#SVGID_3_)" fill="#A44726" width="0.423" height="22.281"/>
			<rect x="32.883" y="3.273" clip-path="url(#SVGID_3_)" fill="#A54827" width="0.422" height="22.281"/>
			<rect x="33.305" y="3.273" clip-path="url(#SVGID_3_)" fill="#A64927" width="0.422" height="22.281"/>
			<rect x="33.727" y="3.273" clip-path="url(#SVGID_3_)" fill="#A74A28" width="0.422" height="22.281"/>
			<rect x="34.148" y="3.273" clip-path="url(#SVGID_3_)" fill="#A84B28" width="0.423" height="22.281"/>
			<rect x="34.571" y="3.273" clip-path="url(#SVGID_3_)" fill="#A94C29" width="0.423" height="22.281"/>
			<rect x="34.994" y="3.273" clip-path="url(#SVGID_3_)" fill="#A94C29" width="1.021" height="22.281"/>
			<rect x="36.015" y="3.273" clip-path="url(#SVGID_3_)" fill="#A84B28" width="1.021" height="22.281"/>
			<rect x="37.035" y="3.273" clip-path="url(#SVGID_3_)" fill="#A74A28" width="1.021" height="22.281"/>
			<rect x="38.056" y="3.273" clip-path="url(#SVGID_3_)" fill="#A54827" width="1.022" height="22.281"/>
			<rect x="39.078" y="3.273" clip-path="url(#SVGID_3_)" fill="#A44726" width="1.021" height="22.281"/>
			<rect x="40.099" y="3.273" clip-path="url(#SVGID_3_)" fill="#A44726" width="0.412" height="22.281"/>
			<rect x="40.511" y="3.273" clip-path="url(#SVGID_3_)" fill="#A34626" width="0.411" height="22.281"/>
			<rect x="40.922" y="3.273" clip-path="url(#SVGID_3_)" fill="#A24525" width="0.414" height="22.281"/>
			<rect x="41.336" y="3.273" clip-path="url(#SVGID_3_)" fill="#A14425" width="0.41" height="22.281"/>
			<rect x="41.746" y="3.273" clip-path="url(#SVGID_3_)" fill="#A04324" width="0.412" height="22.281"/>
			<rect x="42.158" y="3.273" clip-path="url(#SVGID_3_)" fill="#9F4224" width="0.414" height="22.281"/>
			<rect x="42.572" y="3.273" clip-path="url(#SVGID_3_)" fill="#9E4123" width="0.412" height="22.281"/>
			<rect x="42.984" y="3.273" clip-path="url(#SVGID_3_)" fill="#9D4023" width="0.412" height="22.281"/>
			<rect x="43.396" y="3.273" clip-path="url(#SVGID_3_)" fill="#9B3E22" width="0.411" height="22.281"/>
			<rect x="43.808" y="3.273" clip-path="url(#SVGID_3_)" fill="#9A3D22" width="0.412" height="22.281"/>
			<rect x="44.22" y="3.273" clip-path="url(#SVGID_3_)" fill="#993C21" width="0.412" height="22.281"/>
			<rect x="44.632" y="3.273" clip-path="url(#SVGID_3_)" fill="#983B21" width="0.411" height="22.281"/>
			<rect x="45.043" y="3.273" clip-path="url(#SVGID_3_)" fill="#973A20" width="0.412" height="22.281"/>
			<rect x="45.455" y="3.273" clip-path="url(#SVGID_3_)" fill="#963920" width="0.412" height="22.281"/>
			<rect x="45.867" y="3.273" clip-path="url(#SVGID_3_)" fill="#95381F" width="0.412" height="22.281"/>
			<rect x="46.279" y="3.273" clip-path="url(#SVGID_3_)" fill="#95381F" width="0.282" height="22.281"/>
			<rect x="46.562" y="3.273" clip-path="url(#SVGID_3_)" fill="#94371E" width="0.28" height="22.281"/>
			<rect x="46.842" y="3.273" clip-path="url(#SVGID_3_)" fill="#93361E" width="0.281" height="22.281"/>
			<rect x="47.123" y="3.273" clip-path="url(#SVGID_3_)" fill="#92351D" width="0.281" height="22.281"/>
			<rect x="47.404" y="3.273" clip-path="url(#SVGID_3_)" fill="#91341D" width="0.279" height="22.281"/>
			<rect x="47.684" y="3.273" clip-path="url(#SVGID_3_)" fill="#90331C" width="0.28" height="22.281"/>
			<rect x="47.964" y="3.273" clip-path="url(#SVGID_3_)" fill="#8F321C" width="0.28" height="22.281"/>
			<rect x="48.244" y="3.273" clip-path="url(#SVGID_3_)" fill="#8E311B" width="0.282" height="22.281"/>
			<rect x="48.526" y="3.273" clip-path="url(#SVGID_3_)" fill="#8D301A" width="0.28" height="22.281"/>
			<rect x="48.807" y="3.273" clip-path="url(#SVGID_3_)" fill="#8C2F1A" width="0.281" height="22.281"/>
			<rect x="49.088" y="3.273" clip-path="url(#SVGID_3_)" fill="#8B2E19" width="0.281" height="22.281"/>
			<rect x="49.369" y="3.273" clip-path="url(#SVGID_3_)" fill="#892C19" width="0.279" height="22.281"/>
			<rect x="49.648" y="3.273" clip-path="url(#SVGID_3_)" fill="#882B18" width="0.281" height="22.281"/>
			<rect x="49.93" y="3.273" clip-path="url(#SVGID_3_)" fill="#872A18" width="0.279" height="22.281"/>
			<rect x="50.209" y="3.273" clip-path="url(#SVGID_3_)" fill="#862917" width="0.282" height="22.281"/>
			<rect x="50.491" y="3.273" clip-path="url(#SVGID_3_)" fill="#852816" width="0.28" height="22.281"/>
			<rect x="50.771" y="3.273" clip-path="url(#SVGID_3_)" fill="#842716" width="0.28" height="22.281"/>
			<rect x="51.052" y="3.273" clip-path="url(#SVGID_3_)" fill="#832615" width="0.282" height="22.281"/>
			<rect x="51.334" y="3.273" clip-path="url(#SVGID_3_)" fill="#822515" width="0.279" height="22.281"/>
			<rect x="51.613" y="3.273" clip-path="url(#SVGID_3_)" fill="#812414" width="0.283" height="22.281"/>
			<rect x="51.896" y="3.273" clip-path="url(#SVGID_3_)" fill="#802314" width="0.279" height="22.281"/>
			<rect x="52.176" y="3.273" clip-path="url(#SVGID_3_)" fill="#7F2213" width="0.28" height="22.281"/>
			<rect x="52.456" y="3.273" clip-path="url(#SVGID_3_)" fill="#7F2213" width="0.136" height="22.281"/>
			<rect x="52.592" y="3.273" clip-path="url(#SVGID_3_)" fill="#7E2213" width="0.133" height="22.281"/>
			<rect x="52.725" y="3.273" clip-path="url(#SVGID_3_)" fill="#7D2213" width="0.138" height="22.281"/>
			<rect x="52.862" y="3.273" clip-path="url(#SVGID_3_)" fill="#7C2214" width="0.136" height="22.281"/>
			<rect x="52.998" y="3.273" clip-path="url(#SVGID_3_)" fill="#7B2214" width="0.133" height="22.281"/>
			<rect x="53.131" y="3.273" clip-path="url(#SVGID_3_)" fill="#7A2214" width="0.137" height="22.281"/>
			<rect x="53.268" y="3.273" clip-path="url(#SVGID_3_)" fill="#792214" width="0.137" height="22.281"/>
			<rect x="53.404" y="3.273" clip-path="url(#SVGID_3_)" fill="#782315" width="0.134" height="22.281"/>
			<rect x="53.538" y="3.273" clip-path="url(#SVGID_3_)" fill="#772315" width="0.136" height="22.281"/>
			<rect x="53.674" y="3.273" clip-path="url(#SVGID_3_)" fill="#762315" width="0.135" height="22.281"/>
			<rect x="53.809" y="3.273" clip-path="url(#SVGID_3_)" fill="#752315" width="0.136" height="22.281"/>
			<rect x="53.944" y="3.273" clip-path="url(#SVGID_3_)" fill="#742315" width="0.136" height="22.281"/>
			<rect x="54.08" y="3.273" clip-path="url(#SVGID_3_)" fill="#732316" width="0.135" height="22.281"/>
			<rect x="54.215" y="3.273" clip-path="url(#SVGID_3_)" fill="#722316" width="0.134" height="22.281"/>
			<rect x="54.349" y="3.273" clip-path="url(#SVGID_3_)" fill="#712316" width="0.136" height="22.281"/>
			<rect x="54.484" y="3.273" clip-path="url(#SVGID_3_)" fill="#702316" width="0.135" height="22.281"/>
			<rect x="54.619" y="3.273" clip-path="url(#SVGID_3_)" fill="#6F2317" width="0.136" height="22.281"/>
			<rect x="54.755" y="3.273" clip-path="url(#SVGID_3_)" fill="#6E2317" width="0.136" height="22.281"/>
			<rect x="54.891" y="3.273" clip-path="url(#SVGID_3_)" fill="#6D2317" width="0.135" height="22.281"/>
			<rect x="55.025" y="3.273" clip-path="url(#SVGID_3_)" fill="#6C2317" width="0.135" height="22.281"/>
			<rect x="55.16" y="3.273" clip-path="url(#SVGID_3_)" fill="#6B2418" width="0.135" height="22.281"/>
			<rect x="55.295" y="3.273" clip-path="url(#SVGID_3_)" fill="#692418" width="0.136" height="22.281"/>
			<rect x="55.431" y="3.273" clip-path="url(#SVGID_3_)" fill="#682418" width="0.136" height="22.281"/>
			<rect x="55.566" y="3.273" clip-path="url(#SVGID_3_)" fill="#672418" width="0.135" height="22.281"/>
			<rect x="55.701" y="3.273" clip-path="url(#SVGID_3_)" fill="#662418" width="0.136" height="22.281"/>
			<rect x="55.837" y="3.273" clip-path="url(#SVGID_3_)" fill="#652419" width="0.136" height="22.281"/>
			<rect x="55.973" y="3.273" clip-path="url(#SVGID_3_)" fill="#642419" width="0.135" height="22.281"/>
			<rect x="56.107" y="3.273" clip-path="url(#SVGID_3_)" fill="#632419" width="0.136" height="22.281"/>
			<rect x="56.243" y="3.273" clip-path="url(#SVGID_3_)" fill="#622419" width="0.134" height="22.281"/>
			<rect x="56.377" y="3.273" clip-path="url(#SVGID_3_)" fill="#61241A" width="0.135" height="22.281"/>
			<rect x="56.512" y="3.273" clip-path="url(#SVGID_3_)" fill="#60241A" width="0.138" height="22.281"/>
			<rect x="56.649" y="3.273" clip-path="url(#SVGID_3_)" fill="#5F241A" width="0.134" height="22.281"/>
			<rect x="56.783" y="3.273" clip-path="url(#SVGID_3_)" fill="#5E241A" width="0.135" height="22.281"/>
			<rect x="56.918" y="3.273" clip-path="url(#SVGID_3_)" fill="#5D241A" width="0.137" height="22.281"/>
			<rect x="57.055" y="3.273" clip-path="url(#SVGID_3_)" fill="#5C251B" width="0.135" height="22.281"/>
			<rect x="57.189" y="3.273" clip-path="url(#SVGID_3_)" fill="#5B251B" width="0.135" height="22.281"/>
			<rect x="57.324" y="3.273" clip-path="url(#SVGID_3_)" fill="#5A251B" width="0.135" height="22.281"/>
			<rect x="57.459" y="3.273" clip-path="url(#SVGID_3_)" fill="#59251B" width="0.135" height="22.281"/>
			<rect x="57.594" y="3.273" clip-path="url(#SVGID_3_)" fill="#58251C" width="0.136" height="22.281"/>
			<rect x="57.729" y="3.273" clip-path="url(#SVGID_3_)" fill="#57251C" width="0.136" height="22.281"/>
			<rect x="57.865" y="3.273" clip-path="url(#SVGID_3_)" fill="#56251C" width="0.135" height="22.281"/>
			<path clip-path="url(#SVGID_3_)" fill="#56251C" d="M58,25.555V3.273V25.555z"/>
		</g>
	</g>
</g>
<g>
	<g>
		<path fill="#91321B" d="M15.796,19.149v6.029v17.24c0,1.267,1.035,2.305,2.303,2.305h34.599c1.268,0,2.305-1.038,2.305-2.305
			V25.012v-5.863H15.796L15.796,19.149z"/>
	</g>
	<g>
		<g>
			<defs>
				<path id="SVGID_4_" d="M15.796,19.149v6.029v17.24c0,1.267,1.035,2.305,2.303,2.305h34.599c1.268,0,2.305-1.038,2.305-2.305
					V25.012v-5.863H15.796L15.796,19.149z"/>
			</defs>
			<clipPath id="SVGID_5_">
				<use xlink:href="#SVGID_4_"  overflow="visible"/>
			</clipPath>
			<path clip-path="url(#SVGID_5_)" fill="#7F2213" d="M15.796,44.723h39.206H15.796z"/>
			<rect x="15.796" y="44.452" clip-path="url(#SVGID_5_)" fill="#7F2213" width="39.206" height="0.271"/>
			<rect x="15.796" y="44.182" clip-path="url(#SVGID_5_)" fill="#802314" width="39.206" height="0.271"/>
			<rect x="15.796" y="43.91" clip-path="url(#SVGID_5_)" fill="#812414" width="39.206" height="0.271"/>
			<rect x="15.796" y="43.639" clip-path="url(#SVGID_5_)" fill="#822515" width="39.206" height="0.271"/>
			<rect x="15.796" y="43.369" clip-path="url(#SVGID_5_)" fill="#832615" width="39.206" height="0.27"/>
			<rect x="15.796" y="43.098" clip-path="url(#SVGID_5_)" fill="#852816" width="39.206" height="0.271"/>
			<rect x="15.796" y="42.828" clip-path="url(#SVGID_5_)" fill="#862917" width="39.206" height="0.27"/>
			<rect x="15.796" y="42.558" clip-path="url(#SVGID_5_)" fill="#872A17" width="39.206" height="0.271"/>
			<rect x="15.796" y="42.287" clip-path="url(#SVGID_5_)" fill="#882B18" width="39.206" height="0.271"/>
			<rect x="15.796" y="42.016" clip-path="url(#SVGID_5_)" fill="#892C18" width="39.206" height="0.271"/>
			<rect x="15.796" y="41.744" clip-path="url(#SVGID_5_)" fill="#8A2D19" width="39.206" height="0.271"/>
			<rect x="15.796" y="41.41" clip-path="url(#SVGID_5_)" fill="#8A2D19" width="39.206" height="0.334"/>
			<rect x="15.796" y="41.076" clip-path="url(#SVGID_5_)" fill="#8B2E1A" width="39.206" height="0.334"/>
			<rect x="15.796" y="40.741" clip-path="url(#SVGID_5_)" fill="#8C2F1A" width="39.206" height="0.335"/>
			<rect x="15.796" y="40.406" clip-path="url(#SVGID_5_)" fill="#8D301B" width="39.206" height="0.335"/>
			<rect x="15.796" y="40.072" clip-path="url(#SVGID_5_)" fill="#8E311B" width="39.206" height="0.334"/>
			<rect x="15.796" y="39.737" clip-path="url(#SVGID_5_)" fill="#8F321C" width="39.206" height="0.335"/>
			<rect x="15.796" y="39.402" clip-path="url(#SVGID_5_)" fill="#90331C" width="39.206" height="0.335"/>
			<rect x="15.796" y="39.067" clip-path="url(#SVGID_5_)" fill="#91341D" width="39.206" height="0.335"/>
			<rect x="15.796" y="38.733" clip-path="url(#SVGID_5_)" fill="#92351D" width="39.206" height="0.334"/>
			<rect x="15.796" y="38.398" clip-path="url(#SVGID_5_)" fill="#93361E" width="39.206" height="0.335"/>
			<rect x="15.796" y="38.063" clip-path="url(#SVGID_5_)" fill="#94371E" width="39.206" height="0.335"/>
			<rect x="15.796" y="37.729" clip-path="url(#SVGID_5_)" fill="#96391F" width="39.206" height="0.335"/>
			<rect x="15.796" y="37.395" clip-path="url(#SVGID_5_)" fill="#973A20" width="39.206" height="0.334"/>
			<rect x="15.796" y="37.06" clip-path="url(#SVGID_5_)" fill="#983B20" width="39.206" height="0.335"/>
			<rect x="15.796" y="36.725" clip-path="url(#SVGID_5_)" fill="#993C21" width="39.206" height="0.335"/>
			<rect x="15.796" y="36.391" clip-path="url(#SVGID_5_)" fill="#9A3D21" width="39.206" height="0.334"/>
			<rect x="15.796" y="36.057" clip-path="url(#SVGID_5_)" fill="#9B3E22" width="39.206" height="0.334"/>
			<rect x="15.796" y="35.721" clip-path="url(#SVGID_5_)" fill="#9C3F22" width="39.206" height="0.336"/>
			<rect x="15.796" y="35.387" clip-path="url(#SVGID_5_)" fill="#9D4023" width="39.206" height="0.334"/>
			<rect x="15.796" y="35.053" clip-path="url(#SVGID_5_)" fill="#9E4123" width="39.206" height="0.334"/>
			<rect x="15.796" y="34.717" clip-path="url(#SVGID_5_)" fill="#9F4224" width="39.206" height="0.336"/>
			<rect x="15.796" y="34.383" clip-path="url(#SVGID_5_)" fill="#A04324" width="39.206" height="0.334"/>
			<rect x="15.796" y="34.049" clip-path="url(#SVGID_5_)" fill="#A14425" width="39.206" height="0.334"/>
			<rect x="15.796" y="33.439" clip-path="url(#SVGID_5_)" fill="#A14425" width="39.206" height="0.609"/>
			<rect x="15.796" y="32.833" clip-path="url(#SVGID_5_)" fill="#A24526" width="39.206" height="0.606"/>
			<rect x="15.796" y="32.227" clip-path="url(#SVGID_5_)" fill="#A34626" width="39.206" height="0.606"/>
			<rect x="15.796" y="31.619" clip-path="url(#SVGID_5_)" fill="#A44727" width="39.206" height="0.607"/>
			<rect x="15.796" y="31.011" clip-path="url(#SVGID_5_)" fill="#A64927" width="39.206" height="0.608"/>
			<rect x="15.796" y="30.403" clip-path="url(#SVGID_5_)" fill="#A74A28" width="39.206" height="0.607"/>
			<rect x="15.796" y="29.795" clip-path="url(#SVGID_5_)" fill="#A84B28" width="39.206" height="0.608"/>
			<rect x="15.796" y="29.189" clip-path="url(#SVGID_5_)" fill="#A94C29" width="39.206" height="0.605"/>
			<rect x="15.796" y="19.149" clip-path="url(#SVGID_5_)" fill="#A94C29" width="39.206" height="10.041"/>
		</g>
	</g>
</g>
<g opacity="0.72">
	<g opacity="0.26">
		
			<image overflow="visible" enable-background="new    " width="339" height="253" xlink:href="A05860FD.png"  transform="matrix(0.1047 0 0 0.1047 17.5659 18.2314)">
		</image>
	</g>
</g>
<g>
	<g>
		<g>
			<defs>
				<path id="SVGID_6_" d="M35.41,44.723c0,0-12.558,0-17.332,0c-1.976,0-2.282-1.985-2.282-1.985V24.151H35.41V44.723z"/>
			</defs>
			<clipPath id="SVGID_7_">
				<use xlink:href="#SVGID_6_"  overflow="visible"/>
			</clipPath>
			<polygon clip-path="url(#SVGID_7_)" fill="#56251C" points="15.796,42.934 16.629,44.723 15.796,44.723 			"/>
			<polygon clip-path="url(#SVGID_7_)" fill="#56251C" points="15.796,42.154 16.993,44.723 16.629,44.723 15.796,42.934 			"/>
			<polygon clip-path="url(#SVGID_7_)" fill="#57251C" points="15.796,41.373 17.356,44.723 16.993,44.723 15.796,42.154 			"/>
			<polygon clip-path="url(#SVGID_7_)" fill="#58261C" points="15.796,40.592 17.722,44.723 17.356,44.723 15.796,41.373 			"/>
			<polygon clip-path="url(#SVGID_7_)" fill="#59261C" points="15.796,39.811 18.085,44.723 17.722,44.723 15.796,40.592 			"/>
			<polygon clip-path="url(#SVGID_7_)" fill="#5A271D" points="15.796,39.03 18.449,44.723 18.085,44.723 15.796,39.811 			"/>
			<polygon clip-path="url(#SVGID_7_)" fill="#5B271D" points="15.796,38.248 18.813,44.723 18.449,44.723 15.796,39.03 			"/>
			<polygon clip-path="url(#SVGID_7_)" fill="#5C281D" points="15.796,37.468 19.178,44.723 18.813,44.723 15.796,38.248 			"/>
			<polygon clip-path="url(#SVGID_7_)" fill="#5D281D" points="15.796,36.688 19.542,44.723 19.178,44.723 15.796,37.468 			"/>
			<polygon clip-path="url(#SVGID_7_)" fill="#5E291D" points="15.796,35.904 19.906,44.723 19.542,44.723 15.796,36.688 			"/>
			<polygon clip-path="url(#SVGID_7_)" fill="#5F291D" points="15.796,35.125 20.271,44.723 19.906,44.723 15.796,35.904 			"/>
			<polygon clip-path="url(#SVGID_7_)" fill="#602A1E" points="15.796,34.344 20.635,44.723 20.271,44.723 15.796,35.125 			"/>
			<polygon clip-path="url(#SVGID_7_)" fill="#612A1E" points="15.796,33.562 20.999,44.723 20.635,44.723 15.796,34.344 			"/>
			<polygon clip-path="url(#SVGID_7_)" fill="#622B1E" points="15.796,32.782 21.362,44.723 20.999,44.723 15.796,33.562 			"/>
			<polygon clip-path="url(#SVGID_7_)" fill="#632B1E" points="15.796,32.001 21.728,44.723 21.362,44.723 15.796,32.782 			"/>
			<polygon clip-path="url(#SVGID_7_)" fill="#642C1E" points="15.796,31.22 22.091,44.723 21.728,44.723 15.796,32.001 			"/>
			<polygon clip-path="url(#SVGID_7_)" fill="#652C1E" points="15.796,30.438 22.455,44.723 22.091,44.723 15.796,31.22 			"/>
			<polygon clip-path="url(#SVGID_7_)" fill="#662D1E" points="15.796,29.657 22.821,44.723 22.455,44.723 15.796,30.438 			"/>
			<polygon clip-path="url(#SVGID_7_)" fill="#682D1F" points="15.796,28.877 23.184,44.723 22.821,44.723 15.796,29.657 			"/>
			<polygon clip-path="url(#SVGID_7_)" fill="#692E1F" points="15.796,28.096 23.548,44.723 23.184,44.723 15.796,28.877 			"/>
			<polygon clip-path="url(#SVGID_7_)" fill="#6A2E1F" points="15.796,27.314 23.912,44.723 23.548,44.723 15.796,28.096 			"/>
			<polygon clip-path="url(#SVGID_7_)" fill="#6B2F1F" points="15.796,26.533 24.277,44.723 23.912,44.723 15.796,27.314 			"/>
			<polygon clip-path="url(#SVGID_7_)" fill="#6C2F1F" points="15.796,25.752 24.641,44.723 24.277,44.723 15.796,26.533 			"/>
			<polygon clip-path="url(#SVGID_7_)" fill="#6D301F" points="15.796,24.973 25.004,44.723 24.641,44.723 15.796,25.752 			"/>
			<polygon clip-path="url(#SVGID_7_)" fill="#6E301F" points="15.796,24.191 25.368,44.723 25.004,44.723 15.796,24.973 			"/>
			<polygon clip-path="url(#SVGID_7_)" fill="#6F3120" points="16.141,24.151 25.734,44.723 25.368,44.723 15.796,24.191 
				15.796,24.151 			"/>
			<polygon clip-path="url(#SVGID_7_)" fill="#703120" points="16.504,24.151 26.097,44.723 25.734,44.723 16.141,24.151 			"/>
			<polygon clip-path="url(#SVGID_7_)" fill="#713220" points="16.868,24.151 26.461,44.723 26.097,44.723 16.504,24.151 			"/>
			<polygon clip-path="url(#SVGID_7_)" fill="#723220" points="17.234,24.151 26.825,44.723 26.461,44.723 16.868,24.151 			"/>
			<polygon clip-path="url(#SVGID_7_)" fill="#733320" points="17.598,24.151 27.19,44.723 26.825,44.723 17.234,24.151 			"/>
			<polygon clip-path="url(#SVGID_7_)" fill="#743320" points="17.961,24.151 27.554,44.723 27.19,44.723 17.598,24.151 			"/>
			<polygon clip-path="url(#SVGID_7_)" fill="#753421" points="18.327,24.151 27.917,44.723 27.554,44.723 17.961,24.151 			"/>
			<polygon clip-path="url(#SVGID_7_)" fill="#763421" points="18.69,24.151 28.283,44.723 27.917,44.723 18.327,24.151 			"/>
			<polygon clip-path="url(#SVGID_7_)" fill="#773521" points="19.054,24.151 28.647,44.723 28.283,44.723 18.69,24.151 			"/>
			<polygon clip-path="url(#SVGID_7_)" fill="#783521" points="19.417,24.151 29.01,44.723 28.647,44.723 19.054,24.151 			"/>
			<polygon clip-path="url(#SVGID_7_)" fill="#783521" points="19.744,24.151 29.337,44.723 29.01,44.723 19.417,24.151 			"/>
			<polygon clip-path="url(#SVGID_7_)" fill="#793521" points="20.071,24.151 29.664,44.723 29.337,44.723 19.744,24.151 			"/>
			<polygon clip-path="url(#SVGID_7_)" fill="#7A3621" points="20.397,24.151 29.99,44.723 29.664,44.723 20.071,24.151 			"/>
			<polygon clip-path="url(#SVGID_7_)" fill="#7B3622" points="20.724,24.151 30.316,44.723 29.99,44.723 20.397,24.151 			"/>
			<polygon clip-path="url(#SVGID_7_)" fill="#7C3722" points="21.05,24.151 30.643,44.723 30.316,44.723 20.724,24.151 			"/>
			<polygon clip-path="url(#SVGID_7_)" fill="#7D3722" points="21.377,24.151 30.97,44.723 30.643,44.723 21.05,24.151 			"/>
			<polygon clip-path="url(#SVGID_7_)" fill="#7E3822" points="21.704,24.151 31.295,44.723 30.97,44.723 21.377,24.151 			"/>
			<polygon clip-path="url(#SVGID_7_)" fill="#7F3822" points="22.028,24.151 31.621,44.723 31.295,44.723 21.704,24.151 			"/>
			<polygon clip-path="url(#SVGID_7_)" fill="#803922" points="22.355,24.151 31.947,44.723 31.621,44.723 22.028,24.151 			"/>
			<polygon clip-path="url(#SVGID_7_)" fill="#813923" points="22.682,24.151 32.274,44.723 31.947,44.723 22.355,24.151 			"/>
			<polygon clip-path="url(#SVGID_7_)" fill="#823A23" points="23.008,24.151 32.601,44.723 32.274,44.723 22.682,24.151 			"/>
			<polygon clip-path="url(#SVGID_7_)" fill="#833A23" points="23.334,24.151 32.928,44.723 32.601,44.723 23.008,24.151 			"/>
			<polygon clip-path="url(#SVGID_7_)" fill="#843B23" points="23.661,24.151 33.254,44.723 32.928,44.723 23.334,24.151 			"/>
			<polygon clip-path="url(#SVGID_7_)" fill="#853B23" points="23.988,24.151 33.58,44.723 33.254,44.723 23.661,24.151 			"/>
			<polygon clip-path="url(#SVGID_7_)" fill="#863C23" points="24.314,24.151 33.905,44.723 33.58,44.723 23.988,24.151 			"/>
			<polygon clip-path="url(#SVGID_7_)" fill="#873C24" points="24.641,24.151 34.232,44.723 33.905,44.723 24.314,24.151 			"/>
			<polygon clip-path="url(#SVGID_7_)" fill="#883D24" points="24.965,24.151 34.559,44.723 34.232,44.723 24.641,24.151 			"/>
			<polygon clip-path="url(#SVGID_7_)" fill="#893D24" points="25.292,24.151 34.885,44.723 34.559,44.723 24.965,24.151 			"/>
			<polygon clip-path="url(#SVGID_7_)" fill="#8A3E24" points="25.619,24.151 35.211,44.723 34.885,44.723 25.292,24.151 			"/>
			<polygon clip-path="url(#SVGID_7_)" fill="#8B3E24" points="25.945,24.151 35.41,44.446 35.41,44.723 35.211,44.723 
				25.619,24.151 			"/>
			<polygon clip-path="url(#SVGID_7_)" fill="#8C3F24" points="26.272,24.151 35.41,43.747 35.41,44.446 25.945,24.151 			"/>
			<polygon clip-path="url(#SVGID_7_)" fill="#8D3F25" points="26.598,24.151 35.41,43.047 35.41,43.747 26.272,24.151 			"/>
			<polygon clip-path="url(#SVGID_7_)" fill="#8E4025" points="26.925,24.151 35.41,42.348 35.41,43.047 26.598,24.151 			"/>
			<polygon clip-path="url(#SVGID_7_)" fill="#8F4025" points="27.251,24.151 35.41,41.647 35.41,42.348 26.925,24.151 			"/>
			<polygon clip-path="url(#SVGID_7_)" fill="#914125" points="27.576,24.151 35.41,40.947 35.41,41.647 27.251,24.151 			"/>
			<polygon clip-path="url(#SVGID_7_)" fill="#924125" points="27.903,24.151 35.41,40.248 35.41,40.947 27.576,24.151 			"/>
			<polygon clip-path="url(#SVGID_7_)" fill="#934125" points="28.229,24.151 35.41,39.547 35.41,40.248 27.903,24.151 			"/>
			<polygon clip-path="url(#SVGID_7_)" fill="#944226" points="28.556,24.151 35.41,38.848 35.41,39.547 28.229,24.151 			"/>
			<polygon clip-path="url(#SVGID_7_)" fill="#954226" points="28.882,24.151 35.41,38.148 35.41,38.848 28.556,24.151 			"/>
			<polygon clip-path="url(#SVGID_7_)" fill="#964326" points="29.209,24.151 35.41,37.447 35.41,38.148 28.882,24.151 			"/>
			<polygon clip-path="url(#SVGID_7_)" fill="#974326" points="29.535,24.151 35.41,36.748 35.41,37.447 29.209,24.151 			"/>
			<polygon clip-path="url(#SVGID_7_)" fill="#984426" points="29.862,24.151 35.41,36.049 35.41,36.748 29.535,24.151 			"/>
			<polygon clip-path="url(#SVGID_7_)" fill="#994426" points="30.188,24.151 35.41,35.35 35.41,36.049 29.862,24.151 			"/>
			<polygon clip-path="url(#SVGID_7_)" fill="#9A4527" points="30.516,24.151 35.41,34.648 35.41,35.35 30.188,24.151 			"/>
			<polygon clip-path="url(#SVGID_7_)" fill="#9B4527" points="30.84,24.151 35.41,33.949 35.41,34.648 30.516,24.151 			"/>
			<polygon clip-path="url(#SVGID_7_)" fill="#9C4627" points="31.166,24.151 35.41,33.248 35.41,33.949 30.84,24.151 			"/>
			<polygon clip-path="url(#SVGID_7_)" fill="#9D4627" points="31.493,24.151 35.41,32.549 35.41,33.248 31.166,24.151 			"/>
			<polygon clip-path="url(#SVGID_7_)" fill="#9E4727" points="31.82,24.151 35.41,31.85 35.41,32.549 31.493,24.151 			"/>
			<polygon clip-path="url(#SVGID_7_)" fill="#9F4727" points="32.146,24.151 35.41,31.149 35.41,31.85 31.82,24.151 			"/>
			<polygon clip-path="url(#SVGID_7_)" fill="#A04828" points="32.473,24.151 35.41,30.449 35.41,31.149 32.146,24.151 			"/>
			<polygon clip-path="url(#SVGID_7_)" fill="#A14828" points="32.799,24.151 35.41,29.749 35.41,30.449 32.473,24.151 			"/>
			<polygon clip-path="url(#SVGID_7_)" fill="#A24928" points="33.126,24.151 35.41,29.05 35.41,29.749 32.799,24.151 			"/>
			<polygon clip-path="url(#SVGID_7_)" fill="#A34928" points="33.451,24.151 35.41,28.35 35.41,29.05 33.126,24.151 			"/>
			<polygon clip-path="url(#SVGID_7_)" fill="#A44A28" points="33.777,24.151 35.41,27.65 35.41,28.35 33.451,24.151 			"/>
			<polygon clip-path="url(#SVGID_7_)" fill="#A54A28" points="34.104,24.151 35.41,26.95 35.41,27.65 33.777,24.151 			"/>
			<polygon clip-path="url(#SVGID_7_)" fill="#A64B29" points="34.43,24.151 35.41,26.251 35.41,26.95 34.104,24.151 			"/>
			<polygon clip-path="url(#SVGID_7_)" fill="#A74B29" points="34.757,24.151 35.41,25.551 35.41,26.251 34.43,24.151 			"/>
			<polygon clip-path="url(#SVGID_7_)" fill="#A84C29" points="35.084,24.151 35.41,24.851 35.41,25.551 34.757,24.151 			"/>
			<polygon clip-path="url(#SVGID_7_)" fill="#A94C29" points="35.41,24.851 35.084,24.151 35.41,24.151 			"/>
		</g>
	</g>
</g>
<g>
	<g>
		<g>
			<defs>
				<path id="SVGID_8_" d="M35.237,44.723c0,0,12.556,0,17.332,0c1.976,0,2.282-1.985,2.282-1.985V24.151H35.237V44.723z"/>
			</defs>
			<clipPath id="SVGID_9_">
				<use xlink:href="#SVGID_8_"  overflow="visible"/>
			</clipPath>
			<polygon clip-path="url(#SVGID_9_)" fill="#56251C" points="54.019,44.723 54.852,42.934 54.852,44.723 			"/>
			<polygon clip-path="url(#SVGID_9_)" fill="#56251C" points="53.654,44.723 54.852,42.152 54.852,42.934 54.019,44.723 			"/>
			<polygon clip-path="url(#SVGID_9_)" fill="#57251C" points="53.291,44.723 54.852,41.373 54.852,42.152 53.654,44.723 			"/>
			<polygon clip-path="url(#SVGID_9_)" fill="#58261C" points="52.926,44.723 54.852,40.591 54.852,41.373 53.291,44.723 			"/>
			<polygon clip-path="url(#SVGID_9_)" fill="#59261C" points="52.562,44.723 54.852,39.811 54.852,40.591 52.926,44.723 			"/>
			<polygon clip-path="url(#SVGID_9_)" fill="#5A271D" points="52.198,44.723 54.852,39.029 54.852,39.811 52.562,44.723 			"/>
			<polygon clip-path="url(#SVGID_9_)" fill="#5B271D" points="51.832,44.723 54.852,38.248 54.852,39.029 52.198,44.723 			"/>
			<polygon clip-path="url(#SVGID_9_)" fill="#5C281D" points="51.469,44.723 54.852,37.467 54.852,38.248 51.832,44.723 			"/>
			<polygon clip-path="url(#SVGID_9_)" fill="#5D281D" points="51.105,44.723 54.852,36.688 54.852,37.467 51.469,44.723 			"/>
			<polygon clip-path="url(#SVGID_9_)" fill="#5E291D" points="50.74,44.723 54.852,35.904 54.852,36.688 51.105,44.723 			"/>
			<polygon clip-path="url(#SVGID_9_)" fill="#5F291D" points="50.376,44.723 54.852,35.123 54.852,35.904 50.74,44.723 			"/>
			<polygon clip-path="url(#SVGID_9_)" fill="#602A1E" points="50.013,44.723 54.852,34.344 54.852,35.123 50.376,44.723 			"/>
			<polygon clip-path="url(#SVGID_9_)" fill="#612A1E" points="49.648,44.723 54.852,33.562 54.852,34.344 50.013,44.723 			"/>
			<polygon clip-path="url(#SVGID_9_)" fill="#622B1E" points="49.285,44.723 54.852,32.782 54.852,33.562 49.648,44.723 			"/>
			<polygon clip-path="url(#SVGID_9_)" fill="#632B1E" points="48.92,44.723 54.852,32 54.852,32.782 49.285,44.723 			"/>
			<polygon clip-path="url(#SVGID_9_)" fill="#642C1E" points="48.557,44.723 54.852,31.22 54.852,32 48.92,44.723 			"/>
			<polygon clip-path="url(#SVGID_9_)" fill="#652C1E" points="48.192,44.723 54.852,30.438 54.852,31.22 48.557,44.723 			"/>
			<polygon clip-path="url(#SVGID_9_)" fill="#662D1E" points="47.826,44.723 54.852,29.657 54.852,30.438 48.192,44.723 			"/>
			<polygon clip-path="url(#SVGID_9_)" fill="#682D1F" points="47.463,44.723 54.852,28.877 54.852,29.657 47.826,44.723 			"/>
			<polygon clip-path="url(#SVGID_9_)" fill="#692E1F" points="47.1,44.723 54.852,28.096 54.852,28.877 47.463,44.723 			"/>
			<polygon clip-path="url(#SVGID_9_)" fill="#6A2E1F" points="46.734,44.723 54.852,27.314 54.852,28.096 47.1,44.723 			"/>
			<polygon clip-path="url(#SVGID_9_)" fill="#6B2F1F" points="46.37,44.723 54.852,26.533 54.852,27.314 46.734,44.723 			"/>
			<polygon clip-path="url(#SVGID_9_)" fill="#6C2F1F" points="46.006,44.723 54.852,25.752 54.852,26.533 46.37,44.723 			"/>
			<polygon clip-path="url(#SVGID_9_)" fill="#6D301F" points="45.643,44.723 54.852,24.971 54.852,25.752 46.006,44.723 			"/>
			<polygon clip-path="url(#SVGID_9_)" fill="#6E301F" points="45.277,44.723 54.852,24.19 54.852,24.971 45.643,44.723 			"/>
			<polygon clip-path="url(#SVGID_9_)" fill="#6F3120" points="44.914,44.723 54.506,24.151 54.852,24.151 54.852,24.19 
				45.277,44.723 			"/>
			<polygon clip-path="url(#SVGID_9_)" fill="#703120" points="44.55,44.723 54.141,24.151 54.506,24.151 44.914,44.723 			"/>
			<polygon clip-path="url(#SVGID_9_)" fill="#713220" points="44.185,44.723 53.777,24.151 54.141,24.151 44.55,44.723 			"/>
			<polygon clip-path="url(#SVGID_9_)" fill="#723220" points="43.82,44.723 53.414,24.151 53.777,24.151 44.185,44.723 			"/>
			<polygon clip-path="url(#SVGID_9_)" fill="#733320" points="43.457,44.723 53.05,24.151 53.414,24.151 43.82,44.723 			"/>
			<polygon clip-path="url(#SVGID_9_)" fill="#743320" points="43.094,44.723 52.685,24.151 53.05,24.151 43.457,44.723 			"/>
			<polygon clip-path="url(#SVGID_9_)" fill="#753421" points="42.73,44.723 52.32,24.151 52.685,24.151 43.094,44.723 			"/>
			<polygon clip-path="url(#SVGID_9_)" fill="#763421" points="42.364,44.723 51.957,24.151 52.32,24.151 42.73,44.723 			"/>
			<polygon clip-path="url(#SVGID_9_)" fill="#773521" points="42,44.723 51.594,24.151 51.957,24.151 42.364,44.723 			"/>
			<polygon clip-path="url(#SVGID_9_)" fill="#783521" points="41.637,44.723 51.229,24.151 51.594,24.151 42,44.723 			"/>
			<polygon clip-path="url(#SVGID_9_)" fill="#783521" points="41.311,44.723 50.901,24.151 51.229,24.151 41.637,44.723 			"/>
			<polygon clip-path="url(#SVGID_9_)" fill="#793521" points="40.984,44.723 50.576,24.151 50.901,24.151 41.311,44.723 			"/>
			<polygon clip-path="url(#SVGID_9_)" fill="#7A3621" points="40.657,44.723 50.25,24.151 50.576,24.151 40.984,44.723 			"/>
			<polygon clip-path="url(#SVGID_9_)" fill="#7B3622" points="40.33,44.723 49.924,24.151 50.25,24.151 40.657,44.723 			"/>
			<polygon clip-path="url(#SVGID_9_)" fill="#7C3722" points="40.004,44.723 49.597,24.151 49.924,24.151 40.33,44.723 			"/>
			<polygon clip-path="url(#SVGID_9_)" fill="#7D3722" points="39.678,44.723 49.271,24.151 49.597,24.151 40.004,44.723 			"/>
			<polygon clip-path="url(#SVGID_9_)" fill="#7E3822" points="39.352,44.723 48.945,24.151 49.271,24.151 39.678,44.723 			"/>
			<polygon clip-path="url(#SVGID_9_)" fill="#7F3822" points="39.026,44.723 48.617,24.151 48.945,24.151 39.352,44.723 			"/>
			<polygon clip-path="url(#SVGID_9_)" fill="#803922" points="38.699,44.723 48.291,24.151 48.617,24.151 39.026,44.723 			"/>
			<polygon clip-path="url(#SVGID_9_)" fill="#813923" points="38.373,44.723 47.964,24.151 48.291,24.151 38.699,44.723 			"/>
			<polygon clip-path="url(#SVGID_9_)" fill="#823A23" points="38.047,44.723 47.639,24.151 47.964,24.151 38.373,44.723 			"/>
			<polygon clip-path="url(#SVGID_9_)" fill="#833A23" points="37.721,44.723 47.312,24.151 47.639,24.151 38.047,44.723 			"/>
			<polygon clip-path="url(#SVGID_9_)" fill="#843B23" points="37.394,44.723 46.986,24.151 47.312,24.151 37.721,44.723 			"/>
			<polygon clip-path="url(#SVGID_9_)" fill="#853B23" points="37.066,44.723 46.66,24.151 46.986,24.151 37.394,44.723 			"/>
			<polygon clip-path="url(#SVGID_9_)" fill="#863C23" points="36.74,44.723 46.333,24.151 46.66,24.151 37.066,44.723 			"/>
			<polygon clip-path="url(#SVGID_9_)" fill="#873C24" points="36.416,44.723 46.006,24.151 46.333,24.151 36.74,44.723 			"/>
			<polygon clip-path="url(#SVGID_9_)" fill="#883D24" points="36.089,44.723 45.682,24.151 46.006,24.151 36.416,44.723 			"/>
			<polygon clip-path="url(#SVGID_9_)" fill="#893D24" points="35.763,44.723 45.355,24.151 45.682,24.151 36.089,44.723 			"/>
			<polygon clip-path="url(#SVGID_9_)" fill="#8A3E24" points="35.436,44.723 45.029,24.151 45.355,24.151 35.763,44.723 			"/>
			<polygon clip-path="url(#SVGID_9_)" fill="#8B3E24" points="35.237,44.446 44.702,24.151 45.029,24.151 35.436,44.723 
				35.237,44.723 			"/>
			<polygon clip-path="url(#SVGID_9_)" fill="#8C3F24" points="35.237,43.746 44.375,24.151 44.702,24.151 35.237,44.446 			"/>
			<polygon clip-path="url(#SVGID_9_)" fill="#8D3F25" points="35.237,43.047 44.049,24.151 44.375,24.151 35.237,43.746 			"/>
			<polygon clip-path="url(#SVGID_9_)" fill="#8E4025" points="35.237,42.348 43.723,24.151 44.049,24.151 35.237,43.047 			"/>
			<polygon clip-path="url(#SVGID_9_)" fill="#8F4025" points="35.237,41.647 43.396,24.151 43.723,24.151 35.237,42.348 			"/>
			<polygon clip-path="url(#SVGID_9_)" fill="#914125" points="35.237,40.947 43.069,24.151 43.396,24.151 35.237,41.647 			"/>
			<polygon clip-path="url(#SVGID_9_)" fill="#924125" points="35.237,40.248 42.742,24.151 43.069,24.151 35.237,40.947 			"/>
			<polygon clip-path="url(#SVGID_9_)" fill="#934125" points="35.237,39.547 42.416,24.151 42.742,24.151 35.237,40.248 			"/>
			<polygon clip-path="url(#SVGID_9_)" fill="#944226" points="35.237,38.848 42.092,24.151 42.416,24.151 35.237,39.547 			"/>
			<polygon clip-path="url(#SVGID_9_)" fill="#954226" points="35.237,38.146 41.766,24.151 42.092,24.151 35.237,38.848 			"/>
			<polygon clip-path="url(#SVGID_9_)" fill="#964326" points="35.237,37.447 41.438,24.151 41.766,24.151 35.237,38.146 			"/>
			<polygon clip-path="url(#SVGID_9_)" fill="#974326" points="35.237,36.748 41.111,24.151 41.438,24.151 35.237,37.447 			"/>
			<polygon clip-path="url(#SVGID_9_)" fill="#984426" points="35.237,36.048 40.785,24.151 41.111,24.151 35.237,36.748 			"/>
			<polygon clip-path="url(#SVGID_9_)" fill="#994426" points="35.237,35.348 40.459,24.151 40.785,24.151 35.237,36.048 			"/>
			<polygon clip-path="url(#SVGID_9_)" fill="#9A4527" points="35.237,34.648 40.133,24.151 40.459,24.151 35.237,35.348 			"/>
			<polygon clip-path="url(#SVGID_9_)" fill="#9B4527" points="35.237,33.949 39.808,24.151 40.133,24.151 35.237,34.648 			"/>
			<polygon clip-path="url(#SVGID_9_)" fill="#9C4627" points="35.237,33.248 39.479,24.151 39.808,24.151 35.237,33.949 			"/>
			<polygon clip-path="url(#SVGID_9_)" fill="#9D4627" points="35.237,32.549 39.152,24.151 39.479,24.151 35.237,33.248 			"/>
			<polygon clip-path="url(#SVGID_9_)" fill="#9E4727" points="35.237,31.849 38.828,24.151 39.152,24.151 35.237,32.549 			"/>
			<polygon clip-path="url(#SVGID_9_)" fill="#9F4727" points="35.237,31.149 38.501,24.151 38.828,24.151 35.237,31.849 			"/>
			<polygon clip-path="url(#SVGID_9_)" fill="#A04828" points="35.237,30.449 38.175,24.151 38.501,24.151 35.237,31.149 			"/>
			<polygon clip-path="url(#SVGID_9_)" fill="#A14828" points="35.237,29.749 37.848,24.151 38.175,24.151 35.237,30.449 			"/>
			<polygon clip-path="url(#SVGID_9_)" fill="#A24928" points="35.237,29.05 37.521,24.151 37.848,24.151 35.237,29.749 			"/>
			<polygon clip-path="url(#SVGID_9_)" fill="#A34928" points="35.237,28.35 37.195,24.151 37.521,24.151 35.237,29.05 			"/>
			<polygon clip-path="url(#SVGID_9_)" fill="#A44A28" points="35.237,27.65 36.868,24.151 37.195,24.151 35.237,28.35 			"/>
			<polygon clip-path="url(#SVGID_9_)" fill="#A54A28" points="35.237,26.95 36.543,24.151 36.868,24.151 35.237,27.65 			"/>
			<polygon clip-path="url(#SVGID_9_)" fill="#A64B29" points="35.237,26.25 36.217,24.151 36.543,24.151 35.237,26.95 			"/>
			<polygon clip-path="url(#SVGID_9_)" fill="#A74B29" points="35.237,25.551 35.891,24.151 36.217,24.151 35.237,26.25 			"/>
			<polygon clip-path="url(#SVGID_9_)" fill="#A84C29" points="35.237,24.851 35.564,24.151 35.891,24.151 35.237,25.551 			"/>
			<polygon clip-path="url(#SVGID_9_)" fill="#A94C29" points="35.564,24.151 35.237,24.851 35.237,24.151 			"/>
		</g>
	</g>
</g>
<g>
	<g>
		<g>
			<defs>
				<path id="SVGID_10_" d="M47.316,5.954l7.595,6.902v13.77l0,0c-10.831,10.831-28.361,10.831-39.191,0v-13.77l7.594-6.902"/>
			</defs>
			<clipPath id="SVGID_11_">
				<use xlink:href="#SVGID_10_"  overflow="visible"/>
			</clipPath>
			<rect x="15.72" y="5.954" clip-path="url(#SVGID_11_)" fill="#7F2213" width="39.191" height="0.259"/>
			<rect x="15.72" y="6.213" clip-path="url(#SVGID_11_)" fill="#802314" width="39.191" height="0.259"/>
			<rect x="15.72" y="6.472" clip-path="url(#SVGID_11_)" fill="#812414" width="39.191" height="0.259"/>
			<rect x="15.72" y="6.73" clip-path="url(#SVGID_11_)" fill="#822515" width="39.191" height="0.259"/>
			<rect x="15.72" y="6.989" clip-path="url(#SVGID_11_)" fill="#832615" width="39.191" height="0.26"/>
			<rect x="15.72" y="7.249" clip-path="url(#SVGID_11_)" fill="#842716" width="39.191" height="0.259"/>
			<rect x="15.72" y="7.508" clip-path="url(#SVGID_11_)" fill="#852816" width="39.191" height="0.259"/>
			<rect x="15.72" y="7.767" clip-path="url(#SVGID_11_)" fill="#862917" width="39.191" height="0.259"/>
			<rect x="15.72" y="8.025" clip-path="url(#SVGID_11_)" fill="#872A17" width="39.191" height="0.26"/>
			<rect x="15.72" y="8.285" clip-path="url(#SVGID_11_)" fill="#882B18" width="39.191" height="0.259"/>
			<rect x="15.72" y="8.544" clip-path="url(#SVGID_11_)" fill="#892C19" width="39.191" height="0.259"/>
			<rect x="15.72" y="8.803" clip-path="url(#SVGID_11_)" fill="#8A2D19" width="39.191" height="0.259"/>
			<rect x="15.72" y="9.062" clip-path="url(#SVGID_11_)" fill="#8B2E1A" width="39.191" height="0.26"/>
			<rect x="15.72" y="9.321" clip-path="url(#SVGID_11_)" fill="#8C2F1A" width="39.191" height="0.259"/>
			<rect x="15.72" y="9.581" clip-path="url(#SVGID_11_)" fill="#8E311B" width="39.191" height="0.259"/>
			<rect x="15.72" y="9.839" clip-path="url(#SVGID_11_)" fill="#8F321B" width="39.191" height="0.259"/>
			<rect x="15.72" y="10.098" clip-path="url(#SVGID_11_)" fill="#90331C" width="39.191" height="0.259"/>
			<rect x="15.72" y="10.357" clip-path="url(#SVGID_11_)" fill="#91341C" width="39.191" height="0.26"/>
			<rect x="15.72" y="10.617" clip-path="url(#SVGID_11_)" fill="#92351D" width="39.191" height="0.259"/>
			<rect x="15.72" y="10.875" clip-path="url(#SVGID_11_)" fill="#93361E" width="39.191" height="0.259"/>
			<rect x="15.72" y="11.134" clip-path="url(#SVGID_11_)" fill="#94371E" width="39.191" height="0.259"/>
			<rect x="15.72" y="11.393" clip-path="url(#SVGID_11_)" fill="#95381F" width="39.191" height="0.26"/>
			<rect x="15.72" y="11.653" clip-path="url(#SVGID_11_)" fill="#96391F" width="39.191" height="0.258"/>
			<rect x="15.72" y="11.911" clip-path="url(#SVGID_11_)" fill="#973A20" width="39.191" height="0.26"/>
			<rect x="15.72" y="12.17" clip-path="url(#SVGID_11_)" fill="#983B20" width="39.191" height="0.26"/>
			<rect x="15.72" y="12.43" clip-path="url(#SVGID_11_)" fill="#993C21" width="39.191" height="0.258"/>
			<rect x="15.72" y="12.688" clip-path="url(#SVGID_11_)" fill="#9A3D21" width="39.191" height="0.26"/>
			<rect x="15.72" y="12.948" clip-path="url(#SVGID_11_)" fill="#9B3E22" width="39.191" height="0.259"/>
			<rect x="15.72" y="13.207" clip-path="url(#SVGID_11_)" fill="#9B3E22" width="39.191" height="0.353"/>
			<rect x="15.72" y="13.56" clip-path="url(#SVGID_11_)" fill="#9C3F23" width="39.191" height="0.353"/>
			<rect x="15.72" y="13.912" clip-path="url(#SVGID_11_)" fill="#9D4023" width="39.191" height="0.353"/>
			<rect x="15.72" y="14.265" clip-path="url(#SVGID_11_)" fill="#9E4124" width="39.191" height="0.353"/>
			<rect x="15.72" y="14.617" clip-path="url(#SVGID_11_)" fill="#9F4224" width="39.191" height="0.353"/>
			<rect x="15.72" y="14.97" clip-path="url(#SVGID_11_)" fill="#A04325" width="39.191" height="0.353"/>
			<rect x="15.72" y="15.322" clip-path="url(#SVGID_11_)" fill="#A14425" width="39.191" height="0.353"/>
			<rect x="15.72" y="15.675" clip-path="url(#SVGID_11_)" fill="#A34626" width="39.191" height="0.353"/>
			<rect x="15.72" y="16.027" clip-path="url(#SVGID_11_)" fill="#A44726" width="39.191" height="0.353"/>
			<rect x="15.72" y="16.38" clip-path="url(#SVGID_11_)" fill="#A54827" width="39.191" height="0.353"/>
			<rect x="15.72" y="16.732" clip-path="url(#SVGID_11_)" fill="#A64927" width="39.191" height="0.353"/>
			<rect x="15.72" y="17.085" clip-path="url(#SVGID_11_)" fill="#A74A28" width="39.191" height="0.353"/>
			<rect x="15.72" y="17.438" clip-path="url(#SVGID_11_)" fill="#A84B28" width="39.191" height="0.353"/>
			<rect x="15.72" y="17.79" clip-path="url(#SVGID_11_)" fill="#A94C29" width="39.191" height="0.353"/>
			<rect x="15.72" y="18.143" clip-path="url(#SVGID_11_)" fill="#A94C29" width="39.191" height="14.152"/>
			<rect x="15.72" y="32.295" clip-path="url(#SVGID_11_)" fill="#A94C29" width="39.191" height="1.393"/>
			<rect x="15.72" y="33.688" clip-path="url(#SVGID_11_)" fill="#A94C29" width="39.191" height="3.769"/>
		</g>
	</g>
</g>
<g opacity="0.57">
	<g>
		<g>
			<defs>
				<path id="SVGID_12_" d="M47.316,5.954l7.595,6.902c0,0,0,10.326,0,13.77l0,0c-10.831,10.831-28.361,10.831-39.191,0v-13.77
					l7.594-6.902"/>
			</defs>
			<clipPath id="SVGID_13_">
				<use xlink:href="#SVGID_12_"  overflow="visible"/>
			</clipPath>
			<rect x="15.72" y="5.954" clip-path="url(#SVGID_13_)" fill="#7F2213" width="39.191" height="0.259"/>
			<rect x="15.72" y="6.213" clip-path="url(#SVGID_13_)" fill="#802314" width="39.191" height="0.259"/>
			<rect x="15.72" y="6.472" clip-path="url(#SVGID_13_)" fill="#812414" width="39.191" height="0.259"/>
			<rect x="15.72" y="6.73" clip-path="url(#SVGID_13_)" fill="#822515" width="39.191" height="0.259"/>
			<rect x="15.72" y="6.989" clip-path="url(#SVGID_13_)" fill="#832615" width="39.191" height="0.26"/>
			<rect x="15.72" y="7.249" clip-path="url(#SVGID_13_)" fill="#842716" width="39.191" height="0.259"/>
			<rect x="15.72" y="7.508" clip-path="url(#SVGID_13_)" fill="#852816" width="39.191" height="0.259"/>
			<rect x="15.72" y="7.767" clip-path="url(#SVGID_13_)" fill="#862917" width="39.191" height="0.259"/>
			<rect x="15.72" y="8.025" clip-path="url(#SVGID_13_)" fill="#872A17" width="39.191" height="0.26"/>
			<rect x="15.72" y="8.285" clip-path="url(#SVGID_13_)" fill="#882B18" width="39.191" height="0.259"/>
			<rect x="15.72" y="8.544" clip-path="url(#SVGID_13_)" fill="#892C19" width="39.191" height="0.259"/>
			<rect x="15.72" y="8.803" clip-path="url(#SVGID_13_)" fill="#8A2D19" width="39.191" height="0.259"/>
			<rect x="15.72" y="9.062" clip-path="url(#SVGID_13_)" fill="#8B2E1A" width="39.191" height="0.26"/>
			<rect x="15.72" y="9.321" clip-path="url(#SVGID_13_)" fill="#8C2F1A" width="39.191" height="0.259"/>
			<rect x="15.72" y="9.581" clip-path="url(#SVGID_13_)" fill="#8E311B" width="39.191" height="0.259"/>
			<rect x="15.72" y="9.839" clip-path="url(#SVGID_13_)" fill="#8F321B" width="39.191" height="0.259"/>
			<rect x="15.72" y="10.098" clip-path="url(#SVGID_13_)" fill="#90331C" width="39.191" height="0.259"/>
			<rect x="15.72" y="10.357" clip-path="url(#SVGID_13_)" fill="#91341C" width="39.191" height="0.26"/>
			<rect x="15.72" y="10.617" clip-path="url(#SVGID_13_)" fill="#92351D" width="39.191" height="0.259"/>
			<rect x="15.72" y="10.875" clip-path="url(#SVGID_13_)" fill="#93361E" width="39.191" height="0.259"/>
			<rect x="15.72" y="11.134" clip-path="url(#SVGID_13_)" fill="#94371E" width="39.191" height="0.259"/>
			<rect x="15.72" y="11.393" clip-path="url(#SVGID_13_)" fill="#95381F" width="39.191" height="0.26"/>
			<rect x="15.72" y="11.653" clip-path="url(#SVGID_13_)" fill="#96391F" width="39.191" height="0.258"/>
			<rect x="15.72" y="11.911" clip-path="url(#SVGID_13_)" fill="#973A20" width="39.191" height="0.26"/>
			<rect x="15.72" y="12.17" clip-path="url(#SVGID_13_)" fill="#983B20" width="39.191" height="0.26"/>
			<rect x="15.72" y="12.43" clip-path="url(#SVGID_13_)" fill="#993C21" width="39.191" height="0.258"/>
			<rect x="15.72" y="12.688" clip-path="url(#SVGID_13_)" fill="#9A3D21" width="39.191" height="0.26"/>
			<rect x="15.72" y="12.948" clip-path="url(#SVGID_13_)" fill="#9B3E22" width="39.191" height="0.259"/>
			<rect x="15.72" y="13.207" clip-path="url(#SVGID_13_)" fill="#9B3E22" width="39.191" height="0.353"/>
			<rect x="15.72" y="13.56" clip-path="url(#SVGID_13_)" fill="#9C3F23" width="39.191" height="0.353"/>
			<rect x="15.72" y="13.912" clip-path="url(#SVGID_13_)" fill="#9D4023" width="39.191" height="0.353"/>
			<rect x="15.72" y="14.265" clip-path="url(#SVGID_13_)" fill="#9E4124" width="39.191" height="0.353"/>
			<rect x="15.72" y="14.617" clip-path="url(#SVGID_13_)" fill="#9F4224" width="39.191" height="0.353"/>
			<rect x="15.72" y="14.97" clip-path="url(#SVGID_13_)" fill="#A04325" width="39.191" height="0.353"/>
			<rect x="15.72" y="15.322" clip-path="url(#SVGID_13_)" fill="#A14425" width="39.191" height="0.353"/>
			<rect x="15.72" y="15.675" clip-path="url(#SVGID_13_)" fill="#A34626" width="39.191" height="0.353"/>
			<rect x="15.72" y="16.027" clip-path="url(#SVGID_13_)" fill="#A44726" width="39.191" height="0.353"/>
			<rect x="15.72" y="16.38" clip-path="url(#SVGID_13_)" fill="#A54827" width="39.191" height="0.353"/>
			<rect x="15.72" y="16.732" clip-path="url(#SVGID_13_)" fill="#A64927" width="39.191" height="0.353"/>
			<rect x="15.72" y="17.085" clip-path="url(#SVGID_13_)" fill="#A74A28" width="39.191" height="0.353"/>
			<rect x="15.72" y="17.438" clip-path="url(#SVGID_13_)" fill="#A84B28" width="39.191" height="0.353"/>
			<rect x="15.72" y="17.79" clip-path="url(#SVGID_13_)" fill="#A94C29" width="39.191" height="0.353"/>
			<rect x="15.72" y="18.143" clip-path="url(#SVGID_13_)" fill="#A94C29" width="39.191" height="14.152"/>
			<rect x="15.72" y="32.295" clip-path="url(#SVGID_13_)" fill="#A94C29" width="39.191" height="1.393"/>
			<rect x="15.72" y="33.688" clip-path="url(#SVGID_13_)" fill="#A94C29" width="39.191" height="3.769"/>
		</g>
	</g>
	<g opacity="0.67" enable-background="new    ">
		<path fill="#7F2213" d="M35.315,34.957c-7.454,0-14.465-2.907-19.744-8.186l-0.061-0.061V12.763l7.663-6.964l0.282,0.31
			l-7.526,6.839v13.589c5.192,5.16,12.072,8.001,19.386,8.001c7.312,0,14.194-2.841,19.388-8.001V12.948l-7.527-6.839l0.281-0.31
			l7.666,6.964v13.948l-0.062,0.061C49.781,32.05,42.771,34.957,35.315,34.957z"/>
	</g>
</g>
<g opacity="0.71">
	<g opacity="0.71" enable-background="new    ">
		<path fill="#ECCBA1" d="M35.315,33.743c-0.108,0-0.218-0.001-0.327-0.002l0.004-0.314c0.416,0.005,0.834,0,1.251-0.015
			l0.011,0.314C35.94,33.738,35.625,33.743,35.315,33.743z M34.567,33.732c-0.419-0.012-0.845-0.033-1.262-0.065l0.024-0.313
			c0.412,0.031,0.831,0.053,1.246,0.064L34.567,33.732z M36.676,33.708l-0.018-0.313c0.414-0.021,0.834-0.053,1.246-0.093
			l0.031,0.312C37.518,33.654,37.093,33.687,36.676,33.708z M32.885,33.632c-0.418-0.038-0.839-0.087-1.254-0.146l0.042-0.311
			c0.41,0.057,0.829,0.105,1.241,0.144L32.885,33.632z M38.354,33.568l-0.035-0.312c0.41-0.048,0.825-0.104,1.235-0.173l0.053,0.311
			C39.191,33.463,38.77,33.521,38.354,33.568z M31.213,33.425c-0.414-0.065-0.833-0.14-1.243-0.225l0.063-0.308
			c0.406,0.084,0.82,0.158,1.229,0.222L31.213,33.425z M40.021,33.322l-0.055-0.309c0.406-0.073,0.818-0.157,1.223-0.25l0.07,0.307
			C40.85,33.163,40.435,33.248,40.021,33.322z M29.558,33.112c-0.41-0.092-0.822-0.192-1.228-0.304l0.083-0.303
			c0.401,0.109,0.809,0.209,1.214,0.299L29.558,33.112z M41.67,32.971l-0.074-0.304c0.401-0.099,0.808-0.21,1.205-0.327l0.09,0.301
			C42.486,32.761,42.076,32.872,41.67,32.971z M27.925,32.695c-0.402-0.117-0.809-0.246-1.206-0.381l0.102-0.298
			c0.394,0.134,0.792,0.261,1.191,0.376L27.925,32.695z M43.294,32.517l-0.095-0.3c0.395-0.125,0.793-0.26,1.182-0.404l0.109,0.295
			C44.096,32.254,43.693,32.392,43.294,32.517z M26.322,32.174c-0.395-0.143-0.791-0.297-1.178-0.457l0.121-0.29
			c0.382,0.159,0.774,0.311,1.166,0.452L26.322,32.174z M44.886,31.958l-0.114-0.292c0.387-0.15,0.775-0.312,1.153-0.479
			l0.128,0.287C45.669,31.645,45.275,31.807,44.886,31.958z M24.756,31.553c-0.384-0.169-0.77-0.348-1.146-0.533l0.139-0.28
			c0.371,0.183,0.753,0.358,1.133,0.524L24.756,31.553z M46.438,31.299l-0.133-0.285c0.377-0.174,0.754-0.359,1.121-0.551
			l0.145,0.278C47.199,30.936,46.819,31.122,46.438,31.299z M23.234,30.832c-0.373-0.192-0.746-0.396-1.111-0.604l0.158-0.273
			c0.36,0.207,0.729,0.407,1.097,0.597L23.234,30.832z M47.943,30.543l-0.15-0.275c0.365-0.2,0.729-0.408,1.084-0.624l0.163,0.269
			C48.682,30.131,48.312,30.342,47.943,30.543z M21.761,30.015c-0.36-0.214-0.72-0.442-1.069-0.675l0.172-0.26
			c0.345,0.229,0.702,0.452,1.058,0.664L21.761,30.015z M49.4,29.689l-0.169-0.266c0.351-0.221,0.701-0.454,1.041-0.69l0.18,0.258
			C50.109,29.231,49.754,29.467,49.4,29.689z M20.344,29.105c-0.345-0.238-0.69-0.487-1.024-0.74l0.189-0.25
			c0.33,0.251,0.671,0.496,1.013,0.731L20.344,29.105z M50.797,28.746l-0.184-0.255c0.334-0.241,0.668-0.495,0.995-0.755
			l0.196,0.244C51.475,28.244,51.135,28.502,50.797,28.746z M18.987,28.107c-0.331-0.258-0.659-0.529-0.976-0.804l0.206-0.236
			c0.313,0.271,0.638,0.538,0.963,0.794L18.987,28.107z M52.131,27.716l-0.197-0.242c0.318-0.264,0.636-0.538,0.943-0.817
			l0.212,0.232C52.777,27.171,52.456,27.449,52.131,27.716z M17.696,27.026c-0.312-0.278-0.624-0.569-0.924-0.864l0.221-0.225
			c0.297,0.292,0.603,0.58,0.911,0.854L17.696,27.026z M53.398,26.604l-0.215-0.23c0.198-0.186,0.396-0.377,0.592-0.569v-0.3h0.313
			v0.43l-0.046,0.045C53.833,26.189,53.615,26.399,53.398,26.604z M16.855,25.708h-0.314V24.45h0.314V25.708z M54.089,25.084h-0.313
			v-1.255h0.313V25.084z M16.855,24.033h-0.314v-1.257h0.314V24.033z M54.089,23.409h-0.313v-1.256h0.313V23.409z M16.855,22.356
			h-0.314V21.1h0.314V22.356z M54.089,21.734h-0.313v-1.257h0.313V21.734z M16.855,20.681h-0.314v-1.257h0.314V20.681z
			 M54.089,20.058h-0.313v-1.257h0.313V20.058z M16.855,19.004h-0.314v-1.257h0.314V19.004z M54.089,18.382h-0.313v-1.256h0.313
			V18.382z M16.855,17.329h-0.314v-1.257h0.314V17.329z M54.089,16.706h-0.313v-1.257h0.313V16.706z M16.855,15.653h-0.314v-1.257
			h0.314V15.653z M54.089,15.03h-0.313v-1.257h0.313V15.03z M16.855,13.977h-0.314v-0.579l0.605-0.549l0.21,0.232l-0.501,0.457
			V13.977z M53.742,13.507l-0.93-0.845l0.211-0.232l0.93,0.844L53.742,13.507z M17.668,12.8l-0.211-0.233l0.93-0.845l0.211,0.233
			L17.668,12.8z M52.502,12.38l-0.93-0.845l0.213-0.233l0.929,0.846L52.502,12.38z M18.907,11.672l-0.211-0.232l0.93-0.846
			l0.211,0.233L18.907,11.672z M51.264,11.254l-0.932-0.846l0.211-0.232l0.93,0.845L51.264,11.254z M20.147,10.545l-0.21-0.232
			l0.93-0.846L21.078,9.7L20.147,10.545z M50.021,10.126l-0.93-0.845l0.212-0.232l0.93,0.845L50.021,10.126z M21.388,9.418
			l-0.211-0.232l0.93-0.845l0.211,0.232L21.388,9.418z M48.782,9l-0.93-0.845l0.21-0.233l0.932,0.845L48.782,9z M22.627,8.292
			l-0.209-0.232l0.93-0.845l0.211,0.233L22.627,8.292z M47.543,7.873l-0.932-0.845l0.211-0.233l0.93,0.845L47.543,7.873z"/>
	</g>
</g>
<g>
	<g>
		<path fill="#C2B59B" d="M35.423,31.008c-1.724,0-3.231-1.625-3.231-3.478l-0.027-7.322c0-1.851,1.512-3.476,3.232-3.476
			c1.723,0,3.232,1.625,3.232,3.477l0.024,7.322C38.653,29.383,37.143,31.008,35.423,31.008z"/>
	</g>
	<g>
		<path fill="#9B8579" d="M35.396,16.995c1.583,0,2.971,1.502,2.971,3.217l0.024,7.319c0,1.712-1.388,3.216-2.969,3.216
			c-1.583,0-2.971-1.504-2.971-3.217l-0.026-7.32C32.426,18.497,33.814,16.995,35.396,16.995 M35.396,16.471
			c-1.93,0-3.493,1.809-3.493,3.739l0.024,7.321c0,1.931,1.563,3.739,3.495,3.739c1.928,0,3.492-1.809,3.492-3.739l-0.024-7.321
			C38.891,18.28,37.326,16.471,35.396,16.471L35.396,16.471z"/>
	</g>
</g>
<g>
	<g>
		<g>
			<path fill="#2C2724" d="M37.34,21.464c0-1.066-0.865-1.931-1.93-1.931c-1.066,0-1.932,0.865-1.932,1.931
				c0,0.731,0.408,1.367,1.008,1.695v5.208h1.846v-5.208C36.934,22.831,37.34,22.196,37.34,21.464z"/>
		</g>
	</g>
	<defs>
		<filter id="Adobe_OpacityMaskFilter" filterUnits="userSpaceOnUse" x="33.479" y="19.533" width="3.861" height="8.833">
			<feColorMatrix  type="matrix" values="1 0 0 0 0  0 1 0 0 0  0 0 1 0 0  0 0 0 1 0"/>
		</filter>
	</defs>
	<mask maskUnits="userSpaceOnUse" x="33.479" y="19.533" width="3.861" height="8.833" id="SVGID_1_">
		<g filter="url(#Adobe_OpacityMaskFilter)">
			
				<image overflow="visible" enable-background="new    " width="35" height="72" xlink:href="A05860FF.jpg"  transform="matrix(0.1309 0 0 0.1309 33.1348 19.2056)">
			</image>
		</g>
	</mask>
	<g mask="url(#SVGID_1_)">
		<g>
			<path d="M37.34,21.464c0-1.066-0.865-1.931-1.93-1.931c-1.066,0-1.932,0.865-1.932,1.931c0,0.731,0.408,1.367,1.008,1.695v5.208
				h1.846v-5.208C36.934,22.831,37.34,22.196,37.34,21.464z"/>
		</g>
	</g>
</g>
<g>
	<g opacity="0.71" enable-background="new    ">
		<path fill="#A94C29" d="M18.063,11.473l-0.543-0.541l0.223-0.223l0.542,0.541L18.063,11.473z M17.225,10.636l-0.891-0.888
			l0.223-0.223l0.889,0.888L17.225,10.636z M16.037,9.452l-0.889-0.888l0.221-0.222l0.891,0.887L16.037,9.452z M14.852,8.269
			L14.74,8.157l-0.401-1.099l0.297-0.107l0.375,1.034l0.063,0.062L14.852,8.269z M14.196,6.666l-0.429-1.182l0.295-0.107
			l0.428,1.182L14.196,6.666z M13.625,5.09l-0.347-0.954l0.239-0.262l0.403,1.107L13.625,5.09z"/>
	</g>
</g>
<g>
	<g opacity="0.71" enable-background="new    ">
		<path fill="#A94C29" d="M52.518,11.473l-0.223-0.223l0.564-0.562l0.223,0.223L52.518,11.473z M53.377,10.615l-0.221-0.223
			l0.889-0.888l0.223,0.223L53.377,10.615z M54.564,9.431l-0.223-0.223L55.23,8.32l0.223,0.223L54.564,9.431z M55.75,8.247
			l-0.223-0.223l0.046-0.044l0.472-1.034l0.285,0.13l-0.495,1.085L55.75,8.247z M56.505,6.696l-0.286-0.13l0.523-1.143l0.285,0.131
			L56.505,6.696z M57.201,5.171l-0.286-0.13l0.489-1.069l0.219,0.274L57.201,5.171z"/>
	</g>
</g>
</svg>
