<?xml version="1.0" encoding="utf-8"?>
<!-- Generator: Adobe Illustrator 15.0.0, SVG Export Plug-In . SVG Version: 6.00 Build 0)  -->
<!DOCTYPE svg PUBLIC "-//W3C//DTD SVG 1.1//EN" "http://www.w3.org/Graphics/SVG/1.1/DTD/svg11.dtd" [
	<!ENTITY ns_extend "http://ns.adobe.com/Extensibility/1.0/">
	<!ENTITY ns_ai "http://ns.adobe.com/AdobeIllustrator/10.0/">
	<!ENTITY ns_graphs "http://ns.adobe.com/Graphs/1.0/">
	<!ENTITY ns_vars "http://ns.adobe.com/Variables/1.0/">
	<!ENTITY ns_imrep "http://ns.adobe.com/ImageReplacement/1.0/">
	<!ENTITY ns_sfw "http://ns.adobe.com/SaveForWeb/1.0/">
	<!ENTITY ns_custom "http://ns.adobe.com/GenericCustomNamespace/1.0/">
	<!ENTITY ns_adobe_xpath "http://ns.adobe.com/XPath/1.0/">
]>
<svg version="1.1" id="Layer_1" xmlns:x="&ns_extend;" xmlns:i="&ns_ai;" xmlns:graph="&ns_graphs;"
	 xmlns="http://www.w3.org/2000/svg" xmlns:xlink="http://www.w3.org/1999/xlink" x="0px" y="0px" width="48px" height="48px"
	 viewBox="0 0 48 48" enable-background="new 0 0 48 48" xml:space="preserve">
<metadata>
	<sfw  xmlns="&ns_sfw;">
		<slices></slices>
		<sliceSourceBounds  x="335.5" y="413.419" width="47.295" height="40.693" bottomLeftOrigin="true"></sliceSourceBounds>
	</sfw>
</metadata>
<path fill="#CFF219" d="M10.664,29.586c-2.516-2.23-6.672-2.789-8.479-2.277c2.96,5.975,3.586,11.646,7.545,14.539
	c8.387,5.399,32.506-9.127,37.552-1.791c0.399-13.227-8.673-15.274-9.905-15.733c-1.68-0.626-7.516-2.202-10.109-3.823
	c-4.227-2.25-7.054-6.023-4.492-18.112c-6.789,4.601-11.512,11.971-8.339,20.175C11.688,20.954,4.281,20.275,0,23.951
	C2.186,24.231,8.893,25.166,10.664,29.586z"/>
<g>
	<path fill="#A7CD5F" d="M45.357,35.57c-3.604-5.146-8.123-5.389-13.299-5.668c-1.98-0.105-4.029-0.215-6.181-0.604
		c-4.005-0.726-8.739-3.631-10.289-8.486c-1.04-3.261-0.954-8.479,5.135-15.032c-1.707,11.12,1.178,14.528,7.76,17.453
		c1.35,0.513,2.746,0.928,4.101,1.332C38.198,26.232,43.518,27.816,45.357,35.57z"/>
	<path fill="#BAE24B" d="M20.315,6.648c-1.439,10.576,1.525,13.938,8.055,16.839l0.015,0.006l0.016,0.006
		c1.343,0.511,2.746,0.928,4.104,1.332c5.18,1.541,10.102,3.006,12.196,9.422c-3.519-4.139-7.79-4.369-12.626-4.628
		c-1.973-0.107-4.012-0.218-6.145-0.604c-3.926-0.709-8.561-3.551-10.074-8.295C14.875,17.649,14.925,12.783,20.315,6.648
		 M21.145,4.934C8.475,17.9,17.337,28.036,25.831,29.573c8.235,1.489,15.14-1.069,20.097,7.401
		C44.042,25.656,35.637,25.65,28.6,22.977C21.89,19.995,19.164,16.642,21.145,4.934L21.145,4.934z"/>
</g>
<g>
	<path fill="#A7CD5F" d="M22.742,36.333c-2.99,0-3.843-0.446-4.301-0.688c-0.096-0.047-0.178-0.09-0.259-0.123
		c-3.012-1.228-4.533-4.125-5.538-6.041c-0.204-0.388-0.38-0.724-0.548-1.011c-0.943-1.598-3.191-4.262-7.96-5.169
		c1.362-0.306,2.685-0.46,3.944-0.46c6.095,0,9.612,3.554,11.713,5.677c0.46,0.463,0.855,0.863,1.195,1.14
		c3.837,3.116,9.966,4.807,17.75,4.897C31.59,35.734,26.219,36.333,22.742,36.333C22.742,36.333,22.743,36.333,22.742,36.333z"/>
	<path fill="#BAE24B" d="M8.081,23.12c5.979,0,9.444,3.502,11.515,5.594c0.465,0.472,0.867,0.876,1.217,1.161
		c3.405,2.766,8.576,4.42,15.082,4.852c-5.75,0.881-10.16,1.326-13.151,1.326c-2.921,0-3.734-0.426-4.172-0.652
		c-0.095-0.051-0.184-0.098-0.283-0.139c-2.916-1.186-4.408-4.029-5.396-5.91c-0.205-0.393-0.382-0.729-0.554-1.021
		c-0.88-1.487-2.856-3.877-6.855-4.999C6.372,23.19,7.241,23.12,8.081,23.12 M8.081,22.562c-1.604,0-3.383,0.242-5.354,0.815
		c5.565,0.593,8.125,3.538,9.128,5.237c1.015,1.722,2.511,5.655,6.223,7.166c0.491,0.2,1.072,0.831,4.664,0.831
		c3.271,0,9.033-0.522,19.494-2.37c-0.039-0.002-0.086-0.003-0.141-0.003c-0.438,0-1.39,0.041-2.678,0.041
		c-4.439,0-12.898-0.488-18.254-4.838C19.336,27.954,15.647,22.562,8.081,22.562L8.081,22.562z"/>
</g>
<g>
	<path fill="#A7CD5F" d="M15.313,41.525c-5.641,0-7.032-3.559-8.795-8.062c-0.598-1.526-1.213-3.103-2.045-4.659
		c3.237,0.182,4.81,1.733,6.618,3.52c2.208,2.18,4.711,4.65,10.795,5.32c0.715,0.078,1.572,0.115,2.554,0.115
		c4.246,0,10.053-0.72,14.112-1.26C26,39.775,19.893,40.891,16.809,41.451C16.303,41.5,15.791,41.525,15.313,41.525z"/>
	<path fill="#BAE24B" d="M4.954,29.124c2.792,0.29,4.201,1.681,5.94,3.397c2.241,2.213,4.782,4.721,10.962,5.398
		c0.724,0.079,1.594,0.12,2.584,0.12c2.876,0,6.466-0.33,9.744-0.71c-9.658,2.426-14.689,3.347-17.401,3.841
		c-0.513,0.05-1.008,0.075-1.469,0.075c-5.449,0-6.812-3.48-8.534-7.885C6.236,31.973,5.677,30.547,4.954,29.124 M3.992,28.509
		c3.522,6.267,3.354,13.298,11.321,13.298c0.485,0,0.998-0.026,1.545-0.08c3.447-0.629,10.654-1.955,25.886-6.047
		c-1.889,0.153-11.942,1.803-18.304,1.803c-0.932,0-1.786-0.035-2.522-0.116C10.657,36.128,11.855,28.614,3.992,28.509L3.992,28.509
		z"/>
</g>
</svg>
