<?xml version="1.0" encoding="utf-8"?>
<!-- Generator: Adobe Illustrator 15.0.0, SVG Export Plug-In . SVG Version: 6.00 Build 0)  -->
<!DOCTYPE svg PUBLIC "-//W3C//DTD SVG 1.1//EN" "http://www.w3.org/Graphics/SVG/1.1/DTD/svg11.dtd" [
	<!ENTITY ns_extend "http://ns.adobe.com/Extensibility/1.0/">
	<!ENTITY ns_ai "http://ns.adobe.com/AdobeIllustrator/10.0/">
	<!ENTITY ns_graphs "http://ns.adobe.com/Graphs/1.0/">
	<!ENTITY ns_vars "http://ns.adobe.com/Variables/1.0/">
	<!ENTITY ns_imrep "http://ns.adobe.com/ImageReplacement/1.0/">
	<!ENTITY ns_sfw "http://ns.adobe.com/SaveForWeb/1.0/">
	<!ENTITY ns_custom "http://ns.adobe.com/GenericCustomNamespace/1.0/">
	<!ENTITY ns_adobe_xpath "http://ns.adobe.com/XPath/1.0/">
]>
<svg version="1.1" id="Layer_1" xmlns:x="&ns_extend;" xmlns:i="&ns_ai;" xmlns:graph="&ns_graphs;"
	 xmlns="http://www.w3.org/2000/svg" xmlns:xlink="http://www.w3.org/1999/xlink" x="0px" y="0px" width="110px" height="35px"
	 viewBox="0 0 110 35" enable-background="new 0 0 110 35" xml:space="preserve">
<metadata>
	<sfw  xmlns="&ns_sfw;">
		<slices></slices>
		<sliceSourceBounds  height="34.543" width="110.27" y="463.4" x="214.365" bottomLeftOrigin="true"></sliceSourceBounds>
	</sfw>
</metadata>
<g>
	<path fill="#94103C" d="M110.135,31.6c0,1.649-1.35,3-3,3H2.866c-1.65,0-3-1.351-3-3V3.077c0-1.65,1.35-3,3-3h104.269
		c1.65,0,3,1.35,3,3V31.6z"/>
</g>
<g>
	<path fill="#DDDDD3" d="M55.001,34.577H2.865c-1.65,0-3-1.353-3-3V3.056c0-1.65,1.35-3,3-3h52.136"/>
</g>
<path fill="#FFFFFF" d="M24.511,19.161c0,1.678-0.526,3.065-1.578,4.168c-1.052,1.104-2.42,1.653-4.104,1.653
	c-1.639,0-2.974-0.553-4.004-1.653c-1.03-1.103-1.545-2.49-1.545-4.168v-2.469c0-1.671,0.514-3.059,1.54-4.165
	c1.027-1.105,2.363-1.658,4.009-1.658c1.678,0,3.044,0.553,4.099,1.658c1.056,1.106,1.583,2.494,1.583,4.165V19.161z M22.221,16.674
	c0-1.143-0.305-2.082-0.914-2.816c-0.609-0.735-1.436-1.103-2.479-1.103c-1.011,0-1.807,0.367-2.388,1.103
	c-0.581,0.734-0.872,1.674-0.872,2.816v2.487c0,1.153,0.292,2.103,0.877,2.84c0.584,0.738,1.378,1.106,2.383,1.106
	c1.05,0,1.877-0.366,2.483-1.104c0.605-0.734,0.909-1.686,0.909-2.848L22.221,16.674L22.221,16.674z"/>
<path fill="#FFFFFF" d="M37.653,24.786h-2.289l-6.077-9.883l-0.057,0.019v9.864h-2.289V11.069h2.289l6.077,9.883l0.057-0.021v-9.865
	h2.289V24.786z"/>
<path fill="#FFFFFF" d="M76.691,19.161c0,1.678-0.526,3.065-1.578,4.168c-1.053,1.104-2.42,1.653-4.104,1.653
	c-1.64,0-2.975-0.553-4.004-1.653c-1.03-1.103-1.545-2.49-1.545-4.168v-2.469c0-1.671,0.515-3.059,1.539-4.165
	c1.026-1.105,2.362-1.658,4.01-1.658c1.679,0,3.044,0.553,4.099,1.658c1.058,1.106,1.584,2.494,1.584,4.165V19.161L76.691,19.161z
	 M74.402,16.674c0-1.143-0.305-2.082-0.914-2.816c-0.609-0.735-1.438-1.103-2.479-1.103c-1.012,0-1.808,0.367-2.389,1.103
	c-0.581,0.734-0.872,1.674-0.872,2.816v2.487c0,1.153,0.292,2.103,0.878,2.84c0.584,0.738,1.377,1.106,2.383,1.106
	c1.05,0,1.878-0.366,2.482-1.104c0.604-0.736,0.909-1.686,0.909-2.848L74.402,16.674L74.402,16.674z"/>
<path fill="#FFFFFF" d="M86.941,18.936h-5.53v5.852h-2.289V11.069h8.78v1.837h-6.491v4.193h5.53V18.936z"/>
<path fill="#FFFFFF" d="M97.627,18.936h-5.531v5.852h-2.291V11.069h8.781v1.837h-6.492v4.193h5.531v1.836H97.627z"/>
</svg>
