<?xml version="1.0" encoding="utf-8"?>
<!-- Generator: Adobe Illustrator 15.0.0, SVG Export Plug-In . SVG Version: 6.00 Build 0)  -->
<!DOCTYPE svg PUBLIC "-//W3C//DTD SVG 1.1//EN" "http://www.w3.org/Graphics/SVG/1.1/DTD/svg11.dtd" [
	<!ENTITY ns_extend "http://ns.adobe.com/Extensibility/1.0/">
	<!ENTITY ns_ai "http://ns.adobe.com/AdobeIllustrator/10.0/">
	<!ENTITY ns_graphs "http://ns.adobe.com/Graphs/1.0/">
	<!ENTITY ns_vars "http://ns.adobe.com/Variables/1.0/">
	<!ENTITY ns_imrep "http://ns.adobe.com/ImageReplacement/1.0/">
	<!ENTITY ns_sfw "http://ns.adobe.com/SaveForWeb/1.0/">
	<!ENTITY ns_custom "http://ns.adobe.com/GenericCustomNamespace/1.0/">
	<!ENTITY ns_adobe_xpath "http://ns.adobe.com/XPath/1.0/">
]>
<svg version="1.1" id="Layer_1" xmlns:x="&ns_extend;" xmlns:i="&ns_ai;" xmlns:graph="&ns_graphs;"
	 xmlns="http://www.w3.org/2000/svg" xmlns:xlink="http://www.w3.org/1999/xlink" x="0px" y="0px" width="310px" height="258px"
	 viewBox="0 0 310 258" enable-background="new 0 0 310 258" xml:space="preserve">
<metadata>
	<sfw  xmlns="&ns_sfw;">
		<slices></slices>
		<sliceSourceBounds  x="236.717" y="305.218" width="247.396" height="255.282" bottomLeftOrigin="true"></sliceSourceBounds>
	</sfw>
</metadata>
<path fill="#CFF219" d="M106.569,98.317c-9-7.984-23.868-9.984-30.333-8.151c10.589,21.37,12.833,41.667,26.994,52.016
	c30.006,19.317,116.299-32.654,134.356-6.404c1.432-47.325-31.033-54.655-35.439-56.296c-6.016-2.241-26.885-7.879-36.174-13.681
	c-15.119-8.05-25.238-21.55-16.071-64.8c-24.29,16.458-41.188,42.826-29.833,72.183c-9.833-5.751-36.333-8.183-51.652,4.974
	C76.233,79.153,100.235,82.5,106.569,98.317z"/>
<g>
	<path fill="#A7CD5F" d="M230.706,119.723c-12.901-18.409-29.07-19.278-47.587-20.274c-7.088-0.381-14.418-0.775-22.11-2.167
		c-14.33-2.595-31.271-12.99-36.814-30.362c-3.723-11.667-3.418-30.334,18.373-53.783c-6.111,39.786,4.215,51.979,27.762,62.444
		c4.824,1.834,9.83,3.323,14.671,4.764C205.082,86.319,224.111,91.981,230.706,119.723z"/>
	<path fill="#BAE24B" d="M141.106,16.244c-5.153,37.844,5.454,49.866,28.817,60.25l0.052,0.022l0.051,0.02
		c4.809,1.826,9.832,3.321,14.689,4.767c18.521,5.511,36.135,10.752,43.629,33.708c-12.582-14.807-27.867-15.63-45.171-16.561
		c-7.058-0.379-14.354-0.772-21.985-2.152c-14.036-2.542-30.624-12.706-36.04-29.683C121.635,55.606,121.818,38.196,141.106,16.244
		 M144.069,10.112C98.735,56.5,130.446,92.763,160.83,98.266c29.463,5.331,54.166-3.828,71.904,26.484
		c-6.75-40.5-36.826-40.523-62-50.083C146.735,64,136.985,52,144.069,10.112L144.069,10.112z"/>
</g>
<g>
	<path fill="#A7CD5F" d="M149.786,122.452c-10.697,0-13.75-1.596-15.39-2.453c-0.341-0.178-0.637-0.331-0.924-0.448
		c-10.776-4.388-16.216-14.755-19.817-21.615c-0.728-1.388-1.357-2.586-1.96-3.61c-3.377-5.717-11.415-15.253-28.479-18.495
		c4.878-1.095,9.606-1.649,14.109-1.649c21.811,0,34.393,12.712,41.911,20.308c1.643,1.66,3.062,3.093,4.275,4.078
		c13.727,11.151,35.654,17.193,63.508,17.524c-25.582,4.223-44.801,6.36-57.231,6.36
		C149.788,122.452,149.788,122.452,149.786,122.452z"/>
	<path fill="#BAE24B" d="M97.327,75.183c21.394,0,33.792,12.527,41.2,20.011c1.664,1.68,3.1,3.132,4.355,4.15
		c12.181,9.896,30.679,15.817,53.96,17.358c-20.574,3.155-36.352,4.75-47.056,4.75c-10.452,0-13.362-1.522-14.926-2.339
		c-0.34-0.178-0.662-0.346-1.01-0.488c-10.438-4.25-15.776-14.422-19.309-21.153c-0.734-1.399-1.369-2.607-1.985-3.655
		c-3.144-5.322-10.216-13.871-24.526-17.886C91.217,75.433,94.324,75.183,97.327,75.183 M97.327,73.183
		c-5.738,0-12.099,0.867-19.151,2.917c19.914,2.122,29.071,12.661,32.659,18.734c3.627,6.159,8.985,20.237,22.262,25.644
		c1.757,0.715,3.842,2.975,16.69,2.975c11.697,0,32.316-1.872,69.742-8.485c-0.137-0.005-0.303-0.007-0.495-0.007
		c-1.568,0-4.972,0.147-9.58,0.147c-15.89,0-46.147-1.75-65.311-17.315C137.599,92.481,124.401,73.183,97.327,73.183L97.327,73.183z
		"/>
</g>
<g>
	<path fill="#A7CD5F" d="M123.208,141.034c-20.182,0-25.163-12.73-31.469-28.847c-2.138-5.463-4.341-11.096-7.316-16.667
		c11.582,0.649,17.208,6.203,23.676,12.587c7.902,7.8,16.859,16.641,38.628,19.034c2.552,0.279,5.625,0.421,9.134,0.421
		c15.189,0,35.973-2.578,50.494-4.51c-44.914,11.714-66.763,15.701-77.799,17.714C126.744,140.939,124.917,141.034,123.208,141.034z
		"/>
	<path fill="#BAE24B" d="M86.142,96.658c9.99,1.043,15.033,6.02,21.254,12.16c8.019,7.915,17.107,16.885,39.223,19.317
		c2.587,0.283,5.697,0.427,9.242,0.427c10.296,0,23.134-1.177,34.861-2.538c-34.553,8.681-52.561,11.973-62.264,13.744
		c-1.833,0.176-3.599,0.267-5.251,0.267c-19.499,0-24.371-12.45-30.538-28.212C90.726,106.855,88.728,101.748,86.142,96.658
		 M82.701,94.46c12.602,22.417,11.996,47.574,40.506,47.574c1.733,0,3.57-0.093,5.528-0.284c12.333-2.25,38.115-7,92.615-21.633
		c-6.761,0.554-42.73,6.445-65.488,6.445c-3.338,0-6.389-0.126-9.025-0.416C106.549,121.717,110.834,94.834,82.701,94.46
		L82.701,94.46z"/>
</g>
<path fill="#7C796A" d="M32.217,242.01h9.823v-59.725h-9.823v-13.229h34.706c18.468,0,32.614,10.61,32.614,28.159
	c0,19.777-14.014,29.468-34.314,29.468c-4.061,0-6.55,0-8.384-0.132v15.457h10.739v13.228H32.217V242.01z M84.212,197.217
	c0-9.039-7.465-14.932-18.074-14.932h-9.299v31.172c1.571,0.131,3.667,0.262,9.69,0.262
	C77.665,213.717,84.212,207.432,84.212,197.217z"/>
<path fill="#7C796A" d="M102.215,240.174c0-10.738,9.43-17.287,23.051-17.287c5.893,0,11.395,0.785,14.539,1.572v-4.586
	c0-3.402-0.786-6.023-2.227-7.857c-2.358-3.012-6.154-4.19-11.264-4.19c-2.488,0-4.321,0.396-5.632,0.918
	c0.262,0.784,0.523,2.094,0.523,2.881c0,4.319-3.403,7.465-7.726,7.465s-7.598-3.014-7.598-7.728
	c0-7.073,7.204-14.541,22.789-14.541c9.824,0,16.502,2.753,20.562,7.729c3.013,3.666,4.453,8.646,4.453,14.406v24.492h8.513v11.786
	h-22.133v-6.284c-4.584,3.928-11.525,7.332-19.254,7.332C110.99,256.283,102.215,250.914,102.215,240.174z M139.805,240.828v-9.035
	c-3.274-0.785-7.335-1.309-11.788-1.309c-6.941,0-11.133,3.141-11.133,8.381c0,4.584,3.405,7.074,8.513,7.074
	S135.482,243.973,139.805,240.828z"/>
<path fill="#7C796A" d="M172.35,243.449h8.774v-33.527h-8.774v-12.051H195.4v45.578h8.513v11.787H172.35V243.449z M177.325,179.666
	c0-5.238,4.585-9.43,9.692-9.43c5.105,0,9.43,4.19,9.43,9.43c0,5.238-4.586,9.43-9.691,9.43
	C181.646,189.096,177.325,184.904,177.325,179.666z"/>
<path fill="#7C796A" d="M214.127,243.449h8.512v-72.035h-8.512v-12.047h22.788v64.305l16.765-14.408h-7.988v-11.393h33.92v12.051
	h-10.608l-13.356,11.262l14.537,22.002h9.43v12.051h-17.942l-16.503-25.801l-8.251,6.938v7.336h7.203v11.526h-29.991v-11.787
	H214.127z"/>
</svg>
