<?xml version="1.0" encoding="utf-8"?>
<!-- Generator: Adobe Illustrator 15.0.0, SVG Export Plug-In . SVG Version: 6.00 Build 0)  -->
<!DOCTYPE svg PUBLIC "-//W3C//DTD SVG 1.1//EN" "http://www.w3.org/Graphics/SVG/1.1/DTD/svg11.dtd" [
	<!ENTITY ns_extend "http://ns.adobe.com/Extensibility/1.0/">
	<!ENTITY ns_ai "http://ns.adobe.com/AdobeIllustrator/10.0/">
	<!ENTITY ns_graphs "http://ns.adobe.com/Graphs/1.0/">
	<!ENTITY ns_vars "http://ns.adobe.com/Variables/1.0/">
	<!ENTITY ns_imrep "http://ns.adobe.com/ImageReplacement/1.0/">
	<!ENTITY ns_sfw "http://ns.adobe.com/SaveForWeb/1.0/">
	<!ENTITY ns_custom "http://ns.adobe.com/GenericCustomNamespace/1.0/">
	<!ENTITY ns_adobe_xpath "http://ns.adobe.com/XPath/1.0/">
]>
<svg version="1.1" id="Layer_1" xmlns:x="&ns_extend;" xmlns:i="&ns_ai;" xmlns:graph="&ns_graphs;"
	 xmlns="http://www.w3.org/2000/svg" xmlns:xlink="http://www.w3.org/1999/xlink" x="0px" y="0px" width="96px" height="96px"
	 viewBox="0 0 96 96" enable-background="new 0 0 96 96" xml:space="preserve">
<metadata>
	<sfw  xmlns="&ns_sfw;">
		<slices></slices>
		<sliceSourceBounds  height="87.277" width="95.119" y="436.861" x="221.94" bottomLeftOrigin="true"></sliceSourceBounds>
	</sfw>
</metadata>
<g>
	<polygon fill="#924221" points="9.351,84.355 1.414,82.146 1.414,34.816 9.351,34.816 	"/>
</g>
<g>
	<polygon fill="#924221" points="94.762,82.146 86.822,84.355 86.822,34.816 94.762,34.816 	"/>
</g>
<g opacity="0.72">
	<g>
		<g>
			<rect x="93.045" y="41.802" fill="#ECCBA1" width="0.662" height="1.323"/>
		</g>
		<g>
			<path fill="#ECCBA1" d="M93.707,82.146h-0.662v-2.661h0.662V82.146z M93.707,78.597h-0.662v-2.659h0.662V78.597z M93.707,75.051
				h-0.662V72.39h0.662V75.051z M93.707,71.502h-0.662v-2.659h0.662V71.502z M93.707,67.955h-0.662v-2.659h0.662V67.955z
				 M93.707,64.408h-0.662v-2.66h0.662V64.408z M93.707,60.86h-0.662v-2.659h0.662V60.86z M93.707,57.314h-0.662v-2.661h0.662
				V57.314z M93.707,53.767h-0.662v-2.66h0.662V53.767z M93.707,50.219h-0.662v-2.66h0.662V50.219z M93.707,46.673h-0.662v-2.661
				h0.662V46.673z"/>
		</g>
	</g>
</g>
<g opacity="0.72">
	<g>
		<g>
			<rect x="2.639" y="41.802" fill="#ECCBA1" width="0.661" height="1.323"/>
		</g>
		<g>
			<path fill="#ECCBA1" d="M3.3,82.146H2.639v-2.661H3.3V82.146z M3.3,78.597H2.639v-2.659H3.3V78.597z M3.3,75.051H2.639V72.39H3.3
				V75.051z M3.3,71.502H2.639v-2.659H3.3V71.502z M3.3,67.955H2.639v-2.659H3.3V67.955z M3.3,64.408H2.639v-2.66H3.3V64.408z
				 M3.3,60.86H2.639v-2.659H3.3V60.86z M3.3,57.314H2.639v-2.661H3.3V57.314z M3.3,53.767H2.639v-2.66H3.3V53.767z M3.3,50.219
				H2.639v-2.66H3.3V50.219z M3.3,46.673H2.639v-2.661H3.3V46.673z"/>
		</g>
	</g>
</g>
<g>
	<g>
		<path fill="#924221" d="M90.93,4.362c2.547,0,4.629,2.083,4.629,4.629v37.642c0,2.547-2.082,4.63-4.629,4.63L5.07,51.27
			c-2.547,0-4.63-2.083-4.63-4.629V9.005c0-2.547,2.083-4.631,4.63-4.632L90.93,4.362z"/>
	</g>
	<g>
		<g>
			<defs>
				<path id="SVGID_1_" d="M90.93,4.362c2.547,0,4.629,2.083,4.629,4.629v37.642c0,2.547-2.082,4.63-4.629,4.63L5.07,51.27
					c-2.547,0-4.63-2.083-4.63-4.629V9.005c0-2.547,2.083-4.631,4.63-4.632L90.93,4.362z"/>
			</defs>
			<clipPath id="SVGID_3_">
				<use xlink:href="#SVGID_1_"  overflow="visible"/>
			</clipPath>
			<rect x="0.44" y="4.362" clip-path="url(#SVGID_3_)" fill="#56251C" width="1.17" height="46.907"/>
			<rect x="1.61" y="4.362" clip-path="url(#SVGID_3_)" fill="#56251C" width="0.199" height="46.907"/>
			<rect x="1.809" y="4.362" clip-path="url(#SVGID_3_)" fill="#57251C" width="0.2" height="46.907"/>
			<rect x="2.009" y="4.362" clip-path="url(#SVGID_3_)" fill="#58251C" width="0.199" height="46.907"/>
			<rect x="2.208" y="4.362" clip-path="url(#SVGID_3_)" fill="#59251B" width="0.198" height="46.907"/>
			<rect x="2.407" y="4.362" clip-path="url(#SVGID_3_)" fill="#5A251B" width="0.2" height="46.907"/>
			<rect x="2.607" y="4.362" clip-path="url(#SVGID_3_)" fill="#5B251B" width="0.199" height="46.907"/>
			<rect x="2.806" y="4.362" clip-path="url(#SVGID_3_)" fill="#5C251B" width="0.198" height="46.907"/>
			<rect x="3.004" y="4.362" clip-path="url(#SVGID_3_)" fill="#5D241A" width="0.2" height="46.907"/>
			<rect x="3.205" y="4.362" clip-path="url(#SVGID_3_)" fill="#5E241A" width="0.199" height="46.907"/>
			<rect x="3.404" y="4.362" clip-path="url(#SVGID_3_)" fill="#5F241A" width="0.2" height="46.907"/>
			<rect x="3.604" y="4.362" clip-path="url(#SVGID_3_)" fill="#60241A" width="0.197" height="46.907"/>
			<rect x="3.801" y="4.362" clip-path="url(#SVGID_3_)" fill="#61241A" width="0.201" height="46.907"/>
			<rect x="4.002" y="4.362" clip-path="url(#SVGID_3_)" fill="#622419" width="0.198" height="46.907"/>
			<rect x="4.201" y="4.362" clip-path="url(#SVGID_3_)" fill="#632419" width="0.199" height="46.907"/>
			<rect x="4.4" y="4.362" clip-path="url(#SVGID_3_)" fill="#642419" width="0.199" height="46.907"/>
			<rect x="4.599" y="4.362" clip-path="url(#SVGID_3_)" fill="#652419" width="0.2" height="46.907"/>
			<rect x="4.799" y="4.362" clip-path="url(#SVGID_3_)" fill="#662418" width="0.198" height="46.907"/>
			<rect x="4.998" y="4.362" clip-path="url(#SVGID_3_)" fill="#672418" width="0.199" height="46.907"/>
			<rect x="5.197" y="4.362" clip-path="url(#SVGID_3_)" fill="#682418" width="0.199" height="46.907"/>
			<rect x="5.396" y="4.362" clip-path="url(#SVGID_3_)" fill="#692418" width="0.2" height="46.907"/>
			<rect x="5.596" y="4.362" clip-path="url(#SVGID_3_)" fill="#6B2418" width="0.198" height="46.907"/>
			<rect x="5.794" y="4.362" clip-path="url(#SVGID_3_)" fill="#6C2317" width="0.199" height="46.907"/>
			<rect x="5.994" y="4.362" clip-path="url(#SVGID_3_)" fill="#6D2317" width="0.2" height="46.907"/>
			<rect x="6.194" y="4.362" clip-path="url(#SVGID_3_)" fill="#6E2317" width="0.199" height="46.907"/>
			<rect x="6.393" y="4.362" clip-path="url(#SVGID_3_)" fill="#6F2317" width="0.198" height="46.907"/>
			<rect x="6.591" y="4.362" clip-path="url(#SVGID_3_)" fill="#702316" width="0.2" height="46.907"/>
			<rect x="6.792" y="4.362" clip-path="url(#SVGID_3_)" fill="#712316" width="0.199" height="46.907"/>
			<rect x="6.991" y="4.362" clip-path="url(#SVGID_3_)" fill="#722316" width="0.198" height="46.907"/>
			<rect x="7.189" y="4.362" clip-path="url(#SVGID_3_)" fill="#732316" width="0.2" height="46.907"/>
			<rect x="7.389" y="4.362" clip-path="url(#SVGID_3_)" fill="#742315" width="0.199" height="46.907"/>
			<rect x="7.588" y="4.362" clip-path="url(#SVGID_3_)" fill="#752315" width="0.2" height="46.907"/>
			<rect x="7.789" y="4.362" clip-path="url(#SVGID_3_)" fill="#762315" width="0.198" height="46.907"/>
			<rect x="7.987" y="4.362" clip-path="url(#SVGID_3_)" fill="#772315" width="0.199" height="46.907"/>
			<rect x="8.186" y="4.362" clip-path="url(#SVGID_3_)" fill="#782315" width="0.2" height="46.907"/>
			<rect x="8.386" y="4.362" clip-path="url(#SVGID_3_)" fill="#792214" width="0.198" height="46.907"/>
			<rect x="8.584" y="4.362" clip-path="url(#SVGID_3_)" fill="#7A2214" width="0.199" height="46.907"/>
			<rect x="8.784" y="4.362" clip-path="url(#SVGID_3_)" fill="#7B2214" width="0.2" height="46.907"/>
			<rect x="8.984" y="4.362" clip-path="url(#SVGID_3_)" fill="#7C2214" width="0.199" height="46.907"/>
			<rect x="9.183" y="4.362" clip-path="url(#SVGID_3_)" fill="#7D2213" width="0.198" height="46.907"/>
			<rect x="9.381" y="4.362" clip-path="url(#SVGID_3_)" fill="#7E2213" width="0.2" height="46.907"/>
			<rect x="9.582" y="4.362" clip-path="url(#SVGID_3_)" fill="#7F2213" width="0.199" height="46.907"/>
			<rect x="9.781" y="4.362" clip-path="url(#SVGID_3_)" fill="#7F2213" width="0.89" height="46.907"/>
			<rect x="10.67" y="4.362" clip-path="url(#SVGID_3_)" fill="#802314" width="0.89" height="46.907"/>
			<rect x="11.56" y="4.362" clip-path="url(#SVGID_3_)" fill="#812414" width="0.888" height="46.907"/>
			<rect x="12.448" y="4.362" clip-path="url(#SVGID_3_)" fill="#822515" width="0.889" height="46.907"/>
			<rect x="13.336" y="4.362" clip-path="url(#SVGID_3_)" fill="#832615" width="0.891" height="46.907"/>
			<rect x="14.227" y="4.362" clip-path="url(#SVGID_3_)" fill="#842716" width="0.889" height="46.907"/>
			<rect x="15.116" y="4.362" clip-path="url(#SVGID_3_)" fill="#852816" width="0.889" height="46.907"/>
			<rect x="16.004" y="4.362" clip-path="url(#SVGID_3_)" fill="#862917" width="0.89" height="46.907"/>
			<rect x="16.894" y="4.362" clip-path="url(#SVGID_3_)" fill="#872A17" width="0.89" height="46.907"/>
			<rect x="17.784" y="4.362" clip-path="url(#SVGID_3_)" fill="#882B18" width="0.888" height="46.907"/>
			<rect x="18.671" y="4.362" clip-path="url(#SVGID_3_)" fill="#892C18" width="0.89" height="46.907"/>
			<rect x="19.561" y="4.362" clip-path="url(#SVGID_3_)" fill="#8A2D19" width="0.89" height="46.907"/>
			<rect x="20.451" y="4.362" clip-path="url(#SVGID_3_)" fill="#8B2E19" width="0.889" height="46.907"/>
			<rect x="21.339" y="4.362" clip-path="url(#SVGID_3_)" fill="#8C2F1A" width="0.89" height="46.907"/>
			<rect x="22.229" y="4.362" clip-path="url(#SVGID_3_)" fill="#8D301B" width="0.889" height="46.907"/>
			<rect x="23.118" y="4.362" clip-path="url(#SVGID_3_)" fill="#8E311B" width="0.889" height="46.907"/>
			<rect x="24.006" y="4.362" clip-path="url(#SVGID_3_)" fill="#8F321C" width="0.89" height="46.907"/>
			<rect x="24.896" y="4.362" clip-path="url(#SVGID_3_)" fill="#90331C" width="0.889" height="46.907"/>
			<rect x="25.785" y="4.362" clip-path="url(#SVGID_3_)" fill="#91341D" width="0.891" height="46.907"/>
			<rect x="26.675" y="4.362" clip-path="url(#SVGID_3_)" fill="#92351D" width="0.889" height="46.907"/>
			<rect x="27.564" y="4.362" clip-path="url(#SVGID_3_)" fill="#93361E" width="0.889" height="46.907"/>
			<rect x="28.453" y="4.362" clip-path="url(#SVGID_3_)" fill="#95381E" width="0.89" height="46.907"/>
			<rect x="29.342" y="4.362" clip-path="url(#SVGID_3_)" fill="#96391F" width="0.889" height="46.907"/>
			<rect x="30.231" y="4.362" clip-path="url(#SVGID_3_)" fill="#973A1F" width="0.889" height="46.907"/>
			<rect x="31.12" y="4.362" clip-path="url(#SVGID_3_)" fill="#983B20" width="0.891" height="46.907"/>
			<rect x="32.01" y="4.362" clip-path="url(#SVGID_3_)" fill="#993C20" width="0.889" height="46.907"/>
			<rect x="32.899" y="4.362" clip-path="url(#SVGID_3_)" fill="#9A3D21" width="0.888" height="46.907"/>
			<rect x="33.787" y="4.362" clip-path="url(#SVGID_3_)" fill="#9B3E21" width="0.891" height="46.907"/>
			<rect x="34.677" y="4.362" clip-path="url(#SVGID_3_)" fill="#9C3F22" width="0.889" height="46.907"/>
			<rect x="35.566" y="4.362" clip-path="url(#SVGID_3_)" fill="#9D4023" width="0.889" height="46.907"/>
			<rect x="36.455" y="4.362" clip-path="url(#SVGID_3_)" fill="#9E4123" width="0.89" height="46.907"/>
			<rect x="37.344" y="4.362" clip-path="url(#SVGID_3_)" fill="#9F4224" width="0.889" height="46.907"/>
			<rect x="38.233" y="4.362" clip-path="url(#SVGID_3_)" fill="#A04324" width="0.891" height="46.907"/>
			<rect x="39.124" y="4.362" clip-path="url(#SVGID_3_)" fill="#A14425" width="0.888" height="46.907"/>
			<rect x="40.011" y="4.362" clip-path="url(#SVGID_3_)" fill="#A24525" width="0.89" height="46.907"/>
			<rect x="40.901" y="4.362" clip-path="url(#SVGID_3_)" fill="#A34626" width="0.89" height="46.907"/>
			<rect x="41.791" y="4.362" clip-path="url(#SVGID_3_)" fill="#A44726" width="0.889" height="46.907"/>
			<rect x="42.679" y="4.362" clip-path="url(#SVGID_3_)" fill="#A54827" width="0.889" height="46.907"/>
			<rect x="43.568" y="4.362" clip-path="url(#SVGID_3_)" fill="#A64927" width="0.89" height="46.907"/>
			<rect x="44.458" y="4.362" clip-path="url(#SVGID_3_)" fill="#A74A28" width="0.889" height="46.907"/>
			<rect x="45.346" y="4.362" clip-path="url(#SVGID_3_)" fill="#A84B28" width="0.889" height="46.907"/>
			<rect x="46.235" y="4.362" clip-path="url(#SVGID_3_)" fill="#A94C29" width="0.891" height="46.907"/>
			<rect x="47.125" y="4.362" clip-path="url(#SVGID_3_)" fill="#A94C29" width="2.15" height="46.907"/>
			<rect x="49.275" y="4.362" clip-path="url(#SVGID_3_)" fill="#A84B28" width="2.148" height="46.907"/>
			<rect x="51.424" y="4.362" clip-path="url(#SVGID_3_)" fill="#A74A28" width="2.148" height="46.907"/>
			<rect x="53.572" y="4.362" clip-path="url(#SVGID_3_)" fill="#A54827" width="2.152" height="46.907"/>
			<rect x="55.725" y="4.362" clip-path="url(#SVGID_3_)" fill="#A44726" width="2.148" height="46.907"/>
			<rect x="57.873" y="4.362" clip-path="url(#SVGID_3_)" fill="#A44726" width="0.867" height="46.907"/>
			<rect x="58.74" y="4.362" clip-path="url(#SVGID_3_)" fill="#A34626" width="0.867" height="46.907"/>
			<rect x="59.607" y="4.362" clip-path="url(#SVGID_3_)" fill="#A24525" width="0.869" height="46.907"/>
			<rect x="60.477" y="4.362" clip-path="url(#SVGID_3_)" fill="#A14425" width="0.865" height="46.907"/>
			<rect x="61.342" y="4.362" clip-path="url(#SVGID_3_)" fill="#A04324" width="0.867" height="46.907"/>
			<rect x="62.209" y="4.362" clip-path="url(#SVGID_3_)" fill="#9F4224" width="0.869" height="46.907"/>
			<rect x="63.078" y="4.362" clip-path="url(#SVGID_3_)" fill="#9E4123" width="0.867" height="46.907"/>
			<rect x="63.945" y="4.362" clip-path="url(#SVGID_3_)" fill="#9D4023" width="0.867" height="46.907"/>
			<rect x="64.812" y="4.362" clip-path="url(#SVGID_3_)" fill="#9B3E22" width="0.869" height="46.907"/>
			<rect x="65.682" y="4.362" clip-path="url(#SVGID_3_)" fill="#9A3D22" width="0.867" height="46.907"/>
			<rect x="66.549" y="4.362" clip-path="url(#SVGID_3_)" fill="#993C21" width="0.865" height="46.907"/>
			<rect x="67.414" y="4.362" clip-path="url(#SVGID_3_)" fill="#983B21" width="0.867" height="46.907"/>
			<rect x="68.281" y="4.362" clip-path="url(#SVGID_3_)" fill="#973A20" width="0.869" height="46.907"/>
			<rect x="69.15" y="4.362" clip-path="url(#SVGID_3_)" fill="#963920" width="0.867" height="46.907"/>
			<rect x="70.018" y="4.362" clip-path="url(#SVGID_3_)" fill="#95381F" width="0.867" height="46.907"/>
			<rect x="70.885" y="4.362" clip-path="url(#SVGID_3_)" fill="#95381F" width="0.592" height="46.907"/>
			<rect x="71.477" y="4.362" clip-path="url(#SVGID_3_)" fill="#94371E" width="0.592" height="46.907"/>
			<rect x="72.068" y="4.362" clip-path="url(#SVGID_3_)" fill="#93361E" width="0.592" height="46.907"/>
			<rect x="72.66" y="4.362" clip-path="url(#SVGID_3_)" fill="#92351D" width="0.59" height="46.907"/>
			<rect x="73.25" y="4.362" clip-path="url(#SVGID_3_)" fill="#91341D" width="0.59" height="46.907"/>
			<rect x="73.84" y="4.362" clip-path="url(#SVGID_3_)" fill="#90331C" width="0.59" height="46.907"/>
			<rect x="74.43" y="4.362" clip-path="url(#SVGID_3_)" fill="#8F321C" width="0.592" height="46.907"/>
			<rect x="75.021" y="4.362" clip-path="url(#SVGID_3_)" fill="#8E311B" width="0.594" height="46.907"/>
			<rect x="75.615" y="4.362" clip-path="url(#SVGID_3_)" fill="#8D301A" width="0.59" height="46.907"/>
			<rect x="76.205" y="4.362" clip-path="url(#SVGID_3_)" fill="#8C2F1A" width="0.592" height="46.907"/>
			<rect x="76.797" y="4.362" clip-path="url(#SVGID_3_)" fill="#8B2E19" width="0.59" height="46.907"/>
			<rect x="77.387" y="4.362" clip-path="url(#SVGID_3_)" fill="#892C19" width="0.592" height="46.907"/>
			<rect x="77.979" y="4.362" clip-path="url(#SVGID_3_)" fill="#882B18" width="0.59" height="46.907"/>
			<rect x="78.568" y="4.362" clip-path="url(#SVGID_3_)" fill="#872A18" width="0.59" height="46.907"/>
			<rect x="79.158" y="4.362" clip-path="url(#SVGID_3_)" fill="#862917" width="0.594" height="46.907"/>
			<rect x="79.752" y="4.362" clip-path="url(#SVGID_3_)" fill="#852816" width="0.588" height="46.907"/>
			<rect x="80.34" y="4.362" clip-path="url(#SVGID_3_)" fill="#842716" width="0.592" height="46.907"/>
			<rect x="80.932" y="4.362" clip-path="url(#SVGID_3_)" fill="#832615" width="0.594" height="46.907"/>
			<rect x="81.525" y="4.362" clip-path="url(#SVGID_3_)" fill="#822515" width="0.59" height="46.907"/>
			<rect x="82.115" y="4.362" clip-path="url(#SVGID_3_)" fill="#812414" width="0.592" height="46.907"/>
			<rect x="82.707" y="4.362" clip-path="url(#SVGID_3_)" fill="#802314" width="0.592" height="46.907"/>
			<rect x="83.299" y="4.362" clip-path="url(#SVGID_3_)" fill="#7F2213" width="0.588" height="46.907"/>
			<rect x="83.887" y="4.362" clip-path="url(#SVGID_3_)" fill="#7F2213" width="0.285" height="46.907"/>
			<rect x="84.172" y="4.362" clip-path="url(#SVGID_3_)" fill="#7E2213" width="0.283" height="46.907"/>
			<rect x="84.455" y="4.362" clip-path="url(#SVGID_3_)" fill="#7D2213" width="0.287" height="46.907"/>
			<rect x="84.742" y="4.362" clip-path="url(#SVGID_3_)" fill="#7C2214" width="0.285" height="46.907"/>
			<rect x="85.027" y="4.362" clip-path="url(#SVGID_3_)" fill="#7B2214" width="0.283" height="46.907"/>
			<rect x="85.311" y="4.362" clip-path="url(#SVGID_3_)" fill="#7A2214" width="0.285" height="46.907"/>
			<rect x="85.596" y="4.362" clip-path="url(#SVGID_3_)" fill="#792214" width="0.287" height="46.907"/>
			<rect x="85.883" y="4.362" clip-path="url(#SVGID_3_)" fill="#782315" width="0.283" height="46.907"/>
			<rect x="86.166" y="4.362" clip-path="url(#SVGID_3_)" fill="#772315" width="0.283" height="46.907"/>
			<rect x="86.449" y="4.362" clip-path="url(#SVGID_3_)" fill="#762315" width="0.285" height="46.907"/>
			<rect x="86.734" y="4.362" clip-path="url(#SVGID_3_)" fill="#752315" width="0.285" height="46.907"/>
			<rect x="87.02" y="4.362" clip-path="url(#SVGID_3_)" fill="#742315" width="0.285" height="46.907"/>
			<rect x="87.305" y="4.362" clip-path="url(#SVGID_3_)" fill="#732316" width="0.285" height="46.907"/>
			<rect x="87.59" y="4.362" clip-path="url(#SVGID_3_)" fill="#722316" width="0.283" height="46.907"/>
			<rect x="87.873" y="4.362" clip-path="url(#SVGID_3_)" fill="#712316" width="0.285" height="46.907"/>
			<rect x="88.158" y="4.362" clip-path="url(#SVGID_3_)" fill="#702316" width="0.285" height="46.907"/>
			<rect x="88.443" y="4.362" clip-path="url(#SVGID_3_)" fill="#6F2317" width="0.283" height="46.907"/>
			<rect x="88.727" y="4.362" clip-path="url(#SVGID_3_)" fill="#6E2317" width="0.285" height="46.907"/>
			<rect x="89.012" y="4.362" clip-path="url(#SVGID_3_)" fill="#6D2317" width="0.285" height="46.907"/>
			<rect x="89.297" y="4.362" clip-path="url(#SVGID_3_)" fill="#6C2317" width="0.283" height="46.907"/>
			<rect x="89.58" y="4.362" clip-path="url(#SVGID_3_)" fill="#6B2418" width="0.285" height="46.907"/>
			<rect x="89.865" y="4.362" clip-path="url(#SVGID_3_)" fill="#692418" width="0.285" height="46.907"/>
			<rect x="90.15" y="4.362" clip-path="url(#SVGID_3_)" fill="#682418" width="0.285" height="46.907"/>
			<rect x="90.436" y="4.362" clip-path="url(#SVGID_3_)" fill="#672418" width="0.283" height="46.907"/>
			<rect x="90.719" y="4.362" clip-path="url(#SVGID_3_)" fill="#662418" width="0.285" height="46.907"/>
			<rect x="91.004" y="4.362" clip-path="url(#SVGID_3_)" fill="#652419" width="0.285" height="46.907"/>
			<rect x="91.289" y="4.362" clip-path="url(#SVGID_3_)" fill="#642419" width="0.285" height="46.907"/>
			<rect x="91.574" y="4.362" clip-path="url(#SVGID_3_)" fill="#632419" width="0.285" height="46.907"/>
			<rect x="91.859" y="4.362" clip-path="url(#SVGID_3_)" fill="#622419" width="0.283" height="46.907"/>
			<rect x="92.143" y="4.362" clip-path="url(#SVGID_3_)" fill="#61241A" width="0.285" height="46.907"/>
			<rect x="92.428" y="4.362" clip-path="url(#SVGID_3_)" fill="#60241A" width="0.287" height="46.907"/>
			<rect x="92.715" y="4.362" clip-path="url(#SVGID_3_)" fill="#5F241A" width="0.283" height="46.907"/>
			<rect x="92.998" y="4.362" clip-path="url(#SVGID_3_)" fill="#5E241A" width="0.283" height="46.907"/>
			<rect x="93.281" y="4.362" clip-path="url(#SVGID_3_)" fill="#5D241A" width="0.285" height="46.907"/>
			<rect x="93.566" y="4.362" clip-path="url(#SVGID_3_)" fill="#5C251B" width="0.285" height="46.907"/>
			<rect x="93.852" y="4.362" clip-path="url(#SVGID_3_)" fill="#5B251B" width="0.285" height="46.907"/>
			<rect x="94.137" y="4.362" clip-path="url(#SVGID_3_)" fill="#5A251B" width="0.283" height="46.907"/>
			<rect x="94.42" y="4.362" clip-path="url(#SVGID_3_)" fill="#59251B" width="0.285" height="46.907"/>
			<rect x="94.705" y="4.362" clip-path="url(#SVGID_3_)" fill="#58251C" width="0.285" height="46.907"/>
			<rect x="94.99" y="4.362" clip-path="url(#SVGID_3_)" fill="#57251C" width="0.285" height="46.907"/>
			<rect x="95.275" y="4.362" clip-path="url(#SVGID_3_)" fill="#56251C" width="0.283" height="46.907"/>
			<path clip-path="url(#SVGID_3_)" fill="#56251C" d="M95.559,51.27V4.362V51.27z"/>
		</g>
	</g>
</g>
<g>
	<g>
		<path fill="#91321B" d="M6.707,37.784v12.691v36.296c0,2.668,2.183,4.851,4.851,4.851h72.839c2.668,0,4.852-2.183,4.852-4.851
			V50.128V37.784H6.707L6.707,37.784z"/>
	</g>
	<g>
		<g>
			<defs>
				<path id="SVGID_4_" d="M6.707,37.784v12.691v36.296c0,2.668,2.183,4.851,4.851,4.851h72.839c2.668,0,4.852-2.183,4.852-4.851
					V50.128V37.784H6.707L6.707,37.784z"/>
			</defs>
			<clipPath id="SVGID_5_">
				<use xlink:href="#SVGID_4_"  overflow="visible"/>
			</clipPath>
			<path clip-path="url(#SVGID_5_)" fill="#7F2213" d="M6.707,91.622h82.542H6.707z"/>
			<rect x="6.707" y="91.054" clip-path="url(#SVGID_5_)" fill="#7F2213" width="82.542" height="0.568"/>
			<rect x="6.707" y="90.483" clip-path="url(#SVGID_5_)" fill="#802314" width="82.542" height="0.57"/>
			<rect x="6.707" y="89.913" clip-path="url(#SVGID_5_)" fill="#812414" width="82.542" height="0.57"/>
			<rect x="6.707" y="89.343" clip-path="url(#SVGID_5_)" fill="#822515" width="82.542" height="0.57"/>
			<rect x="6.707" y="88.774" clip-path="url(#SVGID_5_)" fill="#832615" width="82.542" height="0.568"/>
			<rect x="6.707" y="88.203" clip-path="url(#SVGID_5_)" fill="#852816" width="82.542" height="0.571"/>
			<rect x="6.707" y="87.635" clip-path="url(#SVGID_5_)" fill="#862917" width="82.542" height="0.568"/>
			<rect x="6.707" y="87.065" clip-path="url(#SVGID_5_)" fill="#872A17" width="82.542" height="0.569"/>
			<rect x="6.707" y="86.495" clip-path="url(#SVGID_5_)" fill="#882B18" width="82.542" height="0.57"/>
			<rect x="6.707" y="85.926" clip-path="url(#SVGID_5_)" fill="#892C18" width="82.542" height="0.569"/>
			<rect x="6.707" y="85.355" clip-path="url(#SVGID_5_)" fill="#8A2D19" width="82.542" height="0.57"/>
			<rect x="6.707" y="84.649" clip-path="url(#SVGID_5_)" fill="#8A2D19" width="82.542" height="0.706"/>
			<rect x="6.707" y="83.946" clip-path="url(#SVGID_5_)" fill="#8B2E1A" width="82.542" height="0.703"/>
			<rect x="6.707" y="83.242" clip-path="url(#SVGID_5_)" fill="#8C2F1A" width="82.542" height="0.704"/>
			<rect x="6.707" y="82.537" clip-path="url(#SVGID_5_)" fill="#8D301B" width="82.542" height="0.705"/>
			<rect x="6.707" y="81.833" clip-path="url(#SVGID_5_)" fill="#8E311B" width="82.542" height="0.704"/>
			<rect x="6.707" y="81.128" clip-path="url(#SVGID_5_)" fill="#8F321C" width="82.542" height="0.705"/>
			<rect x="6.707" y="80.423" clip-path="url(#SVGID_5_)" fill="#90331C" width="82.542" height="0.705"/>
			<rect x="6.707" y="79.719" clip-path="url(#SVGID_5_)" fill="#91341D" width="82.542" height="0.704"/>
			<rect x="6.707" y="79.016" clip-path="url(#SVGID_5_)" fill="#92351D" width="82.542" height="0.703"/>
			<rect x="6.707" y="78.31" clip-path="url(#SVGID_5_)" fill="#93361E" width="82.542" height="0.706"/>
			<rect x="6.707" y="77.604" clip-path="url(#SVGID_5_)" fill="#94371E" width="82.542" height="0.705"/>
			<rect x="6.707" y="76.9" clip-path="url(#SVGID_5_)" fill="#96391F" width="82.542" height="0.704"/>
			<rect x="6.707" y="76.196" clip-path="url(#SVGID_5_)" fill="#973A20" width="82.542" height="0.704"/>
			<rect x="6.707" y="75.492" clip-path="url(#SVGID_5_)" fill="#983B20" width="82.542" height="0.704"/>
			<rect x="6.707" y="74.787" clip-path="url(#SVGID_5_)" fill="#993C21" width="82.542" height="0.705"/>
			<rect x="6.707" y="74.082" clip-path="url(#SVGID_5_)" fill="#9A3D21" width="82.542" height="0.705"/>
			<rect x="6.707" y="73.378" clip-path="url(#SVGID_5_)" fill="#9B3E22" width="82.542" height="0.704"/>
			<rect x="6.707" y="72.673" clip-path="url(#SVGID_5_)" fill="#9C3F22" width="82.542" height="0.705"/>
			<rect x="6.707" y="71.969" clip-path="url(#SVGID_5_)" fill="#9D4023" width="82.542" height="0.704"/>
			<rect x="6.707" y="71.265" clip-path="url(#SVGID_5_)" fill="#9E4123" width="82.542" height="0.704"/>
			<rect x="6.707" y="70.559" clip-path="url(#SVGID_5_)" fill="#9F4224" width="82.542" height="0.706"/>
			<rect x="6.707" y="69.854" clip-path="url(#SVGID_5_)" fill="#A04324" width="82.542" height="0.704"/>
			<rect x="6.707" y="69.151" clip-path="url(#SVGID_5_)" fill="#A14425" width="82.542" height="0.703"/>
			<rect x="6.707" y="67.871" clip-path="url(#SVGID_5_)" fill="#A14425" width="82.542" height="1.28"/>
			<rect x="6.707" y="66.593" clip-path="url(#SVGID_5_)" fill="#A24526" width="82.542" height="1.278"/>
			<rect x="6.707" y="65.315" clip-path="url(#SVGID_5_)" fill="#A34626" width="82.542" height="1.277"/>
			<rect x="6.707" y="64.036" clip-path="url(#SVGID_5_)" fill="#A44727" width="82.542" height="1.279"/>
			<rect x="6.707" y="62.758" clip-path="url(#SVGID_5_)" fill="#A64927" width="82.542" height="1.278"/>
			<rect x="6.707" y="61.479" clip-path="url(#SVGID_5_)" fill="#A74A28" width="82.542" height="1.279"/>
			<rect x="6.707" y="60.199" clip-path="url(#SVGID_5_)" fill="#A84B28" width="82.542" height="1.279"/>
			<rect x="6.707" y="58.922" clip-path="url(#SVGID_5_)" fill="#A94C29" width="82.542" height="1.277"/>
			<rect x="6.707" y="37.784" clip-path="url(#SVGID_5_)" fill="#A94C29" width="82.542" height="21.138"/>
		</g>
	</g>
</g>
<g opacity="0.72">
	<g opacity="0.26">
		
			<image overflow="visible" enable-background="new    " width="339" height="253" xlink:href="C5E5DC04.png"  transform="matrix(0.2205 0 0 0.2205 10.4341 35.8525)">
		</image>
	</g>
</g>
<g>
	<g>
		<g>
			<defs>
				<path id="SVGID_6_" d="M48,91.622c0,0-26.435,0-36.487,0c-4.16,0-4.806-4.177-4.806-4.177v-39.13H48V91.622z"/>
			</defs>
			<clipPath id="SVGID_7_">
				<use xlink:href="#SVGID_6_"  overflow="visible"/>
			</clipPath>
			<polygon clip-path="url(#SVGID_7_)" fill="#56251C" points="6.707,87.858 8.46,91.622 6.707,91.622 			"/>
			<polygon clip-path="url(#SVGID_7_)" fill="#56251C" points="6.707,86.216 9.228,91.622 8.46,91.622 6.707,87.858 			"/>
			<polygon clip-path="url(#SVGID_7_)" fill="#57251C" points="6.707,84.571 9.995,91.622 9.228,91.622 6.707,86.216 			"/>
			<polygon clip-path="url(#SVGID_7_)" fill="#58261C" points="6.707,82.927 10.762,91.622 9.995,91.622 6.707,84.571 			"/>
			<polygon clip-path="url(#SVGID_7_)" fill="#59261C" points="6.707,81.282 11.528,91.622 10.762,91.622 6.707,82.927 			"/>
			<polygon clip-path="url(#SVGID_7_)" fill="#5A271D" points="6.707,79.64 12.294,91.622 11.528,91.622 6.707,81.282 			"/>
			<polygon clip-path="url(#SVGID_7_)" fill="#5B271D" points="6.707,77.994 13.061,91.622 12.294,91.622 6.707,79.64 			"/>
			<polygon clip-path="url(#SVGID_7_)" fill="#5C281D" points="6.707,76.351 13.828,91.622 13.061,91.622 6.707,77.994 			"/>
			<polygon clip-path="url(#SVGID_7_)" fill="#5D281D" points="6.707,74.707 14.595,91.622 13.828,91.622 6.707,76.351 			"/>
			<polygon clip-path="url(#SVGID_7_)" fill="#5E291D" points="6.707,73.061 15.361,91.622 14.595,91.622 6.707,74.707 			"/>
			<polygon clip-path="url(#SVGID_7_)" fill="#5F291D" points="6.707,71.418 16.128,91.622 15.361,91.622 6.707,73.061 			"/>
			<polygon clip-path="url(#SVGID_7_)" fill="#602A1E" points="6.707,69.772 16.895,91.622 16.128,91.622 6.707,71.418 			"/>
			<polygon clip-path="url(#SVGID_7_)" fill="#612A1E" points="6.707,68.13 17.662,91.622 16.895,91.622 6.707,69.772 			"/>
			<polygon clip-path="url(#SVGID_7_)" fill="#622B1E" points="6.707,66.485 18.428,91.622 17.662,91.622 6.707,68.13 			"/>
			<polygon clip-path="url(#SVGID_7_)" fill="#632B1E" points="6.707,64.842 19.195,91.622 18.428,91.622 6.707,66.485 			"/>
			<polygon clip-path="url(#SVGID_7_)" fill="#642C1E" points="6.707,63.196 19.961,91.622 19.195,91.622 6.707,64.842 			"/>
			<polygon clip-path="url(#SVGID_7_)" fill="#652C1E" points="6.707,61.553 20.728,91.622 19.961,91.622 6.707,63.196 			"/>
			<polygon clip-path="url(#SVGID_7_)" fill="#662D1E" points="6.707,59.908 21.496,91.622 20.728,91.622 6.707,61.553 			"/>
			<polygon clip-path="url(#SVGID_7_)" fill="#682D1F" points="6.707,58.264 22.262,91.622 21.496,91.622 6.707,59.908 			"/>
			<polygon clip-path="url(#SVGID_7_)" fill="#692E1F" points="6.707,56.621 23.029,91.622 22.262,91.622 6.707,58.264 			"/>
			<polygon clip-path="url(#SVGID_7_)" fill="#6A2E1F" points="6.707,54.975 23.795,91.622 23.029,91.622 6.707,56.621 			"/>
			<polygon clip-path="url(#SVGID_7_)" fill="#6B2F1F" points="6.707,53.332 24.562,91.622 23.795,91.622 6.707,54.975 			"/>
			<polygon clip-path="url(#SVGID_7_)" fill="#6C2F1F" points="6.707,51.688 25.329,91.622 24.562,91.622 6.707,53.332 			"/>
			<polygon clip-path="url(#SVGID_7_)" fill="#6D301F" points="6.707,50.044 26.095,91.622 25.329,91.622 6.707,51.688 			"/>
			<polygon clip-path="url(#SVGID_7_)" fill="#6E301F" points="6.707,48.399 26.862,91.622 26.095,91.622 6.707,50.044 			"/>
			<polygon clip-path="url(#SVGID_7_)" fill="#6F3120" points="7.434,48.315 27.628,91.622 26.862,91.622 6.707,48.399 
				6.707,48.315 			"/>
			<polygon clip-path="url(#SVGID_7_)" fill="#703120" points="8.202,48.315 28.395,91.622 27.628,91.622 7.434,48.315 			"/>
			<polygon clip-path="url(#SVGID_7_)" fill="#713220" points="8.967,48.315 29.163,91.622 28.395,91.622 8.202,48.315 			"/>
			<polygon clip-path="url(#SVGID_7_)" fill="#723220" points="9.735,48.315 29.928,91.622 29.163,91.622 8.967,48.315 			"/>
			<polygon clip-path="url(#SVGID_7_)" fill="#733320" points="10.5,48.315 30.696,91.622 29.928,91.622 9.735,48.315 			"/>
			<polygon clip-path="url(#SVGID_7_)" fill="#743320" points="11.267,48.315 31.461,91.622 30.696,91.622 10.5,48.315 			"/>
			<polygon clip-path="url(#SVGID_7_)" fill="#753421" points="12.035,48.315 32.228,91.622 31.461,91.622 11.267,48.315 			"/>
			<polygon clip-path="url(#SVGID_7_)" fill="#763421" points="12.801,48.315 32.996,91.622 32.228,91.622 12.035,48.315 			"/>
			<polygon clip-path="url(#SVGID_7_)" fill="#773521" points="13.567,48.315 33.762,91.622 32.996,91.622 12.801,48.315 			"/>
			<polygon clip-path="url(#SVGID_7_)" fill="#783521" points="14.334,48.315 34.53,91.622 33.762,91.622 13.567,48.315 			"/>
			<polygon clip-path="url(#SVGID_7_)" fill="#783521" points="15.021,48.315 35.215,91.622 34.53,91.622 14.334,48.315 			"/>
			<polygon clip-path="url(#SVGID_7_)" fill="#793521" points="15.708,48.315 35.904,91.622 35.215,91.622 15.021,48.315 			"/>
			<polygon clip-path="url(#SVGID_7_)" fill="#7A3621" points="16.395,48.315 36.59,91.622 35.904,91.622 15.708,48.315 			"/>
			<polygon clip-path="url(#SVGID_7_)" fill="#7B3622" points="17.083,48.315 37.277,91.622 36.59,91.622 16.395,48.315 			"/>
			<polygon clip-path="url(#SVGID_7_)" fill="#7C3722" points="17.769,48.315 37.964,91.622 37.277,91.622 17.083,48.315 			"/>
			<polygon clip-path="url(#SVGID_7_)" fill="#7D3722" points="18.457,48.315 38.652,91.622 37.964,91.622 17.769,48.315 			"/>
			<polygon clip-path="url(#SVGID_7_)" fill="#7E3822" points="19.144,48.315 39.338,91.622 38.652,91.622 18.457,48.315 			"/>
			<polygon clip-path="url(#SVGID_7_)" fill="#7F3822" points="19.831,48.315 40.026,91.622 39.338,91.622 19.144,48.315 			"/>
			<polygon clip-path="url(#SVGID_7_)" fill="#803922" points="20.518,48.315 40.712,91.622 40.026,91.622 19.831,48.315 			"/>
			<polygon clip-path="url(#SVGID_7_)" fill="#813923" points="21.206,48.315 41.399,91.622 40.712,91.622 20.518,48.315 			"/>
			<polygon clip-path="url(#SVGID_7_)" fill="#823A23" points="21.891,48.315 42.086,91.622 41.399,91.622 21.206,48.315 			"/>
			<polygon clip-path="url(#SVGID_7_)" fill="#833A23" points="22.579,48.315 42.774,91.622 42.086,91.622 21.891,48.315 			"/>
			<polygon clip-path="url(#SVGID_7_)" fill="#843B23" points="23.266,48.315 43.46,91.622 42.774,91.622 22.579,48.315 			"/>
			<polygon clip-path="url(#SVGID_7_)" fill="#853B23" points="23.953,48.315 44.148,91.622 43.46,91.622 23.266,48.315 			"/>
			<polygon clip-path="url(#SVGID_7_)" fill="#863C23" points="24.64,48.315 44.834,91.622 44.148,91.622 23.953,48.315 			"/>
			<polygon clip-path="url(#SVGID_7_)" fill="#873C24" points="25.328,48.315 45.522,91.622 44.834,91.622 24.64,48.315 			"/>
			<polygon clip-path="url(#SVGID_7_)" fill="#883D24" points="26.013,48.315 46.208,91.622 45.522,91.622 25.328,48.315 			"/>
			<polygon clip-path="url(#SVGID_7_)" fill="#893D24" points="26.702,48.315 46.897,91.622 46.208,91.622 26.013,48.315 			"/>
			<polygon clip-path="url(#SVGID_7_)" fill="#8A3E24" points="27.388,48.315 47.583,91.622 46.897,91.622 26.702,48.315 			"/>
			<polygon clip-path="url(#SVGID_7_)" fill="#8B3E24" points="28.076,48.315 48,91.043 48,91.622 47.583,91.622 27.388,48.315 			
				"/>
			<polygon clip-path="url(#SVGID_7_)" fill="#8C3F24" points="28.762,48.315 48,89.57 48,91.043 28.076,48.315 			"/>
			<polygon clip-path="url(#SVGID_7_)" fill="#8D3F25" points="29.45,48.315 48,88.095 48,89.57 28.762,48.315 			"/>
			<polygon clip-path="url(#SVGID_7_)" fill="#8E4025" points="30.136,48.315 48,86.623 48,88.095 29.45,48.315 			"/>
			<polygon clip-path="url(#SVGID_7_)" fill="#8F4025" points="30.824,48.315 48,85.15 48,86.623 30.136,48.315 			"/>
			<polygon clip-path="url(#SVGID_7_)" fill="#914125" points="31.51,48.315 48,83.676 48,85.15 30.824,48.315 			"/>
			<polygon clip-path="url(#SVGID_7_)" fill="#924125" points="32.198,48.315 48,82.203 48,83.676 31.51,48.315 			"/>
			<polygon clip-path="url(#SVGID_7_)" fill="#934125" points="32.884,48.315 48,80.729 48,82.203 32.198,48.315 			"/>
			<polygon clip-path="url(#SVGID_7_)" fill="#944226" points="33.572,48.315 48,79.256 48,80.729 32.884,48.315 			"/>
			<polygon clip-path="url(#SVGID_7_)" fill="#954226" points="34.258,48.315 48,77.783 48,79.256 33.572,48.315 			"/>
			<polygon clip-path="url(#SVGID_7_)" fill="#964326" points="34.946,48.315 48,76.309 48,77.783 34.258,48.315 			"/>
			<polygon clip-path="url(#SVGID_7_)" fill="#974326" points="35.633,48.315 48,74.836 48,76.309 34.946,48.315 			"/>
			<polygon clip-path="url(#SVGID_7_)" fill="#984426" points="36.32,48.315 48,73.362 48,74.836 35.633,48.315 			"/>
			<polygon clip-path="url(#SVGID_7_)" fill="#994426" points="37.006,48.315 48,71.89 48,73.362 36.32,48.315 			"/>
			<polygon clip-path="url(#SVGID_7_)" fill="#9A4527" points="37.695,48.315 48,70.415 48,71.89 37.006,48.315 			"/>
			<polygon clip-path="url(#SVGID_7_)" fill="#9B4527" points="38.38,48.315 48,68.942 48,70.415 37.695,48.315 			"/>
			<polygon clip-path="url(#SVGID_7_)" fill="#9C4627" points="39.069,48.315 48,67.469 48,68.942 38.38,48.315 			"/>
			<polygon clip-path="url(#SVGID_7_)" fill="#9D4627" points="39.755,48.315 48,65.996 48,67.469 39.069,48.315 			"/>
			<polygon clip-path="url(#SVGID_7_)" fill="#9E4727" points="40.442,48.315 48,64.523 48,65.996 39.755,48.315 			"/>
			<polygon clip-path="url(#SVGID_7_)" fill="#9F4727" points="41.129,48.315 48,63.048 48,64.523 40.442,48.315 			"/>
			<polygon clip-path="url(#SVGID_7_)" fill="#A04828" points="41.817,48.315 48,61.575 48,63.048 41.129,48.315 			"/>
			<polygon clip-path="url(#SVGID_7_)" fill="#A14828" points="42.503,48.315 48,60.102 48,61.575 41.817,48.315 			"/>
			<polygon clip-path="url(#SVGID_7_)" fill="#A24928" points="43.191,48.315 48,58.629 48,60.102 42.503,48.315 			"/>
			<polygon clip-path="url(#SVGID_7_)" fill="#A34928" points="43.877,48.315 48,57.154 48,58.629 43.191,48.315 			"/>
			<polygon clip-path="url(#SVGID_7_)" fill="#A44A28" points="44.564,48.315 48,55.682 48,57.154 43.877,48.315 			"/>
			<polygon clip-path="url(#SVGID_7_)" fill="#A54A28" points="45.251,48.315 48,54.209 48,55.682 44.564,48.315 			"/>
			<polygon clip-path="url(#SVGID_7_)" fill="#A64B29" points="45.939,48.315 48,52.735 48,54.209 45.251,48.315 			"/>
			<polygon clip-path="url(#SVGID_7_)" fill="#A74B29" points="46.625,48.315 48,51.261 48,52.735 45.939,48.315 			"/>
			<polygon clip-path="url(#SVGID_7_)" fill="#A84C29" points="47.313,48.315 48,49.788 48,51.261 46.625,48.315 			"/>
			<polygon clip-path="url(#SVGID_7_)" fill="#A94C29" points="48,49.788 47.313,48.315 48,48.315 			"/>
		</g>
	</g>
</g>
<g>
	<g>
		<g>
			<defs>
				<path id="SVGID_8_" d="M47.638,91.622c0,0,26.434,0,36.489,0c4.158,0,4.805-4.177,4.805-4.177v-39.13H47.638V91.622z"/>
			</defs>
			<clipPath id="SVGID_9_">
				<use xlink:href="#SVGID_8_"  overflow="visible"/>
			</clipPath>
			<polygon clip-path="url(#SVGID_9_)" fill="#56251C" points="87.178,91.622 88.93,87.858 88.93,91.622 			"/>
			<polygon clip-path="url(#SVGID_9_)" fill="#56251C" points="86.41,91.622 88.93,86.214 88.93,87.858 87.178,91.622 			"/>
			<polygon clip-path="url(#SVGID_9_)" fill="#57251C" points="85.645,91.622 88.93,84.571 88.93,86.214 86.41,91.622 			"/>
			<polygon clip-path="url(#SVGID_9_)" fill="#58261C" points="84.877,91.622 88.93,82.925 88.93,84.571 85.645,91.622 			"/>
			<polygon clip-path="url(#SVGID_9_)" fill="#59261C" points="84.109,91.622 88.93,81.282 88.93,82.925 84.877,91.622 			"/>
			<polygon clip-path="url(#SVGID_9_)" fill="#5A271D" points="83.344,91.622 88.93,79.638 88.93,81.282 84.109,91.622 			"/>
			<polygon clip-path="url(#SVGID_9_)" fill="#5B271D" points="82.576,91.622 88.93,77.994 88.93,79.638 83.344,91.622 			"/>
			<polygon clip-path="url(#SVGID_9_)" fill="#5C281D" points="81.809,91.622 88.93,76.35 88.93,77.994 82.576,91.622 			"/>
			<polygon clip-path="url(#SVGID_9_)" fill="#5D281D" points="81.043,91.622 88.93,74.706 88.93,76.35 81.809,91.622 			"/>
			<polygon clip-path="url(#SVGID_9_)" fill="#5E291D" points="80.275,91.622 88.93,73.061 88.93,74.706 81.043,91.622 			"/>
			<polygon clip-path="url(#SVGID_9_)" fill="#5F291D" points="79.51,91.622 88.93,71.416 88.93,73.061 80.275,91.622 			"/>
			<polygon clip-path="url(#SVGID_9_)" fill="#602A1E" points="78.742,91.622 88.93,69.772 88.93,71.416 79.51,91.622 			"/>
			<polygon clip-path="url(#SVGID_9_)" fill="#612A1E" points="77.977,91.622 88.93,68.129 88.93,69.772 78.742,91.622 			"/>
			<polygon clip-path="url(#SVGID_9_)" fill="#622B1E" points="77.211,91.622 88.93,66.485 88.93,68.129 77.977,91.622 			"/>
			<polygon clip-path="url(#SVGID_9_)" fill="#632B1E" points="76.443,91.622 88.93,64.839 88.93,66.485 77.211,91.622 			"/>
			<polygon clip-path="url(#SVGID_9_)" fill="#642C1E" points="75.678,91.622 88.93,63.196 88.93,64.839 76.443,91.622 			"/>
			<polygon clip-path="url(#SVGID_9_)" fill="#652C1E" points="74.91,91.622 88.93,61.552 88.93,63.196 75.678,91.622 			"/>
			<polygon clip-path="url(#SVGID_9_)" fill="#662D1E" points="74.143,91.622 88.93,59.907 88.93,61.552 74.91,91.622 			"/>
			<polygon clip-path="url(#SVGID_9_)" fill="#682D1F" points="73.377,91.622 88.93,58.264 88.93,59.907 74.143,91.622 			"/>
			<polygon clip-path="url(#SVGID_9_)" fill="#692E1F" points="72.609,91.622 88.93,56.619 88.93,58.264 73.377,91.622 			"/>
			<polygon clip-path="url(#SVGID_9_)" fill="#6A2E1F" points="71.842,91.622 88.93,54.975 88.93,56.619 72.609,91.622 			"/>
			<polygon clip-path="url(#SVGID_9_)" fill="#6B2F1F" points="71.076,91.622 88.93,53.33 88.93,54.975 71.842,91.622 			"/>
			<polygon clip-path="url(#SVGID_9_)" fill="#6C2F1F" points="70.309,91.622 88.93,51.688 88.93,53.33 71.076,91.622 			"/>
			<polygon clip-path="url(#SVGID_9_)" fill="#6D301F" points="69.543,91.622 88.93,50.042 88.93,51.688 70.309,91.622 			"/>
			<polygon clip-path="url(#SVGID_9_)" fill="#6E301F" points="68.775,91.622 88.93,48.398 88.93,50.042 69.543,91.622 			"/>
			<polygon clip-path="url(#SVGID_9_)" fill="#6F3120" points="68.01,91.622 88.203,48.315 88.93,48.315 88.93,48.398 
				68.775,91.622 			"/>
			<polygon clip-path="url(#SVGID_9_)" fill="#703120" points="67.242,91.622 87.436,48.315 88.203,48.315 68.01,91.622 			"/>
			<polygon clip-path="url(#SVGID_9_)" fill="#713220" points="66.475,91.622 86.67,48.315 87.436,48.315 67.242,91.622 			"/>
			<polygon clip-path="url(#SVGID_9_)" fill="#723220" points="65.709,91.622 85.904,48.315 86.67,48.315 66.475,91.622 			"/>
			<polygon clip-path="url(#SVGID_9_)" fill="#733320" points="64.943,91.622 85.137,48.315 85.904,48.315 65.709,91.622 			"/>
			<polygon clip-path="url(#SVGID_9_)" fill="#743320" points="64.176,91.622 84.369,48.315 85.137,48.315 64.943,91.622 			"/>
			<polygon clip-path="url(#SVGID_9_)" fill="#753421" points="63.41,91.622 83.604,48.315 84.369,48.315 64.176,91.622 			"/>
			<polygon clip-path="url(#SVGID_9_)" fill="#763421" points="62.643,91.622 82.836,48.315 83.604,48.315 63.41,91.622 			"/>
			<polygon clip-path="url(#SVGID_9_)" fill="#773521" points="61.877,91.622 82.07,48.315 82.836,48.315 62.643,91.622 			"/>
			<polygon clip-path="url(#SVGID_9_)" fill="#783521" points="61.109,91.622 81.303,48.315 82.07,48.315 61.877,91.622 			"/>
			<polygon clip-path="url(#SVGID_9_)" fill="#783521" points="60.422,91.622 80.615,48.315 81.303,48.315 61.109,91.622 			"/>
			<polygon clip-path="url(#SVGID_9_)" fill="#793521" points="59.734,91.622 79.93,48.315 80.615,48.315 60.422,91.622 			"/>
			<polygon clip-path="url(#SVGID_9_)" fill="#7A3621" points="59.047,91.622 79.242,48.315 79.93,48.315 59.734,91.622 			"/>
			<polygon clip-path="url(#SVGID_9_)" fill="#7B3622" points="58.361,91.622 78.555,48.315 79.242,48.315 59.047,91.622 			"/>
			<polygon clip-path="url(#SVGID_9_)" fill="#7C3722" points="57.674,91.622 77.867,48.315 78.555,48.315 58.361,91.622 			"/>
			<polygon clip-path="url(#SVGID_9_)" fill="#7D3722" points="56.986,91.622 77.18,48.315 77.867,48.315 57.674,91.622 			"/>
			<polygon clip-path="url(#SVGID_9_)" fill="#7E3822" points="56.299,91.622 76.496,48.315 77.18,48.315 56.986,91.622 			"/>
			<polygon clip-path="url(#SVGID_9_)" fill="#7F3822" points="55.613,91.622 75.807,48.315 76.496,48.315 56.299,91.622 			"/>
			<polygon clip-path="url(#SVGID_9_)" fill="#803922" points="54.926,91.622 75.119,48.315 75.807,48.315 55.613,91.622 			"/>
			<polygon clip-path="url(#SVGID_9_)" fill="#813923" points="54.238,91.622 74.432,48.315 75.119,48.315 54.926,91.622 			"/>
			<polygon clip-path="url(#SVGID_9_)" fill="#823A23" points="53.551,91.622 73.746,48.315 74.432,48.315 54.238,91.622 			"/>
			<polygon clip-path="url(#SVGID_9_)" fill="#833A23" points="52.865,91.622 73.059,48.315 73.746,48.315 53.551,91.622 			"/>
			<polygon clip-path="url(#SVGID_9_)" fill="#843B23" points="52.178,91.622 72.371,48.315 73.059,48.315 52.865,91.622 			"/>
			<polygon clip-path="url(#SVGID_9_)" fill="#853B23" points="51.49,91.622 71.684,48.315 72.371,48.315 52.178,91.622 			"/>
			<polygon clip-path="url(#SVGID_9_)" fill="#863C23" points="50.803,91.622 70.998,48.315 71.684,48.315 51.49,91.622 			"/>
			<polygon clip-path="url(#SVGID_9_)" fill="#873C24" points="50.117,91.622 70.311,48.315 70.998,48.315 50.803,91.622 			"/>
			<polygon clip-path="url(#SVGID_9_)" fill="#883D24" points="49.43,91.622 69.625,48.315 70.311,48.315 50.117,91.622 			"/>
			<polygon clip-path="url(#SVGID_9_)" fill="#893D24" points="48.742,91.622 68.938,48.315 69.625,48.315 49.43,91.622 			"/>
			<polygon clip-path="url(#SVGID_9_)" fill="#8A3E24" points="48.055,91.622 68.25,48.315 68.938,48.315 48.742,91.622 			"/>
			<polygon clip-path="url(#SVGID_9_)" fill="#8B3E24" points="47.639,91.043 67.562,48.315 68.25,48.315 48.055,91.622 
				47.639,91.622 			"/>
			<polygon clip-path="url(#SVGID_9_)" fill="#8C3F24" points="47.639,89.568 66.875,48.315 67.562,48.315 47.639,91.043 			"/>
			<polygon clip-path="url(#SVGID_9_)" fill="#8D3F25" points="47.639,88.095 66.188,48.315 66.875,48.315 47.639,89.568 			"/>
			<polygon clip-path="url(#SVGID_9_)" fill="#8E4025" points="47.639,86.623 65.502,48.315 66.188,48.315 47.639,88.095 			"/>
			<polygon clip-path="url(#SVGID_9_)" fill="#8F4025" points="47.639,85.15 64.812,48.315 65.502,48.315 47.639,86.623 			"/>
			<polygon clip-path="url(#SVGID_9_)" fill="#914125" points="47.639,83.676 64.127,48.315 64.812,48.315 47.639,85.15 			"/>
			<polygon clip-path="url(#SVGID_9_)" fill="#924125" points="47.639,82.202 63.439,48.315 64.127,48.315 47.639,83.676 			"/>
			<polygon clip-path="url(#SVGID_9_)" fill="#934125" points="47.639,80.729 62.752,48.315 63.439,48.315 47.639,82.202 			"/>
			<polygon clip-path="url(#SVGID_9_)" fill="#944226" points="47.639,79.256 62.066,48.315 62.752,48.315 47.639,80.729 			"/>
			<polygon clip-path="url(#SVGID_9_)" fill="#954226" points="47.639,77.781 61.379,48.315 62.066,48.315 47.639,79.256 			"/>
			<polygon clip-path="url(#SVGID_9_)" fill="#964326" points="47.639,76.309 60.691,48.315 61.379,48.315 47.639,77.781 			"/>
			<polygon clip-path="url(#SVGID_9_)" fill="#974326" points="47.639,74.836 60.006,48.315 60.691,48.315 47.639,76.309 			"/>
			<polygon clip-path="url(#SVGID_9_)" fill="#984426" points="47.639,73.361 59.318,48.315 60.006,48.315 47.639,74.836 			"/>
			<polygon clip-path="url(#SVGID_9_)" fill="#994426" points="47.639,71.889 58.631,48.315 59.318,48.315 47.639,73.361 			"/>
			<polygon clip-path="url(#SVGID_9_)" fill="#9A4527" points="47.639,70.415 57.943,48.315 58.631,48.315 47.639,71.889 			"/>
			<polygon clip-path="url(#SVGID_9_)" fill="#9B4527" points="47.639,68.942 57.258,48.315 57.943,48.315 47.639,70.415 			"/>
			<polygon clip-path="url(#SVGID_9_)" fill="#9C4627" points="47.639,67.469 56.568,48.315 57.258,48.315 47.639,68.942 			"/>
			<polygon clip-path="url(#SVGID_9_)" fill="#9D4627" points="47.639,65.996 55.881,48.315 56.568,48.315 47.639,67.469 			"/>
			<polygon clip-path="url(#SVGID_9_)" fill="#9E4727" points="47.639,64.521 55.195,48.315 55.881,48.315 47.639,65.996 			"/>
			<polygon clip-path="url(#SVGID_9_)" fill="#9F4727" points="47.639,63.048 54.508,48.315 55.195,48.315 47.639,64.521 			"/>
			<polygon clip-path="url(#SVGID_9_)" fill="#A04828" points="47.639,61.575 53.82,48.315 54.508,48.315 47.639,63.048 			"/>
			<polygon clip-path="url(#SVGID_9_)" fill="#A14828" points="47.639,60.101 53.135,48.315 53.82,48.315 47.639,61.575 			"/>
			<polygon clip-path="url(#SVGID_9_)" fill="#A24928" points="47.639,58.628 52.447,48.315 53.135,48.315 47.639,60.101 			"/>
			<polygon clip-path="url(#SVGID_9_)" fill="#A34928" points="47.639,57.154 51.76,48.315 52.447,48.315 47.639,58.628 			"/>
			<polygon clip-path="url(#SVGID_9_)" fill="#A44A28" points="47.639,55.682 51.072,48.315 51.76,48.315 47.639,57.154 			"/>
			<polygon clip-path="url(#SVGID_9_)" fill="#A54A28" points="47.639,54.209 50.387,48.315 51.072,48.315 47.639,55.682 			"/>
			<polygon clip-path="url(#SVGID_9_)" fill="#A64B29" points="47.639,52.733 49.699,48.315 50.387,48.315 47.639,54.209 			"/>
			<polygon clip-path="url(#SVGID_9_)" fill="#A74B29" points="47.639,51.261 49.012,48.315 49.699,48.315 47.639,52.733 			"/>
			<polygon clip-path="url(#SVGID_9_)" fill="#A84C29" points="47.639,49.788 48.325,48.315 49.012,48.315 47.639,51.261 			"/>
			<polygon clip-path="url(#SVGID_9_)" fill="#A94C29" points="48.325,48.315 47.639,49.788 47.639,48.315 			"/>
		</g>
	</g>
</g>
<g>
	<g>
		<g>
			<defs>
				<path id="SVGID_10_" d="M73.068,10.005l15.988,14.529v28.988l0,0c-22.803,22.804-59.707,22.804-82.51,0V24.534l15.989-14.529"/>
			</defs>
			<clipPath id="SVGID_11_">
				<use xlink:href="#SVGID_10_"  overflow="visible"/>
			</clipPath>
			<rect x="6.546" y="10.005" clip-path="url(#SVGID_11_)" fill="#7F2213" width="82.51" height="0.545"/>
			<rect x="6.546" y="10.55" clip-path="url(#SVGID_11_)" fill="#802314" width="82.51" height="0.546"/>
			<rect x="6.546" y="11.096" clip-path="url(#SVGID_11_)" fill="#812414" width="82.51" height="0.544"/>
			<rect x="6.546" y="11.64" clip-path="url(#SVGID_11_)" fill="#822515" width="82.51" height="0.546"/>
			<rect x="6.546" y="12.186" clip-path="url(#SVGID_11_)" fill="#832615" width="82.51" height="0.546"/>
			<rect x="6.546" y="12.731" clip-path="url(#SVGID_11_)" fill="#842716" width="82.51" height="0.545"/>
			<rect x="6.546" y="13.276" clip-path="url(#SVGID_11_)" fill="#852816" width="82.51" height="0.546"/>
			<rect x="6.546" y="13.822" clip-path="url(#SVGID_11_)" fill="#862917" width="82.51" height="0.545"/>
			<rect x="6.546" y="14.367" clip-path="url(#SVGID_11_)" fill="#872A17" width="82.51" height="0.546"/>
			<rect x="6.546" y="14.913" clip-path="url(#SVGID_11_)" fill="#882B18" width="82.51" height="0.546"/>
			<rect x="6.546" y="15.459" clip-path="url(#SVGID_11_)" fill="#892C19" width="82.51" height="0.544"/>
			<rect x="6.546" y="16.003" clip-path="url(#SVGID_11_)" fill="#8A2D19" width="82.51" height="0.546"/>
			<rect x="6.546" y="16.549" clip-path="url(#SVGID_11_)" fill="#8B2E1A" width="82.51" height="0.546"/>
			<rect x="6.546" y="17.095" clip-path="url(#SVGID_11_)" fill="#8C2F1A" width="82.51" height="0.545"/>
			<rect x="6.546" y="17.64" clip-path="url(#SVGID_11_)" fill="#8E311B" width="82.51" height="0.546"/>
			<rect x="6.546" y="18.186" clip-path="url(#SVGID_11_)" fill="#8F321B" width="82.51" height="0.545"/>
			<rect x="6.546" y="18.73" clip-path="url(#SVGID_11_)" fill="#90331C" width="82.51" height="0.545"/>
			<rect x="6.546" y="19.275" clip-path="url(#SVGID_11_)" fill="#91341C" width="82.51" height="0.546"/>
			<rect x="6.546" y="19.821" clip-path="url(#SVGID_11_)" fill="#92351D" width="82.51" height="0.546"/>
			<rect x="6.546" y="20.367" clip-path="url(#SVGID_11_)" fill="#93361E" width="82.51" height="0.545"/>
			<rect x="6.546" y="20.912" clip-path="url(#SVGID_11_)" fill="#94371E" width="82.51" height="0.545"/>
			<rect x="6.546" y="21.457" clip-path="url(#SVGID_11_)" fill="#95381F" width="82.51" height="0.546"/>
			<rect x="6.546" y="22.003" clip-path="url(#SVGID_11_)" fill="#96391F" width="82.51" height="0.544"/>
			<rect x="6.546" y="22.547" clip-path="url(#SVGID_11_)" fill="#973A20" width="82.51" height="0.546"/>
			<rect x="6.546" y="23.093" clip-path="url(#SVGID_11_)" fill="#983B20" width="82.51" height="0.547"/>
			<rect x="6.546" y="23.64" clip-path="url(#SVGID_11_)" fill="#993C21" width="82.51" height="0.544"/>
			<rect x="6.546" y="24.184" clip-path="url(#SVGID_11_)" fill="#9A3D21" width="82.51" height="0.546"/>
			<rect x="6.546" y="24.729" clip-path="url(#SVGID_11_)" fill="#9B3E22" width="82.51" height="0.545"/>
			<rect x="6.546" y="25.274" clip-path="url(#SVGID_11_)" fill="#9B3E22" width="82.51" height="0.742"/>
			<rect x="6.546" y="26.017" clip-path="url(#SVGID_11_)" fill="#9C3F23" width="82.51" height="0.742"/>
			<rect x="6.546" y="26.759" clip-path="url(#SVGID_11_)" fill="#9D4023" width="82.51" height="0.742"/>
			<rect x="6.546" y="27.501" clip-path="url(#SVGID_11_)" fill="#9E4124" width="82.51" height="0.742"/>
			<rect x="6.546" y="28.243" clip-path="url(#SVGID_11_)" fill="#9F4224" width="82.51" height="0.742"/>
			<rect x="6.546" y="28.985" clip-path="url(#SVGID_11_)" fill="#A04325" width="82.51" height="0.742"/>
			<rect x="6.546" y="29.728" clip-path="url(#SVGID_11_)" fill="#A14425" width="82.51" height="0.743"/>
			<rect x="6.546" y="30.471" clip-path="url(#SVGID_11_)" fill="#A34626" width="82.51" height="0.741"/>
			<rect x="6.546" y="31.212" clip-path="url(#SVGID_11_)" fill="#A44726" width="82.51" height="0.742"/>
			<rect x="6.546" y="31.954" clip-path="url(#SVGID_11_)" fill="#A54827" width="82.51" height="0.742"/>
			<rect x="6.546" y="32.696" clip-path="url(#SVGID_11_)" fill="#A64927" width="82.51" height="0.742"/>
			<rect x="6.546" y="33.438" clip-path="url(#SVGID_11_)" fill="#A74A28" width="82.51" height="0.743"/>
			<rect x="6.546" y="34.182" clip-path="url(#SVGID_11_)" fill="#A84B28" width="82.51" height="0.741"/>
			<rect x="6.546" y="34.923" clip-path="url(#SVGID_11_)" fill="#A94C29" width="82.51" height="0.742"/>
			<rect x="6.546" y="35.665" clip-path="url(#SVGID_11_)" fill="#A94C29" width="82.51" height="29.795"/>
			<rect x="6.546" y="65.46" clip-path="url(#SVGID_11_)" fill="#A94C29" width="82.51" height="2.933"/>
			<rect x="6.546" y="68.393" clip-path="url(#SVGID_11_)" fill="#A94C29" width="82.51" height="7.934"/>
		</g>
	</g>
</g>
<g opacity="0.57">
	<g>
		<g>
			<defs>
				<path id="SVGID_12_" d="M73.068,10.005l15.988,14.529c0,0,0,21.74,0,28.988l0,0c-22.803,22.804-59.707,22.804-82.51,0V24.534
					l15.989-14.529"/>
			</defs>
			<clipPath id="SVGID_13_">
				<use xlink:href="#SVGID_12_"  overflow="visible"/>
			</clipPath>
			<rect x="6.546" y="10.005" clip-path="url(#SVGID_13_)" fill="#7F2213" width="82.51" height="0.545"/>
			<rect x="6.546" y="10.55" clip-path="url(#SVGID_13_)" fill="#802314" width="82.51" height="0.546"/>
			<rect x="6.546" y="11.096" clip-path="url(#SVGID_13_)" fill="#812414" width="82.51" height="0.544"/>
			<rect x="6.546" y="11.64" clip-path="url(#SVGID_13_)" fill="#822515" width="82.51" height="0.546"/>
			<rect x="6.546" y="12.186" clip-path="url(#SVGID_13_)" fill="#832615" width="82.51" height="0.546"/>
			<rect x="6.546" y="12.731" clip-path="url(#SVGID_13_)" fill="#842716" width="82.51" height="0.545"/>
			<rect x="6.546" y="13.276" clip-path="url(#SVGID_13_)" fill="#852816" width="82.51" height="0.546"/>
			<rect x="6.546" y="13.822" clip-path="url(#SVGID_13_)" fill="#862917" width="82.51" height="0.545"/>
			<rect x="6.546" y="14.367" clip-path="url(#SVGID_13_)" fill="#872A17" width="82.51" height="0.546"/>
			<rect x="6.546" y="14.913" clip-path="url(#SVGID_13_)" fill="#882B18" width="82.51" height="0.546"/>
			<rect x="6.546" y="15.459" clip-path="url(#SVGID_13_)" fill="#892C19" width="82.51" height="0.544"/>
			<rect x="6.546" y="16.003" clip-path="url(#SVGID_13_)" fill="#8A2D19" width="82.51" height="0.546"/>
			<rect x="6.546" y="16.549" clip-path="url(#SVGID_13_)" fill="#8B2E1A" width="82.51" height="0.546"/>
			<rect x="6.546" y="17.095" clip-path="url(#SVGID_13_)" fill="#8C2F1A" width="82.51" height="0.545"/>
			<rect x="6.546" y="17.64" clip-path="url(#SVGID_13_)" fill="#8E311B" width="82.51" height="0.546"/>
			<rect x="6.546" y="18.186" clip-path="url(#SVGID_13_)" fill="#8F321B" width="82.51" height="0.545"/>
			<rect x="6.546" y="18.73" clip-path="url(#SVGID_13_)" fill="#90331C" width="82.51" height="0.545"/>
			<rect x="6.546" y="19.275" clip-path="url(#SVGID_13_)" fill="#91341C" width="82.51" height="0.546"/>
			<rect x="6.546" y="19.821" clip-path="url(#SVGID_13_)" fill="#92351D" width="82.51" height="0.546"/>
			<rect x="6.546" y="20.367" clip-path="url(#SVGID_13_)" fill="#93361E" width="82.51" height="0.545"/>
			<rect x="6.546" y="20.912" clip-path="url(#SVGID_13_)" fill="#94371E" width="82.51" height="0.545"/>
			<rect x="6.546" y="21.457" clip-path="url(#SVGID_13_)" fill="#95381F" width="82.51" height="0.546"/>
			<rect x="6.546" y="22.003" clip-path="url(#SVGID_13_)" fill="#96391F" width="82.51" height="0.544"/>
			<rect x="6.546" y="22.547" clip-path="url(#SVGID_13_)" fill="#973A20" width="82.51" height="0.546"/>
			<rect x="6.546" y="23.093" clip-path="url(#SVGID_13_)" fill="#983B20" width="82.51" height="0.547"/>
			<rect x="6.546" y="23.64" clip-path="url(#SVGID_13_)" fill="#993C21" width="82.51" height="0.544"/>
			<rect x="6.546" y="24.184" clip-path="url(#SVGID_13_)" fill="#9A3D21" width="82.51" height="0.546"/>
			<rect x="6.546" y="24.729" clip-path="url(#SVGID_13_)" fill="#9B3E22" width="82.51" height="0.545"/>
			<rect x="6.546" y="25.274" clip-path="url(#SVGID_13_)" fill="#9B3E22" width="82.51" height="0.742"/>
			<rect x="6.546" y="26.017" clip-path="url(#SVGID_13_)" fill="#9C3F23" width="82.51" height="0.742"/>
			<rect x="6.546" y="26.759" clip-path="url(#SVGID_13_)" fill="#9D4023" width="82.51" height="0.742"/>
			<rect x="6.546" y="27.501" clip-path="url(#SVGID_13_)" fill="#9E4124" width="82.51" height="0.742"/>
			<rect x="6.546" y="28.243" clip-path="url(#SVGID_13_)" fill="#9F4224" width="82.51" height="0.742"/>
			<rect x="6.546" y="28.985" clip-path="url(#SVGID_13_)" fill="#A04325" width="82.51" height="0.742"/>
			<rect x="6.546" y="29.728" clip-path="url(#SVGID_13_)" fill="#A14425" width="82.51" height="0.743"/>
			<rect x="6.546" y="30.471" clip-path="url(#SVGID_13_)" fill="#A34626" width="82.51" height="0.741"/>
			<rect x="6.546" y="31.212" clip-path="url(#SVGID_13_)" fill="#A44726" width="82.51" height="0.742"/>
			<rect x="6.546" y="31.954" clip-path="url(#SVGID_13_)" fill="#A54827" width="82.51" height="0.742"/>
			<rect x="6.546" y="32.696" clip-path="url(#SVGID_13_)" fill="#A64927" width="82.51" height="0.742"/>
			<rect x="6.546" y="33.438" clip-path="url(#SVGID_13_)" fill="#A74A28" width="82.51" height="0.743"/>
			<rect x="6.546" y="34.182" clip-path="url(#SVGID_13_)" fill="#A84B28" width="82.51" height="0.741"/>
			<rect x="6.546" y="34.923" clip-path="url(#SVGID_13_)" fill="#A94C29" width="82.51" height="0.742"/>
			<rect x="6.546" y="35.665" clip-path="url(#SVGID_13_)" fill="#A94C29" width="82.51" height="29.795"/>
			<rect x="6.546" y="65.46" clip-path="url(#SVGID_13_)" fill="#A94C29" width="82.51" height="2.933"/>
			<rect x="6.546" y="68.393" clip-path="url(#SVGID_13_)" fill="#A94C29" width="82.51" height="7.934"/>
		</g>
	</g>
	<g opacity="0.67" enable-background="new    ">
		<path fill="#7F2213" d="M47.802,71.064c-15.692,0-30.455-6.119-41.567-17.23l-0.129-0.129V24.34L22.239,9.679l0.593,0.653
			L6.988,24.729v28.609c10.931,10.863,25.417,16.845,40.814,16.845c15.395,0,29.883-5.981,40.815-16.845V24.73L72.771,10.332
			l0.594-0.653L89.5,24.34v29.365l-0.129,0.129C78.256,64.945,63.496,71.064,47.802,71.064z"/>
	</g>
</g>
<g opacity="0.71">
	<g opacity="0.71" enable-background="new    ">
		<path fill="#ECCBA1" d="M47.802,68.509c-0.229,0-0.459-0.001-0.688-0.004l0.009-0.661c0.872,0.01,1.753,0,2.63-0.031l0.023,0.662
			C49.119,68.498,48.456,68.509,47.802,68.509z M46.229,68.486c-0.885-0.024-1.779-0.07-2.658-0.138l0.051-0.66
			c0.867,0.067,1.751,0.112,2.625,0.138L46.229,68.486z M50.664,68.436l-0.035-0.66c0.871-0.046,1.754-0.11,2.623-0.196l0.064,0.657
			C52.438,68.323,51.545,68.391,50.664,68.436z M42.686,68.275c-0.88-0.081-1.769-0.185-2.644-0.307l0.093-0.655
			c0.863,0.121,1.743,0.223,2.611,0.303L42.686,68.275z M54.199,68.143l-0.074-0.656c0.863-0.101,1.74-0.222,2.604-0.364
			l0.107,0.654C55.961,67.919,55.074,68.042,54.199,68.143z M39.167,67.84c-0.874-0.138-1.755-0.296-2.619-0.474l0.132-0.648
			c0.855,0.177,1.727,0.333,2.589,0.468L39.167,67.84z M57.709,67.625l-0.115-0.651c0.857-0.154,1.725-0.332,2.574-0.527
			l0.148,0.646C59.455,67.289,58.58,67.469,57.709,67.625z M35.68,67.181c-0.861-0.192-1.731-0.405-2.584-0.638l0.174-0.64
			c0.844,0.23,1.702,0.442,2.554,0.631L35.68,67.181z M61.18,66.885l-0.156-0.641c0.846-0.209,1.699-0.441,2.537-0.69l0.189,0.634
			C62.9,66.44,62.037,66.675,61.18,66.885z M32.243,66.302c-0.848-0.245-1.702-0.516-2.538-0.801l0.215-0.627
			c0.826,0.282,1.669,0.549,2.508,0.793L32.243,66.302z M64.598,65.928L64.4,65.297c0.83-0.264,1.666-0.549,2.486-0.852l0.23,0.621
			C66.287,65.372,65.439,65.663,64.598,65.928z M28.87,65.205c-0.832-0.299-1.667-0.624-2.481-0.962l0.254-0.611
			c0.805,0.336,1.629,0.655,2.452,0.951L28.87,65.205z M67.949,64.751l-0.24-0.615c0.814-0.316,1.631-0.655,2.43-1.008l0.268,0.604
			C69.598,64.091,68.771,64.433,67.949,64.751z M25.573,63.897c-0.812-0.354-1.623-0.729-2.415-1.12l0.293-0.593
			c0.781,0.385,1.585,0.756,2.387,1.104L25.573,63.897z M71.215,63.365l-0.277-0.602c0.795-0.367,1.586-0.758,2.359-1.16
			l0.307,0.585C72.822,62.598,72.02,62.992,71.215,63.365z M22.369,62.38c-0.786-0.404-1.572-0.831-2.339-1.271l0.33-0.573
			c0.757,0.436,1.534,0.856,2.31,1.256L22.369,62.38z M74.387,61.771l-0.314-0.581c0.768-0.419,1.535-0.859,2.279-1.312l0.344,0.565
			C75.941,60.903,75.164,61.349,74.387,61.771z M19.266,60.66c-0.758-0.452-1.516-0.931-2.251-1.42l0.365-0.55
			c0.728,0.483,1.476,0.954,2.225,1.401L19.266,60.66z M77.453,59.977l-0.354-0.56c0.738-0.466,1.475-0.956,2.189-1.455l0.381,0.543
			C78.945,59.011,78.201,59.506,77.453,59.977z M16.282,58.745c-0.728-0.499-1.453-1.024-2.156-1.559l0.4-0.525
			c0.695,0.527,1.411,1.046,2.131,1.54L16.282,58.745z M80.395,57.989l-0.387-0.536c0.703-0.508,1.408-1.044,2.094-1.591
			l0.414,0.517C81.82,56.933,81.107,57.475,80.395,57.989z M13.426,56.646c-0.694-0.546-1.386-1.115-2.054-1.693l0.434-0.499
			c0.66,0.57,1.342,1.133,2.027,1.673L13.426,56.646z M83.205,55.819l-0.42-0.51c0.672-0.554,1.342-1.133,1.988-1.721l0.445,0.491
			C84.562,54.674,83.887,55.259,83.205,55.819z M10.708,54.368c-0.656-0.586-1.311-1.198-1.943-1.817l0.464-0.474
			c0.624,0.613,1.271,1.219,1.919,1.798L10.708,54.368z M85.871,53.478l-0.451-0.483c0.418-0.391,0.836-0.795,1.244-1.2v-0.63h0.66
			v0.904l-0.096,0.096C86.787,52.606,86.328,53.049,85.871,53.478z M8.94,51.593H8.279v-2.647H8.94V51.593z M87.324,50.281h-0.66
			v-2.646h0.66V50.281z M8.94,48.065H8.279V45.42H8.94V48.065z M87.324,46.754h-0.66v-2.646h0.66V46.754z M8.94,44.537H8.279v-2.646
			H8.94V44.537z M87.324,43.226h-0.66V40.58h0.66V43.226z M8.94,41.01H8.279v-2.647H8.94V41.01z M87.324,39.698h-0.66v-2.646h0.66
			V39.698z M8.94,37.48H8.279v-2.646H8.94V37.48z M87.324,36.17h-0.66v-2.646h0.66V36.17z M8.94,33.953H8.279v-2.646H8.94V33.953z
			 M87.324,32.643h-0.66v-2.647h0.66V32.643z M8.94,30.425H8.279v-2.646H8.94V30.425z M87.324,29.113h-0.66v-2.646h0.66V29.113z
			 M8.94,26.896H8.279v-1.22l1.272-1.155l0.443,0.488L8.94,25.97V26.896z M86.596,25.908l-1.959-1.78l0.445-0.488l1.957,1.778
			L86.596,25.908z M10.648,24.417l-0.445-0.489l1.959-1.779l0.445,0.49L10.648,24.417z M83.984,23.535l-1.957-1.779l0.445-0.49
			l1.957,1.781L83.984,23.535z M13.259,22.045l-0.445-0.489l1.958-1.78l0.445,0.489L13.259,22.045z M81.375,21.163l-1.959-1.78
			l0.445-0.489l1.957,1.779L81.375,21.163z M15.87,19.672l-0.444-0.489l1.957-1.78l0.446,0.49L15.87,19.672z M78.762,18.789
			l-1.957-1.779l0.447-0.489l1.957,1.78L78.762,18.789z M18.481,17.299l-0.445-0.488l1.959-1.78l0.443,0.489L18.481,17.299z
			 M76.152,16.417l-1.957-1.778l0.443-0.49l1.959,1.778L76.152,16.417z M21.091,14.927l-0.443-0.489l1.957-1.779l0.445,0.489
			L21.091,14.927z M73.543,14.044l-1.959-1.779l0.443-0.489l1.959,1.779L73.543,14.044z"/>
	</g>
</g>
<g>
	<g>
		<path fill="#C2B59B" d="M48.027,62.749c-3.626,0-6.805-3.42-6.805-7.319l-0.054-15.415c0-3.896,3.18-7.317,6.806-7.317
			c3.624,0,6.805,3.421,6.805,7.319l0.051,15.415C54.83,59.329,51.65,62.749,48.027,62.749z"/>
	</g>
	<g>
		<path fill="#9B8579" d="M47.974,33.249c3.333,0,6.254,3.162,6.254,6.771l0.051,15.409c0,3.604-2.922,6.769-6.252,6.769
			c-3.332,0-6.253-3.164-6.253-6.771L41.72,40.017C41.719,36.411,44.642,33.249,47.974,33.249 M47.974,32.146
			c-4.062,0-7.356,3.808-7.356,7.87L40.67,55.43c0,4.063,3.293,7.87,7.356,7.87c4.061,0,7.354-3.807,7.354-7.87L55.33,40.017
			C55.33,35.954,52.035,32.146,47.974,32.146L47.974,32.146z"/>
	</g>
</g>
<g>
	<g>
		<g>
			<path fill="#2C2724" d="M52.064,42.657c0-2.244-1.82-4.063-4.065-4.063c-2.244,0-4.063,1.819-4.063,4.063
				c0,1.54,0.856,2.879,2.121,3.568v10.963h3.886V46.227C51.207,45.537,52.064,44.198,52.064,42.657z"/>
		</g>
	</g>
	<defs>
		<filter id="Adobe_OpacityMaskFilter" filterUnits="userSpaceOnUse" x="43.936" y="38.594" width="8.128" height="18.595">
			<feColorMatrix  type="matrix" values="1 0 0 0 0  0 1 0 0 0  0 0 1 0 0  0 0 0 1 0"/>
		</filter>
	</defs>
	<mask maskUnits="userSpaceOnUse" x="43.936" y="38.594" width="8.128" height="18.595" id="SVGID_2_">
		<g filter="url(#Adobe_OpacityMaskFilter)">
			
				<image overflow="visible" enable-background="new    " width="35" height="72" xlink:href="C5E5DC04.jpg"  transform="matrix(0.2756 0 0 0.2756 43.2134 37.9033)">
			</image>
		</g>
	</mask>
	<g mask="url(#SVGID_2_)">
		<g>
			<path d="M52.064,42.657c0-2.244-1.82-4.063-4.065-4.063c-2.244,0-4.063,1.819-4.063,4.063c0,1.54,0.856,2.879,2.121,3.568v10.963
				h3.886V46.227C51.207,45.537,52.064,44.198,52.064,42.657z"/>
		</g>
	</g>
</g>
<g>
	<g opacity="0.71" enable-background="new    ">
		<path fill="#A94C29" d="M11.48,21.625l-1.142-1.139l0.467-0.469l1.142,1.139L11.48,21.625z M9.714,19.862L7.84,17.994l0.468-0.469
			l1.873,1.869L9.714,19.862z M7.216,17.371l-1.873-1.869l0.468-0.468l1.873,1.868L7.216,17.371z M4.719,14.879l-0.234-0.234
			l-0.843-2.313l0.623-0.226l0.79,2.175l0.132,0.131L4.719,14.879z M3.341,11.503L2.439,9.015l0.62-0.226l0.904,2.487L3.341,11.503z
			 M2.137,8.187L1.407,6.18L1.91,5.628L2.757,7.96L2.137,8.187z"/>
	</g>
</g>
<g>
	<g opacity="0.71" enable-background="new    ">
		<path fill="#A94C29" d="M84.016,21.625l-0.469-0.469l1.189-1.185l0.467,0.47L84.016,21.625z M85.826,19.817l-0.467-0.469
			l1.871-1.868l0.471,0.468L85.826,19.817z M88.324,17.325l-0.467-0.468l1.871-1.869l0.469,0.469L88.324,17.325z M90.82,14.834
			l-0.467-0.47l0.096-0.094l0.994-2.176l0.602,0.274L91,14.654L90.82,14.834z M92.412,11.567l-0.602-0.275l1.1-2.406l0.602,0.275
			L92.412,11.567z M93.877,8.357l-0.602-0.274l1.029-2.249l0.462,0.577L93.877,8.357z"/>
	</g>
</g>
</svg>
