<?xml version="1.0" encoding="utf-8"?>
<!-- Generator: Adobe Illustrator 15.0.0, SVG Export Plug-In . SVG Version: 6.00 Build 0)  -->
<!DOCTYPE svg PUBLIC "-//W3C//DTD SVG 1.1//EN" "http://www.w3.org/Graphics/SVG/1.1/DTD/svg11.dtd" [
	<!ENTITY ns_extend "http://ns.adobe.com/Extensibility/1.0/">
	<!ENTITY ns_ai "http://ns.adobe.com/AdobeIllustrator/10.0/">
	<!ENTITY ns_graphs "http://ns.adobe.com/Graphs/1.0/">
	<!ENTITY ns_vars "http://ns.adobe.com/Variables/1.0/">
	<!ENTITY ns_imrep "http://ns.adobe.com/ImageReplacement/1.0/">
	<!ENTITY ns_sfw "http://ns.adobe.com/SaveForWeb/1.0/">
	<!ENTITY ns_custom "http://ns.adobe.com/GenericCustomNamespace/1.0/">
	<!ENTITY ns_adobe_xpath "http://ns.adobe.com/XPath/1.0/">
]>
<svg version="1.1" id="Layer_1" xmlns:x="&ns_extend;" xmlns:i="&ns_ai;" xmlns:graph="&ns_graphs;"
	 xmlns="http://www.w3.org/2000/svg" xmlns:xlink="http://www.w3.org/1999/xlink" x="0px" y="0px" width="377.78px"
	 height="285.978px" viewBox="-28.583 -24.314 377.78 285.978" enable-background="new -28.583 -24.314 377.78 285.978"
	 xml:space="preserve">
<metadata>
	<sfw  xmlns="&ns_sfw;">
		<slices></slices>
		<sliceSourceBounds  height="285.977" width="377.78" y="347.837" x="85.917" bottomLeftOrigin="true"></sliceSourceBounds>
	</sfw>
</metadata>
<g>
	<polygon fill="#924221" points="75.686,152.486 58.143,147.603 58.143,42.995 75.686,42.995 	"/>
</g>
<g>
	<polygon fill="#924221" points="264.459,147.603 246.912,152.486 246.912,42.995 264.459,42.995 	"/>
</g>
<g opacity="0.72">
	<g>
		<g>
			<rect x="260.665" y="58.434" fill="#ECCBA1" width="1.463" height="2.925"/>
		</g>
		<g>
			<path fill="#ECCBA1" d="M262.128,147.601h-1.463v-5.88h1.463V147.601z M262.128,139.758h-1.463v-5.878h1.463V139.758z
				 M262.128,131.921h-1.463v-5.882h1.463V131.921z M262.128,124.077h-1.463V118.2h1.463V124.077z M262.128,116.237h-1.463v-5.877
				h1.463V116.237z M262.128,108.398h-1.463v-5.88h1.463V108.398z M262.128,100.557h-1.463V94.68h1.463V100.557z M262.128,92.72
				h-1.463v-5.881h1.463V92.72z M262.128,84.879h-1.463v-5.88h1.463V84.879z M262.128,77.037h-1.463v-5.88h1.463V77.037z
				 M262.128,69.2h-1.463v-5.882h1.463V69.2z"/>
		</g>
	</g>
</g>
<g opacity="0.72">
	<g>
		<g>
			<rect x="60.852" y="58.434" fill="#ECCBA1" width="1.461" height="2.925"/>
		</g>
		<g>
			<path fill="#ECCBA1" d="M62.312,147.601h-1.461v-5.88h1.461V147.601z M62.312,139.758h-1.461v-5.878h1.461V139.758z
				 M62.312,131.921h-1.461v-5.882h1.461V131.921z M62.312,124.077h-1.461V118.2h1.461V124.077z M62.312,116.237h-1.461v-5.877
				h1.461V116.237z M62.312,108.398h-1.461v-5.88h1.461V108.398z M62.312,100.557h-1.461V94.68h1.461V100.557z M62.312,92.72h-1.461
				v-5.881h1.461V92.72z M62.312,84.879h-1.461v-5.88h1.461V84.879z M62.312,77.037h-1.461v-5.88h1.461V77.037z M62.312,69.2h-1.461
				v-5.882h1.461V69.2z"/>
		</g>
	</g>
</g>
<g>
	<g>
		<path fill="#924221" d="M255.99-24.314c5.629,0,10.23,4.604,10.23,10.231v83.194c0,5.629-4.602,10.232-10.23,10.232L66.224,79.359
			c-5.63,0-10.233-4.604-10.233-10.23v-83.183c0-5.629,4.604-10.234,10.233-10.237L255.99-24.314z"/>
	</g>
	<g>
		<g>
			<defs>
				<path id="SVGID_2_" d="M255.99-24.314c5.629,0,10.23,4.604,10.23,10.231v83.194c0,5.629-4.602,10.232-10.23,10.232
					L66.224,79.359c-5.63,0-10.233-4.604-10.233-10.23v-83.183c0-5.629,4.604-10.234,10.233-10.237L255.99-24.314z"/>
			</defs>
			<clipPath id="SVGID_3_">
				<use xlink:href="#SVGID_2_"  overflow="visible"/>
			</clipPath>
			<rect x="55.99" y="-24.314" clip-path="url(#SVGID_3_)" fill="#56251C" width="2.586" height="103.674"/>
			<rect x="58.576" y="-24.314" clip-path="url(#SVGID_3_)" fill="#56251C" width="0.44" height="103.674"/>
			<rect x="59.017" y="-24.314" clip-path="url(#SVGID_3_)" fill="#57251C" width="0.442" height="103.674"/>
			<rect x="59.459" y="-24.314" clip-path="url(#SVGID_3_)" fill="#58251C" width="0.44" height="103.674"/>
			<rect x="59.899" y="-24.314" clip-path="url(#SVGID_3_)" fill="#59251B" width="0.438" height="103.674"/>
			<rect x="60.337" y="-24.314" clip-path="url(#SVGID_3_)" fill="#5A251B" width="0.443" height="103.674"/>
			<rect x="60.78" y="-24.314" clip-path="url(#SVGID_3_)" fill="#5B251B" width="0.44" height="103.674"/>
			<rect x="61.221" y="-24.314" clip-path="url(#SVGID_3_)" fill="#5C251B" width="0.438" height="103.674"/>
			<rect x="61.658" y="-24.314" clip-path="url(#SVGID_3_)" fill="#5D241A" width="0.442" height="103.674"/>
			<rect x="62.101" y="-24.314" clip-path="url(#SVGID_3_)" fill="#5E241A" width="0.44" height="103.674"/>
			<rect x="62.541" y="-24.314" clip-path="url(#SVGID_3_)" fill="#5F241A" width="0.442" height="103.674"/>
			<rect x="62.983" y="-24.314" clip-path="url(#SVGID_3_)" fill="#60241A" width="0.437" height="103.674"/>
			<rect x="63.42" y="-24.314" clip-path="url(#SVGID_3_)" fill="#61241A" width="0.444" height="103.674"/>
			<rect x="63.864" y="-24.314" clip-path="url(#SVGID_3_)" fill="#622419" width="0.438" height="103.674"/>
			<rect x="64.302" y="-24.314" clip-path="url(#SVGID_3_)" fill="#632419" width="0.44" height="103.674"/>
			<rect x="64.742" y="-24.314" clip-path="url(#SVGID_3_)" fill="#642419" width="0.44" height="103.674"/>
			<rect x="65.183" y="-24.314" clip-path="url(#SVGID_3_)" fill="#652419" width="0.443" height="103.674"/>
			<rect x="65.626" y="-24.314" clip-path="url(#SVGID_3_)" fill="#662418" width="0.438" height="103.674"/>
			<rect x="66.063" y="-24.314" clip-path="url(#SVGID_3_)" fill="#672418" width="0.44" height="103.674"/>
			<rect x="66.504" y="-24.314" clip-path="url(#SVGID_3_)" fill="#682418" width="0.44" height="103.674"/>
			<rect x="66.944" y="-24.314" clip-path="url(#SVGID_3_)" fill="#692418" width="0.442" height="103.674"/>
			<rect x="67.387" y="-24.314" clip-path="url(#SVGID_3_)" fill="#6B2418" width="0.438" height="103.674"/>
			<rect x="67.825" y="-24.314" clip-path="url(#SVGID_3_)" fill="#6C2317" width="0.439" height="103.674"/>
			<rect x="68.265" y="-24.314" clip-path="url(#SVGID_3_)" fill="#6D2317" width="0.443" height="103.674"/>
			<rect x="68.708" y="-24.314" clip-path="url(#SVGID_3_)" fill="#6E2317" width="0.44" height="103.674"/>
			<rect x="69.148" y="-24.314" clip-path="url(#SVGID_3_)" fill="#6F2317" width="0.438" height="103.674"/>
			<rect x="69.586" y="-24.314" clip-path="url(#SVGID_3_)" fill="#702316" width="0.443" height="103.674"/>
			<rect x="70.029" y="-24.314" clip-path="url(#SVGID_3_)" fill="#712316" width="0.439" height="103.674"/>
			<rect x="70.469" y="-24.314" clip-path="url(#SVGID_3_)" fill="#722316" width="0.438" height="103.674"/>
			<rect x="70.907" y="-24.314" clip-path="url(#SVGID_3_)" fill="#732316" width="0.442" height="103.674"/>
			<rect x="71.35" y="-24.314" clip-path="url(#SVGID_3_)" fill="#742315" width="0.44" height="103.674"/>
			<rect x="71.79" y="-24.314" clip-path="url(#SVGID_3_)" fill="#752315" width="0.442" height="103.674"/>
			<rect x="72.232" y="-24.314" clip-path="url(#SVGID_3_)" fill="#762315" width="0.438" height="103.674"/>
			<rect x="72.67" y="-24.314" clip-path="url(#SVGID_3_)" fill="#772315" width="0.44" height="103.674"/>
			<rect x="73.11" y="-24.314" clip-path="url(#SVGID_3_)" fill="#782315" width="0.443" height="103.674"/>
			<rect x="73.554" y="-24.314" clip-path="url(#SVGID_3_)" fill="#792214" width="0.438" height="103.674"/>
			<rect x="73.991" y="-24.314" clip-path="url(#SVGID_3_)" fill="#7A2214" width="0.44" height="103.674"/>
			<rect x="74.432" y="-24.314" clip-path="url(#SVGID_3_)" fill="#7B2214" width="0.442" height="103.674"/>
			<rect x="74.874" y="-24.314" clip-path="url(#SVGID_3_)" fill="#7C2214" width="0.44" height="103.674"/>
			<rect x="75.314" y="-24.314" clip-path="url(#SVGID_3_)" fill="#7D2213" width="0.438" height="103.674"/>
			<rect x="75.753" y="-24.314" clip-path="url(#SVGID_3_)" fill="#7E2213" width="0.442" height="103.674"/>
			<rect x="76.195" y="-24.314" clip-path="url(#SVGID_3_)" fill="#7F2213" width="0.44" height="103.674"/>
			<rect x="76.636" y="-24.314" clip-path="url(#SVGID_3_)" fill="#7F2213" width="1.966" height="103.674"/>
			<rect x="78.602" y="-24.314" clip-path="url(#SVGID_3_)" fill="#802314" width="1.967" height="103.674"/>
			<rect x="80.568" y="-24.314" clip-path="url(#SVGID_3_)" fill="#812414" width="1.962" height="103.674"/>
			<rect x="82.53" y="-24.314" clip-path="url(#SVGID_3_)" fill="#822515" width="1.964" height="103.674"/>
			<rect x="84.494" y="-24.314" clip-path="url(#SVGID_3_)" fill="#832615" width="1.968" height="103.674"/>
			<rect x="86.462" y="-24.314" clip-path="url(#SVGID_3_)" fill="#842716" width="1.965" height="103.674"/>
			<rect x="88.427" y="-24.314" clip-path="url(#SVGID_3_)" fill="#852816" width="1.964" height="103.674"/>
			<rect x="90.391" y="-24.314" clip-path="url(#SVGID_3_)" fill="#862917" width="1.967" height="103.674"/>
			<rect x="92.357" y="-24.314" clip-path="url(#SVGID_3_)" fill="#872A17" width="1.966" height="103.674"/>
			<rect x="94.323" y="-24.314" clip-path="url(#SVGID_3_)" fill="#882B18" width="1.962" height="103.674"/>
			<rect x="96.285" y="-24.314" clip-path="url(#SVGID_3_)" fill="#892C18" width="1.967" height="103.674"/>
			<rect x="98.252" y="-24.314" clip-path="url(#SVGID_3_)" fill="#8A2D19" width="1.966" height="103.674"/>
			<rect x="100.218" y="-24.314" clip-path="url(#SVGID_3_)" fill="#8B2E19" width="1.964" height="103.674"/>
			<rect x="102.182" y="-24.314" clip-path="url(#SVGID_3_)" fill="#8C2F1A" width="1.967" height="103.674"/>
			<rect x="104.148" y="-24.314" clip-path="url(#SVGID_3_)" fill="#8D301B" width="1.964" height="103.674"/>
			<rect x="106.112" y="-24.314" clip-path="url(#SVGID_3_)" fill="#8E311B" width="1.964" height="103.674"/>
			<rect x="108.076" y="-24.314" clip-path="url(#SVGID_3_)" fill="#8F321C" width="1.967" height="103.674"/>
			<rect x="110.043" y="-24.314" clip-path="url(#SVGID_3_)" fill="#90331C" width="1.964" height="103.674"/>
			<rect x="112.007" y="-24.314" clip-path="url(#SVGID_3_)" fill="#91341D" width="1.969" height="103.674"/>
			<rect x="113.976" y="-24.314" clip-path="url(#SVGID_3_)" fill="#92351D" width="1.964" height="103.674"/>
			<rect x="115.939" y="-24.314" clip-path="url(#SVGID_3_)" fill="#93361E" width="1.964" height="103.674"/>
			<rect x="117.903" y="-24.314" clip-path="url(#SVGID_3_)" fill="#95381E" width="1.967" height="103.674"/>
			<rect x="119.87" y="-24.314" clip-path="url(#SVGID_3_)" fill="#96391F" width="1.964" height="103.674"/>
			<rect x="121.834" y="-24.314" clip-path="url(#SVGID_3_)" fill="#973A1F" width="1.965" height="103.674"/>
			<rect x="123.799" y="-24.314" clip-path="url(#SVGID_3_)" fill="#983B20" width="1.968" height="103.674"/>
			<rect x="125.767" y="-24.314" clip-path="url(#SVGID_3_)" fill="#993C20" width="1.965" height="103.674"/>
			<rect x="127.731" y="-24.314" clip-path="url(#SVGID_3_)" fill="#9A3D21" width="1.962" height="103.674"/>
			<rect x="129.693" y="-24.314" clip-path="url(#SVGID_3_)" fill="#9B3E21" width="1.968" height="103.674"/>
			<rect x="131.661" y="-24.314" clip-path="url(#SVGID_3_)" fill="#9C3F22" width="1.964" height="103.674"/>
			<rect x="133.625" y="-24.314" clip-path="url(#SVGID_3_)" fill="#9D4023" width="1.965" height="103.674"/>
			<rect x="135.59" y="-24.314" clip-path="url(#SVGID_3_)" fill="#9E4123" width="1.966" height="103.674"/>
			<rect x="137.556" y="-24.314" clip-path="url(#SVGID_3_)" fill="#9F4224" width="1.965" height="103.674"/>
			<rect x="139.521" y="-24.314" clip-path="url(#SVGID_3_)" fill="#A04324" width="1.968" height="103.674"/>
			<rect x="141.488" y="-24.314" clip-path="url(#SVGID_3_)" fill="#A14425" width="1.962" height="103.674"/>
			<rect x="143.45" y="-24.314" clip-path="url(#SVGID_3_)" fill="#A24525" width="1.966" height="103.674"/>
			<rect x="145.416" y="-24.314" clip-path="url(#SVGID_3_)" fill="#A34626" width="1.967" height="103.674"/>
			<rect x="147.383" y="-24.314" clip-path="url(#SVGID_3_)" fill="#A44726" width="1.964" height="103.674"/>
			<rect x="149.347" y="-24.314" clip-path="url(#SVGID_3_)" fill="#A54827" width="1.965" height="103.674"/>
			<rect x="151.312" y="-24.314" clip-path="url(#SVGID_3_)" fill="#A64927" width="1.966" height="103.674"/>
			<rect x="153.277" y="-24.314" clip-path="url(#SVGID_3_)" fill="#A74A28" width="1.964" height="103.674"/>
			<rect x="155.241" y="-24.314" clip-path="url(#SVGID_3_)" fill="#A84B28" width="1.965" height="103.674"/>
			<rect x="157.206" y="-24.314" clip-path="url(#SVGID_3_)" fill="#A94C29" width="1.968" height="103.674"/>
			<rect x="159.174" y="-24.314" clip-path="url(#SVGID_3_)" fill="#A94C29" width="4.753" height="103.674"/>
			<rect x="163.927" y="-24.314" clip-path="url(#SVGID_3_)" fill="#A84B28" width="4.748" height="103.674"/>
			<rect x="168.675" y="-24.314" clip-path="url(#SVGID_3_)" fill="#A74A28" width="4.748" height="103.674"/>
			<rect x="173.423" y="-24.314" clip-path="url(#SVGID_3_)" fill="#A54827" width="4.758" height="103.674"/>
			<rect x="178.181" y="-24.314" clip-path="url(#SVGID_3_)" fill="#A44726" width="4.748" height="103.674"/>
			<rect x="182.929" y="-24.314" clip-path="url(#SVGID_3_)" fill="#A44726" width="1.916" height="103.674"/>
			<rect x="184.845" y="-24.314" clip-path="url(#SVGID_3_)" fill="#A34626" width="1.917" height="103.674"/>
			<rect x="186.762" y="-24.314" clip-path="url(#SVGID_3_)" fill="#A24525" width="1.921" height="103.674"/>
			<rect x="188.683" y="-24.314" clip-path="url(#SVGID_3_)" fill="#A14425" width="1.912" height="103.674"/>
			<rect x="190.595" y="-24.314" clip-path="url(#SVGID_3_)" fill="#A04324" width="1.917" height="103.674"/>
			<rect x="192.512" y="-24.314" clip-path="url(#SVGID_3_)" fill="#9F4224" width="1.922" height="103.674"/>
			<rect x="194.434" y="-24.314" clip-path="url(#SVGID_3_)" fill="#9E4123" width="1.916" height="103.674"/>
			<rect x="196.35" y="-24.314" clip-path="url(#SVGID_3_)" fill="#9D4023" width="1.916" height="103.674"/>
			<rect x="198.266" y="-24.314" clip-path="url(#SVGID_3_)" fill="#9B3E22" width="1.921" height="103.674"/>
			<rect x="200.187" y="-24.314" clip-path="url(#SVGID_3_)" fill="#9A3D22" width="1.917" height="103.674"/>
			<rect x="202.104" y="-24.314" clip-path="url(#SVGID_3_)" fill="#993C21" width="1.913" height="103.674"/>
			<rect x="204.017" y="-24.314" clip-path="url(#SVGID_3_)" fill="#983B21" width="1.916" height="103.674"/>
			<rect x="205.933" y="-24.314" clip-path="url(#SVGID_3_)" fill="#973A20" width="1.921" height="103.674"/>
			<rect x="207.854" y="-24.314" clip-path="url(#SVGID_3_)" fill="#963920" width="1.916" height="103.674"/>
			<rect x="209.77" y="-24.314" clip-path="url(#SVGID_3_)" fill="#95381F" width="1.918" height="103.674"/>
			<rect x="211.688" y="-24.314" clip-path="url(#SVGID_3_)" fill="#95381F" width="1.307" height="103.674"/>
			<rect x="212.994" y="-24.314" clip-path="url(#SVGID_3_)" fill="#94371E" width="1.309" height="103.674"/>
			<rect x="214.303" y="-24.314" clip-path="url(#SVGID_3_)" fill="#93361E" width="1.308" height="103.674"/>
			<rect x="215.61" y="-24.314" clip-path="url(#SVGID_3_)" fill="#92351D" width="1.304" height="103.674"/>
			<rect x="216.914" y="-24.314" clip-path="url(#SVGID_3_)" fill="#91341D" width="1.305" height="103.674"/>
			<rect x="218.219" y="-24.314" clip-path="url(#SVGID_3_)" fill="#90331C" width="1.303" height="103.674"/>
			<rect x="219.521" y="-24.314" clip-path="url(#SVGID_3_)" fill="#8F321C" width="1.309" height="103.674"/>
			<rect x="220.83" y="-24.314" clip-path="url(#SVGID_3_)" fill="#8E311B" width="1.312" height="103.674"/>
			<rect x="222.142" y="-24.314" clip-path="url(#SVGID_3_)" fill="#8D301A" width="1.304" height="103.674"/>
			<rect x="223.445" y="-24.314" clip-path="url(#SVGID_3_)" fill="#8C2F1A" width="1.309" height="103.674"/>
			<rect x="224.754" y="-24.314" clip-path="url(#SVGID_3_)" fill="#8B2E19" width="1.303" height="103.674"/>
			<rect x="226.057" y="-24.314" clip-path="url(#SVGID_3_)" fill="#892C19" width="1.309" height="103.674"/>
			<rect x="227.365" y="-24.314" clip-path="url(#SVGID_3_)" fill="#882B18" width="1.304" height="103.674"/>
			<rect x="228.669" y="-24.314" clip-path="url(#SVGID_3_)" fill="#872A18" width="1.304" height="103.674"/>
			<rect x="229.973" y="-24.314" clip-path="url(#SVGID_3_)" fill="#862917" width="1.312" height="103.674"/>
			<rect x="231.285" y="-24.314" clip-path="url(#SVGID_3_)" fill="#852816" width="1.299" height="103.674"/>
			<rect x="232.584" y="-24.314" clip-path="url(#SVGID_3_)" fill="#842716" width="1.309" height="103.674"/>
			<rect x="233.893" y="-24.314" clip-path="url(#SVGID_3_)" fill="#832615" width="1.312" height="103.674"/>
			<rect x="235.205" y="-24.314" clip-path="url(#SVGID_3_)" fill="#822515" width="1.303" height="103.674"/>
			<rect x="236.508" y="-24.314" clip-path="url(#SVGID_3_)" fill="#812414" width="1.309" height="103.674"/>
			<rect x="237.816" y="-24.314" clip-path="url(#SVGID_3_)" fill="#802314" width="1.308" height="103.674"/>
			<rect x="239.124" y="-24.314" clip-path="url(#SVGID_3_)" fill="#7F2213" width="1.3" height="103.674"/>
			<rect x="240.424" y="-24.314" clip-path="url(#SVGID_3_)" fill="#7F2213" width="0.631" height="103.674"/>
			<rect x="241.055" y="-24.314" clip-path="url(#SVGID_3_)" fill="#7E2213" width="0.625" height="103.674"/>
			<rect x="241.68" y="-24.314" clip-path="url(#SVGID_3_)" fill="#7D2213" width="0.635" height="103.674"/>
			<rect x="242.314" y="-24.314" clip-path="url(#SVGID_3_)" fill="#7C2214" width="0.631" height="103.674"/>
			<rect x="242.945" y="-24.314" clip-path="url(#SVGID_3_)" fill="#7B2214" width="0.625" height="103.674"/>
			<rect x="243.57" y="-24.314" clip-path="url(#SVGID_3_)" fill="#7A2214" width="0.63" height="103.674"/>
			<rect x="244.2" y="-24.314" clip-path="url(#SVGID_3_)" fill="#792214" width="0.636" height="103.674"/>
			<rect x="244.836" y="-24.314" clip-path="url(#SVGID_3_)" fill="#782315" width="0.626" height="103.674"/>
			<rect x="245.462" y="-24.314" clip-path="url(#SVGID_3_)" fill="#772315" width="0.625" height="103.674"/>
			<rect x="246.087" y="-24.314" clip-path="url(#SVGID_3_)" fill="#762315" width="0.631" height="103.674"/>
			<rect x="246.718" y="-24.314" clip-path="url(#SVGID_3_)" fill="#752315" width="0.63" height="103.674"/>
			<rect x="247.348" y="-24.314" clip-path="url(#SVGID_3_)" fill="#742315" width="0.63" height="103.674"/>
			<rect x="247.978" y="-24.314" clip-path="url(#SVGID_3_)" fill="#732316" width="0.631" height="103.674"/>
			<rect x="248.608" y="-24.314" clip-path="url(#SVGID_3_)" fill="#722316" width="0.626" height="103.674"/>
			<rect x="249.234" y="-24.314" clip-path="url(#SVGID_3_)" fill="#712316" width="0.63" height="103.674"/>
			<rect x="249.864" y="-24.314" clip-path="url(#SVGID_3_)" fill="#702316" width="0.63" height="103.674"/>
			<rect x="250.494" y="-24.314" clip-path="url(#SVGID_3_)" fill="#6F2317" width="0.627" height="103.674"/>
			<rect x="251.121" y="-24.314" clip-path="url(#SVGID_3_)" fill="#6E2317" width="0.63" height="103.674"/>
			<rect x="251.751" y="-24.314" clip-path="url(#SVGID_3_)" fill="#6D2317" width="0.63" height="103.674"/>
			<rect x="252.381" y="-24.314" clip-path="url(#SVGID_3_)" fill="#6C2317" width="0.626" height="103.674"/>
			<rect x="253.007" y="-24.314" clip-path="url(#SVGID_3_)" fill="#6B2418" width="0.631" height="103.674"/>
			<rect x="253.638" y="-24.314" clip-path="url(#SVGID_3_)" fill="#692418" width="0.63" height="103.674"/>
			<rect x="254.268" y="-24.314" clip-path="url(#SVGID_3_)" fill="#682418" width="0.63" height="103.674"/>
			<rect x="254.897" y="-24.314" clip-path="url(#SVGID_3_)" fill="#672418" width="0.627" height="103.674"/>
			<rect x="255.524" y="-24.314" clip-path="url(#SVGID_3_)" fill="#662418" width="0.629" height="103.674"/>
			<rect x="256.153" y="-24.314" clip-path="url(#SVGID_3_)" fill="#652419" width="0.631" height="103.674"/>
			<rect x="256.784" y="-24.314" clip-path="url(#SVGID_3_)" fill="#642419" width="0.631" height="103.674"/>
			<rect x="257.415" y="-24.314" clip-path="url(#SVGID_3_)" fill="#632419" width="0.63" height="103.674"/>
			<rect x="258.045" y="-24.314" clip-path="url(#SVGID_3_)" fill="#622419" width="0.625" height="103.674"/>
			<rect x="258.67" y="-24.314" clip-path="url(#SVGID_3_)" fill="#61241A" width="0.631" height="103.674"/>
			<rect x="259.301" y="-24.314" clip-path="url(#SVGID_3_)" fill="#60241A" width="0.635" height="103.674"/>
			<rect x="259.936" y="-24.314" clip-path="url(#SVGID_3_)" fill="#5F241A" width="0.625" height="103.674"/>
			<rect x="260.561" y="-24.314" clip-path="url(#SVGID_3_)" fill="#5E241A" width="0.627" height="103.674"/>
			<rect x="261.188" y="-24.314" clip-path="url(#SVGID_3_)" fill="#5D241A" width="0.63" height="103.674"/>
			<rect x="261.817" y="-24.314" clip-path="url(#SVGID_3_)" fill="#5C251B" width="0.63" height="103.674"/>
			<rect x="262.447" y="-24.314" clip-path="url(#SVGID_3_)" fill="#5B251B" width="0.631" height="103.674"/>
			<rect x="263.078" y="-24.314" clip-path="url(#SVGID_3_)" fill="#5A251B" width="0.626" height="103.674"/>
			<rect x="263.704" y="-24.314" clip-path="url(#SVGID_3_)" fill="#59251B" width="0.631" height="103.674"/>
			<rect x="264.335" y="-24.314" clip-path="url(#SVGID_3_)" fill="#58251C" width="0.629" height="103.674"/>
			<rect x="264.964" y="-24.314" clip-path="url(#SVGID_3_)" fill="#57251C" width="0.631" height="103.674"/>
			<rect x="265.595" y="-24.314" clip-path="url(#SVGID_3_)" fill="#56251C" width="0.626" height="103.674"/>
			<path clip-path="url(#SVGID_3_)" fill="#56251C" d="M266.221,79.359V-24.314V79.359z"/>
		</g>
	</g>
</g>
<g>
	<g>
		<path fill="#91321B" d="M69.841,49.555v28.05v80.221c0,5.897,4.824,10.721,10.721,10.721h160.989
			c5.896,0,10.723-4.823,10.723-10.721V76.836V49.555H69.841L69.841,49.555z"/>
	</g>
	<g>
		<g>
			<defs>
				<path id="SVGID_4_" d="M69.841,49.555v28.05v80.221c0,5.897,4.824,10.721,10.721,10.721h160.989
					c5.896,0,10.723-4.823,10.723-10.721V76.836V49.555H69.841L69.841,49.555z"/>
			</defs>
			<clipPath id="SVGID_5_">
				<use xlink:href="#SVGID_4_"  overflow="visible"/>
			</clipPath>
			<path clip-path="url(#SVGID_5_)" fill="#7F2213" d="M69.841,168.546h182.433H69.841z"/>
			<rect x="69.841" y="167.29" clip-path="url(#SVGID_5_)" fill="#7F2213" width="182.433" height="1.256"/>
			<rect x="69.841" y="166.03" clip-path="url(#SVGID_5_)" fill="#802314" width="182.433" height="1.26"/>
			<rect x="69.841" y="164.769" clip-path="url(#SVGID_5_)" fill="#812414" width="182.433" height="1.262"/>
			<rect x="69.841" y="163.509" clip-path="url(#SVGID_5_)" fill="#822515" width="182.433" height="1.26"/>
			<rect x="69.841" y="162.253" clip-path="url(#SVGID_5_)" fill="#832615" width="182.433" height="1.256"/>
			<rect x="69.841" y="160.989" clip-path="url(#SVGID_5_)" fill="#852816" width="182.433" height="1.264"/>
			<rect x="69.841" y="159.732" clip-path="url(#SVGID_5_)" fill="#862917" width="182.433" height="1.257"/>
			<rect x="69.841" y="158.476" clip-path="url(#SVGID_5_)" fill="#872A17" width="182.433" height="1.257"/>
			<rect x="69.841" y="157.215" clip-path="url(#SVGID_5_)" fill="#882B18" width="182.433" height="1.261"/>
			<rect x="69.841" y="155.956" clip-path="url(#SVGID_5_)" fill="#892C18" width="182.433" height="1.259"/>
			<rect x="69.841" y="154.696" clip-path="url(#SVGID_5_)" fill="#8A2D19" width="182.433" height="1.26"/>
			<rect x="69.841" y="153.135" clip-path="url(#SVGID_5_)" fill="#8A2D19" width="182.433" height="1.562"/>
			<rect x="69.841" y="151.582" clip-path="url(#SVGID_5_)" fill="#8B2E1A" width="182.433" height="1.553"/>
			<rect x="69.841" y="150.025" clip-path="url(#SVGID_5_)" fill="#8C2F1A" width="182.433" height="1.557"/>
			<rect x="69.841" y="148.467" clip-path="url(#SVGID_5_)" fill="#8D301B" width="182.433" height="1.559"/>
			<rect x="69.841" y="146.911" clip-path="url(#SVGID_5_)" fill="#8E311B" width="182.433" height="1.556"/>
			<rect x="69.841" y="145.353" clip-path="url(#SVGID_5_)" fill="#8F321C" width="182.433" height="1.559"/>
			<rect x="69.841" y="143.794" clip-path="url(#SVGID_5_)" fill="#90331C" width="182.433" height="1.559"/>
			<rect x="69.841" y="142.238" clip-path="url(#SVGID_5_)" fill="#91341D" width="182.433" height="1.556"/>
			<rect x="69.841" y="140.684" clip-path="url(#SVGID_5_)" fill="#92351D" width="182.433" height="1.555"/>
			<rect x="69.841" y="139.123" clip-path="url(#SVGID_5_)" fill="#93361E" width="182.433" height="1.561"/>
			<rect x="69.841" y="137.565" clip-path="url(#SVGID_5_)" fill="#94371E" width="182.433" height="1.558"/>
			<rect x="69.841" y="136.009" clip-path="url(#SVGID_5_)" fill="#96391F" width="182.433" height="1.557"/>
			<rect x="69.841" y="134.452" clip-path="url(#SVGID_5_)" fill="#973A20" width="182.433" height="1.557"/>
			<rect x="69.841" y="132.896" clip-path="url(#SVGID_5_)" fill="#983B20" width="182.433" height="1.556"/>
			<rect x="69.841" y="131.338" clip-path="url(#SVGID_5_)" fill="#993C21" width="182.433" height="1.559"/>
			<rect x="69.841" y="129.779" clip-path="url(#SVGID_5_)" fill="#9A3D21" width="182.433" height="1.559"/>
			<rect x="69.841" y="128.224" clip-path="url(#SVGID_5_)" fill="#9B3E22" width="182.433" height="1.556"/>
			<rect x="69.841" y="126.665" clip-path="url(#SVGID_5_)" fill="#9C3F22" width="182.433" height="1.559"/>
			<rect x="69.841" y="125.108" clip-path="url(#SVGID_5_)" fill="#9D4023" width="182.433" height="1.557"/>
			<rect x="69.841" y="123.553" clip-path="url(#SVGID_5_)" fill="#9E4123" width="182.433" height="1.556"/>
			<rect x="69.841" y="121.992" clip-path="url(#SVGID_5_)" fill="#9F4224" width="182.433" height="1.561"/>
			<rect x="69.841" y="120.436" clip-path="url(#SVGID_5_)" fill="#A04324" width="182.433" height="1.557"/>
			<rect x="69.841" y="118.882" clip-path="url(#SVGID_5_)" fill="#A14425" width="182.433" height="1.554"/>
			<rect x="69.841" y="116.052" clip-path="url(#SVGID_5_)" fill="#A14425" width="182.433" height="2.83"/>
			<rect x="69.841" y="113.227" clip-path="url(#SVGID_5_)" fill="#A24526" width="182.433" height="2.825"/>
			<rect x="69.841" y="110.403" clip-path="url(#SVGID_5_)" fill="#A34626" width="182.433" height="2.823"/>
			<rect x="69.841" y="107.576" clip-path="url(#SVGID_5_)" fill="#A44727" width="182.433" height="2.827"/>
			<rect x="69.841" y="104.751" clip-path="url(#SVGID_5_)" fill="#A64927" width="182.433" height="2.825"/>
			<rect x="69.841" y="101.923" clip-path="url(#SVGID_5_)" fill="#A74A28" width="182.433" height="2.828"/>
			<rect x="69.841" y="99.096" clip-path="url(#SVGID_5_)" fill="#A84B28" width="182.433" height="2.827"/>
			<rect x="69.841" y="96.272" clip-path="url(#SVGID_5_)" fill="#A94C29" width="182.433" height="2.823"/>
			<rect x="69.841" y="49.555" clip-path="url(#SVGID_5_)" fill="#A94C29" width="182.433" height="46.718"/>
		</g>
	</g>
</g>
<g opacity="0.72">
	<g opacity="0.26">
		
			<image overflow="visible" enable-background="new    " width="339" height="253" xlink:href="8073D863.png"  transform="matrix(0.4873 0 0 0.4873 78.0801 45.2852)">
		</image>
	</g>
</g>
<g>
	<g>
		<g>
			<defs>
				<path id="SVGID_6_" d="M161.106,168.546c0,0-58.426,0-80.645,0c-9.194,0-10.621-9.23-10.621-9.23V72.83h91.266V168.546z"/>
			</defs>
			<clipPath id="SVGID_7_">
				<use xlink:href="#SVGID_6_"  overflow="visible"/>
			</clipPath>
			<polygon clip-path="url(#SVGID_7_)" fill="#56251C" points="69.841,160.229 73.717,168.546 69.841,168.546 			"/>
			<polygon clip-path="url(#SVGID_7_)" fill="#56251C" points="69.841,156.598 75.414,168.546 73.717,168.546 69.841,160.229 			"/>
			<polygon clip-path="url(#SVGID_7_)" fill="#57251C" points="69.841,152.963 77.108,168.546 75.414,168.546 69.841,156.598 			"/>
			<polygon clip-path="url(#SVGID_7_)" fill="#58261C" points="69.841,149.328 78.805,168.546 77.108,168.546 69.841,152.963 			"/>
			<polygon clip-path="url(#SVGID_7_)" fill="#59261C" points="69.841,145.692 80.497,168.546 78.805,168.546 69.841,149.328 			"/>
			<polygon clip-path="url(#SVGID_7_)" fill="#5A271D" points="69.841,142.063 82.191,168.546 80.497,168.546 69.841,145.692 			"/>
			<polygon clip-path="url(#SVGID_7_)" fill="#5B271D" points="69.841,138.426 83.885,168.546 82.191,168.546 69.841,142.063 			"/>
			<polygon clip-path="url(#SVGID_7_)" fill="#5C281D" points="69.841,134.793 85.58,168.546 83.885,168.546 69.841,138.426 			"/>
			<polygon clip-path="url(#SVGID_7_)" fill="#5D281D" points="69.841,131.161 87.276,168.546 85.58,168.546 69.841,134.793 			"/>
			<polygon clip-path="url(#SVGID_7_)" fill="#5E291D" points="69.841,127.521 88.969,168.546 87.276,168.546 69.841,131.161 			"/>
			<polygon clip-path="url(#SVGID_7_)" fill="#5F291D" points="69.841,123.892 90.665,168.546 88.969,168.546 69.841,127.521 			"/>
			<polygon clip-path="url(#SVGID_7_)" fill="#602A1E" points="69.841,120.254 92.359,168.546 90.665,168.546 69.841,123.892 			"/>
			<polygon clip-path="url(#SVGID_7_)" fill="#612A1E" points="69.841,116.624 94.054,168.546 92.359,168.546 69.841,120.254 			"/>
			<polygon clip-path="url(#SVGID_7_)" fill="#622B1E" points="69.841,112.989 95.748,168.546 94.054,168.546 69.841,116.624 			"/>
			<polygon clip-path="url(#SVGID_7_)" fill="#632B1E" points="69.841,109.356 97.442,168.546 95.748,168.546 69.841,112.989 			"/>
			<polygon clip-path="url(#SVGID_7_)" fill="#642C1E" points="69.841,105.72 99.137,168.546 97.442,168.546 69.841,109.356 			"/>
			<polygon clip-path="url(#SVGID_7_)" fill="#652C1E" points="69.841,102.088 100.831,168.546 99.137,168.546 69.841,105.72 			"/>
			<polygon clip-path="url(#SVGID_7_)" fill="#662D1E" points="69.841,98.452 102.527,168.546 100.831,168.546 69.841,102.088 			
				"/>
			<polygon clip-path="url(#SVGID_7_)" fill="#682D1F" points="69.841,94.817 104.222,168.546 102.527,168.546 69.841,98.452 			"/>
			<polygon clip-path="url(#SVGID_7_)" fill="#692E1F" points="69.841,91.188 105.916,168.546 104.222,168.546 69.841,94.817 			"/>
			<polygon clip-path="url(#SVGID_7_)" fill="#6A2E1F" points="69.841,87.549 107.61,168.546 105.916,168.546 69.841,91.188 			"/>
			<polygon clip-path="url(#SVGID_7_)" fill="#6B2F1F" points="69.841,83.918 109.305,168.546 107.61,168.546 69.841,87.549 			"/>
			<polygon clip-path="url(#SVGID_7_)" fill="#6C2F1F" points="69.841,80.283 110.999,168.546 109.305,168.546 69.841,83.918 			"/>
			<polygon clip-path="url(#SVGID_7_)" fill="#6D301F" points="69.841,76.65 112.693,168.546 110.999,168.546 69.841,80.283 			"/>
			<polygon clip-path="url(#SVGID_7_)" fill="#6E301F" points="69.841,73.016 114.388,168.546 112.693,168.546 69.841,76.65 			"/>
			<polygon clip-path="url(#SVGID_7_)" fill="#6F3120" points="71.449,72.83 116.082,168.546 114.388,168.546 69.841,73.016 
				69.841,72.83 			"/>
			<polygon clip-path="url(#SVGID_7_)" fill="#703120" points="73.146,72.83 117.776,168.546 116.082,168.546 71.449,72.83 			"/>
			<polygon clip-path="url(#SVGID_7_)" fill="#713220" points="74.838,72.83 119.473,168.546 117.776,168.546 73.146,72.83 			"/>
			<polygon clip-path="url(#SVGID_7_)" fill="#723220" points="76.534,72.83 121.165,168.546 119.473,168.546 74.838,72.83 			"/>
			<polygon clip-path="url(#SVGID_7_)" fill="#733320" points="78.227,72.83 122.861,168.546 121.165,168.546 76.534,72.83 			"/>
			<polygon clip-path="url(#SVGID_7_)" fill="#743320" points="79.92,72.83 124.554,168.546 122.861,168.546 78.227,72.83 			"/>
			<polygon clip-path="url(#SVGID_7_)" fill="#753421" points="81.617,72.83 126.248,168.546 124.554,168.546 79.92,72.83 			"/>
			<polygon clip-path="url(#SVGID_7_)" fill="#763421" points="83.312,72.83 127.944,168.546 126.248,168.546 81.617,72.83 			"/>
			<polygon clip-path="url(#SVGID_7_)" fill="#773521" points="85.004,72.83 129.639,168.546 127.944,168.546 83.312,72.83 			"/>
			<polygon clip-path="url(#SVGID_7_)" fill="#783521" points="86.7,72.83 131.336,168.546 129.639,168.546 85.004,72.83 			"/>
			<polygon clip-path="url(#SVGID_7_)" fill="#783521" points="88.218,72.83 132.851,168.546 131.336,168.546 86.7,72.83 			"/>
			<polygon clip-path="url(#SVGID_7_)" fill="#793521" points="89.737,72.83 134.372,168.546 132.851,168.546 88.218,72.83 			"/>
			<polygon clip-path="url(#SVGID_7_)" fill="#7A3621" points="91.254,72.83 135.89,168.546 134.372,168.546 89.737,72.83 			"/>
			<polygon clip-path="url(#SVGID_7_)" fill="#7B3622" points="92.776,72.83 137.407,168.546 135.89,168.546 91.254,72.83 			"/>
			<polygon clip-path="url(#SVGID_7_)" fill="#7C3722" points="94.291,72.83 138.927,168.546 137.407,168.546 92.776,72.83 			"/>
			<polygon clip-path="url(#SVGID_7_)" fill="#7D3722" points="95.811,72.83 140.446,168.546 138.927,168.546 94.291,72.83 			"/>
			<polygon clip-path="url(#SVGID_7_)" fill="#7E3822" points="97.33,72.83 141.964,168.546 140.446,168.546 95.811,72.83 			"/>
			<polygon clip-path="url(#SVGID_7_)" fill="#7F3822" points="98.848,72.83 143.482,168.546 141.964,168.546 97.33,72.83 			"/>
			<polygon clip-path="url(#SVGID_7_)" fill="#803922" points="100.367,72.83 145,168.546 143.482,168.546 98.848,72.83 			"/>
			<polygon clip-path="url(#SVGID_7_)" fill="#813923" points="101.887,72.83 146.518,168.546 145,168.546 100.367,72.83 			"/>
			<polygon clip-path="url(#SVGID_7_)" fill="#823A23" points="103.401,72.83 148.037,168.546 146.518,168.546 101.887,72.83 			"/>
			<polygon clip-path="url(#SVGID_7_)" fill="#833A23" points="104.921,72.83 149.557,168.546 148.037,168.546 103.401,72.83 			"/>
			<polygon clip-path="url(#SVGID_7_)" fill="#843B23" points="106.44,72.83 151.074,168.546 149.557,168.546 104.921,72.83 			"/>
			<polygon clip-path="url(#SVGID_7_)" fill="#853B23" points="107.958,72.83 152.594,168.546 151.074,168.546 106.44,72.83 			"/>
			<polygon clip-path="url(#SVGID_7_)" fill="#863C23" points="109.478,72.83 154.11,168.546 152.594,168.546 107.958,72.83 			"/>
			<polygon clip-path="url(#SVGID_7_)" fill="#873C24" points="110.997,72.83 155.63,168.546 154.11,168.546 109.478,72.83 			"/>
			<polygon clip-path="url(#SVGID_7_)" fill="#883D24" points="112.512,72.83 157.148,168.546 155.63,168.546 110.997,72.83 			"/>
			<polygon clip-path="url(#SVGID_7_)" fill="#893D24" points="114.034,72.83 158.669,168.546 157.148,168.546 112.512,72.83 			"/>
			<polygon clip-path="url(#SVGID_7_)" fill="#8A3E24" points="115.551,72.83 160.185,168.546 158.669,168.546 114.034,72.83 			"/>
			<polygon clip-path="url(#SVGID_7_)" fill="#8B3E24" points="117.07,72.83 161.106,167.267 161.106,168.546 160.185,168.546 
				115.551,72.83 			"/>
			<polygon clip-path="url(#SVGID_7_)" fill="#8C3F24" points="118.588,72.83 161.106,164.012 161.106,167.267 117.07,72.83 			"/>
			<polygon clip-path="url(#SVGID_7_)" fill="#8D3F25" points="120.107,72.83 161.106,160.75 161.106,164.012 118.588,72.83 			"/>
			<polygon clip-path="url(#SVGID_7_)" fill="#8E4025" points="121.625,72.83 161.106,157.497 161.106,160.75 120.107,72.83 			"/>
			<polygon clip-path="url(#SVGID_7_)" fill="#8F4025" points="123.145,72.83 161.106,154.242 161.106,157.497 121.625,72.83 			"/>
			<polygon clip-path="url(#SVGID_7_)" fill="#914125" points="124.661,72.83 161.106,150.983 161.106,154.242 123.145,72.83 			"/>
			<polygon clip-path="url(#SVGID_7_)" fill="#924125" points="126.181,72.83 161.106,147.729 161.106,150.983 124.661,72.83 			"/>
			<polygon clip-path="url(#SVGID_7_)" fill="#934125" points="127.698,72.83 161.106,144.47 161.106,147.729 126.181,72.83 			"/>
			<polygon clip-path="url(#SVGID_7_)" fill="#944226" points="129.218,72.83 161.106,141.215 161.106,144.47 127.698,72.83 			"/>
			<polygon clip-path="url(#SVGID_7_)" fill="#954226" points="130.735,72.83 161.106,137.96 161.106,141.215 129.218,72.83 			"/>
			<polygon clip-path="url(#SVGID_7_)" fill="#964326" points="132.255,72.83 161.106,134.7 161.106,137.96 130.735,72.83 			"/>
			<polygon clip-path="url(#SVGID_7_)" fill="#974326" points="133.774,72.83 161.106,131.446 161.106,134.7 132.255,72.83 			"/>
			<polygon clip-path="url(#SVGID_7_)" fill="#984426" points="135.292,72.83 161.106,128.188 161.106,131.446 133.774,72.83 			"/>
			<polygon clip-path="url(#SVGID_7_)" fill="#994426" points="136.81,72.83 161.106,124.934 161.106,128.188 135.292,72.83 			"/>
			<polygon clip-path="url(#SVGID_7_)" fill="#9A4527" points="138.331,72.83 161.106,121.675 161.106,124.934 136.81,72.83 			"/>
			<polygon clip-path="url(#SVGID_7_)" fill="#9B4527" points="139.846,72.83 161.106,118.42 161.106,121.675 138.331,72.83 			"/>
			<polygon clip-path="url(#SVGID_7_)" fill="#9C4627" points="141.368,72.83 161.106,115.163 161.106,118.42 139.846,72.83 			"/>
			<polygon clip-path="url(#SVGID_7_)" fill="#9D4627" points="142.885,72.83 161.106,111.908 161.106,115.163 141.368,72.83 			"/>
			<polygon clip-path="url(#SVGID_7_)" fill="#9E4727" points="144.402,72.83 161.106,108.653 161.106,111.908 142.885,72.83 			"/>
			<polygon clip-path="url(#SVGID_7_)" fill="#9F4727" points="145.922,72.83 161.106,105.392 161.106,108.653 144.402,72.83 			"/>
			<polygon clip-path="url(#SVGID_7_)" fill="#A04828" points="147.441,72.83 161.106,102.137 161.106,105.392 145.922,72.83 			"/>
			<polygon clip-path="url(#SVGID_7_)" fill="#A14828" points="148.959,72.83 161.106,98.88 161.106,102.137 147.441,72.83 			"/>
			<polygon clip-path="url(#SVGID_7_)" fill="#A24928" points="150.479,72.83 161.106,95.625 161.106,98.88 148.959,72.83 			"/>
			<polygon clip-path="url(#SVGID_7_)" fill="#A34928" points="151.995,72.83 161.106,92.366 161.106,95.625 150.479,72.83 			"/>
			<polygon clip-path="url(#SVGID_7_)" fill="#A44A28" points="153.513,72.83 161.106,89.111 161.106,92.366 151.995,72.83 			"/>
			<polygon clip-path="url(#SVGID_7_)" fill="#A54A28" points="155.032,72.83 161.106,85.856 161.106,89.111 153.513,72.83 			"/>
			<polygon clip-path="url(#SVGID_7_)" fill="#A64B29" points="156.552,72.83 161.106,82.599 161.106,85.856 155.032,72.83 			"/>
			<polygon clip-path="url(#SVGID_7_)" fill="#A74B29" points="158.069,72.83 161.106,79.34 161.106,82.599 156.552,72.83 			"/>
			<polygon clip-path="url(#SVGID_7_)" fill="#A84C29" points="159.589,72.83 161.106,76.085 161.106,79.34 158.069,72.83 			"/>
			<polygon clip-path="url(#SVGID_7_)" fill="#A94C29" points="161.106,76.085 159.589,72.83 161.106,72.83 			"/>
		</g>
	</g>
</g>
<g>
	<g>
		<g>
			<defs>
				<path id="SVGID_8_" d="M160.308,168.546c0,0,58.425,0,80.646,0c9.191,0,10.62-9.23,10.62-9.23V72.83h-91.267V168.546z"/>
			</defs>
			<clipPath id="SVGID_9_">
				<use xlink:href="#SVGID_8_"  overflow="visible"/>
			</clipPath>
			<polygon clip-path="url(#SVGID_9_)" fill="#56251C" points="247.697,168.546 251.569,160.229 251.569,168.546 			"/>
			<polygon clip-path="url(#SVGID_9_)" fill="#56251C" points="246.001,168.546 251.569,156.593 251.569,160.229 247.697,168.546 
							"/>
			<polygon clip-path="url(#SVGID_9_)" fill="#57251C" points="244.31,168.546 251.569,152.963 251.569,156.593 246.001,168.546 			
				"/>
			<polygon clip-path="url(#SVGID_9_)" fill="#58261C" points="242.612,168.546 251.569,149.323 251.569,152.963 244.31,168.546 			
				"/>
			<polygon clip-path="url(#SVGID_9_)" fill="#59261C" points="240.916,168.546 251.569,145.692 251.569,149.323 242.612,168.546 
							"/>
			<polygon clip-path="url(#SVGID_9_)" fill="#5A271D" points="239.224,168.546 251.569,142.059 251.569,145.692 240.916,168.546 
							"/>
			<polygon clip-path="url(#SVGID_9_)" fill="#5B271D" points="237.526,168.546 251.569,138.426 251.569,142.059 239.224,168.546 
							"/>
			<polygon clip-path="url(#SVGID_9_)" fill="#5C281D" points="235.83,168.546 251.569,134.791 251.569,138.426 237.526,168.546 			
				"/>
			<polygon clip-path="url(#SVGID_9_)" fill="#5D281D" points="234.139,168.546 251.569,131.158 251.569,134.791 235.83,168.546 			
				"/>
			<polygon clip-path="url(#SVGID_9_)" fill="#5E291D" points="232.442,168.546 251.569,127.521 251.569,131.158 234.139,168.546 
							"/>
			<polygon clip-path="url(#SVGID_9_)" fill="#5F291D" points="230.749,168.546 251.569,123.887 251.569,127.521 232.442,168.546 
							"/>
			<polygon clip-path="url(#SVGID_9_)" fill="#602A1E" points="229.053,168.546 251.569,120.254 251.569,123.887 230.749,168.546 
							"/>
			<polygon clip-path="url(#SVGID_9_)" fill="#612A1E" points="227.361,168.546 251.569,116.622 251.569,120.254 229.053,168.546 
							"/>
			<polygon clip-path="url(#SVGID_9_)" fill="#622B1E" points="225.669,168.546 251.569,112.989 251.569,116.622 227.361,168.546 
							"/>
			<polygon clip-path="url(#SVGID_9_)" fill="#632B1E" points="223.972,168.546 251.569,109.351 251.569,112.989 225.669,168.546 
							"/>
			<polygon clip-path="url(#SVGID_9_)" fill="#642C1E" points="222.28,168.546 251.569,105.72 251.569,109.351 223.972,168.546 			
				"/>
			<polygon clip-path="url(#SVGID_9_)" fill="#652C1E" points="220.584,168.546 251.569,102.085 251.569,105.72 222.28,168.546 			
				"/>
			<polygon clip-path="url(#SVGID_9_)" fill="#662D1E" points="218.888,168.546 251.569,98.45 251.569,102.085 220.584,168.546 			
				"/>
			<polygon clip-path="url(#SVGID_9_)" fill="#682D1F" points="217.194,168.546 251.569,94.817 251.569,98.45 218.888,168.546 			
				"/>
			<polygon clip-path="url(#SVGID_9_)" fill="#692E1F" points="215.499,168.546 251.569,91.184 251.569,94.817 217.194,168.546 			
				"/>
			<polygon clip-path="url(#SVGID_9_)" fill="#6A2E1F" points="213.803,168.546 251.569,87.549 251.569,91.184 215.499,168.546 			
				"/>
			<polygon clip-path="url(#SVGID_9_)" fill="#6B2F1F" points="212.109,168.546 251.569,83.914 251.569,87.549 213.803,168.546 			
				"/>
			<polygon clip-path="url(#SVGID_9_)" fill="#6C2F1F" points="210.413,168.546 251.569,80.283 251.569,83.914 212.109,168.546 			
				"/>
			<polygon clip-path="url(#SVGID_9_)" fill="#6D301F" points="208.722,168.546 251.569,76.646 251.569,80.283 210.413,168.546 			
				"/>
			<polygon clip-path="url(#SVGID_9_)" fill="#6E301F" points="207.025,168.546 251.569,73.014 251.569,76.646 208.722,168.546 			
				"/>
			<polygon clip-path="url(#SVGID_9_)" fill="#6F3120" points="205.332,168.546 249.964,72.83 251.569,72.83 251.569,73.014 
				207.025,168.546 			"/>
			<polygon clip-path="url(#SVGID_9_)" fill="#703120" points="203.636,168.546 248.268,72.83 249.964,72.83 205.332,168.546 			"/>
			<polygon clip-path="url(#SVGID_9_)" fill="#713220" points="201.939,168.546 246.574,72.83 248.268,72.83 203.636,168.546 			"/>
			<polygon clip-path="url(#SVGID_9_)" fill="#723220" points="200.248,168.546 244.883,72.83 246.574,72.83 201.939,168.546 			"/>
			<polygon clip-path="url(#SVGID_9_)" fill="#733320" points="198.555,168.546 243.187,72.83 244.883,72.83 200.248,168.546 			"/>
			<polygon clip-path="url(#SVGID_9_)" fill="#743320" points="196.858,168.546 241.489,72.83 243.187,72.83 198.555,168.546 			"/>
			<polygon clip-path="url(#SVGID_9_)" fill="#753421" points="195.167,168.546 239.798,72.83 241.489,72.83 196.858,168.546 			"/>
			<polygon clip-path="url(#SVGID_9_)" fill="#763421" points="193.47,168.546 238.102,72.83 239.798,72.83 195.167,168.546 			"/>
			<polygon clip-path="url(#SVGID_9_)" fill="#773521" points="191.777,168.546 236.409,72.83 238.102,72.83 193.47,168.546 			"/>
			<polygon clip-path="url(#SVGID_9_)" fill="#783521" points="190.081,168.546 234.712,72.83 236.409,72.83 191.777,168.546 			"/>
			<polygon clip-path="url(#SVGID_9_)" fill="#783521" points="188.562,168.546 233.193,72.83 234.712,72.83 190.081,168.546 			"/>
			<polygon clip-path="url(#SVGID_9_)" fill="#793521" points="187.043,168.546 231.678,72.83 233.193,72.83 188.562,168.546 			"/>
			<polygon clip-path="url(#SVGID_9_)" fill="#7A3621" points="185.522,168.546 230.158,72.83 231.678,72.83 187.043,168.546 			"/>
			<polygon clip-path="url(#SVGID_9_)" fill="#7B3622" points="184.008,168.546 228.639,72.83 230.158,72.83 185.522,168.546 			"/>
			<polygon clip-path="url(#SVGID_9_)" fill="#7C3722" points="182.488,168.546 227.119,72.83 228.639,72.83 184.008,168.546 			"/>
			<polygon clip-path="url(#SVGID_9_)" fill="#7D3722" points="180.969,168.546 225.6,72.83 227.119,72.83 182.488,168.546 			"/>
			<polygon clip-path="url(#SVGID_9_)" fill="#7E3822" points="179.449,168.546 224.089,72.83 225.6,72.83 180.969,168.546 			"/>
			<polygon clip-path="url(#SVGID_9_)" fill="#7F3822" points="177.935,168.546 222.564,72.83 224.089,72.83 179.449,168.546 			"/>
			<polygon clip-path="url(#SVGID_9_)" fill="#803922" points="176.414,168.546 221.046,72.83 222.564,72.83 177.935,168.546 			"/>
			<polygon clip-path="url(#SVGID_9_)" fill="#813923" points="174.896,168.546 219.525,72.83 221.046,72.83 176.414,168.546 			"/>
			<polygon clip-path="url(#SVGID_9_)" fill="#823A23" points="173.375,168.546 218.011,72.83 219.525,72.83 174.896,168.546 			"/>
			<polygon clip-path="url(#SVGID_9_)" fill="#833A23" points="171.86,168.546 216.491,72.83 218.011,72.83 173.375,168.546 			"/>
			<polygon clip-path="url(#SVGID_9_)" fill="#843B23" points="170.341,168.546 214.973,72.83 216.491,72.83 171.86,168.546 			"/>
			<polygon clip-path="url(#SVGID_9_)" fill="#853B23" points="168.821,168.546 213.452,72.83 214.973,72.83 170.341,168.546 			"/>
			<polygon clip-path="url(#SVGID_9_)" fill="#863C23" points="167.302,168.546 211.938,72.83 213.452,72.83 168.821,168.546 			"/>
			<polygon clip-path="url(#SVGID_9_)" fill="#873C24" points="165.787,168.546 210.418,72.83 211.938,72.83 167.302,168.546 			"/>
			<polygon clip-path="url(#SVGID_9_)" fill="#883D24" points="164.267,168.546 208.903,72.83 210.418,72.83 165.787,168.546 			"/>
			<polygon clip-path="url(#SVGID_9_)" fill="#893D24" points="162.748,168.546 207.383,72.83 208.903,72.83 164.267,168.546 			"/>
			<polygon clip-path="url(#SVGID_9_)" fill="#8A3E24" points="161.229,168.546 205.864,72.83 207.383,72.83 162.748,168.546 			"/>
			<polygon clip-path="url(#SVGID_9_)" fill="#8B3E24" points="160.31,167.267 204.344,72.83 205.864,72.83 161.229,168.546 
				160.31,168.546 			"/>
			<polygon clip-path="url(#SVGID_9_)" fill="#8C3F24" points="160.31,164.007 202.825,72.83 204.344,72.83 160.31,167.267 			"/>
			<polygon clip-path="url(#SVGID_9_)" fill="#8D3F25" points="160.31,160.75 201.305,72.83 202.825,72.83 160.31,164.007 			"/>
			<polygon clip-path="url(#SVGID_9_)" fill="#8E4025" points="160.31,157.497 199.79,72.83 201.305,72.83 160.31,160.75 			"/>
			<polygon clip-path="url(#SVGID_9_)" fill="#8F4025" points="160.31,154.242 198.266,72.83 199.79,72.83 160.31,157.497 			"/>
			<polygon clip-path="url(#SVGID_9_)" fill="#914125" points="160.31,150.983 196.75,72.83 198.266,72.83 160.31,154.242 			"/>
			<polygon clip-path="url(#SVGID_9_)" fill="#924125" points="160.31,147.727 195.231,72.83 196.75,72.83 160.31,150.983 			"/>
			<polygon clip-path="url(#SVGID_9_)" fill="#934125" points="160.31,144.47 193.711,72.83 195.231,72.83 160.31,147.727 			"/>
			<polygon clip-path="url(#SVGID_9_)" fill="#944226" points="160.31,141.215 192.196,72.83 193.711,72.83 160.31,144.47 			"/>
			<polygon clip-path="url(#SVGID_9_)" fill="#954226" points="160.31,137.955 190.677,72.83 192.196,72.83 160.31,141.215 			"/>
			<polygon clip-path="url(#SVGID_9_)" fill="#964326" points="160.31,134.7 189.157,72.83 190.677,72.83 160.31,137.955 			"/>
			<polygon clip-path="url(#SVGID_9_)" fill="#974326" points="160.31,131.446 187.642,72.83 189.157,72.83 160.31,134.7 			"/>
			<polygon clip-path="url(#SVGID_9_)" fill="#984426" points="160.31,128.187 186.123,72.83 187.642,72.83 160.31,131.446 			"/>
			<polygon clip-path="url(#SVGID_9_)" fill="#994426" points="160.31,124.932 184.603,72.83 186.123,72.83 160.31,128.187 			"/>
			<polygon clip-path="url(#SVGID_9_)" fill="#9A4527" points="160.31,121.675 183.084,72.83 184.603,72.83 160.31,124.932 			"/>
			<polygon clip-path="url(#SVGID_9_)" fill="#9B4527" points="160.31,118.42 181.568,72.83 183.084,72.83 160.31,121.675 			"/>
			<polygon clip-path="url(#SVGID_9_)" fill="#9C4627" points="160.31,115.163 180.045,72.83 181.568,72.83 160.31,118.42 			"/>
			<polygon clip-path="url(#SVGID_9_)" fill="#9D4627" points="160.31,111.908 178.525,72.83 180.045,72.83 160.31,115.163 			"/>
			<polygon clip-path="url(#SVGID_9_)" fill="#9E4727" points="160.31,108.648 177.011,72.83 178.525,72.83 160.31,111.908 			"/>
			<polygon clip-path="url(#SVGID_9_)" fill="#9F4727" points="160.31,105.392 175.49,72.83 177.011,72.83 160.31,108.648 			"/>
			<polygon clip-path="url(#SVGID_9_)" fill="#A04828" points="160.31,102.137 173.972,72.83 175.49,72.83 160.31,105.392 			"/>
			<polygon clip-path="url(#SVGID_9_)" fill="#A14828" points="160.31,98.878 172.456,72.83 173.972,72.83 160.31,102.137 			"/>
			<polygon clip-path="url(#SVGID_9_)" fill="#A24928" points="160.31,95.623 170.937,72.83 172.456,72.83 160.31,98.878 			"/>
			<polygon clip-path="url(#SVGID_9_)" fill="#A34928" points="160.31,92.366 169.417,72.83 170.937,72.83 160.31,95.623 			"/>
			<polygon clip-path="url(#SVGID_9_)" fill="#A44A28" points="160.31,89.111 167.897,72.83 169.417,72.83 160.31,92.366 			"/>
			<polygon clip-path="url(#SVGID_9_)" fill="#A54A28" points="160.31,85.856 166.382,72.83 167.897,72.83 160.31,89.111 			"/>
			<polygon clip-path="url(#SVGID_9_)" fill="#A64B29" points="160.31,82.595 164.863,72.83 166.382,72.83 160.31,85.856 			"/>
			<polygon clip-path="url(#SVGID_9_)" fill="#A74B29" points="160.31,79.34 163.343,72.83 164.863,72.83 160.31,82.595 			"/>
			<polygon clip-path="url(#SVGID_9_)" fill="#A84C29" points="160.31,76.085 161.825,72.83 163.343,72.83 160.31,79.34 			"/>
			<polygon clip-path="url(#SVGID_9_)" fill="#A94C29" points="161.825,72.83 160.31,76.085 160.31,72.83 			"/>
		</g>
	</g>
</g>
<g>
	<g>
		<g>
			<defs>
				<path id="SVGID_10_" d="M216.513-11.843l35.338,32.112v64.069l0,0c-50.398,50.4-131.964,50.4-182.363,0V20.27l35.339-32.112"/>
			</defs>
			<clipPath id="SVGID_11_">
				<use xlink:href="#SVGID_10_"  overflow="visible"/>
			</clipPath>
			<rect x="69.487" y="-11.843" clip-path="url(#SVGID_11_)" fill="#7F2213" width="182.363" height="1.204"/>
			<rect x="69.487" y="-10.639" clip-path="url(#SVGID_11_)" fill="#802314" width="182.363" height="1.206"/>
			<rect x="69.487" y="-9.433" clip-path="url(#SVGID_11_)" fill="#812414" width="182.363" height="1.203"/>
			<rect x="69.487" y="-8.229" clip-path="url(#SVGID_11_)" fill="#822515" width="182.363" height="1.206"/>
			<rect x="69.487" y="-7.023" clip-path="url(#SVGID_11_)" fill="#832615" width="182.363" height="1.207"/>
			<rect x="69.487" y="-5.816" clip-path="url(#SVGID_11_)" fill="#842716" width="182.363" height="1.204"/>
			<rect x="69.487" y="-4.612" clip-path="url(#SVGID_11_)" fill="#852816" width="182.363" height="1.206"/>
			<rect x="69.487" y="-3.406" clip-path="url(#SVGID_11_)" fill="#862917" width="182.363" height="1.205"/>
			<rect x="69.487" y="-2.201" clip-path="url(#SVGID_11_)" fill="#872A17" width="182.363" height="1.206"/>
			<rect x="69.487" y="-0.995" clip-path="url(#SVGID_11_)" fill="#882B18" width="182.363" height="1.206"/>
			<rect x="69.487" y="0.211" clip-path="url(#SVGID_11_)" fill="#892C19" width="182.363" height="1.203"/>
			<rect x="69.487" y="1.414" clip-path="url(#SVGID_11_)" fill="#8A2D19" width="182.363" height="1.206"/>
			<rect x="69.487" y="2.62" clip-path="url(#SVGID_11_)" fill="#8B2E1A" width="182.363" height="1.206"/>
			<rect x="69.487" y="3.826" clip-path="url(#SVGID_11_)" fill="#8C2F1A" width="182.363" height="1.205"/>
			<rect x="69.487" y="5.031" clip-path="url(#SVGID_11_)" fill="#8E311B" width="182.363" height="1.206"/>
			<rect x="69.487" y="6.237" clip-path="url(#SVGID_11_)" fill="#8F321B" width="182.363" height="1.204"/>
			<rect x="69.487" y="7.441" clip-path="url(#SVGID_11_)" fill="#90331C" width="182.363" height="1.205"/>
			<rect x="69.487" y="8.646" clip-path="url(#SVGID_11_)" fill="#91341C" width="182.363" height="1.206"/>
			<rect x="69.487" y="9.853" clip-path="url(#SVGID_11_)" fill="#92351D" width="182.363" height="1.207"/>
			<rect x="69.487" y="11.06" clip-path="url(#SVGID_11_)" fill="#93361E" width="182.363" height="1.204"/>
			<rect x="69.487" y="12.264" clip-path="url(#SVGID_11_)" fill="#94371E" width="182.363" height="1.204"/>
			<rect x="69.487" y="13.468" clip-path="url(#SVGID_11_)" fill="#95381F" width="182.363" height="1.207"/>
			<rect x="69.487" y="14.675" clip-path="url(#SVGID_11_)" fill="#96391F" width="182.363" height="1.202"/>
			<rect x="69.487" y="15.877" clip-path="url(#SVGID_11_)" fill="#973A20" width="182.363" height="1.207"/>
			<rect x="69.487" y="17.084" clip-path="url(#SVGID_11_)" fill="#983B20" width="182.363" height="1.208"/>
			<rect x="69.487" y="18.292" clip-path="url(#SVGID_11_)" fill="#993C21" width="182.363" height="1.202"/>
			<rect x="69.487" y="19.494" clip-path="url(#SVGID_11_)" fill="#9A3D21" width="182.363" height="1.207"/>
			<rect x="69.487" y="20.701" clip-path="url(#SVGID_11_)" fill="#9B3E22" width="182.363" height="1.204"/>
			<rect x="69.487" y="21.905" clip-path="url(#SVGID_11_)" fill="#9B3E22" width="182.363" height="1.641"/>
			<rect x="69.487" y="23.546" clip-path="url(#SVGID_11_)" fill="#9C3F23" width="182.363" height="1.641"/>
			<rect x="69.487" y="25.187" clip-path="url(#SVGID_11_)" fill="#9D4023" width="182.363" height="1.641"/>
			<rect x="69.487" y="26.827" clip-path="url(#SVGID_11_)" fill="#9E4124" width="182.363" height="1.64"/>
			<rect x="69.487" y="28.467" clip-path="url(#SVGID_11_)" fill="#9F4224" width="182.363" height="1.641"/>
			<rect x="69.487" y="30.107" clip-path="url(#SVGID_11_)" fill="#A04325" width="182.363" height="1.641"/>
			<rect x="69.487" y="31.748" clip-path="url(#SVGID_11_)" fill="#A14425" width="182.363" height="1.643"/>
			<rect x="69.487" y="33.391" clip-path="url(#SVGID_11_)" fill="#A34626" width="182.363" height="1.638"/>
			<rect x="69.487" y="35.028" clip-path="url(#SVGID_11_)" fill="#A44726" width="182.363" height="1.641"/>
			<rect x="69.487" y="36.669" clip-path="url(#SVGID_11_)" fill="#A54827" width="182.363" height="1.64"/>
			<rect x="69.487" y="38.309" clip-path="url(#SVGID_11_)" fill="#A64927" width="182.363" height="1.641"/>
			<rect x="69.487" y="39.949" clip-path="url(#SVGID_11_)" fill="#A74A28" width="182.363" height="1.643"/>
			<rect x="69.487" y="41.592" clip-path="url(#SVGID_11_)" fill="#A84B28" width="182.363" height="1.639"/>
			<rect x="69.487" y="43.23" clip-path="url(#SVGID_11_)" fill="#A94C29" width="182.363" height="1.641"/>
			<rect x="69.487" y="44.871" clip-path="url(#SVGID_11_)" fill="#A94C29" width="182.363" height="65.853"/>
			<rect x="69.487" y="110.724" clip-path="url(#SVGID_11_)" fill="#A94C29" width="182.363" height="6.48"/>
			<rect x="69.487" y="117.204" clip-path="url(#SVGID_11_)" fill="#A94C29" width="182.363" height="17.535"/>
		</g>
	</g>
</g>
<g opacity="0.57">
	<g>
		<g>
			<defs>
				<path id="SVGID_12_" d="M216.513-11.843l35.338,32.112c0,0,0,48.05,0,64.069l0,0c-50.398,50.4-131.964,50.4-182.363,0V20.27
					l35.339-32.112"/>
			</defs>
			<clipPath id="SVGID_13_">
				<use xlink:href="#SVGID_12_"  overflow="visible"/>
			</clipPath>
			<rect x="69.487" y="-11.843" clip-path="url(#SVGID_13_)" fill="#7F2213" width="182.363" height="1.204"/>
			<rect x="69.487" y="-10.639" clip-path="url(#SVGID_13_)" fill="#802314" width="182.363" height="1.206"/>
			<rect x="69.487" y="-9.433" clip-path="url(#SVGID_13_)" fill="#812414" width="182.363" height="1.203"/>
			<rect x="69.487" y="-8.229" clip-path="url(#SVGID_13_)" fill="#822515" width="182.363" height="1.206"/>
			<rect x="69.487" y="-7.023" clip-path="url(#SVGID_13_)" fill="#832615" width="182.363" height="1.207"/>
			<rect x="69.487" y="-5.816" clip-path="url(#SVGID_13_)" fill="#842716" width="182.363" height="1.204"/>
			<rect x="69.487" y="-4.612" clip-path="url(#SVGID_13_)" fill="#852816" width="182.363" height="1.206"/>
			<rect x="69.487" y="-3.406" clip-path="url(#SVGID_13_)" fill="#862917" width="182.363" height="1.205"/>
			<rect x="69.487" y="-2.201" clip-path="url(#SVGID_13_)" fill="#872A17" width="182.363" height="1.206"/>
			<rect x="69.487" y="-0.995" clip-path="url(#SVGID_13_)" fill="#882B18" width="182.363" height="1.206"/>
			<rect x="69.487" y="0.211" clip-path="url(#SVGID_13_)" fill="#892C19" width="182.363" height="1.203"/>
			<rect x="69.487" y="1.414" clip-path="url(#SVGID_13_)" fill="#8A2D19" width="182.363" height="1.206"/>
			<rect x="69.487" y="2.62" clip-path="url(#SVGID_13_)" fill="#8B2E1A" width="182.363" height="1.206"/>
			<rect x="69.487" y="3.826" clip-path="url(#SVGID_13_)" fill="#8C2F1A" width="182.363" height="1.205"/>
			<rect x="69.487" y="5.031" clip-path="url(#SVGID_13_)" fill="#8E311B" width="182.363" height="1.206"/>
			<rect x="69.487" y="6.237" clip-path="url(#SVGID_13_)" fill="#8F321B" width="182.363" height="1.204"/>
			<rect x="69.487" y="7.441" clip-path="url(#SVGID_13_)" fill="#90331C" width="182.363" height="1.205"/>
			<rect x="69.487" y="8.646" clip-path="url(#SVGID_13_)" fill="#91341C" width="182.363" height="1.206"/>
			<rect x="69.487" y="9.853" clip-path="url(#SVGID_13_)" fill="#92351D" width="182.363" height="1.207"/>
			<rect x="69.487" y="11.06" clip-path="url(#SVGID_13_)" fill="#93361E" width="182.363" height="1.204"/>
			<rect x="69.487" y="12.264" clip-path="url(#SVGID_13_)" fill="#94371E" width="182.363" height="1.204"/>
			<rect x="69.487" y="13.468" clip-path="url(#SVGID_13_)" fill="#95381F" width="182.363" height="1.207"/>
			<rect x="69.487" y="14.675" clip-path="url(#SVGID_13_)" fill="#96391F" width="182.363" height="1.202"/>
			<rect x="69.487" y="15.877" clip-path="url(#SVGID_13_)" fill="#973A20" width="182.363" height="1.207"/>
			<rect x="69.487" y="17.084" clip-path="url(#SVGID_13_)" fill="#983B20" width="182.363" height="1.208"/>
			<rect x="69.487" y="18.292" clip-path="url(#SVGID_13_)" fill="#993C21" width="182.363" height="1.202"/>
			<rect x="69.487" y="19.494" clip-path="url(#SVGID_13_)" fill="#9A3D21" width="182.363" height="1.207"/>
			<rect x="69.487" y="20.701" clip-path="url(#SVGID_13_)" fill="#9B3E22" width="182.363" height="1.204"/>
			<rect x="69.487" y="21.905" clip-path="url(#SVGID_13_)" fill="#9B3E22" width="182.363" height="1.641"/>
			<rect x="69.487" y="23.546" clip-path="url(#SVGID_13_)" fill="#9C3F23" width="182.363" height="1.641"/>
			<rect x="69.487" y="25.187" clip-path="url(#SVGID_13_)" fill="#9D4023" width="182.363" height="1.641"/>
			<rect x="69.487" y="26.827" clip-path="url(#SVGID_13_)" fill="#9E4124" width="182.363" height="1.64"/>
			<rect x="69.487" y="28.467" clip-path="url(#SVGID_13_)" fill="#9F4224" width="182.363" height="1.641"/>
			<rect x="69.487" y="30.107" clip-path="url(#SVGID_13_)" fill="#A04325" width="182.363" height="1.641"/>
			<rect x="69.487" y="31.748" clip-path="url(#SVGID_13_)" fill="#A14425" width="182.363" height="1.643"/>
			<rect x="69.487" y="33.391" clip-path="url(#SVGID_13_)" fill="#A34626" width="182.363" height="1.638"/>
			<rect x="69.487" y="35.028" clip-path="url(#SVGID_13_)" fill="#A44726" width="182.363" height="1.641"/>
			<rect x="69.487" y="36.669" clip-path="url(#SVGID_13_)" fill="#A54827" width="182.363" height="1.64"/>
			<rect x="69.487" y="38.309" clip-path="url(#SVGID_13_)" fill="#A64927" width="182.363" height="1.641"/>
			<rect x="69.487" y="39.949" clip-path="url(#SVGID_13_)" fill="#A74A28" width="182.363" height="1.643"/>
			<rect x="69.487" y="41.592" clip-path="url(#SVGID_13_)" fill="#A84B28" width="182.363" height="1.639"/>
			<rect x="69.487" y="43.23" clip-path="url(#SVGID_13_)" fill="#A94C29" width="182.363" height="1.641"/>
			<rect x="69.487" y="44.871" clip-path="url(#SVGID_13_)" fill="#A94C29" width="182.363" height="65.853"/>
			<rect x="69.487" y="110.724" clip-path="url(#SVGID_13_)" fill="#A94C29" width="182.363" height="6.48"/>
			<rect x="69.487" y="117.204" clip-path="url(#SVGID_13_)" fill="#A94C29" width="182.363" height="17.535"/>
		</g>
	</g>
	<g opacity="0.67" enable-background="new    ">
		<path fill="#7F2213" d="M160.671,123.11c-34.684,0-67.312-13.524-91.872-38.083l-0.286-0.285V19.84l35.657-32.403l1.311,1.443
			L70.462,20.701v63.232c24.159,24.01,56.177,37.229,90.209,37.229c34.025,0,66.047-13.22,90.208-37.229v-63.23L215.856-11.12
			l1.312-1.443L252.83,19.84v64.902l-0.285,0.285C227.979,109.586,195.357,123.11,160.671,123.11z"/>
	</g>
</g>
<g opacity="0.71">
	<g opacity="0.71" enable-background="new    ">
		<path fill="#ECCBA1" d="M160.671,117.462c-0.505,0-1.016-0.002-1.521-0.01l0.02-1.461c1.928,0.021,3.876,0,5.813-0.068
			l0.052,1.463C163.58,117.438,162.114,117.462,160.671,117.462z M157.193,117.412c-1.956-0.054-3.933-0.155-5.876-0.305
			l0.112-1.459c1.917,0.148,3.871,0.248,5.802,0.305L157.193,117.412z M166.995,117.3l-0.078-1.459
			c1.926-0.102,3.877-0.244,5.798-0.434l0.143,1.452C170.915,117.052,168.942,117.2,166.995,117.3z M149.362,116.945
			c-1.944-0.179-3.909-0.407-5.843-0.678l0.205-1.448c1.908,0.268,3.853,0.492,5.771,0.67L149.362,116.945z M174.809,116.652
			l-0.164-1.451c1.908-0.222,3.846-0.489,5.754-0.805l0.237,1.446C178.702,116.157,176.743,116.43,174.809,116.652z
			 M141.584,115.983c-1.933-0.305-3.879-0.654-5.789-1.047l0.291-1.434c1.891,0.391,3.816,0.736,5.723,1.034L141.584,115.983z
			 M182.566,115.508l-0.255-1.439c1.896-0.341,3.812-0.733,5.689-1.166l0.327,1.428
			C186.425,114.766,184.491,115.163,182.566,115.508z M133.878,114.526c-1.903-0.426-3.826-0.896-5.711-1.41l0.384-1.413
			c1.865,0.509,3.763,0.978,5.645,1.395L133.878,114.526z M190.237,113.872l-0.346-1.416c1.869-0.462,3.755-0.976,5.607-1.526
			l0.419,1.401C194.04,112.89,192.132,113.408,190.237,113.872z M126.28,112.584c-1.873-0.542-3.762-1.14-5.609-1.771l0.475-1.386
			c1.826,0.624,3.688,1.213,5.543,1.753L126.28,112.584z M197.791,111.757l-0.436-1.395c1.834-0.582,3.682-1.213,5.495-1.882
			l0.51,1.373C201.525,110.528,199.651,111.172,197.791,111.757z M118.825,110.16c-1.839-0.661-3.684-1.38-5.484-2.126l0.562-1.352
			c1.778,0.742,3.6,1.448,5.419,2.103L118.825,110.16z M205.199,109.156l-0.532-1.359c1.801-0.7,3.605-1.449,5.371-2.229
			l0.591,1.334C208.842,107.697,207.017,108.452,205.199,109.156z M111.539,107.27c-1.794-0.783-3.588-1.612-5.338-2.476l0.647-1.31
			c1.727,0.85,3.503,1.67,5.275,2.44L111.539,107.27z M212.417,106.094l-0.613-1.33c1.757-0.812,3.505-1.675,5.214-2.563
			l0.678,1.292C215.969,104.396,214.194,105.269,212.417,106.094z M104.457,103.915c-1.737-0.893-3.475-1.836-5.169-2.81
			l0.729-1.268c1.672,0.963,3.391,1.894,5.104,2.776L104.457,103.915z M219.427,102.571l-0.694-1.284
			c1.695-0.927,3.392-1.9,5.036-2.899l0.761,1.25C222.863,100.651,221.145,101.637,219.427,102.571z M97.6,100.114
			c-1.675-0.999-3.35-2.057-4.975-3.138l0.807-1.216c1.608,1.068,3.262,2.108,4.917,3.098L97.6,100.114z M226.204,98.604
			l-0.781-1.236c1.632-1.03,3.26-2.113,4.839-3.217l0.842,1.201C229.502,96.469,227.857,97.563,226.204,98.604z M91.004,95.882
			c-1.608-1.103-3.212-2.264-4.766-3.444l0.885-1.161c1.536,1.165,3.119,2.312,4.71,3.403L91.004,95.882z M232.705,94.211
			l-0.854-1.185c1.554-1.122,3.111-2.308,4.628-3.516l0.915,1.142C235.856,91.876,234.281,93.074,232.705,94.211z M84.692,91.244
			c-1.534-1.207-3.062-2.466-4.539-3.743l0.959-1.103c1.459,1.26,2.965,2.503,4.48,3.697L84.692,91.244z M238.917,89.415
			l-0.929-1.126c1.485-1.224,2.966-2.504,4.395-3.803l0.985,1.085C241.917,86.884,240.424,88.177,238.917,89.415z M78.684,86.208
			c-1.45-1.295-2.896-2.648-4.295-4.017l1.025-1.047c1.379,1.355,2.808,2.693,4.241,3.974L78.684,86.208z M244.81,84.239
			l-0.998-1.068c0.924-0.863,1.848-1.757,2.75-2.652v-1.392h1.46v1.998l-0.212,0.211C246.834,82.314,245.819,83.292,244.81,84.239z
			 M74.777,80.074h-1.461v-5.852h1.461V80.074z M248.021,77.176h-1.46v-5.848h1.46V77.176z M74.777,72.278h-1.461v-5.848h1.461
			V72.278z M248.021,69.379h-1.46v-5.847h1.46V69.379z M74.777,64.479h-1.461v-5.847h1.461V64.479z M248.021,61.581h-1.46v-5.847
			h1.46V61.581z M74.777,56.684h-1.461v-5.852h1.461V56.684z M248.021,53.785h-1.46v-5.85h1.46V53.785z M74.777,48.883h-1.461
			v-5.849h1.461V48.883z M248.021,45.986h-1.46V40.14h1.46V45.986z M74.777,41.087h-1.461v-5.849h1.461V41.087z M248.021,38.19
			h-1.46v-5.852h1.46V38.19z M74.777,33.289h-1.461v-5.85h1.461V33.289z M248.021,30.39h-1.46v-5.849h1.46V30.39z M74.777,25.49
			h-1.461v-2.695l2.812-2.554l0.98,1.079l-2.331,2.122V25.49z M246.411,23.306l-4.33-3.934l0.984-1.08l4.325,3.931L246.411,23.306z
			 M78.553,20.01l-0.985-1.081l4.33-3.933l0.984,1.084L78.553,20.01z M240.64,18.062l-4.326-3.933l0.984-1.084l4.326,3.938
			L240.64,18.062z M84.323,14.768l-0.983-1.081l4.327-3.936l0.984,1.082L84.323,14.768z M234.872,12.818l-4.329-3.935l0.984-1.081
			l4.324,3.933L234.872,12.818z M90.093,9.522L89.11,8.441l4.326-3.935l0.986,1.083L90.093,9.522z M229.096,7.571l-4.324-3.933
			l0.988-1.081l4.325,3.935L229.096,7.571z M95.864,4.277l-0.983-1.079l4.329-3.935l0.979,1.081L95.864,4.277z M223.33,2.328
			l-4.326-3.93l0.979-1.084l4.33,3.931L223.33,2.328z M101.634-0.965l-0.98-1.081l4.326-3.933l0.984,1.081L101.634-0.965z
			 M217.562-2.916l-4.33-3.933l0.979-1.082l4.33,3.934L217.562-2.916z"/>
	</g>
</g>
<g>
	<g>
		<path fill="#C2B59B" d="M161.167,104.731c-8.015,0-15.04-7.559-15.04-16.178l-0.118-34.069c0-8.612,7.027-16.173,15.041-16.173
			c8.009,0,15.041,7.561,15.041,16.177l0.111,34.07C176.202,97.173,169.175,104.731,161.167,104.731z"/>
	</g>
	<g>
		<path fill="#9B8579" d="M161.05,39.531c7.366,0,13.824,6.988,13.824,14.966l0.111,34.057c0,7.967-6.458,14.96-13.818,14.96
			c-7.365,0-13.82-6.993-13.82-14.964l-0.119-34.062C147.226,46.52,153.686,39.531,161.05,39.531 M161.05,37.094
			c-8.979,0-16.259,8.416-16.259,17.395l0.116,34.065c0,8.981,7.278,17.396,16.26,17.396c8.975,0,16.254-8.414,16.254-17.396
			l-0.113-34.065C177.308,45.51,170.025,37.094,161.05,37.094L161.05,37.094z"/>
	</g>
</g>
<g>
	<g>
		<g>
			<path fill="#2C2724" d="M170.09,60.324c0-4.959-4.022-8.98-8.983-8.98s-8.981,4.021-8.981,8.98c0,3.404,1.893,6.363,4.688,7.888
				v24.229h8.59V68.214C168.195,66.689,170.09,63.73,170.09,60.324z"/>
		</g>
	</g>
	<defs>
		<filter id="Adobe_OpacityMaskFilter" filterUnits="userSpaceOnUse" x="152.125" y="51.344" width="17.965" height="41.098">
			<feColorMatrix  type="matrix" values="1 0 0 0 0  0 1 0 0 0  0 0 1 0 0  0 0 0 1 0"/>
		</filter>
	</defs>
	<mask maskUnits="userSpaceOnUse" x="152.125" y="51.344" width="17.965" height="41.098" id="SVGID_1_">
		<g filter="url(#Adobe_OpacityMaskFilter)">
			
				<image overflow="visible" enable-background="new    " width="35" height="72" xlink:href="8073D861.jpg"  transform="matrix(0.6092 0 0 0.6092 150.5273 49.8174)">
			</image>
		</g>
	</mask>
	<g mask="url(#SVGID_1_)">
		<g>
			<path d="M170.09,60.324c0-4.959-4.022-8.98-8.983-8.98s-8.981,4.021-8.981,8.98c0,3.404,1.893,6.363,4.688,7.888v24.229h8.59
				V68.214C168.195,66.689,170.09,63.73,170.09,60.324z"/>
		</g>
	</g>
</g>
<g>
	<g opacity="0.71" enable-background="new    ">
		<path fill="#A94C29" d="M80.391,13.84l-2.522-2.517l1.031-1.036l2.523,2.517L80.391,13.84z M76.488,9.943l-4.142-4.129
			l1.034-1.036l4.14,4.132L76.488,9.943z M70.968,4.438l-4.14-4.131l1.033-1.034l4.14,4.129L70.968,4.438z M65.448-1.07
			l-0.518-0.519l-1.862-5.113L64.445-7.2l1.746,4.807l0.291,0.289L65.448-1.07z M62.403-8.532l-1.994-5.5l1.37-0.498l1.999,5.497
			L62.403-8.532z M59.741-15.862l-1.613-4.435l1.112-1.219l1.872,5.152L59.741-15.862z"/>
	</g>
</g>
<g>
	<g opacity="0.71" enable-background="new    ">
		<path fill="#A94C29" d="M240.708,13.84l-1.035-1.036l2.629-2.618l1.031,1.038L240.708,13.84z M244.71,9.845l-1.031-1.036
			l4.136-4.129l1.04,1.033L244.71,9.845z M250.231,4.336L249.2,3.303l4.135-4.132l1.036,1.036L250.231,4.336z M255.748-1.17
			l-1.032-1.038l0.212-0.207l2.198-4.81l1.328,0.607l-2.31,5.05L255.748-1.17z M259.267-8.39l-1.33-0.608l2.43-5.318l1.33,0.608
			L259.267-8.39z M262.504-15.484l-1.329-0.606l2.274-4.971l1.021,1.275L262.504-15.484z"/>
	</g>
</g>
<g>
	<path fill="#7C796A" d="M25.28,248.22c-6.804,8.504-16.685,13.283-27.053,13.283c-15.551,0-26.81-10.207-26.81-24.3
		c0-17.495,16.928-32.317,36.934-32.317c7.046,0,11.259,1.701,15.146,6.156l1.215-5.266h8.829l-4.131,17.9h-8.829
		c-0.81-5.75-5.427-9.072-12.392-9.072c-11.826,0-22.193,10.855-22.193,23.166c0,7.938,5.346,13.525,12.878,13.525
		c6.237,0,12.474-3.402,17.576-9.557L25.28,248.22z"/>
	<path fill="#7C796A" d="M67.482,204.724c16.685,0,24.866,11.421,24.866,22.922c0,18.873-15.713,33.857-35.801,33.857
		c-13.931,0-24.137-9.64-24.137-22.842C32.41,221.571,46.828,204.724,67.482,204.724z M46.989,239.632
		c0,7.615,4.374,12.15,11.664,12.15c14.579,0,19.115-18.061,19.115-25.594c0-6.885-4.779-11.746-11.664-11.746
		C53.064,214.442,46.989,230.075,46.989,239.632z"/>
	<path fill="#7C796A" d="M101.34,205.776h23.894l-1.944,8.586h-5.67l-6.398,27.377c-1.863,8.1,2.511,10.285,7.128,10.285
		c5.669,0,9.153-3.968,11.178-12.877l5.75-24.785h-5.184l1.944-8.586h18.872l-1.944,8.586h-4.211l-6.398,27.701
		c-3.563,15.389-12.474,19.601-22.922,19.601c-6.156,0-11.501-1.862-15.228-5.589c-2.753-2.754-4.292-8.262-2.349-16.604
		l5.751-25.108h-4.212L101.34,205.776z"/>
	<path fill="#7C796A" d="M147.429,252.188h5.426l8.748-37.825h-5.427l1.943-8.586h28.593c11.582,0,15.955,8.262,15.955,14.903
		c0,5.913-3.562,13.769-12.635,14.823l4.699,16.685h5.507l-2.024,8.587h-14.012l-6.076-24.463h-7.695l-3.644,15.876h5.265
		l-2.105,8.587h-24.543L147.429,252.188z M177.966,229.265c5.589,0,10.448-2.187,10.448-8.666c0-4.131-2.754-6.236-6.562-6.236
		h-6.317l-3.482,14.902H177.966z"/>
	<path fill="#7C796A" d="M205.748,252.188h6.967l8.748-37.825h-7.776l1.944-8.586h27.781l-1.943,8.586h-5.994l-8.747,37.825h7.937
		l-2.025,8.587h-28.833L205.748,252.188z"/>
	<path fill="#7C796A" d="M242.604,252.188h5.185l8.747-37.825h-5.184l1.943-8.586h44.955l-4.051,17.495h-10.287l2.025-8.909h-15.551
		l-3.159,14.094h12.878l-2.025,8.586h-12.877l-3.484,15.146h15.877l2.024-8.667h9.962l-4.051,17.254h-44.952L242.604,252.188z"/>
	<path fill="#7C796A" d="M293.957,252.188h5.428l8.747-37.825h-5.427l1.945-8.586h28.59c11.582,0,15.957,8.262,15.957,14.903
		c0,5.913-3.564,13.769-12.637,14.823l4.699,16.685h5.508l-2.025,8.587H330.73l-6.075-24.463h-7.694l-3.645,15.876h5.264
		l-2.105,8.587h-24.543L293.957,252.188z M324.494,229.265c5.588,0,10.447-2.187,10.447-8.666c0-4.131-2.754-6.236-6.56-6.236
		h-6.319l-3.482,14.902H324.494z"/>
</g>
</svg>
