<?xml version="1.0" encoding="utf-8"?>
<!-- Generator: Adobe Illustrator 15.0.0, SVG Export Plug-In . SVG Version: 6.00 Build 0)  -->
<!DOCTYPE svg PUBLIC "-//W3C//DTD SVG 1.1//EN" "http://www.w3.org/Graphics/SVG/1.1/DTD/svg11.dtd" [
	<!ENTITY ns_extend "http://ns.adobe.com/Extensibility/1.0/">
	<!ENTITY ns_ai "http://ns.adobe.com/AdobeIllustrator/10.0/">
	<!ENTITY ns_graphs "http://ns.adobe.com/Graphs/1.0/">
	<!ENTITY ns_vars "http://ns.adobe.com/Variables/1.0/">
	<!ENTITY ns_imrep "http://ns.adobe.com/ImageReplacement/1.0/">
	<!ENTITY ns_sfw "http://ns.adobe.com/SaveForWeb/1.0/">
	<!ENTITY ns_custom "http://ns.adobe.com/GenericCustomNamespace/1.0/">
	<!ENTITY ns_adobe_xpath "http://ns.adobe.com/XPath/1.0/">
]>
<svg version="1.1" id="Layer_1" xmlns:x="&ns_extend;" xmlns:i="&ns_ai;" xmlns:graph="&ns_graphs;"
	 xmlns="http://www.w3.org/2000/svg" xmlns:xlink="http://www.w3.org/1999/xlink" x="0px" y="0px" width="96px" height="96px"
	 viewBox="0 0 96 96" enable-background="new 0 0 96 96" xml:space="preserve">
<metadata>
	<sfw  xmlns="&ns_sfw;">
		<slices></slices>
		<sliceSourceBounds  x="312.423" y="393.569" width="93.231" height="80.217" bottomLeftOrigin="true"></sliceSourceBounds>
	</sfw>
</metadata>
<path fill="#CFF219" d="M21.944,60.332c-4.959-4.398-13.15-5.5-16.712-4.491c5.834,11.774,7.07,22.956,14.873,28.659
	c16.532,10.645,64.077-17.991,74.024-3.529c0.789-26.074-17.097-30.111-19.525-31.017c-3.312-1.234-14.812-4.341-19.93-7.538
	c-8.33-4.435-13.905-11.873-8.854-35.702C32.437,15.783,23.126,30.31,29.381,46.483c-5.417-3.168-20.018-4.508-28.458,2.74
	C5.23,49.773,18.454,51.617,21.944,60.332z"/>
<g>
	<path fill="#A7CD5F" d="M90.337,72.126C83.229,61.982,74.322,61.504,64.12,60.955c-3.906-0.209-7.944-0.428-12.183-1.193
		c-7.896-1.43-17.229-7.156-20.283-16.729c-2.051-6.428-1.883-16.713,10.122-29.632C38.411,35.321,44.1,42.04,57.072,47.806
		c2.66,1.01,5.416,1.83,8.084,2.624C76.221,53.723,86.705,56.841,90.337,72.126z"/>
	<path fill="#BAE24B" d="M40.972,15.114c-2.839,20.85,3.005,27.474,15.875,33.194l0.028,0.013l0.028,0.011
		c2.647,1.006,5.416,1.83,8.093,2.626c10.206,3.036,19.91,5.924,24.039,18.571c-6.933-8.157-15.354-8.611-24.888-9.124
		c-3.891-0.21-7.908-0.427-12.112-1.187c-7.734-1.4-16.873-7.001-19.857-16.354C30.244,36.8,30.345,27.208,40.972,15.114
		 M42.604,11.735c-24.977,25.558-7.506,45.537,9.235,48.57c16.233,2.937,29.843-2.109,39.617,14.592
		c-3.72-22.314-20.291-22.326-34.16-27.595C44.074,41.424,38.702,34.813,42.604,11.735L42.604,11.735z"/>
</g>
<g>
	<path fill="#A7CD5F" d="M45.754,73.629c-5.894,0-7.576-0.879-8.479-1.352c-0.188-0.098-0.351-0.184-0.509-0.246
		c-5.937-2.418-8.935-8.129-10.918-11.909c-0.401-0.765-0.747-1.425-1.08-1.988c-1.86-3.149-6.289-8.403-15.69-10.19
		c2.688-0.604,5.292-0.909,7.773-0.909c12.017,0,18.949,7.004,23.091,11.189c0.905,0.914,1.687,1.703,2.355,2.245
		c7.562,6.146,19.645,9.474,34.99,9.655C63.191,72.452,52.604,73.629,45.754,73.629C45.755,73.629,45.756,73.629,45.754,73.629z"/>
	<path fill="#BAE24B" d="M16.852,47.586c11.787,0,18.618,6.9,22.699,11.025c0.917,0.926,1.708,1.726,2.4,2.285
		c6.711,5.453,16.902,8.717,29.729,9.564c-11.334,1.737-20.027,2.616-25.925,2.616c-5.759,0-7.362-0.839-8.224-1.288
		c-0.187-0.1-0.364-0.189-0.556-0.27c-5.751-2.342-8.691-7.945-10.638-11.654c-0.404-0.771-0.753-1.438-1.093-2.014
		c-1.732-2.933-5.629-7.644-13.513-9.854C13.485,47.724,15.197,47.586,16.852,47.586 M16.852,46.483
		c-3.161,0-6.666,0.478-10.551,1.607c10.971,1.169,16.017,6.977,17.993,10.322c1.998,3.395,4.951,11.148,12.265,14.128
		c0.969,0.396,2.117,1.64,9.196,1.64c6.445,0,17.806-1.031,38.425-4.675c-0.076-0.004-0.166-0.005-0.272-0.005
		c-0.864,0-2.738,0.081-5.277,0.081c-8.755,0-25.426-0.963-35.984-9.539C39.041,57.116,31.768,46.483,16.852,46.483L16.852,46.483z"
		/>
</g>
<g>
	<path fill="#A7CD5F" d="M31.111,83.866c-11.12,0-13.863-7.013-17.338-15.894c-1.178-3.01-2.392-6.113-4.031-9.184
		c6.381,0.357,9.481,3.418,13.044,6.936c4.354,4.299,9.289,9.168,21.283,10.487c1.406,0.153,3.099,0.231,5.033,0.231
		c8.369,0,19.818-1.42,27.819-2.484c-24.745,6.453-36.782,8.65-42.863,9.76C33.059,83.814,32.053,83.866,31.111,83.866z"/>
	<path fill="#BAE24B" d="M10.689,59.418c5.503,0.574,8.282,3.316,11.709,6.699c4.418,4.361,9.426,9.304,21.61,10.643
		c1.425,0.157,3.139,0.236,5.092,0.236c5.674,0,12.748-0.648,19.209-1.398c-19.037,4.782-28.959,6.596-34.305,7.571
		c-1.01,0.099-1.983,0.147-2.894,0.147c-10.743,0-13.427-6.859-16.825-15.545C13.215,65.036,12.114,62.223,10.689,59.418
		 M8.793,58.207c6.943,12.352,6.609,26.21,22.317,26.21c0.955,0,1.967-0.05,3.045-0.155c6.795-1.238,21-3.855,51.027-11.919
		c-3.726,0.306-23.543,3.552-36.082,3.552c-1.838,0-3.52-0.069-4.972-0.229C21.933,73.225,24.293,58.413,8.793,58.207L8.793,58.207z
		"/>
</g>
</svg>
