<?xml version="1.0" encoding="utf-8"?>
<!-- Generator: Adobe Illustrator 15.0.0, SVG Export Plug-In . SVG Version: 6.00 Build 0)  -->
<!DOCTYPE svg PUBLIC "-//W3C//DTD SVG 1.1//EN" "http://www.w3.org/Graphics/SVG/1.1/DTD/svg11.dtd" [
	<!ENTITY ns_extend "http://ns.adobe.com/Extensibility/1.0/">
	<!ENTITY ns_ai "http://ns.adobe.com/AdobeIllustrator/10.0/">
	<!ENTITY ns_graphs "http://ns.adobe.com/Graphs/1.0/">
	<!ENTITY ns_vars "http://ns.adobe.com/Variables/1.0/">
	<!ENTITY ns_imrep "http://ns.adobe.com/ImageReplacement/1.0/">
	<!ENTITY ns_sfw "http://ns.adobe.com/SaveForWeb/1.0/">
	<!ENTITY ns_custom "http://ns.adobe.com/GenericCustomNamespace/1.0/">
	<!ENTITY ns_adobe_xpath "http://ns.adobe.com/XPath/1.0/">
]>
<svg version="1.1" id="Layer_1" xmlns:x="&ns_extend;" xmlns:i="&ns_ai;" xmlns:graph="&ns_graphs;"
	 xmlns="http://www.w3.org/2000/svg" xmlns:xlink="http://www.w3.org/1999/xlink" x="0px" y="0px" width="60px" height="60px"
	 viewBox="0 0 60 60" enable-background="new 0 0 60 60" xml:space="preserve">
<metadata>
	<sfw  xmlns="&ns_sfw;">
		<slices></slices>
		<sliceSourceBounds  height="33.655" width="23.003" y="133.673" x="212.999" bottomLeftOrigin="true"></sliceSourceBounds>
	</sfw>
</metadata>
<path fill="#E34136" d="M38.396,44.137c-2.113,1.724-4.785,2.504-7.509,2.671c-0.276,0-1.143,0.044-1.781,0
	c-2.722-0.199-5.395-0.947-7.509-2.671c-2.112-1.668-3.337-5.174-3.06-7.901c0.388-3.501,2.337-5.618,5.173-7.398
	c1.378-0.875,2.855-1.564,3.575-2.746c0.081-0.134,0.651-1.459,0.6-2.318c-0.058-0.925-0.354-1.828-0.495-2.717
	c0.566,0.368,0.979,0.634,1.526,0.678c0.407,0.033,2.04-4.267,2.53-5.896c0.047,0.492-0.022,1.134-0.1,1.594
	c1.256-1.843,3.197-2.974,5.003-4.26c-0.403,0.567-2.989,3.316-3.448,4.369c1.501-1.11,3.235-2.328,5.481-2.946
	c-3.21,1.883-5.917,4.678-7.426,8.054c0.179,0.07,0.8,0.113,0.993,0.07c-0.499,3.338,1.891,4.562,4.342,6.119
	c2.837,1.78,4.784,3.893,5.173,7.398C41.734,38.965,40.51,42.469,38.396,44.137z"/>
</svg>
