<?xml version="1.0" encoding="utf-8"?>
<!-- Generator: Adobe Illustrator 15.0.0, SVG Export Plug-In . SVG Version: 6.00 Build 0)  -->
<!DOCTYPE svg PUBLIC "-//W3C//DTD SVG 1.1//EN" "http://www.w3.org/Graphics/SVG/1.1/DTD/svg11.dtd" [
	<!ENTITY ns_extend "http://ns.adobe.com/Extensibility/1.0/">
	<!ENTITY ns_ai "http://ns.adobe.com/AdobeIllustrator/10.0/">
	<!ENTITY ns_graphs "http://ns.adobe.com/Graphs/1.0/">
	<!ENTITY ns_vars "http://ns.adobe.com/Variables/1.0/">
	<!ENTITY ns_imrep "http://ns.adobe.com/ImageReplacement/1.0/">
	<!ENTITY ns_sfw "http://ns.adobe.com/SaveForWeb/1.0/">
	<!ENTITY ns_custom "http://ns.adobe.com/GenericCustomNamespace/1.0/">
	<!ENTITY ns_adobe_xpath "http://ns.adobe.com/XPath/1.0/">
]>
<svg version="1.1" id="Layer_1" xmlns:x="&ns_extend;" xmlns:i="&ns_ai;" xmlns:graph="&ns_graphs;"
	 xmlns="http://www.w3.org/2000/svg" xmlns:xlink="http://www.w3.org/1999/xlink" x="0px" y="0px" width="169.691px" height="115px"
	 viewBox="-27.346 0 169.691 115" enable-background="new -27.346 0 169.691 115" xml:space="preserve">
<metadata>
	<sfw  xmlns="&ns_sfw;">
		<slices></slices>
		<sliceSourceBounds  height="98.217" width="169.691" y="352.736" x="154.654" bottomLeftOrigin="true"></sliceSourceBounds>
	</sfw>
</metadata>
<path fill="#92938D" d="M47.032,13.271h-0.696c-14.169,0-24.082,11.527-24.082,25.693v66.299h12.848V38.965
	c0-7.083,4.151-12.846,11.236-12.846h0.695v6.361l16.974-12.717L47.032,7.047V13.271z"/>
<path fill="#95BA55" d="M-26.448,51.638c-0.221-0.055-0.328-0.025-0.328,0.083c0,0.109-0.084,0.163-0.243,0.163
	c0.054-0.271,0.188-0.394,0.407-0.365c0.215,0.026,0.375,0.034,0.484,0.034c2.385,0,4.685,0,6.906,0
	c2.223,0,4.793,0.031,7.719,0.085c0.16,0.269,0.188,0.487,0.077,0.649c-0.104,0.163-0.025,0.353,0.245,0.572
	c-0.322,0.216-0.407,0.458-0.245,0.734c0.165,0.267,0.134,0.54-0.077,0.808c0.107,0.107,0.227,0.164,0.363,0.164
	s0.255,0.028,0.364,0.08c0.107-0.431,0.165-0.905,0.165-1.423c0-0.514,0-1.014,0-1.501c2.434,0,5.144,0.016,8.117,0.039
	c2.982,0.03,5.662,0.042,8.046,0.042c0.104-0.052,0.202-0.013,0.284,0.123c0.084,0.133,0.174,0.228,0.285,0.284
	c0.379-0.27,0.705-0.325,0.975-0.161c0.27,0.161,0.516,0.27,0.73,0.324c0.056,0.326,0.206,0.6,0.449,0.808
	c0.244,0.219,0.419,0.518,0.527,0.899c-0.272,0.265-0.42,0.514-0.447,0.73s-0.178,0.431-0.444,0.642
	c0.108,0.117,0.187,0.13,0.243,0.047c0.051-0.08,0.133-0.067,0.241,0.042c-0.108,0.214-0.095,0.334,0.04,0.361
	c0.135,0.029,0.176,0.122,0.124,0.284c-0.164,0.11-0.231,0.243-0.205,0.405c0.027,0.17,0.121,0.248,0.285,0.248
	c-0.109,0.213-0.149,0.324-0.12,0.324c0.026,0,0.064,0.113,0.12,0.329c-0.056,0.056-0.12,0.095-0.204,0.117
	c-0.081,0.027-0.15,0.097-0.201,0.203c0.051,0.161,0.147,0.274,0.285,0.327c0.133,0.054,0.255,0.132,0.366,0.246
	c-0.326,0.051-0.651,0.111-0.976,0.158c-0.326,0.054-0.654,0.112-0.977,0.168c-0.053-0.114-0.096-0.18-0.123-0.211
	c-0.029-0.021-0.068-0.094-0.121-0.201c0.105-0.269,0.244-0.409,0.406-0.409c0.052-0.216-0.082-0.32-0.406-0.32
	c0.161-0.112,0.229-0.208,0.202-0.284c-0.028-0.084-0.065-0.15-0.12-0.207c-0.055-0.048-0.07-0.079-0.037-0.079
	c0.023,0,0.117,0,0.281,0c-0.219-0.38-0.367-0.418-0.445-0.129c-0.08,0.299-0.233,0.48-0.448,0.531
	c0.165,0.38,0.298,0.838,0.406,1.379c-1.245,0.22-2.501,0.399-3.778,0.53c-1.275,0.139-2.447,0.396-3.531,0.773
	c0.054,0.109,0.148,0.137,0.285,0.08c0.131-0.055,0.229-0.027,0.284,0.085c-0.108,0.159-0.138,0.279-0.083,0.362
	c0.054,0.082,0.135,0.176,0.244,0.285c-0.051,0.109-0.109,0.125-0.161,0.038c-0.054-0.081-0.138-0.065-0.244,0.042
	c-0.057,0.216-0.028,0.328,0.081,0.328s0.163,0.08,0.163,0.244c-0.325,0.322-0.664,0.637-1.014,0.932
	c-0.353,0.297-0.655,0.606-0.896,0.934c-0.245,0.324-0.42,0.688-0.527,1.098c-0.111,0.408-0.082,0.852,0.08,1.34
	c0.164,0.051,0.285,0.039,0.367-0.041c0.08-0.082,0.205-0.09,0.367-0.041c-0.059,0.109-0.155,0.147-0.288,0.123
	c-0.134-0.025-0.153,0.072-0.038,0.285c-0.114,0.053-0.165,0.053-0.165,0c0-0.051-0.054-0.082-0.164-0.082
	c-0.052,0.377-0.202,0.597-0.446,0.647c-0.24,0.054-0.443,0.167-0.607,0.327c-0.219,0.322-0.342,0.811-0.363,1.461
	c-0.029,0.652-0.258,1.115-0.691,1.385c0.053,0.378-0.053,0.59-0.326,0.643c0,0.44,0,0.75,0,0.939c0,0.19-0.055,0.418-0.162,0.688
	c0.162,0.117,0.352,0.164,0.57,0.164c0.213,0,0.406,0.053,0.569,0.16c0,0.106-0.029,0.176-0.082,0.203
	c-0.057,0.032-0.082,0.096-0.082,0.208c-0.272,0.048-0.435,0-0.487-0.167c-0.053-0.162-0.162-0.27-0.326-0.326
	c-0.055,0-0.094,0.016-0.119,0.045c-0.029,0.027-0.068,0.037-0.122,0.037c0,0.273,0.079,0.411,0.241,0.411
	c-0.055,0.107-0.148,0.159-0.285,0.159c-0.136,0-0.174,0.051-0.119,0.162c0.105,0.327,0.201,0.625,0.285,0.895
	c0.082,0.273,0.064,0.616-0.043,1.055c-0.268,0.107-0.43,0.297-0.484,0.57c-0.059,0.266-0.084,0.567-0.084,0.891
	c0,0.33-0.026,0.652-0.082,0.973c-0.053,0.33-0.187,0.572-0.404,0.732c-0.054,0.219-0.032,0.345,0.078,0.367
	c0.109,0.031,0.029,0.071-0.242,0.121c0.322,0.328,0.297,0.57-0.083,0.73c0.108,0.111,0.161,0.223,0.161,0.328
	s0.086,0.139,0.242,0.086c-0.102,0.053-0.195,0.119-0.281,0.201c-0.082,0.08-0.016,0.146,0.201,0.203
	c0,0.16-0.131,0.238-0.404,0.238c0.057,0.435-0.04,0.749-0.286,0.939c-0.238,0.188-0.474,0.394-0.685,0.607
	c-2.875,0-5.783-0.022-8.737-0.082c-2.952-0.052-6.103-0.104-9.466-0.164c-0.105-0.103-0.146-0.238-0.119-0.408
	c0.025-0.16-0.04-0.129-0.202,0.091c-0.107-0.06-0.107-0.113,0-0.167c0.107-0.051,0.161-0.133,0.161-0.242c-0.105,0-0.24,0-0.406,0
	c-0.162,0-0.24,0.109-0.24,0.32c-0.221-0.104-0.355-0.161-0.412-0.161c0.22-0.479,0.325-1.188,0.325-2.108
	c0.109,0,0.175-0.056,0.21-0.166c0.023-0.104,0.117-0.133,0.283-0.075c-0.164-0.104-0.22-0.273-0.164-0.489
	c0.055-0.216,0-0.432-0.162-0.648c0.218-0.161,0.421-0.297,0.607-0.407c0.19-0.108,0.312-0.3,0.368-0.572c0.214,0,0.336,0,0.365,0
	c0.025,0,0.093,0.056,0.202,0.167c-0.109-0.27-0.138-0.436-0.08-0.487c0.054-0.054,0-0.216-0.167-0.485
	c0.221-0.33,0.515-0.521,0.894-0.574c-0.111-0.167-0.232-0.19-0.364-0.081c-0.134,0.106-0.282,0.135-0.446,0.081
	c0-0.764,0.326-1.219,0.977-1.38c0-0.216-0.069-0.245-0.204-0.087c-0.136,0.17-0.205,0.113-0.205-0.16
	c0.163,0.055,0.271,0.039,0.327-0.035c0.049-0.09,0.134-0.129,0.242-0.129c0-0.104-0.055-0.158-0.16-0.158
	c-0.109,0-0.139-0.085-0.082-0.248h0.324c-0.053-0.052-0.082-0.189-0.082-0.4c0.326-0.166,0.65-0.396,0.979-0.691
	c0.32-0.295,0.43-0.66,0.32-1.097c0.273-0.06,0.46-0.179,0.568-0.366c0.111-0.188,0.217-0.416,0.326-0.691
	c-0.109,0-0.175,0.057-0.201,0.16c-0.031,0.113-0.096,0.191-0.203,0.246c-0.109-0.105-0.123-0.225-0.041-0.33
	c0.082-0.1,0.064-0.236-0.041-0.401c0.16,0,0.272-0.044,0.326-0.122c0.051-0.084,0.103-0.168,0.16-0.244
	c0.057-0.082,0.136-0.15,0.245-0.203c0.108-0.051,0.268-0.051,0.482,0c0-0.273-0.063-0.336-0.197-0.205
	c-0.138,0.135-0.232,0.095-0.286-0.121c0-0.168,0.062-0.258,0.203-0.283c0.133-0.032,0.225-0.096,0.28-0.203
	c-0.054-0.16-0.108-0.16-0.159,0c-0.056,0.16-0.135,0.188-0.242,0.08c-0.11-0.484-0.098-0.828,0.037-1.012
	c0.139-0.193,0.149-0.504,0.044-0.934c0.267-0.276,0.474-0.492,0.608-0.652c0.134-0.164,0.149-0.383,0.039-0.652
	c0.107,0,0.188,0.031,0.242,0.084s0.136,0.028,0.244-0.084c0-0.107-0.029-0.132-0.08-0.08c-0.056,0.055-0.137,0.08-0.246,0.08
	c0.109-0.107,0.126-0.203,0.041-0.281c-0.08-0.085-0.095-0.205-0.041-0.365c0.109,0.107,0.218,0.119,0.326,0.035
	c0.109-0.078,0.19-0.177,0.241-0.281c0.165,0.104,0.315,0.244,0.449,0.406c0.136,0.16,0.175,0.378,0.123,0.648
	c-0.216,0.055-0.3-0.051-0.244-0.324c-0.105,0.107-0.206,0.203-0.284,0.283c-0.082,0.08-0.176,0.125-0.286,0.125
	c0.159,0.106,0.292,0.135,0.407,0.078c0.105-0.055,0.244-0.025,0.407,0.082c-0.108,0.057-0.179,0.123-0.203,0.205
	c-0.03,0.082-0.097,0.068-0.204-0.041c0.057,0.109,0.092,0.161,0.12,0.161c0.029,0,0.071,0.054,0.124,0.163
	c0.109-0.109,0.188-0.227,0.242-0.365c0.051-0.135,0.132-0.283,0.246-0.445c0.102,0.11,0.227,0.15,0.364,0.117
	c0.137-0.024,0.229-0.09,0.284-0.201c-0.054-0.107-0.112-0.132-0.162-0.08c-0.057,0.055-0.139,0.027-0.241-0.082
	c0.103-0.107,0.214-0.23,0.321-0.365c0.107-0.134,0.029-0.261-0.242-0.363c0.05-0.111,0.105-0.121,0.162-0.043
	c0.05,0.081,0.134,0.066,0.243-0.038c-0.597-0.273-1.108-0.273-1.544,0c-0.107,0-0.15-0.065-0.121-0.208
	c0.027-0.131,0.066-0.223,0.121-0.281c-0.274-0.215-0.502-0.174-0.689,0.119c-0.19,0.303-0.365,0.398-0.528,0.285
	c0,0.22,0.039,0.271,0.122,0.166c0.08-0.111,0.174-0.137,0.283-0.082c0,0.271-0.038,0.471-0.121,0.606
	c-0.082,0.141-0.176,0.312-0.284,0.528c-0.22,0-0.385-0.064-0.485-0.201c-0.109-0.133-0.302-0.174-0.569-0.123
	c0.05-0.27,0.094-0.475,0.122-0.607c0.027-0.133,0.066-0.314,0.121-0.532c-0.055-0.103-0.204-0.13-0.451-0.083
	c-0.242,0.058-0.259,0.139-0.035,0.252c-0.224,0.104-0.324,0.023-0.324-0.252c0-0.263,0.131-0.432,0.404-0.48
	c-0.109-0.059-0.219-0.139-0.327-0.248c-0.108-0.106-0.026-0.188,0.247-0.243c-0.055-0.106-0.123-0.144-0.207-0.113
	c-0.08,0.02-0.175,0.007-0.284-0.046c0-0.221,0.164-0.297,0.489-0.244c-0.162-0.106-0.355-0.176-0.566-0.207
	c-0.225-0.023-0.424-0.047-0.617-0.08c-0.186-0.025-0.332-0.079-0.439-0.164c-0.113-0.076-0.137-0.256-0.083-0.521h0.646
	c-0.106-0.107-0.228-0.157-0.364-0.127c-0.133,0.033-0.312,0.02-0.527-0.035c0.057-0.328-0.053-0.436-0.324-0.328
	c0.055-0.107,0.094-0.228,0.12-0.365c0.03-0.133,0.122-0.23,0.285-0.285c-0.111-0.162-0.271-0.297-0.484-0.404
	c-0.218-0.107-0.326-0.298-0.326-0.57c0.108,0,0.138,0.041,0.084,0.122c-0.059,0.081-0.03,0.15,0.08,0.204
	c0.108-0.109,0.19-0.16,0.243-0.16c-0.164-0.219-0.11-0.38,0.159-0.487c0-0.108-0.04-0.206-0.12-0.282
	c-0.08-0.086-0.094-0.209-0.039-0.367c0.324-0.113,0.488-0.33,0.488-0.657c-0.107-0.103-0.232-0.128-0.369-0.075
	c-0.136,0.053-0.254,0-0.362-0.161c-0.109,0.107-0.19,0.224-0.247,0.365c-0.049,0.133-0.16,0.228-0.32,0.282
	c0-0.106,0.023-0.214,0.078-0.326c0.055-0.104-0.055-0.136-0.326-0.084c0-0.103,0.041-0.158,0.128-0.158
	c0.08,0,0.12-0.054,0.12-0.166c-0.11-0.103-0.232-0.129-0.367-0.083c-0.139,0.058-0.259,0-0.367-0.16
	c0-0.217,0.164-0.376,0.486-0.487c-0.43-0.212-0.456-0.513-0.08-0.892c-0.161-0.054-0.271-0.038-0.322,0.042
	c-0.054,0.079-0.098,0.174-0.124,0.281c-0.027,0.114-0.056,0.192-0.08,0.244c-0.028,0.057-0.124,0.029-0.288-0.08
	c0.109-0.165,0.193-0.312,0.244-0.446c0.053-0.136,0.219-0.256,0.487-0.373c-0.105-0.158-0.204-0.184-0.28-0.073
	c-0.086,0.108-0.18,0.108-0.289,0c0.109,0.108,0.162,0.19,0.162,0.243c-0.217-0.11-0.432-0.202-0.65-0.287
	c-0.208-0.076-0.373-0.171-0.481-0.284c0.056-0.216,0.108-0.429,0.163-0.65c0.053-0.216,0.053-0.487,0-0.808
	c0.322-0.112,0.594-0.169,0.811-0.169c0.052,0.221,0.03,0.259-0.078,0.124c-0.111-0.131-0.164-0.096-0.164,0.123
	c0.215,0.052,0.339,0.012,0.365-0.123c0.025-0.131,0.176-0.149,0.445-0.041V53.18c0-0.104-0.081-0.104-0.24,0
	c-0.164,0.114-0.276,0.083-0.328-0.076c0.052-0.164,0.162-0.258,0.328-0.288c0.159-0.028,0.294-0.094,0.401-0.201
	c-0.159-0.219-0.377-0.246-0.648-0.084c-0.271,0.165-0.456,0.191-0.569,0.084c0.163-0.166,0.246-0.33,0.246-0.49
	C-26.614,51.964-26.561,51.801-26.448,51.638z M-25.965,57.002c0.216,0.104,0.437,0.048,0.649-0.164
	c-0.106,0-0.15-0.024-0.119-0.078c0.023-0.062-0.016-0.088-0.122-0.088c0,0.111-0.07,0.154-0.205,0.126
	C-25.9,56.771-25.965,56.837-25.965,57.002z M-23.202,53.262c-0.109-0.108-0.242-0.083-0.408,0.082
	c-0.16,0.161-0.297,0.136-0.404-0.082c0.161-0.27,0.352-0.351,0.568-0.242c0.214,0.107,0.435,0.026,0.648-0.246v-0.159
	c-0.16-0.11-0.258-0.11-0.281,0c-0.031,0.107-0.097,0.159-0.204,0.159c0-0.104-0.044-0.17-0.124-0.204
	c-0.086-0.024-0.096-0.121-0.039-0.285h-0.406c-0.16,0.219-0.242,0.411-0.242,0.572c0,0.161-0.057,0.38-0.163,0.647
	c0.272-0.055,0.351,0.087,0.245,0.408h-0.409c0,0.273,0.069,0.324,0.205,0.166c0.135-0.166,0.204-0.108,0.204,0.158
	c-0.109,0.164-0.258,0.197-0.449,0.087c-0.191-0.109-0.336-0.031-0.443,0.242c0.054-0.329-0.058-0.54-0.326-0.653
	c-0.056,0.273-0.043,0.431,0.035,0.487c0.088,0.054,0.153,0.164,0.207,0.321c0.272,0.114,0.432,0.098,0.487-0.034
	c0.052-0.136,0.19-0.231,0.407-0.287c-0.057,0.272,0,0.321,0.163,0.164c0.159-0.164,0.269-0.132,0.321,0.08
	c-0.111,0.163-0.321,0.351-0.648,0.568c-0.324,0.218-0.594,0.193-0.814-0.083c-0.268,0.107-0.35,0.19-0.242,0.246
	c0.107,0.053,0.107,0.19,0,0.404c-0.106,0-0.16-0.054-0.16-0.16c0-0.11-0.053-0.135-0.167-0.081c0,0.265,0.071,0.406,0.208,0.406
	c0.134,0,0.254-0.028,0.361-0.084c0.108-0.057,0.302-0.161,0.571-0.322c-0.056,0.107-0.121,0.228-0.202,0.363
	c-0.082,0.144-0.066,0.234,0.041,0.284c0-0.101,0.055-0.14,0.161-0.12c0.108,0.029,0.19-0.012,0.243-0.12
	c0-0.27,0.026-0.435,0.08-0.495c0.111,0.17,0.258,0.259,0.446,0.292c0.191,0.026,0.344,0.062,0.45,0.12
	c0.106-0.216,0.106-0.322,0-0.322s-0.219-0.054-0.328-0.163c0.164-0.111,0.27-0.302,0.328-0.569c0.05-0.276,0-0.465-0.162-0.572
	c0.213-0.104,0.296-0.183,0.242-0.244c-0.054-0.053,0-0.158,0.161-0.322c-0.271,0-0.42,0.108-0.45,0.322
	c-0.021,0.219-0.145,0.33-0.361,0.33c0.053-0.27,0.15-0.45,0.284-0.531C-23.436,53.708-23.312,53.534-23.202,53.262z
	 M-23.282,61.793c0.16,0.057,0.271,0.042,0.324-0.038c0.052-0.089,0.092-0.159,0.122-0.249c0.023-0.08,0.079-0.143,0.161-0.197
	c0.082-0.057,0.204-0.057,0.367,0c-0.056-0.113-0.073-0.194-0.044-0.244c0.03-0.055-0.012-0.085-0.119-0.085
	C-22.958,61.09-23.231,61.363-23.282,61.793z M-23.282,79.178c0.16-0.06,0.241-0.039,0.241,0.04c0,0.083,0.054,0.149,0.165,0.202
	c0.213-0.161,0.213-0.302,0-0.404C-23.098,78.91-23.231,78.959-23.282,79.178z M-23.04,58.951v0.404
	c0.219-0.109,0.313-0.197,0.284-0.285c-0.026-0.08,0.069-0.173,0.288-0.288c-0.16,0-0.258,0.042-0.288,0.124
	C-22.782,58.991-22.874,59.002-23.04,58.951z M-21.494,60.574c-0.108-0.105-0.247-0.179-0.409-0.203
	c-0.16-0.027-0.271-0.12-0.325-0.285c-0.108,0.109-0.135,0.164-0.079,0.164c0.159,0.217,0.213,0.418,0.159,0.605
	c-0.056,0.194-0.028,0.339,0.083,0.451c0.107-0.056,0.149-0.152,0.122-0.285c-0.029-0.137,0.011-0.232,0.121-0.285
	c0.103,0.324,0.218,0.541,0.326,0.649c0.159-0.108,0.338-0.179,0.526-0.202c0.19-0.031,0.338-0.123,0.445-0.289
	c-0.107-0.055-0.255-0.065-0.445-0.041c-0.188,0.031-0.312-0.014-0.365-0.117c0.107,0,0.188-0.027,0.242-0.08
	c0.051-0.061,0.137-0.085,0.245-0.085c-0.108-0.164-0.194-0.308-0.245-0.45c-0.055-0.131-0.135-0.256-0.242-0.36
	c-0.109,0.104-0.097,0.241,0.038,0.403C-21.157,60.33-21.226,60.469-21.494,60.574z M-21.902,75.034
	c0.216,0.056,0.336-0.009,0.365-0.206c0.029-0.182-0.065-0.279-0.284-0.279C-21.931,74.758-21.956,74.926-21.902,75.034z
	 M-21.902,76.495c0.323,0,0.511-0.132,0.569-0.401c-0.16,0.045-0.297,0.09-0.408,0.116C-21.849,76.239-21.902,76.332-21.902,76.495z
	 M-21.741,62.443c0.218,0,0.363,0.01,0.445,0.041c0.086,0.026,0.178-0.066,0.289-0.287c-0.11,0.106-0.232,0.152-0.369,0.125
	C-21.508,62.295-21.63,62.334-21.741,62.443z M-21.333,79.09c0,0.168,0.068,0.249,0.205,0.249c0.134,0,0.198,0.05,0.198,0.161
	c0.058-0.111,0.124-0.174,0.206-0.201c0.084-0.027,0.121-0.098,0.121-0.21c-0.219,0.058-0.364,0.046-0.445-0.038
	C-21.128,78.974-21.226,78.988-21.333,79.09z M-20.845,63.656c-0.057-0.27-0.041-0.428,0.037-0.479
	c0.083-0.057,0.069-0.219-0.037-0.489c-0.109,0.052-0.232,0.046-0.365-0.04c-0.142-0.084-0.151-0.066-0.041,0.04
	c0.212,0.16,0.268,0.352,0.16,0.57C-21.2,63.471-21.118,63.607-20.845,63.656z M-21.091,74.712c0.105,0,0.174,0.036,0.205,0.118
	c0.026,0.081,0.119,0.096,0.283,0.041c-0.055-0.113-0.037-0.175,0.043-0.2c0.08-0.024,0.091-0.121,0.036-0.285
	C-20.901,74.491-21.091,74.602-21.091,74.712z M-20.441,63.089c0.218-0.05,0.338-0.114,0.37-0.198
	c0.022-0.086,0.146-0.068,0.363,0.033c0.105-0.264,0-0.363-0.326-0.279C-20.359,62.733-20.493,62.877-20.441,63.089z
	 M-20.441,81.123c0.271,0,0.437-0.054,0.485-0.164c-0.107,0-0.269-0.047-0.485-0.158V81.123z M-19.956,73.084
	c0.058,0.051,0.082,0.111,0.082,0.161c0.328-0.05,0.488-0.244,0.488-0.569c-0.217-0.055-0.34-0.025-0.367,0.082
	C-19.776,72.867-19.845,72.973-19.956,73.084z M-19.302,74.387c-0.107,0.053-0.217,0.053-0.326,0
	c-0.109-0.057-0.161-0.029-0.161,0.075c0.106,0.112,0.216,0.153,0.326,0.126C-19.354,74.555-19.302,74.491-19.302,74.387z
	 M-19.302,61.553c0.27,0.053,0.429,0,0.482-0.164c0.057-0.166,0.137-0.107,0.244,0.164c0.109-0.109,0.135-0.273,0.086-0.488
	c-0.113,0-0.178-0.014-0.203-0.039c-0.03-0.03-0.095-0.045-0.207-0.045c0.056,0.217-0.014,0.316-0.2,0.285
	C-19.288,61.235-19.354,61.332-19.302,61.553z M-18.573,64.476c-0.107,0.104-0.212,0.171-0.324,0.202
	c-0.105,0.023-0.245,0.094-0.404,0.2c-0.053-0.27,0.025-0.393,0.242-0.362C-18.843,64.544-18.683,64.529-18.573,64.476z
	 M-18.897,59.19c0.112-0.159,0.207-0.147,0.289,0.038c0.08,0.195,0.17,0.184,0.283-0.038c0-0.159-0.139-0.239-0.404-0.239
	C-19.005,58.951-19.06,59.032-18.897,59.19z M-18.489,72.353c0,0.053-0.014,0.094-0.04,0.123c-0.029,0.027-0.044,0.093-0.044,0.2
	c0.108-0.055,0.219-0.025,0.328,0.082c0-0.162,0.053-0.255,0.162-0.282c0.108-0.03,0.158-0.123,0.158-0.288
	c-0.268,0.164-0.416,0.209-0.447,0.123c-0.025-0.079-0.116-0.063-0.28,0.041L-18.489,72.353L-18.489,72.353z M-18.573,60.49
	c0.219,0.107,0.299,0.072,0.246-0.119c-0.053-0.19-0.029-0.26,0.082-0.205c0,0.057,0.025,0.085,0.082,0.085
	c0-0.164-0.11-0.22-0.325-0.164c0.05,0.11,0.05,0.18,0,0.208C-18.546,60.314-18.573,60.383-18.573,60.49z M-18.489,60.898
	c0.215,0.053,0.337,0.017,0.363-0.119c0.022-0.133,0.092-0.234,0.199-0.289C-18.192,60.439-18.38,60.574-18.489,60.898z
	 M-18.245,73.895c0-0.111,0.068-0.164,0.203-0.164c0.132,0,0.17-0.074,0.117-0.242c-0.107-0.051-0.226-0.022-0.361,0.086
	C-18.423,73.684-18.409,73.783-18.245,73.895z M-17.925,65.041c0.277,0,0.414-0.094,0.414-0.281c0-0.191-0.058-0.345-0.164-0.447
	c-0.055,0.103-0.135,0.202-0.249,0.28C-18.034,64.678-18.034,64.822-17.925,65.041z M-17.925,57.89c0.113,0,0.222-0.052,0.329-0.163
	c0.107-0.103,0.085-0.212-0.081-0.323c-0.054,0.112-0.107,0.195-0.162,0.249C-17.895,57.706-17.925,57.785-17.925,57.89z
	 M-17.841,72.353c0.213,0.053,0.337,0.063,0.363,0.044c0.027-0.031,0.125-0.02,0.285,0.033c-0.109-0.16-0.078-0.289,0.084-0.363
	c0.164-0.081,0.164-0.18,0-0.285c-0.107,0.104-0.231,0.204-0.367,0.285C-17.609,72.145-17.732,72.248-17.841,72.353z
	 M-17.351,70.404c0-0.326-0.113-0.484-0.326-0.484C-17.569,70.24-17.466,70.404-17.351,70.404z M-17.513,59.439l0.242-0.084
	l0.24,0.084c0.056-0.215-0.03-0.298-0.24-0.248C-17.488,59.246-17.569,59.325-17.513,59.439z M-17.351,57.002
	c0.104,0,0.173,0.031,0.199,0.079c0.029,0.057,0.094,0.057,0.209,0v-0.32C-17.165,56.761-17.302,56.837-17.351,57.002z
	 M-16.622,70.729c0.103-0.166,0.039-0.258-0.206-0.283c-0.24-0.031-0.364,0.01-0.364,0.115c0.107-0.053,0.193-0.037,0.248,0.043
	C-16.896,70.688-16.784,70.729-16.622,70.729z M-16.622,63.339c0.162,0,0.24-0.069,0.24-0.208c0-0.131,0.056-0.228,0.168-0.283
	h-0.408V63.339z M-16.541,56.023c0.107-0.105,0.216-0.174,0.328-0.201c0.104-0.029,0.13-0.147,0.078-0.373
	c-0.11,0-0.216,0.091-0.323,0.25C-16.57,55.862-16.596,55.977-16.541,56.023z M-15.324,60.979c-0.161,0-0.292,0.135-0.403,0.409
	c0.268-0.055,0.338-0.025,0.198,0.082c-0.132,0.105-0.089,0.189,0.128,0.238c0.104-0.213,0.199-0.266,0.285-0.156
	c0.078,0.105,0.199,0.183,0.359,0.24c-0.16-0.377-0.271-0.679-0.322-0.895c-0.053-0.218-0.135-0.459-0.245-0.732
	c-0.104,0.111-0.136,0.243-0.077,0.408C-15.351,60.739-15.324,60.871-15.324,60.979z M-14.757,71.293
	c0.107-0.217,0.164-0.407,0.164-0.564h-0.243c0.106,0.107,0.124,0.205,0.04,0.281C-14.876,71.093-14.859,71.189-14.757,71.293z
	 M-14.757,58.218c0.218-0.053,0.382-0.133,0.488-0.245c0.109-0.107,0.268-0.188,0.488-0.246c0-0.103,0.012-0.224,0.041-0.364
	c0.027-0.132-0.015-0.201-0.119-0.201c0,0.159-0.167,0.242-0.49,0.242c-0.056,0.271-0.016,0.342,0.121,0.205
	c0.137-0.136,0.202-0.151,0.202-0.038v0.241C-14.456,57.706-14.702,57.838-14.757,58.218z M-14.671,81.123
	c0.324,0.116,0.487,0,0.487-0.322c-0.111,0.055-0.221,0.084-0.325,0.084C-14.616,80.885-14.671,80.959-14.671,81.123z
	 M-14.429,53.592c0.107-0.058,0.287-0.072,0.529-0.045c0.242,0.028,0.416-0.067,0.525-0.285c-0.107-0.05-0.296-0.05-0.57,0
	C-14.214,53.316-14.375,53.423-14.429,53.592z M-14.429,62.197c0.324,0,0.595,0.084,0.81,0.244c0.22,0.164,0.437,0.324,0.654,0.482
	c0.106-0.16,0.32-0.186,0.65-0.079c0-0.159,0-0.31,0-0.449c0-0.132-0.086-0.199-0.242-0.199c-0.113,0.105-0.258,0.136-0.452,0.083
	c-0.188-0.054-0.365-0.125-0.531-0.204c-0.159-0.087-0.316-0.126-0.484-0.126C-14.184,61.951-14.321,62.035-14.429,62.197z
	 M-14.269,67.969h0.323v-0.328h-0.323V67.969z M-13.856,54.645c0.158,0,0.293-0.112,0.401-0.322c-0.272,0-0.401,0.021-0.401,0.078
	C-13.752,54.455-13.752,54.531-13.856,54.645z M-13.619,57.321c0.384-0.105,0.745-0.24,1.099-0.406
	c0.352-0.156,0.663-0.487,0.933-0.971c-0.322,0.273-0.677,0.5-1.057,0.686C-13.024,56.827-13.347,57.05-13.619,57.321z
	 M-13.128,52.774c0.049-0.216-0.055-0.377-0.328-0.487c-0.107,0.11-0.107,0.21,0,0.285C-13.347,52.653-13.235,52.724-13.128,52.774z
	 M-12.558,61.873c-0.114,0.059-0.139-0.01-0.087-0.207c0.058-0.187,0-0.223-0.161-0.113c-0.105,0.105-0.117,0.224-0.036,0.363
	C-12.761,62.047-12.672,62.035-12.558,61.873z M-12.807,72.189h0.162c0-0.052,0.029-0.08,0.088-0.08c0.051,0,0.051-0.053,0-0.158
	h-0.25V72.189z M-12.314,81.365c0.159-0.049,0.257-0.033,0.282,0.042c0.027,0.079,0.095,0.118,0.202,0.118
	c0.056-0.16-0.016-0.281-0.202-0.359C-12.228,81.088-12.314,81.157-12.314,81.365z M-11.991,63.012
	c0.104,0.107,0.203,0.139,0.283,0.078c0.084-0.05,0.178-0.078,0.285-0.078c0.109-0.272,0.031-0.404-0.243-0.404
	c0.054,0.159,0,0.24-0.163,0.24C-11.991,62.848-12.045,62.901-11.991,63.012z M-10.45,55.45c0.054-0.101,0.083-0.236,0.083-0.4
	c0-0.159-0.083-0.242-0.241-0.242c0,0.107-0.02,0.225-0.044,0.363C-10.681,55.311-10.608,55.406-10.45,55.45z M-8.499,68.533
	c0.109,0.109,0.202,0.176,0.281,0.203c0.087,0.029,0.18-0.012,0.286-0.123c0.053-0.209-0.013-0.31-0.199-0.28
	C-8.322,68.359-8.444,68.428-8.499,68.533z M-7.44,62.197c0.104-0.106,0.227-0.162,0.363-0.162c0.133,0,0.229-0.057,0.278-0.16
	c-0.103,0-0.267,0.041-0.483,0.116C-7.501,62.076-7.554,62.146-7.44,62.197z M-6.957,57.081c0.218,0.057,0.379,0.041,0.488-0.038
	c0.106-0.079,0.24-0.069,0.404,0.038c0-0.213-0.024-0.32-0.078-0.32c-0.11,0.107-0.271,0.144-0.489,0.113
	C-6.848,56.85-6.957,56.916-6.957,57.081z M-5.331,82.182c-0.16,0.053-0.275,0.037-0.327-0.035
	c-0.054-0.086-0.159-0.127-0.327-0.127c0.109-0.111,0.244-0.16,0.412-0.16C-5.413,81.857-5.331,81.968-5.331,82.182z
	 M112.859,42.541c0.271,0,0.449,0.079,0.529,0.243c0.081,0.161,0.135,0.354,0.164,0.569c0.023,0.218,0.049,0.46,0.079,0.733
	c0.023,0.273,0.121,0.481,0.284,0.653c-0.109,0.048-0.206,0.093-0.284,0.117c-0.079,0.025-0.18,0.069-0.284,0.123
	c0.103,0.22,0.205,0.243,0.284,0.078c0.078-0.16,0.174-0.213,0.284-0.16c-0.109,0.218-0.188,0.354-0.245,0.402
	c-0.051,0.058-0.078,0.167-0.078,0.332h-0.655c0,0.108,0.086,0.129,0.245,0.076c0.165-0.049,0.188,0.032,0.081,0.248
	c-0.105,0-0.177-0.027-0.201-0.081c-0.029-0.054-0.096-0.028-0.203,0.081c0.107,0.108,0.212,0.162,0.323,0.162
	c0,0.11-0.064,0.176-0.201,0.204c-0.138,0.03-0.203,0.096-0.203,0.2c0.27,0.164,0.351,0.351,0.242,0.574
	c-0.109,0.212-0.272,0.4-0.486,0.564c0.106,0.057,0.16,0.153,0.16,0.284c0,0.139,0.084,0.153,0.241,0.042
	c0.163,0.161,0.136,0.218-0.078,0.161c-0.217-0.052-0.352,0-0.405,0.161c0.16,0.057,0.273,0.123,0.323,0.208
	c0.051,0.081,0.096,0.146,0.12,0.201c0.029,0.054,0.068,0.107,0.125,0.161c0.048,0.051,0.159,0.051,0.323,0
	c-0.057,0.219-0.11,0.367-0.163,0.449c-0.052,0.08-0.025,0.171,0.083,0.284c0.106,0.104,0.215,0.233,0.326,0.363
	c0.107,0.138,0.107,0.316,0,0.527c-0.272-0.107-0.474-0.082-0.608,0.088c-0.138,0.159-0.341,0.237-0.607,0.237
	c0.048,0.222,0.132,0.274,0.239,0.167c0.112-0.107,0.27-0.14,0.485-0.083c0,0.432,0.162,0.673,0.491,0.729
	c0,0.326-0.141,0.46-0.41,0.41c0.107,0.484,0.053,0.946-0.159,1.375c-0.22,0.436-0.437,0.734-0.646,0.9
	c0,0.27,0.009,0.527,0.031,0.77c0.031,0.242-0.094,0.357-0.36,0.357c0.106,0.277,0.135,0.495,0.078,0.654
	c-0.052,0.165-0.106,0.38-0.159,0.657c-0.275-0.062-0.435-0.031-0.488,0.078c-0.057,0.106-0.11,0.213-0.164,0.323
	c0.164,0.114,0.233,0.082,0.205-0.081c-0.025-0.164,0.04-0.189,0.203-0.079c-0.163,0.65-0.352,1.314-0.571,1.989
	c-0.218,0.678-0.267,1.338-0.16,1.988c-0.105,0.057-0.216,0.125-0.324,0.206c-0.109,0.079-0.135,0.257-0.077,0.522
	c-0.274-0.049-0.466,0.018-0.569,0.209c-0.109,0.191-0.219,0.365-0.326,0.527c0.107,0.104,0.132,0.243,0.081,0.405
	c-0.058,0.163,0.028,0.218,0.245,0.163c-0.278,0.217-0.326,0.408-0.163,0.567c0.163,0.163,0.295,0.354,0.409,0.567
	c0.212-0.107,0.226-0.188,0.037-0.244c-0.188-0.055-0.229-0.187-0.118-0.402c0.206,0.057,0.404,0,0.562-0.161
	c-0.054-0.161-0.203-0.208-0.444-0.126c-0.244,0.08-0.313-0.013-0.205-0.288c0.27-0.159,0.377-0.145,0.326,0.05
	c-0.057,0.186,0.051,0.225,0.323,0.114c0.165-0.974,0.422-1.812,0.772-2.517c0.351-0.706,0.637-1.596,0.859-2.684
	c-0.113-0.105-0.164-0.129-0.164-0.08c0,0.053-0.058,0.028-0.162-0.084c0.048-0.646,0.162-1.159,0.326-1.542
	c0.16-0.38,0.291-0.863,0.404-1.464c0.216-0.377,0.419-0.751,0.611-1.128c0.186-0.38,0.414-0.704,0.686-0.977l25.347-0.085
	c0.756,0,1.288,0,1.583,0c0.296,0,0.742,0.054,1.338,0.165c0,0.215,0,0.415,0,0.606c0,0.189-0.135,0.255-0.407,0.202
	c-0.107-0.107-0.107-0.174,0-0.202c0.107-0.027,0.138-0.125,0.084-0.284c-0.272-0.049-0.412,0.012-0.412,0.202
	c0,0.193,0.112,0.284,0.328,0.284c-0.107,0.218-0.242,0.329-0.404,0.329c-0.057,0.103,0.012,0.135,0.201,0.079
	c0.189-0.054,0.257-0.027,0.203,0.08c-0.054,0.166-0.135,0.274-0.242,0.331c-0.108,0.051-0.243,0.133-0.406,0.243
	c0.109-0.222,0.16-0.38,0.16-0.486c-0.106,0.265-0.23,0.514-0.363,0.73c-0.137,0.215-0.258,0.484-0.367,0.812
	c-0.38-0.11-0.581-0.04-0.607,0.203c-0.028,0.242-0.096,0.417-0.207,0.525c-0.317,0-0.565,0.057-0.726,0.164
	c-0.16,0.108-0.381,0.077-0.651-0.085c0,0.218,0.067,0.344,0.203,0.37c0.135,0.027,0.204,0.117,0.204,0.282
	c-0.111,0.11-0.159,0.221-0.159,0.323c-0.115-0.103-0.239-0.147-0.368-0.117c-0.138,0.027-0.287-0.012-0.449-0.126
	c-0.323,0.273-0.57,0.514-0.73,0.73c0.326,0.115,0.66,0.062,1.016-0.163c0.35-0.212,0.664-0.323,0.934-0.323
	c-0.107-0.103-0.096-0.213,0.036-0.323c0.138-0.107,0.123-0.213-0.036-0.32c0.104-0.114,0.377-0.17,0.812-0.17
	c-0.11,0.223-0.275,0.301-0.486,0.248c0,0.054,0.052,0.126,0.16,0.204c0.11,0.081,0.084,0.173-0.078,0.28
	c0,0.112,0.066,0.127,0.194,0.041c0.142-0.076,0.21-0.171,0.21-0.282c0.104,0.274,0.051,0.506-0.16,0.688
	c-0.22,0.193-0.241,0.474-0.082,0.857c-0.275,0.158-0.477,0.188-0.611,0.084c-0.135-0.113-0.359-0.113-0.691,0
	c0-0.113,0.065-0.167,0.207-0.167c0.133,0,0.173-0.08,0.125-0.243c0.103,0.217,0.21,0.272,0.32,0.163
	c0.108-0.106,0.186-0.221,0.24-0.325c-0.32,0.104-0.701,0.161-1.131,0.161c-0.438,0-0.735,0.216-0.896,0.653
	c0.107,0.107,0.258,0.107,0.443,0c0.188-0.107,0.341-0.189,0.453-0.242v0.408c0.101,0.05,0.211,0.023,0.322-0.085
	c0.107-0.108,0.161-0.054,0.161,0.159c0.16,0.055,0.228,0,0.204-0.159c-0.028-0.162,0.093-0.188,0.362-0.081
	c0.053,0.164,0,0.239-0.159,0.239c-0.163,0-0.247,0.085-0.247,0.247c0.221,0,0.328-0.025,0.328-0.084c0.104,0.6-0.07,1.1-0.53,1.502
	c-0.461,0.408-0.824,0.829-1.096,1.26c0,0.057,0.083,0.082,0.246,0.082c-0.111,0.488-0.312,0.913-0.614,1.266
	c-0.295,0.348-0.5,0.816-0.609,1.414c-0.376,0.112-0.714,0.262-1.011,0.447c-0.299,0.191-0.635,0.342-1.015,0.447
	c0.267,0.161,0.497,0.161,0.685,0c0.192-0.162,0.396-0.299,0.613-0.406c-0.11,0.438-0.139,0.705-0.082,0.812
	c-0.329,0.22-0.486,0.516-0.486,0.893c0,0.109,0.025,0.141,0.079,0.084s0.141-0.084,0.244-0.084c0.055,0.27,0.037,0.473-0.038,0.611
	c-0.082,0.127-0.176,0.253-0.285,0.365c0.106,0.162,0.378,0.297,0.812,0.404c-0.22,0.381-0.206,0.689,0.036,0.934
	c0.244,0.244,0.312,0.498,0.203,0.768c0.218,0.105,0.393,0.238,0.53,0.369c0.137,0.137,0.174,0.392,0.123,0.77
	c-0.166,0.166-0.436,0.246-0.814,0.246c0.491,0.379,0.843,0.785,1.057,1.217c-0.11,0.276-0.216,0.461-0.326,0.566
	c-0.107,0.113-0.138,0.332-0.084,0.656c0.168,0.16,0.3,0.16,0.41,0c0.104-0.161,0.244-0.161,0.409,0
	c-0.061,0.216-0.164,0.351-0.328,0.408c-0.162,0.051-0.295,0.162-0.407,0.324c0.11,0.16,0.216,0.19,0.326,0.081
	c0.104-0.11,0.244-0.034,0.409,0.242c-0.061,0.107-0.083,0.215-0.083,0.319c0,0.119-0.057,0.223-0.164,0.326
	c0.436,0.113,0.677,0.439,0.733,0.977c0.049,0.545,0,0.869-0.162,0.973c0.054,0.277,0.153,0.314,0.285,0.127
	c0.135-0.189,0.285-0.148,0.445,0.122c0.053,0.38-0.107,0.622-0.481,0.729c0.211,0.213,0.268,0.381,0.158,0.483
	c-0.11,0.11-0.158,0.299-0.158,0.571l-0.979,0.488c0.104,0.111,0.217,0.216,0.326,0.326c0.106,0.107,0.135,0.293,0.083,0.568
	c-0.381,0-0.68,0.025-0.896,0.079c-0.22,0.058-0.463,0.083-0.735,0.083c0.061,0.219,0.153,0.352,0.289,0.412
	c0.132,0.052,0.227,0.157,0.28,0.316c0.38-0.265,0.856-0.43,1.428-0.484c0.569-0.051,1.066-0.268,1.5-0.648
	c0.162,0.322,0.189,0.686,0.084,1.096c-0.113,0.407-0.383,0.668-0.812,0.771c-0.329-0.216-0.629-0.32-0.897-0.32
	c-0.273,0-0.527,0.025-0.77,0.076c-0.246,0.053-0.487,0.084-0.735,0.084c-0.244,0-0.499-0.084-0.771-0.244
	c-0.104,0.053-0.215,0.189-0.323,0.406c-0.161-0.161-0.351-0.244-0.568-0.244c-6.611,0.107-12.875,0.205-18.804,0.283
	c-5.933,0.084-11.959,0.154-18.076,0.205c0-0.213-0.029-0.486-0.08-0.812c-0.055-0.325-0.163-0.649-0.327-0.976
	c0.272-0.164,0.516-0.488,0.732-0.975c0.214-0.487,0.271-0.842,0.163-1.059c0.106-0.213,0.204-0.419,0.284-0.607
	c0.08-0.191,0.255-0.282,0.529-0.282c-0.16-0.378-0.109-0.635,0.16-0.77c0.27-0.132,0.377-0.364,0.326-0.688
	c0.16-0.111,0.296-0.111,0.404,0c0.107,0.102,0.164,0.102,0.164,0c0-0.219-0.04-0.275-0.122-0.164
	c-0.081,0.107-0.176,0.078-0.286-0.084c0.109-0.217,0.123-0.446,0.039-0.688c-0.08-0.243-0.066-0.452,0.037-0.61
	c1.467-0.104,2.836-0.293,4.108-0.567c1.27-0.27,2.526-0.46,3.775-0.573c-1.41-0.104-2.871-0.009-4.387,0.291
	c-1.518,0.301-2.898,0.58-4.141,0.85c0.052,0.055,0.106,0.096,0.164,0.123c0.052,0.023,0.105,0.068,0.159,0.123
	c-8.231,1.244-16.813,2.53-25.751,3.859c-8.931,1.328-17.6,2.668-25.996,4.021c-7.092,1.135-13.101,2.098-18.027,2.881
	c-4.936,0.783-9.035,1.438-12.306,1.948c-3.284,0.519-5.889,0.921-7.84,1.218c-1.948,0.299-3.493,0.545-4.632,0.736
	c-1.137,0.188-2.006,0.32-2.598,0.404c-0.602,0.078-1.217,0.176-1.872,0.283c-0.921,0.109-1.866,0.23-2.843,0.361
	c-0.976,0.139-1.596-0.037-1.865-0.521c-0.219,0.213-0.49,0.23-0.811,0.041c-0.327-0.191-0.57-0.344-0.736-0.445
	c0.107-0.059,0.205-0.123,0.287-0.205s0.178-0.148,0.286-0.203c-0.106-0.115-0.188-0.137-0.245-0.086
	c-0.051,0.053-0.137,0.031-0.244-0.082c0-0.27-0.025-0.459-0.082-0.559c0.107-0.226,0.221-0.453,0.326-0.697
	c0.107-0.245,0.029-0.445-0.244-0.613c-0.105-0.211-0.082-0.319,0.085-0.319c0.159,0,0.243-0.055,0.243-0.162
	c-0.111-0.164-0.243-0.248-0.41-0.248c0.166-0.214,0.258-0.374,0.286-0.487c0.024-0.102,0.069-0.32,0.124-0.645
	c0.217,0.057,0.375-0.03,0.481-0.242c-0.052-0.164-0.106-0.207-0.156-0.123c-0.058,0.08-0.14,0.066-0.243-0.041
	c0.266-0.108,0.291-0.297,0.079-0.566c0.431-0.161,0.704-0.543,0.812-1.139c-0.326,0-0.42,0.077-0.285,0.244
	c0.131,0.162,0.096,0.27-0.121,0.326c-0.22-0.163-0.326-0.379-0.326-0.652s0.015-0.57,0.042-0.896c0.028-0.322,0.028-0.609,0-0.853
	c-0.028-0.245-0.177-0.392-0.446-0.449c0.27-0.161,0.418-0.321,0.446-0.481s0.17-0.244,0.446-0.244
	c-0.107-0.107-0.229-0.201-0.364-0.283c-0.136-0.086-0.204-0.256-0.204-0.527c0.268-0.271,0.365-0.557,0.281-0.855
	c-0.077-0.304-0.227-0.559-0.443-0.777c-0.054-0.102-0.016-0.238,0.121-0.401c0.136-0.164,0.121-0.296-0.037-0.405
	c0.104-0.109,0.186-0.213,0.243-0.332c0.048-0.106,0.187-0.129,0.405-0.078c-0.055-0.213-0.07-0.365-0.041-0.448
	c0.022-0.081,0.122-0.229,0.285-0.441c0-0.116-0.028-0.149-0.085-0.127c-0.056,0.028-0.105,0.011-0.159-0.034
	c0.271-0.383,0.485-0.707,0.65-0.977c0.051-0.166-0.016-0.207-0.205-0.129c-0.188,0.088-0.257,0.047-0.203-0.116
	c-0.275,0.109-0.326,0.285-0.161,0.528c0.161,0.241,0.054,0.395-0.33,0.449c0.11-0.273,0.126-0.494,0.045-0.654
	c-0.085-0.159-0.071-0.377,0.04-0.645c0.266,0.106,0.596-0.033,0.975-0.41c-0.109-0.16-0.23-0.282-0.365-0.371
	c-0.135-0.08-0.203-0.251-0.203-0.523c0.218-0.051,0.326-0.014,0.326,0.122c0,0.135,0.027,0.258,0.082,0.362
	c0.215-0.104,0.311-0.213,0.283-0.327c-0.027-0.101-0.121-0.21-0.283-0.32c0.16-0.216,0.311-0.419,0.443-0.606
	c0.137-0.192,0.228-0.419,0.289-0.693c-0.218-0.052-0.297,0.027-0.247,0.244c0.054,0.222-0.03,0.279-0.243,0.16
	c0.327-0.863,0.746-1.649,1.263-2.354c0.508-0.699,0.929-1.43,1.254-2.193c-0.105-0.214-0.239-0.271-0.406-0.161
	c-0.161,0.104-0.22,0.029-0.161-0.242c-0.324,0.051-0.568,0.147-0.734,0.282c-0.159,0.135-0.459,0.156-0.889,0.038
	c0.162-0.103,0.404-0.203,0.73-0.282c0.324-0.083,0.637-0.194,0.932-0.323c0.295-0.138,0.528-0.299,0.693-0.49
	c0.161-0.189,0.214-0.475,0.161-0.854c-0.058-0.158-0.138-0.205-0.243-0.117c-0.111,0.078-0.221,0.117-0.324,0.117
	c-0.055-0.269,0.025-0.375,0.24-0.321c0.217,0.053,0.409,0.079,0.568,0.079c-0.159-0.324-0.201-0.689-0.121-1.098
	c0.08-0.407,0.203-0.834,0.364-1.295c0.163-0.465,0.312-0.896,0.45-1.309c0.131-0.403,0.174-0.769,0.12-1.092
	c0.215-0.216,0.487-0.324,0.807-0.324c0.11-0.219,0.058-0.287-0.158-0.207s-0.272,0.014-0.161-0.197
	c18.791-2.874,37.364-5.752,55.726-8.653c18.357-2.899,36.741-5.787,55.152-8.654c0,0.217,0.126,0.366,0.368,0.446
	c0.243,0.081,0.416,0.174,0.527,0.288c0.214-0.112,0.275-0.247,0.161-0.41c-0.107-0.166,0-0.166,0.322,0
	C112.938,42.649,112.911,42.541,112.859,42.541z M-4.19,57.081c0.052,0.11,0.117,0.15,0.197,0.123
	c0.086-0.031,0.15-0.095,0.207-0.201c-0.109-0.11-0.207-0.153-0.287-0.129C-4.153,56.903-4.19,56.972-4.19,57.081z M-3.218,70.078
	c-0.162-0.055-0.406-0.055-0.732,0c0.216-0.211,0.283-0.43,0.201-0.654c-0.078-0.213-0.066-0.433,0.039-0.645
	c0.275,0.159,0.462,0.172,0.57,0.039c0.107-0.137,0.297-0.257,0.568-0.365c0,0.108,0.055,0.159,0.163,0.159
	c-0.216,0.11-0.396,0.221-0.532,0.326c-0.131,0.109-0.15,0.384-0.038,0.814c-0.215-0.106-0.286-0.106-0.202,0
	C-3.099,69.867-3.11,69.969-3.218,70.078z M-3.544,90.387c0-0.16-0.055-0.242-0.164-0.242c-0.055,0.213-0.014,0.336,0.123,0.363
	c0.136,0.023,0.258,0.07,0.367,0.121c0.049-0.107,0.105-0.256,0.159-0.445c0.054-0.195,0.028-0.311-0.081-0.363
	c-0.053,0.105-0.108,0.213-0.164,0.324C-3.354,90.252-3.434,90.328-3.544,90.387z M-2.491,67.641c0.111,0,0.217,0.031,0.33,0.084
	c0.107,0.054,0.238,0.054,0.404,0c-0.057,0.159-0.149,0.297-0.285,0.404c-0.137,0.109-0.256,0.22-0.363,0.325
	c-0.108-0.048-0.164-0.14-0.164-0.24c0-0.108-0.08-0.138-0.239-0.085c-0.11,0.109-0.246,0.186-0.407,0.245
	c-0.163,0.054-0.297,0.136-0.406,0.239c-0.111-0.266,0.064-0.434,0.525-0.484C-2.638,68.074-2.435,67.913-2.491,67.641z
	 M-3.622,56.761c0.484,0,0.752-0.114,0.812-0.332c-0.166,0.056-0.344,0.085-0.531,0.085C-3.53,56.514-3.622,56.589-3.622,56.761z
	 M-2.81,89.248c-0.061,0.109-0.11,0.109-0.166,0c-0.054-0.105-0.135-0.105-0.24,0c-0.109,0.268,0,0.367,0.32,0.285
	C-2.57,89.453-2.543,89.357-2.81,89.248z M-2.978,85.92c0.27,0,0.407-0.167,0.407-0.491c-0.108,0.056-0.239,0.056-0.407,0
	c-0.16-0.053-0.24-0.025-0.24,0.085c0.159-0.057,0.228-0.029,0.199,0.084C-3.042,85.699-3.03,85.807-2.978,85.92z M-1.351,65.041
	c-0.108,0.326-0.285,0.432-0.532,0.326c-0.24-0.106-0.415-0.08-0.524,0.082C-2.623,65.125-2.529,64.979-2.123,65
	C-1.718,65.033-1.459,65.041-1.351,65.041z M-2.405,89.412c0,0.219,0.08,0.256,0.244,0.119c0.162-0.129,0.296-0.201,0.404-0.201
	c-0.164-0.057-0.285-0.057-0.364,0C-2.203,89.385-2.298,89.412-2.405,89.412z M-1.674,84.617v-0.324h-0.325
	C-1.999,84.513-1.894,84.617-1.674,84.617z M-1.759,54.236c0.056-0.158,0.191-0.351,0.408-0.566c-0.108,0-0.176-0.012-0.203-0.043
	c-0.027-0.02-0.096-0.034-0.205-0.034c-0.057,0.05-0.094,0.158-0.124,0.321C-1.906,54.079-1.865,54.185-1.759,54.236z
	 M-1.674,86.321c0.106,0.054,0.171,0.054,0.198,0c0.031-0.048,0.095-0.078,0.206-0.078c-0.056-0.106-0.056-0.216,0-0.323
	c0.052-0.113,0.024-0.167-0.081-0.167c0.055,0.224,0.025,0.339-0.08,0.372C-1.544,86.146-1.622,86.216-1.674,86.321z M-0.945,53.834
	c0.272,0,0.407-0.138,0.407-0.413c-0.161-0.052-0.258-0.025-0.283,0.083C-0.852,53.619-0.891,53.722-0.945,53.834z M-0.863,86.73
	c-0.058,0.16-0.028,0.241,0.082,0.241c0.106,0,0.216,0,0.323,0v-0.32C-0.675,86.652-0.811,86.678-0.863,86.73z M-0.863,88.273
	c0.161,0.054,0.253,0.039,0.286-0.042c0.027-0.081,0.062-0.146,0.119-0.204C-0.729,88.027-0.863,88.111-0.863,88.273z M-0.781,53.18
	c0.106,0,0.229,0,0.364,0c0.133,0,0.148-0.051,0.038-0.16h-0.404v0.16H-0.781z M-0.62,87.705c0.271,0.057,0.418-0.014,0.447-0.205
	c0.026-0.188-0.068-0.308-0.285-0.364c0.053,0.163,0.041,0.272-0.038,0.327C-0.577,87.513-0.62,87.597-0.62,87.705z M0.923,88.273
	c0.16,0.111,0.301,0.054,0.406-0.162C1.226,88.004,1.11,87.979,1,88.027C0.897,88.085,0.87,88.168,0.923,88.273z M1.98,87.782
	c0.163,0,0.244-0.021,0.244-0.077c0-0.058,0.054-0.028,0.161,0.077c0.108-0.047,0.147-0.135,0.119-0.241
	c-0.027-0.102,0.014-0.16,0.123-0.16c0.105,0.11,0.188,0.082,0.242-0.082c0.055-0.163,0.029-0.163-0.08,0
	c-0.272-0.106-0.436-0.078-0.488,0.082C2.251,87.541,2.144,87.678,1.98,87.782z M2.225,86.321c0,0.224,0.054,0.435,0.161,0.651
	c0.217-0.379,0.217-0.62,0-0.729C2.388,86.407,2.331,86.436,2.225,86.321z M4.985,85.352c0.054,0.052,0.107,0.104,0.162,0.16
	c0.05,0.055,0.161,0.055,0.322,0c0-0.057,0.054-0.137,0.164-0.248C5.31,84.945,5.093,84.968,4.985,85.352z M6.607,89.002
	c0.109,0.057,0.204,0.018,0.285-0.117c0.083-0.137,0.069-0.229-0.04-0.287c0,0.107-0.055,0.179-0.16,0.205
	C6.579,88.834,6.554,88.896,6.607,89.002z M7.343,86.08c0-0.102,0.049-0.102,0.16,0v-0.402c-0.111-0.11-0.191-0.081-0.246,0.075
	C7.204,85.92,7.231,86.027,7.343,86.08z M7.343,84.537c0.27,0.16,0.454,0.057,0.568-0.324c-0.114-0.109-0.234-0.125-0.367-0.044
	C7.407,84.251,7.343,84.378,7.343,84.537z M9.862,87.782c0.375-0.104,0.595-0.211,0.646-0.319
	C10.126,87.463,9.911,87.571,9.862,87.782z M11.728,82.262c0.107,0,0.15,0.027,0.119,0.086c-0.025,0.055,0.016,0.076,0.125,0.076
	c0-0.107,0.037-0.146,0.119-0.12c0.081,0.028,0.096-0.015,0.043-0.122c0-0.104-0.068-0.149-0.203-0.121
	C11.796,82.088,11.728,82.159,11.728,82.262z M12.864,59.032c0.057-0.162-0.029-0.271-0.246-0.323
	c-0.218-0.055-0.379-0.029-0.482,0.074C12.347,59.117,12.595,59.19,12.864,59.032z M12.864,66.914c0,0.107,0.013,0.166,0.039,0.197
	c0.027,0.029,0.038,0.102,0.038,0.211c0.222,0,0.409-0.085,0.57-0.249c0.159-0.159,0.188-0.296,0.08-0.408
	c-0.104,0.273-0.202,0.356-0.282,0.249C13.228,66.799,13.079,66.799,12.864,66.914z M14.005,62.848
	c0.051-0.108,0.131-0.174,0.24-0.202c0.105-0.028,0.137-0.153,0.081-0.364c-0.159-0.055-0.284,0.014-0.365,0.203
	C13.882,62.674,13.891,62.793,14.005,62.848z M14.005,59.925c0.16,0.215,0.306,0.256,0.445,0.118
	c0.135-0.133,0.311-0.09,0.525,0.123c0-0.109,0.041-0.184,0.125-0.241c0.08-0.058,0.095-0.135,0.038-0.244
	c-0.27,0-0.499,0.015-0.688,0.039C14.259,59.751,14.108,59.817,14.005,59.925z M14.084,59.52c0.103,0,0.214-0.018,0.32-0.043
	c0.109-0.025,0.137-0.121,0.081-0.286c-0.104,0.054-0.175,0.054-0.197,0c-0.031-0.051-0.1-0.075-0.204-0.075V59.52z M14.326,64.312
	c0-0.112,0.04-0.112,0.124,0c0.081,0.102,0.172,0.102,0.285,0V63.82c-0.164,0-0.312,0.057-0.445,0.166
	C14.148,64.096,14.165,64.2,14.326,64.312z M15.708,61.951c-0.055-0.102-0.122-0.116-0.204-0.035
	c-0.081,0.075-0.151,0.062-0.203-0.041c0.109-0.166,0.285-0.256,0.529-0.279c0.24-0.033,0.333-0.209,0.284-0.533
	c-0.162-0.055-0.241-0.013-0.241,0.122c0,0.13-0.084,0.177-0.242,0.122c0-0.271,0.038-0.421,0.116-0.451
	c0.084-0.025,0.174-0.145,0.288-0.365c-0.161-0.051-0.288-0.051-0.364,0c-0.083,0.053-0.178,0.107-0.288,0.167
	c0-0.276-0.132-0.407-0.407-0.407c0.109,0.217,0.148,0.348,0.125,0.407c-0.032,0.054-0.1,0.161-0.203,0.321
	c0.102,0,0.188-0.028,0.241-0.082c0.056-0.055,0.134-0.107,0.242-0.16c0,0.104,0.015,0.229,0.042,0.365
	c0.027,0.133-0.013,0.204-0.122,0.204c-0.487-0.056-0.679,0.134-0.566,0.565c0.216,0,0.351,0.033,0.404,0.078
	c-0.054,0.223-0.148,0.438-0.285,0.656c-0.136,0.217-0.261,0.352-0.368,0.405c0.275-0.054,0.412,0.078,0.412,0.407
	c-0.328,0-0.516,0.109-0.571,0.324c0.269-0.051,0.555-0.124,0.854-0.204c0.295-0.075,0.582-0.094,0.854-0.038
	c0.051-0.161,0.065-0.258,0.036-0.289c-0.025-0.023-0.01-0.122,0.043-0.287c-0.381-0.211-0.555-0.318-0.528-0.318
	c0.029,0-0.175,0.107-0.61,0.318c0-0.264,0.109-0.432,0.326-0.482C15.517,62.389,15.653,62.227,15.708,61.951z M14.404,78.201
	c0.164-0.051,0.313-0.107,0.449-0.166c0.137-0.053,0.255-0.106,0.362-0.158c-0.107-0.109-0.226-0.146-0.362-0.122
	c-0.136,0.03-0.261-0.015-0.368-0.126c0.056,0.165,0.045,0.276-0.035,0.33C14.366,78.014,14.351,78.094,14.404,78.201z
	 M14.813,59.19c-0.107-0.105-0.135-0.214-0.079-0.321c0.052-0.107,0.187-0.134,0.404-0.087v-0.241
	c-0.27,0.053-0.517,0.111-0.734,0.166h0.164c-0.164,0.104-0.134,0.255,0.085,0.449C14.869,59.342,14.921,59.355,14.813,59.19z
	 M15.708,63.902c-0.162,0.056-0.243,0.033-0.243-0.082c0-0.104-0.084-0.129-0.247-0.078c-0.108,0.216-0.055,0.33,0.163,0.33
	S15.708,64.01,15.708,63.902z M16.034,58.625c-0.113-0.111-0.231-0.147-0.365-0.127c-0.137,0.031-0.258-0.004-0.367-0.115
	c-0.106,0.111-0.152,0.242-0.121,0.4c0.028,0.168,0.093,0.249,0.202,0.249c0.108-0.108,0.108-0.206,0-0.282
	c-0.109-0.086-0.109-0.125,0-0.125c0.056,0.219,0.163,0.312,0.326,0.283S15.978,58.783,16.034,58.625z M15.872,62.197
	c0.047,0.106,0.143,0.106,0.283,0c0.137-0.106,0.229-0.221,0.28-0.324C16.114,61.873,15.921,61.979,15.872,62.197z M16.114,64.23
	c0.217,0.051,0.321-0.014,0.321-0.207c0-0.182-0.104-0.252-0.321-0.203V64.23z M16.114,79.502c0.271-0.162,0.5-0.201,0.689-0.123
	c0.188,0.084,0.339-0.094,0.45-0.529c-0.272,0.061-0.507,0.109-0.694,0.166C16.373,79.068,16.223,79.234,16.114,79.502z
	 M16.355,63.089c0.109,0.06,0.188,0.041,0.247-0.034c0.051-0.08,0.104-0.153,0.16-0.207c-0.16-0.108-0.297-0.133-0.407-0.082
	C16.247,62.824,16.247,62.925,16.355,63.089z M16.52,58.542c0.272,0,0.435-0.042,0.489-0.116c0.051-0.085,0.08-0.233,0.08-0.453
	h-0.328c-0.055,0.112-0.08,0.207-0.08,0.285C16.683,58.341,16.63,58.434,16.52,58.542z M16.927,63.012
	c0.216-0.108,0.418-0.163,0.607-0.163c0.188,0,0.311-0.108,0.367-0.321c-0.164-0.108-0.367-0.108-0.615,0
	C17.05,62.635,16.927,62.793,16.927,63.012z M18.144,63.258c0.27,0,0.475-0.031,0.608-0.082c0.134-0.057,0.312-0.027,0.527,0.082
	c0.11-0.107,0.15-0.246,0.124-0.41c-0.027-0.161,0.012-0.268,0.121-0.322c-0.162,0-0.311,0.021-0.445,0.082
	c-0.136,0.054-0.262,0-0.369-0.164c0,0.219-0.066,0.352-0.2,0.405C18.377,62.901,18.251,63.039,18.144,63.258z M18.306,58.951
	c0.106-0.054,0.204-0.096,0.282-0.125c0.087-0.028,0.229-0.043,0.45-0.043c0-0.102-0.136-0.188-0.404-0.241
	C18.36,58.494,18.251,58.625,18.306,58.951z M18.874,80.72c0.108,0.103,0.23,0.093,0.367-0.04c0.135-0.135,0.119-0.256-0.041-0.367
	c0.052,0.164,0.028,0.242-0.08,0.242C19.009,80.555,18.932,80.607,18.874,80.72z M19.931,71.136c-0.111-0.165-0.124-0.3-0.039-0.408
	c0.081-0.111,0.017-0.19-0.205-0.243c0.055,0.109,0.055,0.26,0,0.447C19.634,71.123,19.713,71.189,19.931,71.136z M20.255,70.486
	h0.41c-0.108-0.225-0.084-0.367,0.078-0.447c0.164-0.081,0.139-0.17-0.078-0.285c-0.108,0.113-0.179,0.23-0.202,0.363
	C20.431,70.252,20.362,70.379,20.255,70.486z M20.337,62.687c0.22,0,0.379-0.079,0.49-0.243
	C20.446,62.334,20.282,62.418,20.337,62.687z M20.417,60.49c0.162,0,0.231-0.107,0.204-0.324c-0.028-0.213-0.093-0.299-0.204-0.241
	c0.06,0.161,0.082,0.256,0.082,0.284C20.499,60.239,20.477,60.33,20.417,60.49z M21.803,57.811c0.052-0.104,0.134-0.159,0.24-0.159
	c0.109,0,0.165-0.083,0.165-0.249c-0.165-0.103-0.3-0.066-0.406,0.125C21.687,57.716,21.687,57.811,21.803,57.811z M21.803,85.92
	c0.052,0.107,0.187,0.144,0.407,0.119c0.215-0.023,0.293-0.094,0.241-0.207c0-0.102-0.14-0.156-0.408-0.156
	C21.769,85.678,21.687,85.753,21.803,85.92z M21.803,84.945c0.105,0.107,0.2,0.117,0.279,0.036c0.083-0.085,0.176-0.173,0.286-0.288
	C21.989,84.695,21.803,84.783,21.803,84.945z M22.367,62.117c0.272-0.111,0.515-0.211,0.734-0.324
	c0.214-0.107,0.489-0.135,0.81-0.086v-0.566h-0.406c-0.107,0.11-0.107,0.203,0,0.285c0.108,0.08,0.108,0.127,0,0.127
	c-0.162-0.109-0.379-0.096-0.647,0.043C22.583,61.725,22.423,61.906,22.367,62.117z M23.747,58.783
	c0.111,0.114,0.273,0.168,0.488,0.168c0.051-0.271-0.079-0.41-0.404-0.41c0,0.053-0.018,0.096-0.041,0.123
	C23.762,58.693,23.747,58.736,23.747,58.783z M24.646,61.387c0.106-0.055,0.211-0.136,0.326-0.246
	c0.104-0.104,0.048-0.189-0.164-0.242c0.049,0.109,0.012,0.216-0.125,0.323C24.55,61.332,24.531,61.387,24.646,61.387z
	 M24.972,85.678c0.104-0.11,0.251-0.152,0.444-0.125c0.187,0.029,0.256-0.068,0.199-0.287
	C25.292,85.215,25.075,85.352,24.972,85.678z M25.128,80.801c0.273,0,0.429-0.057,0.486-0.166c-0.058-0.102-0.147-0.129-0.284-0.08
	C25.198,80.607,25.128,80.693,25.128,80.801z M25.212,60.979c0.268,0.11,0.31,0.229,0.119,0.364
	c-0.188,0.136-0.227,0.289-0.119,0.449c0.107,0,0.174-0.018,0.204-0.038c0.024-0.03,0.095-0.046,0.199-0.046
	c-0.058-0.266,0-0.486,0.164-0.645c0.162-0.165,0.191-0.295,0.081-0.405c-0.054,0.108-0.16,0.161-0.323,0.161
	C25.375,60.82,25.263,60.871,25.212,60.979z M25.944,61.553c0.16-0.057,0.377-0.127,0.65-0.209c0.267-0.08,0.511-0.17,0.729-0.281
	c-0.159,0.051-0.239,0.012-0.239-0.126c0-0.132-0.058-0.197-0.165-0.197c-0.109,0.269-0.313,0.415-0.609,0.445
	C26.011,61.209,25.886,61.332,25.944,61.553z M26.917,56.837c0-0.053,0.054-0.191,0.165-0.41c-0.165,0-0.286,0.056-0.366,0.16
	C26.634,56.699,26.704,56.784,26.917,56.837z M26.756,80.801c0.159,0,0.284-0.043,0.368-0.121c0.076-0.081,0.062-0.174-0.042-0.285
	C26.971,80.396,26.86,80.531,26.756,80.801z M27,82.262v0.161c0,0.108,0.025,0.163,0.082,0.163c0.052-0.111,0.169-0.145,0.362-0.121
	c0.187,0.025,0.231-0.064,0.123-0.287c-0.168,0-0.256,0.039-0.287,0.123C27.251,82.387,27.162,82.373,27,82.262z M27.162,58.298
	c0.106,0.056,0.202-0.03,0.284-0.245c0.084-0.216,0.039-0.292-0.123-0.242C27.321,58.03,27.269,58.191,27.162,58.298z
	 M27.812,59.355c0.268,0.059,0.404-0.08,0.404-0.404h-0.322c0,0.107-0.014,0.174-0.042,0.207
	C27.821,59.183,27.812,59.246,27.812,59.355z M27.894,60.574c0.161,0.057,0.334,0.039,0.527-0.044
	c0.188-0.075,0.172-0.17-0.045-0.279c0,0.159-0.035,0.188-0.117,0.079c-0.082-0.105-0.179-0.133-0.289-0.079
	C27.969,60.409,27.945,60.521,27.894,60.574z M28.624,82.753c-0.162,0-0.299,0.106-0.408,0.323
	C28.489,83.076,28.624,82.968,28.624,82.753z M29.029,59.681c-0.056,0.166-0.028,0.325,0.08,0.485
	c0.11,0.162,0.03,0.324-0.243,0.491c0.757,0,1.188-0.19,1.303-0.571c-0.221-0.104-0.396-0.133-0.531-0.082
	c-0.137,0.051-0.174-0.104-0.118-0.484C29.302,59.52,29.14,59.572,29.029,59.681z M30.491,60.086c0.162-0.104,0.23-0.082,0.204,0.08
	c-0.025,0.162,0.041,0.193,0.201,0.085c0.058-0.22,0-0.351-0.159-0.404C30.573,59.79,30.491,59.867,30.491,60.086z M31.062,83.076
	c0.209,0.053,0.32-0.016,0.32-0.204c0-0.192-0.111-0.255-0.32-0.204V83.076z M32.196,80.555c-0.107-0.049-0.151-0.141-0.12-0.282
	c0.028-0.138-0.041-0.17-0.205-0.123h-0.164c-0.104,0.058-0.133,0.204-0.077,0.449c0.05,0.243,0.133,0.286,0.241,0.121
	c-0.108,0-0.122-0.04-0.039-0.121c0.084-0.081,0.173-0.094,0.286-0.044C32.169,80.607,32.196,80.607,32.196,80.555z M32.521,79.258
	h0.407c0.053-0.109,0.028-0.168-0.082-0.168c-0.107,0-0.19-0.021-0.244-0.074C32.602,79.118,32.573,79.201,32.521,79.258z
	 M33.095,57.002c0-0.33-0.086-0.464-0.248-0.413C32.737,56.868,32.822,57.002,33.095,57.002z M34.879,56.673h0.406
	c0-0.159,0.082-0.305,0.244-0.443c0.161-0.136,0.108-0.253-0.162-0.368c-0.054,0.161-0.123,0.311-0.203,0.448
	C35.083,56.445,34.983,56.569,34.879,56.673z M35.772,56.023c0.378,0.113,0.514,0.03,0.405-0.243
	C35.906,55.781,35.772,55.862,35.772,56.023z M37.642,61.47c0-0.219,0.025-0.355,0.077-0.407c-0.16,0.051-0.269,0.051-0.322,0
	c-0.054-0.055-0.108-0.111-0.159-0.164c-0.115,0.109-0.099,0.216,0.035,0.323C37.405,61.332,37.528,61.416,37.642,61.47z
	 M37.395,55.213c0.161-0.108,0.341-0.139,0.528-0.083c0.189,0.056,0.34-0.057,0.447-0.323c-0.271,0.107-0.477,0.12-0.606,0.041
	C37.625,54.766,37.502,54.89,37.395,55.213z M38.208,55.862c0.381,0,0.572-0.108,0.572-0.322h-0.41
	C38.37,55.646,38.314,55.753,38.208,55.862z M41.213,55.862c0.162,0,0.298-0.108,0.407-0.322h-0.407V55.862z M41.703,55.62
	c0.108,0.105,0.213,0.147,0.323,0.122c0.106-0.032,0.135-0.122,0.083-0.292C41.945,55.406,41.812,55.45,41.703,55.62z
	 M41.863,60.574c0.107,0,0.177-0.031,0.204-0.084c0.023-0.051,0.095-0.131,0.203-0.239c-0.108-0.111-0.217-0.14-0.323-0.085
	C41.836,60.223,41.812,60.359,41.863,60.574z M42.026,56.673h0.408v-0.325h-0.325C42.109,56.512,42.082,56.623,42.026,56.673z
	 M42.109,82.993c0.105,0.106,0.211,0.121,0.325,0.044c0.105-0.082,0.214-0.178,0.323-0.285c-0.109,0-0.243,0.01-0.407,0.036
	C42.188,82.822,42.109,82.888,42.109,82.993z M42.835,55.541c-0.108,0-0.171-0.054-0.2-0.163c-0.029-0.111-0.121-0.163-0.285-0.163
	c-0.108,0.218-0.069,0.354,0.121,0.408C42.664,55.677,42.783,55.646,42.835,55.541z M43.487,56.023c0-0.161,0.052-0.314,0.165-0.443
	c0.104-0.136,0.214-0.288,0.325-0.449c-0.167-0.108-0.302-0.121-0.411-0.038c-0.106,0.08-0.272,0.069-0.484-0.042
	c-0.109,0.054-0.162,0.243-0.162,0.57c0.213,0,0.353,0.014,0.408,0.039c0.052,0.029,0.064,0.067,0.038,0.121
	c-0.031,0.055-0.038,0.109-0.038,0.164C43.328,55.997,43.38,56.023,43.487,56.023z M44.387,56.348c-0.113,0-0.113-0.052,0-0.163
	c-0.113,0.11-0.251,0.136-0.409,0.084c-0.167-0.051-0.277,0.052-0.325,0.321c0.158-0.105,0.292-0.145,0.407-0.117
	C44.166,56.504,44.273,56.46,44.387,56.348z M43.978,57.973h0.323v-0.246h-0.323V57.973z M44.623,56.589
	c0.107-0.051,0.189-0.105,0.244-0.161c0.052-0.051,0.138-0.133,0.245-0.243c-0.162,0-0.312,0.044-0.45,0.125
	C44.529,56.391,44.515,56.484,44.623,56.589z M45.597,82.668c0.056-0.104,0.153-0.16,0.285-0.16c0.14,0,0.178-0.084,0.124-0.244
	c-0.215-0.162-0.409-0.162-0.57,0C45.276,82.424,45.332,82.564,45.597,82.668z M45.597,54.236c0.274,0.057,0.463-0.051,0.572-0.324
	c0.106-0.27,0.162-0.433,0.162-0.489c-0.109,0.111-0.229,0.235-0.368,0.37C45.831,53.927,45.707,54.079,45.597,54.236z
	 M46.412,58.383c-0.057,0-0.081,0.051-0.081,0.159c0.104,0.054,0.229,0.029,0.364-0.08c0.136-0.106,0.149-0.192,0.039-0.244
	c0,0.165-0.107,0.188-0.324,0.081c-0.217-0.106-0.243-0.106-0.081,0C46.387,58.298,46.412,58.33,46.412,58.383z M46.249,54.236
	c0.217,0.057,0.341,0.01,0.367-0.117c0.024-0.138,0.173-0.181,0.447-0.127c-0.107-0.105-0.162-0.251-0.162-0.445
	c0-0.186-0.085-0.229-0.248-0.124c0.219,0.221,0.208,0.355-0.035,0.413C46.372,53.886,46.249,54.025,46.249,54.236z M46.98,82.182
	c0.108-0.049,0.255-0.049,0.449,0c0.186,0.053,0.258-0.022,0.198-0.246c-0.104,0-0.242,0-0.401,0
	C47.063,81.934,46.98,82.019,46.98,82.182z M47.876,82.668c0-0.104-0.032-0.216-0.087-0.32c-0.054-0.113-0.134-0.113-0.239,0
	c0.105,0.055,0.123,0.129,0.041,0.24C47.51,82.697,47.602,82.719,47.876,82.668z M49.742,75.848c0.27,0.105,0.476,0.092,0.607-0.041
	c0.135-0.138,0.288-0.312,0.452-0.527C50.257,75.492,49.904,75.68,49.742,75.848z M49.984,55.945
	c0.057-0.109,0.134-0.164,0.248-0.164c0.105,0,0.13-0.081,0.08-0.24c-0.106,0-0.221,0.05-0.328,0.159
	C49.875,55.805,49.875,55.89,49.984,55.945z M50.553,72.353c-0.271,0-0.406,0.026-0.406,0.079c0.216,0,0.351,0.029,0.406,0.084
	c0-0.055,0.032-0.137,0.085-0.242c0.048-0.111,0.027-0.162-0.085-0.162V72.353z M54.213,53.992c0.108,0,0.268-0.035,0.483-0.118
	c0.218-0.081,0.272-0.176,0.164-0.282c-0.113,0.104-0.234,0.173-0.364,0.201C54.357,53.82,54.267,53.886,54.213,53.992z
	 M54.453,53.104c0-0.11,0.068-0.164,0.204-0.164s0.205-0.081,0.205-0.242c-0.114,0-0.234,0.05-0.364,0.161
	C54.357,52.971,54.347,53.046,54.453,53.104z M55.104,55.45c0.271,0,0.529,0.021,0.772,0.047c0.243,0.023,0.444-0.092,0.606-0.366
	c-0.269,0-0.444-0.097-0.527-0.282c-0.081-0.191-0.121-0.257-0.121-0.205c0,0.271-0.108,0.406-0.326,0.406
	C55.293,55.049,55.158,55.187,55.104,55.45z M56.079,57.002c0.326,0.104,0.486-0.03,0.486-0.413
	C56.24,56.538,56.079,56.673,56.079,57.002z M58.922,56.589c0.052-0.161,0.106-0.185,0.159-0.077
	c0.056,0.108,0.136,0.133,0.245,0.077v-0.241c0-0.052-0.032-0.08-0.081-0.08c-0.055,0.107-0.164,0.15-0.325,0.122
	C58.761,56.368,58.761,56.429,58.922,56.589z M61.279,56.589c0,0.108,0.027,0.17,0.081,0.17c0-0.383-0.137-0.543-0.407-0.491
	c-0.107,0.159-0.079,0.234,0.081,0.204C61.191,56.445,61.279,56.484,61.279,56.589z M61.686,53.18c0-0.104,0.066-0.16,0.201-0.16
	c0.133,0,0.177-0.082,0.122-0.246h-0.323c0.051,0.114,0.027,0.196-0.084,0.246C61.494,53.074,61.521,53.127,61.686,53.18z
	 M61.602,56.673c0.16,0.111,0.339,0.088,0.524-0.083c0.191-0.161,0.155-0.269-0.117-0.321c0.055,0.159-0.015,0.234-0.203,0.204
	C61.611,56.445,61.547,56.512,61.602,56.673z M62.171,53.104c0.377,0,0.515-0.245,0.409-0.734c-0.164,0-0.297,0.08-0.409,0.246
	C62.063,52.774,62.063,52.938,62.171,53.104z M62.82,80.149c-0.107,0.112-0.23,0.112-0.365,0c-0.138-0.104-0.228-0.047-0.284,0.161
	h0.809c-0.104-0.161-0.117-0.32-0.039-0.49c0.084-0.16,0.039-0.242-0.12-0.242c-0.107,0.111-0.135,0.193-0.084,0.242
	C62.792,79.877,62.82,79.992,62.82,80.149z M62.578,52.208c0.107-0.218,0.158-0.407,0.158-0.57
	c-0.214-0.055-0.323,0.014-0.323,0.203C62.415,52.033,62.471,52.154,62.578,52.208z M62.82,56.589
	c0.159-0.105,0.351-0.171,0.569-0.199c0.214-0.024,0.323-0.173,0.323-0.446c-0.27-0.109-0.515-0.072-0.733,0.12
	C62.764,56.253,62.713,56.429,62.82,56.589z M62.906,55.45c-0.059,0.17-0.031,0.237,0.074,0.21c0.112-0.026,0.221-0.039,0.331-0.039
	v-0.243c-0.11-0.055-0.18-0.055-0.208,0C63.078,55.43,63.016,55.45,62.906,55.45z M63.227,57.726
	c0.106,0.111,0.22,0.129,0.326,0.042c0.106-0.075,0.188-0.17,0.244-0.279c-0.165,0.055-0.275,0.072-0.326,0.038
	C63.42,57.502,63.333,57.57,63.227,57.726z M65.092,57.16c0.059-0.11,0.143-0.11,0.248,0c0.106,0.114,0.188,0.054,0.244-0.159
	c-0.11-0.058-0.257-0.058-0.446,0C64.945,57.05,64.929,57.107,65.092,57.16z M65.584,50.418c0.105,0.168,0.228,0.273,0.365,0.327
	c0.135,0.054,0.204,0.191,0.204,0.411c0.107-0.162,0.228-0.271,0.365-0.331c0.129-0.053,0.2-0.212,0.2-0.483
	c-0.16-0.16-0.354-0.153-0.565,0.038C65.935,50.573,65.743,50.586,65.584,50.418z M67.291,63.902c0-0.103-0.06-0.131-0.163-0.082
	c-0.106,0.057-0.217,0.057-0.328,0c-0.053,0.113,0.033,0.203,0.242,0.287C67.261,64.191,67.342,64.119,67.291,63.902z M67.94,79.502
	c-0.055-0.162-0.029-0.174,0.078-0.039c0.107,0.132,0.193,0.116,0.242-0.041c-0.106-0.111-0.158-0.186-0.158-0.242
	c-0.114-0.061-0.191-0.029-0.246,0.08C67.806,79.367,67.831,79.445,67.94,79.502z M68.345,77.877c0-0.16,0.027-0.271,0.081-0.322
	h-0.483C67.886,77.661,68.019,77.768,68.345,77.877z M67.94,67.725c0.214,0,0.429-0.04,0.647-0.126
	c0.212-0.081,0.242-0.204,0.083-0.361c-0.11,0.271-0.23,0.376-0.365,0.32C68.168,67.507,68.049,67.558,67.94,67.725z M68.83,69.186
	c0.219,0.053,0.326-0.041,0.326-0.288c0-0.239-0.107-0.336-0.326-0.285V69.186z M69.479,63.012c-0.323,0-0.455,0.107-0.401,0.327
	c0.159-0.059,0.258-0.013,0.282,0.126c0.026,0.129,0.119,0.144,0.281,0.035c0-0.273-0.054-0.352-0.16-0.242
	C69.37,63.368,69.37,63.279,69.479,63.012z M70.053,77.877c-0.164,0.104-0.279,0.096-0.327-0.039
	c-0.053-0.14-0.138-0.097-0.246,0.121c0.162,0,0.284,0.023,0.365,0.076C69.929,78.094,69.999,78.034,70.053,77.877z M69.642,70.486
	c0.11-0.105,0.194-0.178,0.247-0.207c0.052-0.027,0.079-0.096,0.079-0.201c-0.106-0.055-0.216-0.01-0.326,0.119
	C69.533,70.34,69.533,70.432,69.642,70.486z M70.378,78.607c0.051-0.107,0.093-0.135,0.121-0.082
	c0.024,0.053,0.092,0.082,0.199,0.082v-0.324c-0.107-0.055-0.216-0.025-0.32,0.077C70.266,78.473,70.266,78.554,70.378,78.607z
	 M70.378,79.178c0.213-0.107,0.455-0.15,0.73-0.125c0.267,0.03,0.458-0.035,0.569-0.203c-0.111-0.271-0.328-0.324-0.65-0.159
	C70.698,78.85,70.482,79.016,70.378,79.178z M70.698,75.279c0.11,0,0.174,0.025,0.207,0.075c0.023,0.057,0.096,0.087,0.203,0.087
	c-0.054-0.16-0.031-0.285,0.081-0.365c0.107-0.086,0.081-0.172-0.081-0.283c0,0.158-0.068,0.242-0.203,0.242
	S70.698,75.117,70.698,75.279z M71.914,69.264c0.222-0.052,0.38-0.189,0.494-0.404c-0.114-0.107-0.221-0.107-0.326,0
	C71.974,68.969,71.914,69.102,71.914,69.264z M72.647,72.924v0.238c0,0.054,0.03,0.083,0.084,0.083c0-0.11,0.12-0.161,0.365-0.161
	c0.242,0,0.229-0.083-0.039-0.246C73.057,72.889,72.92,72.924,72.647,72.924z M72.813,71.217c0.051-0.109,0.173-0.152,0.367-0.124
	c0.186,0.03,0.278-0.037,0.278-0.207c-0.159-0.05-0.337-0.035-0.524,0.046C72.743,71.008,72.707,71.107,72.813,71.217z
	 M73.057,78.034c0.215,0,0.27,0.192,0.16,0.571h0.973c0.054-0.106,0.087-0.225,0.087-0.362c0-0.139,0.027-0.263,0.081-0.366
	c-0.165,0-0.274,0.028-0.328,0.082c-0.053,0.055-0.135,0.135-0.244,0.242c0.056-0.221-0.022-0.352-0.242-0.407
	C73.326,77.74,73.165,77.824,73.057,78.034z M75.493,77.629c0,0.223,0.053,0.261,0.16,0.126c0.108-0.134,0.163-0.126,0.163,0.039
	c0,0.11-0.055,0.163-0.163,0.163c-0.107,0-0.132,0.077-0.077,0.242c0.212,0.057,0.47,0.068,0.77,0.042
	c0.295-0.027,0.498-0.121,0.605-0.286c-0.537,0.219-0.672,0.111-0.405-0.329c-0.163-0.048-0.258-0.007-0.284,0.126
	c-0.03,0.135-0.123,0.172-0.288,0.123c0-0.271,0.042-0.461,0.126-0.569c0.078-0.106,0.146-0.241,0.204-0.411
	c-0.272,0.057-0.446,0.219-0.53,0.492C75.697,77.661,75.603,77.74,75.493,77.629z M75.899,76.332c0,0.273,0.081,0.412,0.242,0.412
	c0-0.113,0.054-0.178,0.165-0.205c0.107-0.03,0.186-0.098,0.242-0.207c-0.11-0.107-0.203-0.122-0.286-0.038
	C76.182,76.374,76.062,76.386,75.899,76.332z M77.04,75.44c0.102,0.106,0.241,0.135,0.404,0.081c0.161-0.047,0.188-0.19,0.081-0.404
	c-0.272,0.053-0.382,0.009-0.322-0.129c0.05-0.132,0-0.23-0.162-0.277c-0.058,0.323-0.153,0.387-0.288,0.199
	c-0.132-0.188-0.258-0.118-0.366,0.207c0.108,0,0.18,0.025,0.204,0.078c0.03,0.053,0.069,0.084,0.123,0.084
	c0.107-0.16,0.259-0.218,0.447-0.16C77.346,75.17,77.307,75.279,77.04,75.44z M78.173,75.925c0.106,0.056,0.205,0.105,0.286,0.169
	c0.081,0.045,0.144,0,0.201-0.169c-0.105,0-0.189-0.051-0.238-0.159C78.366,75.656,78.279,75.71,78.173,75.925z M81.911,77.223
	h0.323c-0.054-0.107-0.038-0.199,0.041-0.283c0.079-0.082,0.067-0.119-0.041-0.119c0.058,0.109,0,0.164-0.16,0.164
	C81.911,76.985,81.854,77.066,81.911,77.223z M82.073,68.779c0.161,0,0.296-0.111,0.407-0.326c-0.111-0.049-0.205-0.08-0.286-0.08
	c-0.079,0-0.175-0.06-0.286-0.16C81.911,68.374,81.961,68.562,82.073,68.779z M82.48,53.18c0.104-0.209,0.174-0.405,0.2-0.563
	c0.028-0.166,0.096-0.299,0.204-0.408c-0.216,0-0.351,0.051-0.404,0.161c0.217,0.111,0.2,0.246-0.039,0.405
	C82.194,52.938,82.206,53.074,82.48,53.18z M83.369,49.609c0.272,0,0.435,0.017,0.49,0.038c0.057,0.028,0.136-0.01,0.244-0.114
	c-0.058,0.104-0.081,0.196-0.081,0.281c0,0.077,0.135,0.118,0.407,0.118c-0.054-0.219-0.03-0.351,0.081-0.399
	c0.107-0.06,0.161-0.169,0.161-0.333c-0.329,0.054-0.515-0.025-0.568-0.236c-0.108,0.108-0.228,0.213-0.368,0.32
	C83.602,49.396,83.481,49.498,83.369,49.609z M83.453,53.992h0.65v-0.4c-0.108,0.05-0.244,0.09-0.407,0.116
	C83.534,53.74,83.453,53.834,83.453,53.992z M84.511,76.744c0.27,0.156,0.646,0.188,1.136,0.077c0.489-0.111,0.621-0.27,0.406-0.487
	c-0.216,0.107-0.5,0.135-0.851,0.081C84.846,76.363,84.618,76.467,84.511,76.744z M85.404,48.876
	c0.16,0.111,0.283,0.097,0.363-0.044c0.081-0.126,0.069-0.256-0.035-0.362c0,0.106-0.072,0.164-0.21,0.164
	C85.389,48.634,85.352,48.715,85.404,48.876z M91.493,55.049c0.545,0,0.814-0.216,0.814-0.65c-0.27,0.054-0.477,0.107-0.611,0.164
	C91.562,54.621,91.493,54.783,91.493,55.049z M91.493,73.245c0.057,0.106,0.177,0.14,0.366,0.079c0.19-0.052,0.34-0.189,0.448-0.4
	c-0.221,0.048-0.404,0.077-0.566,0.077C91.576,73.001,91.493,73.084,91.493,73.245z M91.493,75.604
	c1.087-0.272,1.733-0.892,1.952-1.873c-0.162,0-0.272,0.031-0.327,0.088c-0.054,0.054-0.136,0.027-0.245-0.088
	c0.109,0.324-0.027,0.438-0.402,0.324c0.052-0.104,0.094-0.17,0.121-0.195c0.025-0.032,0.042-0.098,0.042-0.203
	c-0.219,0.104-0.354,0.143-0.409,0.113c-0.055-0.021-0.139-0.039-0.244-0.039c0.056,0.324,0,0.614-0.161,0.857
	C91.657,74.83,91.55,75.17,91.493,75.604z M91.576,75.848c0.216,0.054,0.435,0.039,0.65-0.041c0.216-0.082,0.189-0.176-0.081-0.285
	c-0.059,0.107-0.163,0.147-0.326,0.119C91.657,75.616,91.576,75.68,91.576,75.848z M91.982,74.55c0.271,0,0.408,0.106,0.408,0.321
	c-0.109,0.109-0.22,0.139-0.329,0.078C91.954,74.902,91.93,74.758,91.982,74.55z M92.146,65.609c0.325,0,0.539-0.189,0.649-0.568
	c-0.11,0-0.161-0.008-0.161-0.041c0-0.021-0.054-0.037-0.162-0.037c0.108,0.271,0.067,0.395-0.121,0.362
	C92.162,65.303,92.087,65.397,92.146,65.609z M92.634,54.565c0.272-0.057,0.476-0.095,0.607-0.127
	c0.137-0.02,0.342-0.064,0.608-0.115c-0.108-0.27-0.339-0.367-0.692-0.29C92.811,54.119,92.634,54.292,92.634,54.565z M93.93,57.16
	c-0.27,0.054-0.323,0.013-0.16-0.119c0.16-0.138,0.134-0.227-0.085-0.282c0.057,0.156,0,0.225-0.163,0.204
	c-0.16-0.032-0.188,0.038-0.078,0.197c0.109-0.053,0.207-0.024,0.286,0.082C93.811,57.354,93.881,57.321,93.93,57.16z
	 M93.606,47.093c0.054-0.107,0.095-0.223,0.123-0.331c0.027-0.101,0.065-0.213,0.12-0.323c-0.216-0.051-0.353,0.032-0.406,0.245
	C93.39,46.898,93.445,47.035,93.606,47.093z M93.686,73.164c0.109,0.16,0.244,0.257,0.407,0.287c0.16,0.026,0.297-0.045,0.409-0.205
	c0.106-0.16,0.082-0.229-0.078-0.203c-0.171,0.027-0.194-0.04-0.085-0.205c0.486,0.108,0.84,0,1.056-0.322
	c0.218-0.326,0.515-0.562,0.892-0.733c-0.104,0.054-0.191,0.04-0.242-0.038c-0.057-0.08-0.109-0.15-0.162-0.203
	c-0.054-0.059-0.096-0.096-0.124-0.12c-0.026-0.032-0.09,0.011-0.203,0.12c-0.106,0.32-0.395,0.58-0.85,0.771
	C94.241,72.503,93.904,72.788,93.686,73.164z M94.825,52.697h0.569c-0.055-0.165-0.029-0.32,0.085-0.446
	c0.104-0.138,0.075-0.233-0.085-0.288c-0.055,0.222-0.163,0.338-0.324,0.361C94.907,52.356,94.825,52.482,94.825,52.697z
	 M95.151,63.656c0.328-0.098,0.595-0.145,0.809-0.117c0.222,0.031,0.38-0.068,0.489-0.281c-0.217,0-0.445,0.012-0.692,0.033
	C95.52,63.326,95.313,63.445,95.151,63.656z M95.231,71.217c0.108,0,0.188-0.029,0.248-0.081c0.053-0.06,0.16-0.06,0.322,0
	c-0.056-0.112-0.07-0.25-0.044-0.408c0.028-0.167-0.012-0.243-0.118-0.243c-0.107,0.109-0.177,0.227-0.205,0.364
	C95.409,70.982,95.34,71.107,95.231,71.217z M95.555,53.423c0.058-0.105,0.067-0.226,0.043-0.363c-0.03-0.131-0.096-0.2-0.203-0.2
	C95.286,53.18,95.34,53.371,95.555,53.423z M96.858,61.873c-0.162,0.104-0.245,0.132-0.245,0.078c0-0.045-0.109-0.078-0.327-0.078
	c-0.051,0.161-0.149,0.353-0.281,0.568c-0.136,0.22-0.284,0.244-0.45,0.084c-0.053-0.222,0.017-0.299,0.203-0.244
	c0.191,0.053,0.259,0,0.202-0.164c-0.104,0-0.186-0.039-0.236-0.126c-0.054-0.075-0.141-0.085-0.242-0.038
	c-0.061,0.222-0.087,0.437-0.087,0.656c0,0.216,0.087,0.375,0.245,0.48c0.162-0.164,0.404-0.351,0.73-0.562
	c0.111,0.107,0.096,0.207-0.043,0.281c-0.134,0.086-0.229,0.176-0.283,0.283c0.38-0.051,0.652-0.213,0.814-0.481
	c-0.111-0.272-0.274-0.409-0.488-0.409c0.111-0.107,0.216-0.162,0.326-0.162C96.808,62.039,96.858,61.979,96.858,61.873z
	 M95.96,60.086c-0.051-0.161,0.019-0.227,0.207-0.199c0.188,0.023,0.257-0.04,0.203-0.207c-0.109-0.054-0.241-0.023-0.41,0.082
	C95.802,59.867,95.802,59.982,95.96,60.086z M95.96,51.72c0-0.107,0.057-0.149,0.168-0.125c0.104,0.031,0.158-0.012,0.158-0.115
	c-0.103,0-0.214-0.054-0.326-0.166c0,0.054-0.025,0.135-0.078,0.239C95.828,51.67,95.855,51.72,95.96,51.72z M95.96,60.898
	c-0.051,0.275-0.065,0.434-0.036,0.488c0.027,0.055,0.013,0.188-0.04,0.406c0.271,0.057,0.443,0.019,0.528-0.127
	c0.084-0.129,0.286-0.17,0.606-0.113c0-0.109,0.028-0.164,0.085-0.164c-0.107-0.166-0.15-0.283-0.125-0.363
	c0.026-0.088-0.014-0.204-0.117-0.365c-0.275,0.055-0.435,0.094-0.489,0.12C96.314,60.805,96.182,60.844,95.96,60.898z
	 M96.613,70.324v-0.328c-0.162-0.053-0.273-0.038-0.327,0.042c-0.054,0.079-0.135,0.069-0.242-0.042
	C96.044,70.213,96.232,70.324,96.613,70.324z M96.369,57.973c-0.055-0.161-0.109-0.15-0.163,0.046
	c-0.055,0.184-0.024,0.172,0.08-0.046c0.109,0.112,0.312,0.112,0.608,0c0.302-0.107,0.501-0.246,0.613-0.403
	c-0.112-0.054-0.231-0.04-0.371,0.037c-0.135,0.087-0.307,0.068-0.523-0.037c-0.111,0.104-0.135,0.191-0.081,0.241
	C96.584,57.865,96.532,57.922,96.369,57.973z M96.206,58.709c0.326,0,0.489-0.055,0.489-0.167
	C96.532,58.383,96.369,58.434,96.206,58.709z M97.101,73.164c-0.104-0.053-0.138-0.096-0.084-0.121
	c0.056-0.027,0.111-0.07,0.165-0.117c0.051-0.057,0.095-0.095,0.12-0.129c0.028-0.021-0.014-0.064-0.12-0.119
	c-0.109,0.055-0.23,0.11-0.363,0.16c-0.14,0.051-0.26,0.031-0.367-0.08c0,0.326,0.081,0.487,0.244,0.487
	c0.049-0.11,0.123-0.113,0.199-0.04C96.979,73.287,97.047,73.272,97.101,73.164z M96.613,73.73c0.107,0.276,0.131,0.465,0.082,0.572
	c-0.057,0.111-0.137,0.271-0.244,0.489c0.379-0.11,0.565-0.121,0.565-0.044c0,0.082,0.056,0.178,0.165,0.287
	c0.051-0.277,0.106-0.363,0.16-0.287c0.053,0.082,0.188,0.069,0.409-0.036c0-0.272-0.163-0.409-0.491-0.409
	c0,0.159-0.054,0.247-0.159,0.247c-0.161,0-0.242-0.089-0.242-0.247c0.104-0.053,0.214-0.097,0.323-0.121
	c0.106-0.031,0.214-0.064,0.326-0.127c-0.112-0.16-0.126-0.305-0.042-0.439c0.081-0.139,0.066-0.262-0.042-0.369
	c-0.107,0.107-0.197,0.23-0.287,0.369C97.056,73.75,96.884,73.783,96.613,73.73z M97.424,47.173c-0.107,0-0.163-0.112-0.163-0.327
	c-0.214,0-0.352,0.079-0.402,0.247c0.104,0,0.23,0.034,0.368,0.117C97.361,47.291,97.424,47.277,97.424,47.173z M96.858,51.638
	c0.216-0.212,0.393-0.363,0.527-0.444c0.133-0.086,0.336-0.039,0.607,0.119c0.056-0.268,0.178-0.377,0.367-0.322
	c0.192,0.054,0.394,0,0.608-0.167c-0.273-0.268-0.541-0.284-0.812-0.037c-0.273,0.24-0.485,0.259-0.648,0.037
	c-0.22,0.06-0.356,0.167-0.407,0.331C97.047,51.313,96.963,51.479,96.858,51.638z M97.017,58.625c0-0.055,0.084-0.084,0.243-0.084
	c0.054,0.053,0.07,0.096,0.042,0.123c-0.027,0.029,0.012,0.043,0.122,0.043c0-0.326-0.11-0.49-0.324-0.49
	c0,0.111-0.056,0.188-0.16,0.244C96.83,58.514,96.858,58.57,97.017,58.625z M97.101,69.597c0,0.214-0.028,0.349-0.084,0.401
	c0.379-0.053,0.654-0.242,0.814-0.571c-0.16,0-0.285,0.038-0.365,0.124C97.382,69.632,97.26,69.648,97.101,69.597z M97.101,46.439
	c0.16,0,0.261-0.039,0.285-0.12c0.025-0.089,0.147-0.069,0.365,0.042c0-0.225-0.123-0.29-0.365-0.202
	C97.137,46.23,97.047,46.331,97.101,46.439z M97.26,51.72c0.054-0.107,0.136-0.149,0.248-0.125c0.108,0.031,0.135-0.012,0.08-0.115
	c-0.106-0.112-0.218-0.112-0.328,0C97.151,51.583,97.151,51.67,97.26,51.72z M98.805,82.262c0.164,0,0.245,0.053,0.245,0.161
	c0.216,0,0.448,0.021,0.688,0.042c0.246,0.025,0.423-0.014,0.53-0.118c-0.106-0.114-0.245-0.129-0.41-0.044
	c-0.16,0.084-0.239,0.068-0.239-0.041c0.051-0.103,0.119-0.162,0.2-0.162c0.084,0,0.096-0.081,0.039-0.242
	c-0.268-0.054-0.5-0.054-0.688,0C98.981,81.906,98.858,82.048,98.805,82.262z M99.05,51.072c0.328,0,0.485-0.08,0.485-0.247
	c-0.107,0.06-0.177,0.042-0.202-0.037c-0.031-0.082-0.095-0.123-0.202-0.123C99.133,50.884,99.101,51.016,99.05,51.072z
	 M100.023,46.362c0-0.111,0.139-0.168,0.407-0.168c0.272,0,0.299-0.057,0.08-0.161c-0.054,0.104-0.184,0.138-0.403,0.085
	C99.89,46.062,99.858,46.137,100.023,46.362z M102.622,48.065c0.16,0.107,0.272,0.035,0.326-0.208
	c0.054-0.237-0.029-0.332-0.242-0.28c0.051,0.11,0.039,0.187-0.042,0.245C102.583,47.88,102.566,47.956,102.622,48.065z
	 M102.706,46.925c0.321,0.11,0.539,0.062,0.648-0.161c-0.109-0.101-0.232-0.128-0.364-0.078
	C102.853,46.741,102.757,46.816,102.706,46.925z M104.493,82.348c0.108,0.104,0.188,0.129,0.243,0.076
	c0.054-0.051,0.08-0.135,0.08-0.242c0-0.104-0.026-0.186-0.08-0.246c-0.056-0.047-0.108-0.047-0.159,0
	c0.159,0.061,0.188,0.125,0.081,0.211C104.541,82.219,104.493,82.289,104.493,82.348z M107.498,81.934
	c-0.109-0.102-0.22-0.102-0.325,0c-0.11,0.113-0.083,0.225,0.083,0.328c0.109-0.215,0.217-0.215,0.321,0
	c0.109,0.215,0.195,0.215,0.243,0c-0.105,0-0.134-0.07-0.08-0.202c0.056-0.135,0.056-0.228,0-0.286
	c-0.217,0-0.327,0.029-0.327,0.082C107.526,81.857,107.554,81.887,107.498,81.934z M107.498,80.801
	c0.056,0.109,0.07,0.203,0.043,0.287c-0.029,0.08,0.013,0.119,0.12,0.119c0.051-0.107,0.108-0.107,0.159,0
	c0.054,0.109,0.138,0.109,0.248,0c0.104-0.107,0.124-0.191,0.039-0.248c-0.081-0.047-0.175-0.135-0.289-0.238
	C107.82,80.771,107.715,80.801,107.498,80.801z M107.74,44.328c0.218,0.056,0.353,0,0.404-0.16c0.056-0.162,0.028-0.301-0.076-0.406
	c0,0.164-0.056,0.257-0.161,0.282C107.796,44.074,107.74,44.168,107.74,44.328z M108.638,73.164
	c0.054,0.108,0.158,0.154,0.321,0.123c0.163-0.03,0.271-0.07,0.325-0.123c0-0.218-0.039-0.498-0.123-0.853
	c-0.079-0.351-0.135-0.704-0.161-1.055c-0.025-0.351,0-0.675,0.084-0.979c0.079-0.294,0.256-0.5,0.526-0.608
	c-0.056-0.103-0.067-0.23-0.042-0.363c0.03-0.14-0.014-0.172-0.116-0.121c0,0.268-0.3,0.411-0.896,0.411
	c-0.217,0.372-0.217,0.683,0,0.927c0.216,0.246,0.191,0.64-0.081,1.18c0.106,0.159,0.241,0.299,0.407,0.408
	c-0.11,0.162-0.203,0.377-0.286,0.648c-0.082,0.275-0.257,0.326-0.526,0.166c-0.056,0.271-0.109,0.443-0.16,0.525
	c-0.063,0.08-0.033,0.256,0.074,0.529c0.162-0.107,0.355-0.153,0.572-0.119c0.216,0.024,0.326-0.041,0.326-0.204
	c-0.272,0.104-0.436,0.075-0.491-0.083C108.338,73.404,108.419,73.272,108.638,73.164z M108.88,69.024
	c0-0.163-0.084-0.243-0.242-0.243c0.054,0.158,0.054,0.27,0,0.321c-0.058,0.057-0.112,0.137-0.165,0.245h0.567
	c-0.056-0.273,0-0.377,0.16-0.323c0.165,0.05,0.303,0.026,0.409-0.085c-0.106,0-0.16-0.105-0.16-0.326
	c-0.221,0.055-0.381,0-0.49-0.159c0.109-0.325,0.241-0.484,0.406-0.484c-0.108,0.053-0.15,0.136-0.12,0.244
	c0.025,0.101,0.095,0.192,0.207,0.24c-0.058-0.378-0.058-0.675,0-0.896c0.051-0.216,0.051-0.431,0-0.644
	c-0.275,0.053-0.398,0.27-0.368,0.644c0.026,0.38-0.123,0.656-0.445,0.816c0.106,0,0.211,0.106,0.322,0.317
	C109.068,68.912,109.04,69.024,108.88,69.024z M109.449,64.634c0.103,0.327,0.079,0.489-0.086,0.489
	c-0.163,0-0.271,0.08-0.324,0.242c0.278,0.054,0.479,0.083,0.61,0.083s0.283,0.054,0.443,0.159c0-0.159,0.054-0.394,0.167-0.686
	c0.103-0.299,0.052-0.447-0.167-0.447c0,0.159-0.078,0.242-0.24,0.242C109.691,64.717,109.554,64.688,109.449,64.634z M109.2,52.287
	c0.117,0.055,0.249,0.085,0.409,0.085c0.163,0,0.245-0.111,0.245-0.324c-0.114,0.051-0.217,0.079-0.326,0.079
	C109.422,52.125,109.317,52.185,109.2,52.287z M109.2,66.665c0.328,0.11,0.515,0.223,0.572,0.321
	c0.107-0.099,0.245-0.301,0.41-0.604c0.158-0.293,0.102-0.528-0.165-0.691c0,0.113-0.054,0.148-0.161,0.123
	c-0.114-0.027-0.162-0.01-0.162,0.04c0.048,0.112,0.123,0.19,0.203,0.243c0.08,0.057,0.123,0.161,0.123,0.328
	c-0.109,0-0.194,0.026-0.245,0.082c-0.057,0.049-0.163,0.081-0.323,0.081c0-0.059-0.016-0.081-0.042-0.081
	c-0.03,0-0.042-0.033-0.042-0.082c0.107-0.061,0.188-0.205,0.244-0.451c0.055-0.242-0.028-0.341-0.244-0.285
	c-0.108,0.114-0.135,0.256-0.081,0.447C109.338,66.329,109.317,66.508,109.2,66.665z M109.365,50.014
	c0.326,0,0.461-0.108,0.41-0.327c-0.165-0.05-0.258-0.04-0.285,0.04C109.458,49.812,109.422,49.906,109.365,50.014z M109.365,51.479
	c0.107,0,0.177-0.043,0.203-0.123c0.028-0.083,0.069-0.181,0.123-0.287c-0.111,0-0.162-0.026-0.162-0.08
	c0-0.056-0.055-0.083-0.161-0.083v0.572H109.365z M110.264,52.046c0.102-0.163,0.266-0.218,0.481-0.163
	c0-0.331-0.132-0.423-0.407-0.288C110.071,51.735,110.042,51.884,110.264,52.046z M111.806,45.298c0.32,0,0.509-0.046,0.571-0.158
	c-0.223-0.111-0.357-0.163-0.41-0.163C111.967,45.086,111.911,45.197,111.806,45.298z M114.162,63.258
	c0.102,0.11,0.197,0.116,0.284,0.033c0.082-0.08,0.171-0.064,0.281,0.047c-0.054-0.111-0.067-0.189-0.039-0.249
	c0.03-0.05-0.015-0.078-0.123-0.078c0.055,0.164-0.015,0.2-0.203,0.119C114.171,63.055,114.102,63.089,114.162,63.258z
	 M114.404,74.712c0.27-0.108,0.458-0.25,0.568-0.409c-0.161,0.055-0.287,0.066-0.365,0.042
	C114.527,74.312,114.457,74.439,114.404,74.712z M115.943,54.079c0.115,0.158,0.191,0.188,0.245,0.08
	c0.057-0.104,0.137-0.188,0.246-0.245C116.216,53.912,116.059,53.969,115.943,54.079z M118.626,81.123
	c0.106,0.059,0.203,0.018,0.284-0.119c0.084-0.135,0.069-0.232-0.04-0.284c-0.05,0.103-0.106,0.175-0.16,0.206
	C118.653,80.951,118.626,81.016,118.626,81.123z M118.787,81.774h0.246c0-0.104,0.011-0.157,0.037-0.157
	c0.028,0,0.042-0.061,0.042-0.168h-0.326L118.787,81.774L118.787,81.774z M118.868,54.972h0.569c0-0.215-0.108-0.327-0.323-0.327
	c0,0.112-0.03,0.163-0.081,0.163C118.978,54.808,118.924,54.864,118.868,54.972z M119.929,54.808c0.431,0,0.672-0.087,0.729-0.243
	c-0.109,0.106-0.253,0.129-0.446,0.08C120.02,54.591,119.929,54.645,119.929,54.808z M120.817,81.207
	c-0.106,0-0.147-0.066-0.116-0.203c0.023-0.135-0.044-0.203-0.204-0.203c-0.113,0.109-0.094,0.244,0.036,0.406
	C120.671,81.365,120.767,81.365,120.817,81.207z M120.657,55.541c-0.109,0.159-0.017,0.214,0.283,0.159
	c0.301-0.055,0.449-0.133,0.449-0.25c-0.219-0.043-0.365-0.043-0.449,0C120.859,55.51,120.767,55.541,120.657,55.541z
	 M122.036,53.506c-0.106-0.055-0.191-0.135-0.241-0.243c-0.055-0.108-0.187-0.135-0.408-0.083c-0.106,0.219-0.028,0.342,0.245,0.367
	C121.901,53.573,122.036,53.56,122.036,53.506z M123.824,61.793c0.057,0.057,0.191,0.07,0.405,0.042
	c0.22-0.024,0.352-0.128,0.409-0.284c-0.055,0-0.084-0.082-0.084-0.244C124.229,61.416,123.987,61.574,123.824,61.793z
	 M126.749,79.42c-0.106-0.219-0.051-0.302,0.165-0.242c0.215,0.057,0.27,0,0.158-0.16h-0.323c0.107,0.101,0.107,0.186,0,0.241
	C126.642,79.31,126.642,79.367,126.749,79.42z M127.806,81.207c-0.055,0.109-0.032,0.177,0.084,0.201
	c0.108,0.027,0.213,0.041,0.323,0.041c0.106,0,0.185-0.025,0.24-0.084c0.055-0.049,0.055-0.104,0-0.16
	C128.294,81.365,128.077,81.365,127.806,81.207z M127.806,62.443c0.379-0.107,0.592-0.217,0.647-0.326c-0.159,0-0.322,0-0.485,0
	C127.806,62.117,127.751,62.227,127.806,62.443z M128.453,79.578c0.164,0.111,0.301,0.053,0.407-0.16
	c-0.105-0.109-0.215-0.146-0.323-0.119C128.423,79.326,128.397,79.42,128.453,79.578z M129.432,79.502
	c0-0.111,0.081-0.162,0.238-0.162c0.169,0,0.223-0.081,0.169-0.248c-0.169-0.047-0.302-0.021-0.41,0.088
	C129.321,79.285,129.321,79.389,129.432,79.502z M129.839,64.556h0.322V64.23h-0.243c0,0.104-0.018,0.158-0.043,0.158
	C129.848,64.387,129.839,64.441,129.839,64.556z M131.297,56.589c-0.27-0.051-0.434-0.171-0.486-0.359
	c-0.057-0.184-0.136-0.34-0.245-0.449c0,0.218-0.041,0.392-0.118,0.529c-0.081,0.136-0.042,0.281,0.118,0.451
	c0.109-0.062,0.136-0.138,0.085-0.247c-0.054-0.107-0.03-0.164,0.082-0.164c0.05,0.112,0.147,0.205,0.286,0.284
	C131.147,56.718,131.246,56.699,131.297,56.589z M131.297,63.418c0.215,0,0.378-0.139,0.491-0.407
	c-0.113,0.054-0.22,0.099-0.328,0.119C131.348,63.16,131.297,63.258,131.297,63.418z M132.923,64.877
	c-0.107,0-0.133-0.029-0.084-0.084c0.055,0,0.135-0.049,0.246-0.159c0,0.159,0.054,0.355,0.16,0.569
	c0.271,0.057,0.449,0.03,0.528-0.08c0.084-0.109,0.177-0.217,0.284-0.33c-0.27-0.049-0.416-0.076-0.443-0.076
	c-0.026,0,0.013-0.084,0.122-0.242h-0.813c-0.107,0.104-0.164,0.225-0.164,0.361C132.759,64.979,132.815,64.992,132.923,64.877z
	 M137.31,60.086c0.107-0.055,0.228-0.082,0.365-0.082c0.135,0,0.255-0.051,0.364-0.158c-0.109-0.166-0.229-0.205-0.364-0.127
	C137.537,59.805,137.417,59.925,137.31,60.086z M138.689,80.149c0.275,0.112,0.275,0.265,0,0.449
	c-0.272,0.194-0.518,0.257-0.73,0.202c-0.054-0.27,0.027-0.422,0.247-0.447C138.417,80.326,138.582,80.264,138.689,80.149z
	 M138.121,60.086c0.163,0.053,0.245-0.031,0.245-0.239c0-0.221-0.057-0.327-0.158-0.327
	C138.146,59.627,138.121,59.817,138.121,60.086z M138.852,55.213c0.165,0,0.191,0.052,0.084,0.163h0.244
	c0-0.163-0.028-0.246-0.081-0.246c-0.056,0-0.028-0.057,0.081-0.159c-0.218,0-0.328,0.026-0.328,0.079
	C138.962,55.049,138.962,55.104,138.852,55.213z M139.099,56.023c0.158,0.06,0.268,0.041,0.325-0.034
	c0.048-0.088,0.133-0.154,0.242-0.209c-0.162,0-0.314,0-0.452,0C139.082,55.781,139.043,55.862,139.099,56.023z"/>
<g>
	<path fill="#FFFFFF" stroke="#FFFFFF" stroke-width="0.5" stroke-miterlimit="10" d="M7.89,81.403l-0.94,0.147L6.346,77.75
		l0.945-0.146c0.158,0.873,0.559,1.549,1.194,2.018c0.634,0.471,1.496,0.619,2.584,0.449c1.087-0.174,1.816-0.492,2.188-0.963
		c0.375-0.465,0.497-1.104,0.372-1.907c-0.129-0.802-0.375-1.343-0.741-1.622c-0.368-0.281-0.981-0.434-1.844-0.467l-1.621-0.047
		c-1.294-0.047-2.214-0.268-2.759-0.661c-0.543-0.397-0.909-1.173-1.095-2.325c-0.182-1.159-0.04-2.095,0.414-2.818
		c0.46-0.72,1.372-1.189,2.745-1.406c1.593-0.252,2.788,0.109,3.585,1.089l-0.213-1.372l0.943-0.15l0.492,3.133l-0.939,0.151
		c-0.479-1.515-1.626-2.127-3.439-1.837C8.1,69.036,7.412,69.367,7.1,69.86c-0.312,0.492-0.407,1.146-0.281,1.956
		c0.129,0.811,0.351,1.347,0.667,1.608c0.315,0.265,0.919,0.411,1.803,0.435l1.6,0.057c1.319,0.041,2.265,0.269,2.844,0.674
		c0.575,0.409,0.958,1.185,1.139,2.328c0.179,1.144,0.022,2.066-0.483,2.773c-0.503,0.705-1.527,1.18-3.073,1.424
		c-1.547,0.246-2.765-0.161-3.662-1.223L7.89,81.403z"/>
	<path fill="#FFFFFF" stroke="#FFFFFF" stroke-width="0.5" stroke-miterlimit="10" d="M17.408,79.893l-0.14-0.877l1.047-0.17
		l-1.759-11.084l-1.048,0.164l-0.139-0.881l8.2-1.299l0.44,2.781l-0.975,0.154l-0.278-1.744l-4.917,0.782l0.752,4.749l5.022-0.796
		l0.169,1.053l-5.024,0.798l0.788,4.961l5.267-0.834l-0.275-1.741l0.975-0.153l0.443,2.781L17.408,79.893z"/>
	<path fill="#FFFFFF" stroke="#FFFFFF" stroke-width="0.5" stroke-miterlimit="10" d="M33.842,64.119l0.943-0.149l0.604,3.802
		l-0.944,0.149c-0.225-0.964-0.613-1.661-1.162-2.1c-0.554-0.435-1.382-0.562-2.486-0.388c-1.139,0.18-1.927,0.628-2.36,1.347
		c-0.358,0.611-0.479,1.57-0.371,2.874c0.037,0.512,0.116,1.166,0.241,1.966c0.126,0.798,0.242,1.428,0.346,1.891
		c0.104,0.466,0.262,0.956,0.474,1.477c0.213,0.519,0.464,0.894,0.753,1.128c0.668,0.544,1.579,0.721,2.731,0.539
		c1.151-0.182,1.896-0.563,2.24-1.148c0.342-0.582,0.457-1.331,0.35-2.254l1.035-0.113c0.058,0.64,0.053,1.194-0.007,1.65
		c-0.056,0.461-0.193,0.901-0.416,1.322c-0.44,0.813-1.406,1.341-2.896,1.576c-1.467,0.232-2.572,0.131-3.32-0.303
		c-0.396-0.236-0.728-0.511-1.007-0.82c-0.276-0.312-0.511-0.735-0.702-1.271c-0.327-0.873-0.599-1.967-0.805-3.272
		c-0.208-1.307-0.312-2.34-0.318-3.097c-0.01-0.758,0.098-1.469,0.318-2.144c0.222-0.672,0.625-1.201,1.207-1.585
		c0.582-0.391,1.362-0.662,2.338-0.814c1.524-0.242,2.662,0.106,3.419,1.045L33.842,64.119z"/>
	<path fill="#FFFFFF" stroke="#FFFFFF" stroke-width="0.5" stroke-miterlimit="10" d="M36.848,64.544l-0.139-0.88l3.349-0.532
		l0.14,0.88l-1.048,0.167l1.225,7.725c0.231,1.469,0.728,2.369,1.482,2.704c0.361,0.161,0.715,0.252,1.071,0.275
		s0.773-0.009,1.256-0.083c0.482-0.076,0.889-0.181,1.218-0.31c0.334-0.129,0.649-0.331,0.954-0.592
		c0.615-0.557,0.807-1.566,0.576-3.033l-1.226-7.727l-1.046,0.168l-0.14-0.881l3.348-0.532l0.14,0.882l-1.048,0.166l1.227,7.725
		c0.236,1.502,0.104,2.658-0.396,3.472c-0.208,0.358-0.509,0.662-0.903,0.909c-0.395,0.25-0.787,0.43-1.164,0.538
		c-0.384,0.11-0.845,0.206-1.379,0.291c-0.536,0.085-0.997,0.134-1.389,0.148c-0.39,0.014-0.81-0.038-1.259-0.153
		c-0.448-0.115-0.824-0.309-1.132-0.586c-0.729-0.618-1.213-1.68-1.451-3.181l-1.225-7.722L36.848,64.544z"/>
	<path fill="#FFFFFF" stroke="#FFFFFF" stroke-width="0.5" stroke-miterlimit="10" d="M54.938,68.441L53.56,68.66l0.712,4.486
		l1.046-0.167l0.14,0.882l-3.347,0.532l-0.141-0.883l1.047-0.165L51.26,62.258l-1.048,0.17l-0.137-0.883l4.707-0.746
		c1.863-0.295,3.105,0.053,3.727,1.049c0.207,0.33,0.356,0.647,0.448,0.961c0.094,0.308,0.172,0.688,0.242,1.131
		c0.069,0.447,0.108,0.838,0.117,1.172c0.004,0.34-0.042,0.689-0.14,1.049c-0.18,0.738-0.72,1.302-1.63,1.685
		c0.365,0.185,0.711,0.524,1.041,1.026l2.057,3.266l1.081-0.174l0.139,0.88l-2.044,0.325l-2.424-3.892
		c-0.287-0.45-0.612-0.723-0.972-0.83C56.062,68.344,55.567,68.342,54.938,68.441z M53.396,67.621l2.406-0.381
		c1.118-0.181,1.799-0.562,2.038-1.151c0.119-0.295,0.185-0.591,0.191-0.882c0.005-0.291-0.023-0.648-0.091-1.074
		c-0.067-0.431-0.151-0.783-0.248-1.053c-0.096-0.275-0.251-0.533-0.454-0.775c-0.41-0.488-1.173-0.645-2.293-0.467l-2.405,0.379
		L53.396,67.621z"/>
	<path fill="#FFFFFF" stroke="#FFFFFF" stroke-width="0.5" stroke-miterlimit="10" d="M63.609,72.566l-0.138-0.881l1.047-0.166
		l-1.758-11.087l-1.048,0.169l-0.138-0.881l8.196-1.301l0.444,2.78l-0.978,0.153l-0.275-1.742l-4.918,0.784l0.749,4.751l5.026-0.799
		l0.169,1.055l-5.023,0.799l0.784,4.965l5.27-0.838l-0.278-1.742l0.977-0.153l0.442,2.778L63.609,72.566z"/>
</g>
<g>
	<path fill="#95BA55" stroke="#95BA55" stroke-width="0.7" stroke-miterlimit="10" d="M40.507,100.602l-0.945,0.146l-0.603-3.801
		l0.942-0.149c0.163,0.879,0.562,1.55,1.198,2.021c0.638,0.47,1.494,0.619,2.581,0.447c1.089-0.174,1.819-0.49,2.188-0.963
		c0.377-0.466,0.498-1.104,0.373-1.909c-0.126-0.801-0.375-1.34-0.741-1.619s-0.979-0.436-1.845-0.466l-1.617-0.049
		c-1.298-0.048-2.215-0.267-2.759-0.664c-0.547-0.394-0.911-1.168-1.095-2.323c-0.183-1.156-0.044-2.093,0.412-2.815
		c0.459-0.72,1.374-1.19,2.742-1.408c1.598-0.253,2.793,0.11,3.593,1.09l-0.221-1.374l0.944-0.148l0.496,3.132l-0.942,0.149
		c-0.477-1.512-1.624-2.123-3.438-1.835c-1.06,0.169-1.746,0.501-2.061,0.992c-0.314,0.495-0.406,1.148-0.279,1.96
		c0.126,0.809,0.35,1.344,0.664,1.604c0.319,0.265,0.918,0.412,1.807,0.438l1.601,0.054c1.314,0.043,2.266,0.268,2.839,0.677
		c0.577,0.407,0.96,1.183,1.139,2.329c0.181,1.14,0.022,2.064-0.48,2.77c-0.504,0.708-1.525,1.182-3.071,1.426
		c-1.551,0.244-2.771-0.161-3.663-1.221L40.507,100.602z"/>
	<path fill="#95BA55" stroke="#95BA55" stroke-width="0.7" stroke-miterlimit="10" d="M57.342,97.93L57.2,97.05l1.048-0.167
		l-0.798-5.014l-6.068,0.965l0.797,5.013l1.049-0.164l0.136,0.877l-3.351,0.534l-0.138-0.88l1.049-0.164l-1.758-11.089l-1.049,0.166
		l-0.137-0.879l3.347-0.531l0.141,0.879l-1.049,0.166l0.797,5.016l6.069-0.965l-0.796-5.015l-1.048,0.168l-0.139-0.883l3.349-0.532
		l0.141,0.882l-1.048,0.165l1.76,11.088l1.046-0.164l0.138,0.876L57.342,97.93z"/>
	<path fill="#95BA55" stroke="#95BA55" stroke-width="0.7" stroke-miterlimit="10" d="M73.09,94.532l0.142,0.88l-3.107,0.492
		l-0.139-0.882l1.031-0.159l-1.585-3.104l-4.957,0.783l-0.541,3.443l1.045-0.169l0.141,0.883l-3.107,0.493l-0.137-0.881l0.801-0.128
		l2.063-12.594l1.692-0.269l5.839,11.342L73.09,94.532z M65.749,84.562l-1.089,6.881l4.277-0.676L65.749,84.562z"/>
	<path fill="#95BA55" stroke="#95BA55" stroke-width="0.7" stroke-miterlimit="10" d="M77.37,89.254l-1.378,0.215l0.711,4.489
		l1.049-0.165l0.14,0.879l-3.351,0.532l-0.14-0.879l1.049-0.169L73.69,83.07l-1.046,0.166l-0.138-0.878l4.71-0.747
		c1.859-0.297,3.102,0.053,3.727,1.049c0.207,0.328,0.357,0.645,0.448,0.957c0.09,0.311,0.171,0.688,0.241,1.133
		s0.106,0.838,0.115,1.176c0.006,0.334-0.04,0.684-0.136,1.049c-0.185,0.738-0.725,1.301-1.632,1.685
		c0.364,0.181,0.711,0.523,1.037,1.024l2.059,3.264l1.081-0.17l0.138,0.881l-2.042,0.322l-2.423-3.893
		c-0.285-0.448-0.609-0.724-0.971-0.829C78.493,89.157,77.999,89.153,77.37,89.254z M75.826,88.431l2.408-0.381
		c1.115-0.177,1.793-0.56,2.037-1.15c0.118-0.294,0.183-0.589,0.189-0.88c0.01-0.29-0.024-0.646-0.091-1.076
		c-0.065-0.429-0.147-0.779-0.246-1.051c-0.097-0.274-0.248-0.534-0.454-0.775c-0.414-0.49-1.177-0.643-2.294-0.467l-2.406,0.38
		L75.826,88.431z"/>
	<path fill="#95BA55" stroke="#95BA55" stroke-width="0.7" stroke-miterlimit="10" d="M86.02,93.379L85.882,92.5l1.046-0.166
		l-1.756-11.086l-1.05,0.17l-0.136-0.882l8.198-1.302l0.44,2.78l-0.979,0.153l-0.273-1.738l-4.921,0.777l0.753,4.754l5.025-0.797
		l0.166,1.055l-5.024,0.795l0.789,4.963l5.271-0.836l-0.279-1.742l0.975-0.154l0.443,2.781L86.02,93.379z"/>
</g>
<path fill="#92938D" d="M91.536,54.287V38.514c0-14.17-9.914-25.697-24.084-25.697H66.1v12.85h1.353
	c7.085,0,11.238,5.762,11.238,12.849V54.29h-6.294l6.294,8.402v0.003h0.003l6.418,8.567l6.418-8.567h0.007v-0.003l6.294-8.402
	h-6.294V54.287z"/>
</svg>
