<?xml version="1.0" encoding="utf-8"?>
<!-- Generator: Adobe Illustrator 15.0.0, SVG Export Plug-In . SVG Version: 6.00 Build 0)  -->
<!DOCTYPE svg PUBLIC "-//W3C//DTD SVG 1.1//EN" "http://www.w3.org/Graphics/SVG/1.1/DTD/svg11.dtd" [
	<!ENTITY ns_extend "http://ns.adobe.com/Extensibility/1.0/">
	<!ENTITY ns_ai "http://ns.adobe.com/AdobeIllustrator/10.0/">
	<!ENTITY ns_graphs "http://ns.adobe.com/Graphs/1.0/">
	<!ENTITY ns_vars "http://ns.adobe.com/Variables/1.0/">
	<!ENTITY ns_imrep "http://ns.adobe.com/ImageReplacement/1.0/">
	<!ENTITY ns_sfw "http://ns.adobe.com/SaveForWeb/1.0/">
	<!ENTITY ns_custom "http://ns.adobe.com/GenericCustomNamespace/1.0/">
	<!ENTITY ns_adobe_xpath "http://ns.adobe.com/XPath/1.0/">
]>
<svg version="1.1" id="Layer_1" xmlns:x="&ns_extend;" xmlns:i="&ns_ai;" xmlns:graph="&ns_graphs;"
	 xmlns="http://www.w3.org/2000/svg" xmlns:xlink="http://www.w3.org/1999/xlink" x="0px" y="0px" width="350px" height="219px"
	 viewBox="0 0 350 219" enable-background="new 0 0 350 219" xml:space="preserve">
<metadata>
	<sfw  xmlns="&ns_sfw;">
		<slices></slices>
		<sliceSourceBounds  height="206.943" width="326.938" y="116.339" x="315.145" bottomLeftOrigin="true"></sliceSourceBounds>
	</sfw>
</metadata>
<path fill="#FFFFFF" stroke="#231F20" stroke-width="2" stroke-miterlimit="10" d="M120.792,37.879
	c5.587,17.474,23.3,85.434,27.542,111.748c1.768,10.947,3.359,9.973-7.315,12.924c-7.034,1.947-43.05,9.689-60.669,13.658
	C67.726,136.285,59.668,94.793,48.91,54.375C62.654,51.715,107.223,40.701,120.792,37.879z"/>
<path fill="#FFFFFF" stroke="#231F20" stroke-width="0.5" stroke-miterlimit="10" d="M117.134,45.848
	c4.954,15.572,20.731,76.078,24.61,99.48c1.627,9.748,2.97,8.9-6.102,11.406c-5.973,1.664-36.59,8.18-51.568,11.502
	C72.909,132.67,65.809,96.482,56.226,60.49C68.591,57.071,105.6,48.218,117.134,45.848z"/>
<path fill="#FFFFFF" stroke="#231F20" stroke-width="2" stroke-miterlimit="10" d="M155.332,118.449
	c4.061-2.758,6.387-8.631,4.744-12.549c-2.078-4.959-8.188-4.34-12.36-3.547c-7.789,1.479-21.106,10.748-14.687,20.533
	C137.376,129.512,151.443,121.859,155.332,118.449"/>
<path fill="#FFFFFF" stroke="#231F20" stroke-width="2" stroke-miterlimit="10" d="M137.951,82.173
	c2.922-2.184,10.269-4.314,10.391,4.047c0.1,6.855-5.511,13.875-9.882,17.667c-3.159,2.74-9.569,7.891-13.62,3.33
	c-4.664-5.254-0.521-11.447,2.566-15.488C130.386,87.833,134.047,84.587,137.951,82.173"/>
<path fill="#FFFFFF" stroke="#231F20" stroke-width="2" stroke-miterlimit="10" d="M136.624,63.498
	c4.721-1.661,11.882-2.66,11.97,4.635c0.068,5.756-4.07,9.471-8.527,11.512c-4.744,2.169-9.771,3.236-14.799,3.563
	c-4.533,0.298-10.976-2.608-8.474-8.399c1.565-3.626,6.439-6.394,9.837-7.798C130.692,65.329,132.45,64.964,136.624,63.498"/>
<path fill="#FFFFFF" stroke="#231F20" stroke-width="2" stroke-miterlimit="10" d="M144.794,124.102
	c3.777-0.785,9.369-0.76,8.738,5.082c-0.498,4.607-4.026,7.1-7.641,8.221c-3.846,1.189-7.803,1.465-11.69,1.148
	c-3.507-0.285-8.172-3.348-5.698-7.689c1.545-2.717,5.549-4.371,8.289-5.104c3.277-0.875,6.436-1.6,9.776-2.293"/>
<path fill="#FFFFFF" stroke="#231F20" stroke-width="2" stroke-miterlimit="10" d="M29.496,242.934
	c26.73-25.307,68.301-67.086,72.524-71.811h-0.001c0.286,0.047-21.843,6.107-22.062,3.33c-0.972-12.305-6.347-49.217-6.146-51.027
	c0.367-3.275,2.589-16.242,3.121-19.461c1.387-8.354-10.583-12.004-13.122-11.011c-11.338,4.435-11.132,26.82-9.891,39.193
	c0.534,5.32,2.116,10.443,3.147,15.662c1.299,6.576,3.616,12.715,3.295,17.328c-7.553,14.852-80.953,76.703-80.711,76.812"/>
<line fill="none" stroke="#231F20" stroke-width="0.5" stroke-miterlimit="10" x1="80.88" y1="156.985" x2="141.252" y2="142.511"/>
<circle fill="#95BA55" cx="125.707" cy="152.674" r="7.324"/>
<line fill="none" stroke="#95BA55" stroke-width="2" stroke-miterlimit="10" x1="125.706" y1="153.973" x2="226.86" y2="109.5"/>
<path fill="#92938D" d="M229.463,43.243l-9.327,104.375l40.165-20.117l35.955,26.92l9.327-104.373L229.463,43.243z M279.341,117.818
	l-17.066-12.434l-19.006,9.211l6.554-20.079L235.19,79.289l21.116,0.021l9.963-18.615l6.506,20.087l20.786,3.724l-17.099,12.391
	L279.341,117.818z"/>
</svg>
