<?xml version="1.0" encoding="utf-8"?>
<!-- Generator: Adobe Illustrator 15.0.0, SVG Export Plug-In . SVG Version: 6.00 Build 0)  -->
<!DOCTYPE svg PUBLIC "-//W3C//DTD SVG 1.1//EN" "http://www.w3.org/Graphics/SVG/1.1/DTD/svg11.dtd" [
	<!ENTITY ns_extend "http://ns.adobe.com/Extensibility/1.0/">
	<!ENTITY ns_ai "http://ns.adobe.com/AdobeIllustrator/10.0/">
	<!ENTITY ns_graphs "http://ns.adobe.com/Graphs/1.0/">
	<!ENTITY ns_vars "http://ns.adobe.com/Variables/1.0/">
	<!ENTITY ns_imrep "http://ns.adobe.com/ImageReplacement/1.0/">
	<!ENTITY ns_sfw "http://ns.adobe.com/SaveForWeb/1.0/">
	<!ENTITY ns_custom "http://ns.adobe.com/GenericCustomNamespace/1.0/">
	<!ENTITY ns_adobe_xpath "http://ns.adobe.com/XPath/1.0/">
]>
<svg version="1.1" id="Layer_1" xmlns:x="&ns_extend;" xmlns:i="&ns_ai;" xmlns:graph="&ns_graphs;"
	 xmlns="http://www.w3.org/2000/svg" xmlns:xlink="http://www.w3.org/1999/xlink" x="0px" y="0px" width="150px" height="200px"
	 viewBox="0 0 150 200" enable-background="new 0 0 150 200" xml:space="preserve">
<metadata>
	<sfw  xmlns="&ns_sfw;">
		<slices></slices>
		<sliceSourceBounds  x="290.506" y="325.482" width="137.039" height="162.617" bottomLeftOrigin="true"></sliceSourceBounds>
	</sfw>
</metadata>
<polygon fill="#FFFFFF" points="48.496,170.281 22.02,173.393 18.02,151.643 12.77,167.143 15.103,174.893 7.687,201.178 
	26.197,204.631 33.359,183.959 37.971,179.768 46.603,174.477 "/>
<path fill="#FFFFFF" stroke="#231F20" stroke-width="2" stroke-miterlimit="10" d="M10.359,98.408
	c4.185,24.658,6.699,49.811,12.022,74.279c10.709-1.394,32.581-4.023,36.879-4.797c6.516-1.171,5.516-0.679,5.066-7.293
	c-1.08-15.904-7.888-57.349-10.256-68.062C45.835,93.47,18.689,97.578,10.359,98.408z"/>
<path fill="#FFFFFF" stroke="#231F20" stroke-width="0.5" stroke-miterlimit="10" d="M14.297,102.119
	c3.727,21.958,6.038,44.344,10.733,66.137c9.101-1.154,27.691-3.354,31.341-4.014c5.538-0.994,4.691-0.562,4.26-6.455
	c-1.024-14.15-7.091-51.049-9.184-60.595C44.447,97.968,21.382,101.438,14.297,102.119z"/>
<path fill="#FFFFFF" stroke="#231F20" stroke-width="1.5" stroke-miterlimit="10" d="M7.02,203.977
	c-0.11,0.263-0.115,1.08-0.245,0.369c2.126-7.711,5.005-15.422,7.053-23.027c1.765-6.557,0.541-9.235-1.984-15.342
	c-1.945-4.701-5.001-10.688-4.526-16c0.454-5.094,5.448-10.539,8.608-14.008c1.97-2.162,4.618-6.354,7.762-4.375
	c3.407,2.143,1.324,7.146-0.145,9.643c-1.674,2.845-4.374,8.66-5.754,11.902"/>
<path fill="none" stroke="#231F20" stroke-width="1.5" stroke-miterlimit="10" d="M25.268,206.643
	c2.167-3.75,6.145-19.348,8.091-22.687c3.076-5.272,14.467-7.444,15.243-14.313"/>
<line fill="none" stroke="#231F20" stroke-width="0.5" stroke-miterlimit="10" x1="15.531" y1="108.611" x2="46.356" y2="104.562"/>
<line fill="none" stroke="#231F20" stroke-width="0.5" stroke-miterlimit="10" x1="18.335" y1="130.049" x2="50.428" y2="125.834"/>
<line fill="none" stroke="#231F20" stroke-width="0.5" stroke-miterlimit="10" x1="21.972" y1="152.258" x2="59.555" y2="147.373"/>
<circle fill="#95BA55" cx="46.355" cy="101.506" r="2.218"/>
<line fill="none" stroke="#95BA55" stroke-width="2" stroke-miterlimit="10" x1="44.159" y1="101.506" x2="82.822" y2="86.005"/>
<path fill="#FFFFFF" d="M68.546,109.783c-0.455-6.154-11.218-9.277-16.033-8.859c-2.977,0.256-6.701,0.555-6.095,4.446
	c0.531,3.405,5.491,3.343,8.553,3.655c4.143,0.427,5.963,3.658,7.08,7.554c1.157,4.043,5.5,13.261,5.079,17.328
	c-1.272,2.933-6.315,0.312-7.711-1.396c-1.746-2.144-2.441-6.418-4.534-7.95c-3.788-2.779-5.783,1.977-5.117,4.944
	c0.837,3.729,2.407,7.854,4.597,11.054c3.751,5.477,11.898,6.142,17.752,7.955c3.076,0.954,6.477,2.275,8.371,4.969
	c1.91,2.711,3.555,6.016,5.312,8.844c1.083,1.744,20.853,39.004,21.562,40.889c2.348,0.459,4.979,0.15,7.344-0.121
	c3.314-0.385,6.027,0.002,9.293,0.367c1.818,0.202,3.188,0.737,4.84,1.162c1.385,0.354,4.945,1.241,6.005,0.441
	c-2.399-1.787-22.157-34.773-24.565-38.293c-2.241-3.275-12.297-15.062-14.143-18.205c-1.714-2.918-3.854-7.556-4.451-11.036
	c-0.552-3.179-1.205-6.658-1.377-9.884c-0.187-3.429-0.065-6.513-4.24-6.765c0.576-5.929-4.771-6.513-9.147-5.702
	c-0.612-1.684-0.772-4.389-2.129-5.56c-1.482-1.275-4.344-0.724-5.923,0.026c2.181,3.104,2.627,6.182,3.68,9.648"/>
<path fill="#231F20" d="M133.105,206.062c-1.094-0.037-2.549-0.297-4.438-0.782c-0.494-0.126-0.963-0.263-1.426-0.397
	c-1.078-0.312-2.099-0.607-3.321-0.748l-0.875-0.099c-2.855-0.327-5.324-0.608-8.266-0.269c-2.434,0.278-5.121,0.59-7.553,0.112
	l-0.371-0.071l-0.135-0.354c-0.72-1.904-20.56-39.25-21.504-40.771c-0.691-1.113-1.378-2.317-2.041-3.482
	c-1.035-1.819-2.104-3.698-3.252-5.327c-1.765-2.509-5.042-3.789-8.016-4.711c-1.296-0.402-2.699-0.744-4.184-1.106
	c-5.096-1.242-10.873-2.652-13.927-7.111c-2.046-2.987-3.759-7.104-4.697-11.287c-0.455-2.023,0.172-4.939,1.976-6.122
	c0.702-0.458,2.182-1.007,4.206,0.479c1.337,0.979,2.122,2.846,2.881,4.646c0.533,1.269,1.083,2.569,1.777,3.424
	c0.918,1.125,3.632,2.685,5.359,2.442c0.557-0.078,0.928-0.332,1.16-0.799c0.213-2.703-1.752-7.896-3.336-12.08
	c-0.736-1.945-1.372-3.625-1.731-4.883c-1.324-4.619-3.267-6.73-6.495-7.062c-0.37-0.038-0.768-0.069-1.182-0.104
	c-3.133-0.257-7.425-0.604-7.974-4.125c-0.203-1.306,0.02-2.382,0.662-3.199c1.266-1.614,3.776-1.831,5.991-2.022
	c3.369-0.294,10.044,1.081,13.948,4.405c1.475,1.256,2.393,2.65,2.737,4.156c1.771-0.689,4.535-1.095,6.146,0.295
	c1.105,0.955,1.505,2.649,1.861,4.146c0.098,0.407,0.188,0.802,0.292,1.157c2.218-0.338,5.681-0.467,7.767,1.447
	c1.141,1.045,1.688,2.527,1.635,4.414c3.867,0.554,4.021,3.688,4.169,6.724l0.028,0.612c0.151,2.838,0.682,5.851,1.188,8.764
	l0.183,1.043c0.567,3.296,2.604,7.807,4.369,10.812c1.021,1.735,4.771,6.377,8.077,10.472c2.601,3.216,5.054,6.252,6.038,7.692
	c0.732,1.069,3.038,4.812,5.954,9.547c6.315,10.252,16.886,27.412,18.46,28.584l0.729,0.543l-0.725,0.545
	C134.807,205.943,134.109,206.096,133.105,206.062z M118.486,202.271c1.562,0.054,3.078,0.229,4.715,0.414l0.871,0.099
	c1.343,0.149,2.465,0.479,3.552,0.795c0.45,0.132,0.903,0.263,1.384,0.386c2.484,0.643,3.85,0.771,4.594,0.744
	c-2.731-3.421-10.047-15.199-17.97-28.062c-2.907-4.72-5.204-8.446-5.918-9.491c-0.956-1.396-3.394-4.412-5.974-7.606
	c-3.5-4.332-7.121-8.812-8.191-10.637c-1.826-3.111-3.939-7.803-4.537-11.268l-0.182-1.039c-0.516-2.953-1.049-6.006-1.205-8.922
	l-0.031-0.623c-0.169-3.481-0.404-5.312-3.57-5.5l-0.705-0.041l0.068-0.701c0.172-1.764-0.218-3.099-1.158-3.959
	c-1.349-1.237-3.969-1.605-7.189-1.012l-0.562,0.104l-0.197-0.539c-0.2-0.557-0.352-1.184-0.508-1.848
	c-0.309-1.295-0.653-2.763-1.428-3.429c-1.02-0.879-3.002-0.668-4.453-0.172c1.416,2.265,2.024,4.511,2.666,6.875
	c0.199,0.736,0.403,1.489,0.638,2.261l-1.3,0.396c-0.238-0.785-0.445-1.552-0.649-2.302c-0.675-2.491-1.314-4.846-2.937-7.155
	l-0.158-0.228l-0.281,0.021c-0.11-1.482-0.918-2.878-2.401-4.143c-3.271-2.785-9.42-4.396-12.895-4.092
	c-1.995,0.174-4.193,0.361-5.095,1.512c-0.406,0.519-0.533,1.224-0.388,2.154c0.384,2.461,3.909,2.748,6.741,2.979
	c0.424,0.034,0.832,0.067,1.21,0.104c4.894,0.502,6.666,4.562,7.663,8.043c0.344,1.201,1,2.937,1.696,4.772
	c1.742,4.604,3.716,9.819,3.406,12.812l-0.052,0.201c-0.418,0.961-1.2,1.547-2.264,1.691c-2.308,0.32-5.448-1.521-6.598-2.932
	c-0.818-1.004-1.407-2.399-1.977-3.754c-0.687-1.636-1.398-3.32-2.432-4.078c-1.041-0.767-1.935-0.91-2.658-0.438
	c-1.136,0.743-1.788,2.937-1.395,4.688c0.902,4.021,2.541,7.965,4.495,10.813c2.759,4.029,8.03,5.315,13.128,6.562
	c1.505,0.367,2.927,0.717,4.264,1.131c3.192,0.988,6.726,2.384,8.725,5.228c1.186,1.683,2.271,3.59,3.318,5.438
	c0.658,1.15,1.337,2.346,2.017,3.438c1.002,1.612,19.413,36.239,21.462,40.645c2.145,0.342,4.572,0.062,6.729-0.186
	C115.965,202.262,117.242,202.229,118.486,202.271z"/>
<circle fill="none" stroke="#92938D" stroke-width="3" stroke-miterlimit="10" cx="111.062" cy="76.383" r="30.484"/>
<g id="danger-3-icon_5_">
	<path fill="#92938D" d="M111.062,99.479c-3.754,0-7.455-0.908-10.771-2.635l6.312-10.936c1.396,0.641,2.914,0.977,4.449,0.977
		c1.541,0,3.062-0.335,4.457-0.977l6.312,10.938C118.515,98.571,114.815,99.479,111.062,99.479z M111.06,81.878
		c-3.131,0-5.681-2.548-5.681-5.679c0-3.127,2.55-5.671,5.681-5.671c3.129,0,5.676,2.544,5.676,5.671
		C116.735,79.33,114.188,81.878,111.06,81.878z M111.06,81.878c-3.131,0-5.681-2.548-5.681-5.679c0-3.127,2.55-5.671,5.681-5.671
		c3.129,0,5.676,2.544,5.676,5.671C116.735,79.33,114.188,81.878,111.06,81.878z M121.702,75.2c-0.293-3.08-1.93-5.907-4.46-7.71
		l6.312-10.935c6.397,4.079,10.438,11.074,10.769,18.645H121.702z M87.806,75.2c0.328-7.568,4.364-14.562,10.758-18.645
		l6.313,10.935c-2.528,1.802-4.164,4.63-4.458,7.71H87.806z"/>
	<path fill="#92938D" d="M123.886,57.981c5.334,3.767,8.772,9.725,9.363,16.219h-10.676c-0.477-2.714-1.909-5.191-4.029-6.966
		L123.886,57.981 M98.231,57.982l5.344,9.252c-2.119,1.774-3.551,4.252-4.027,6.966H88.874
		C89.464,67.707,92.901,61.75,98.231,57.982 M111.06,71.528c2.578,0,4.676,2.096,4.676,4.671c0,2.58-2.1,4.679-4.676,4.679
		c-2.58,0-4.681-2.099-4.681-4.679C106.382,73.624,108.479,71.528,111.06,71.528 M115.083,87.169l5.34,9.251
		c-2.919,1.353-6.117,2.06-9.359,2.06c-3.239,0-6.441-0.707-9.367-2.062l5.341-9.25c1.28,0.473,2.646,0.718,4.021,0.718
		S113.797,87.641,115.083,87.169 M123.886,57.981c5.334,3.767,8.772,9.725,9.363,16.219h-10.676
		c-0.477-2.714-1.909-5.191-4.029-6.966L123.886,57.981 M98.231,57.982l5.344,9.252c-2.119,1.774-3.551,4.252-4.027,6.966H88.874
		C89.464,67.707,92.901,61.75,98.231,57.982 M115.083,87.169l5.34,9.251c-2.919,1.353-6.117,2.06-9.359,2.06
		c-3.239,0-6.441-0.707-9.367-2.062l5.341-9.25c1.28,0.473,2.646,0.718,4.021,0.718S113.797,87.641,115.083,87.169 M123.198,55.17
		l-7.297,12.646c2.894,1.678,4.849,4.807,4.849,8.386h14.591C135.34,67.213,130.461,59.37,123.198,55.17L123.198,55.17z
		 M98.918,55.17c-7.254,4.2-12.134,12.044-12.134,21.03h14.589c0-3.579,1.952-6.708,4.847-8.386L98.918,55.17L98.918,55.17z
		 M111.06,69.528c-3.688,0-6.681,2.981-6.681,6.671c0,3.685,2.992,6.679,6.681,6.679c3.688,0,6.676-2.994,6.676-6.679
		C117.735,72.509,114.748,69.528,111.06,69.528L111.06,69.528z M115.899,84.585c-1.48,0.857-3.156,1.302-4.848,1.302
		c-1.652,0-3.32-0.425-4.839-1.302l-7.297,12.645c3.574,2.063,7.72,3.25,12.146,3.25c4.42,0,8.565-1.187,12.138-3.25L115.899,84.585
		L115.899,84.585z"/>
</g>
</svg>
