<?xml version="1.0" encoding="utf-8"?>
<!-- Generator: Adobe Illustrator 15.0.0, SVG Export Plug-In . SVG Version: 6.00 Build 0)  -->
<!DOCTYPE svg PUBLIC "-//W3C//DTD SVG 1.1//EN" "http://www.w3.org/Graphics/SVG/1.1/DTD/svg11.dtd" [
	<!ENTITY ns_extend "http://ns.adobe.com/Extensibility/1.0/">
	<!ENTITY ns_ai "http://ns.adobe.com/AdobeIllustrator/10.0/">
	<!ENTITY ns_graphs "http://ns.adobe.com/Graphs/1.0/">
	<!ENTITY ns_vars "http://ns.adobe.com/Variables/1.0/">
	<!ENTITY ns_imrep "http://ns.adobe.com/ImageReplacement/1.0/">
	<!ENTITY ns_sfw "http://ns.adobe.com/SaveForWeb/1.0/">
	<!ENTITY ns_custom "http://ns.adobe.com/GenericCustomNamespace/1.0/">
	<!ENTITY ns_adobe_xpath "http://ns.adobe.com/XPath/1.0/">
]>
<svg version="1.1" id="Layer_1" xmlns:x="&ns_extend;" xmlns:i="&ns_ai;" xmlns:graph="&ns_graphs;"
	 xmlns="http://www.w3.org/2000/svg" xmlns:xlink="http://www.w3.org/1999/xlink" x="0px" y="0px" width="350px" height="319px"
	 viewBox="0 0 350 319" enable-background="new 0 0 350 319" xml:space="preserve">
<metadata>
	<sfw  xmlns="&ns_sfw;">
		<slices></slices>
		<sliceSourceBounds  height="306.867" width="423.313" y="88.273" x="304.128" bottomLeftOrigin="true"></sliceSourceBounds>
	</sfw>
</metadata>
<path fill="#FFFFFF" stroke="#231F20" stroke-width="2" stroke-miterlimit="10" d="M248.797,115.948
	c-5.589,17.474-23.301,85.434-27.543,111.749c-1.769,10.946-3.358,9.973,7.315,12.924c7.034,1.946,43.051,9.688,60.67,13.657
	c12.621-39.924,20.68-81.415,31.438-121.833C306.934,129.784,262.364,118.77,248.797,115.948z"/>
<path fill="#FFFFFF" stroke="#231F20" stroke-width="0.5" stroke-miterlimit="10" d="M252.447,124.103
	c-4.953,15.572-20.73,76.077-24.609,99.48c-1.627,9.748-2.97,8.899,6.102,11.406c5.973,1.663,36.59,8.179,51.568,11.501
	c11.166-35.566,18.266-71.753,27.849-107.746C300.991,135.325,263.982,126.472,252.447,124.103z"/>
<path fill="#FFFFFF" stroke="#231F20" stroke-width="2" stroke-miterlimit="10" d="M214.257,196.519
	c-4.06-2.758-6.387-8.631-4.743-12.55c2.078-4.959,8.187-4.339,12.36-3.547c7.788,1.479,21.105,10.749,14.686,20.533
	C232.21,207.581,218.146,199.929,214.257,196.519"/>
<path fill="#FFFFFF" stroke="#231F20" stroke-width="2" stroke-miterlimit="10" d="M231.638,160.242
	c-2.922-2.184-10.269-4.314-10.391,4.047c-0.101,6.855,5.512,13.876,9.882,17.666c3.16,2.741,9.569,7.892,13.62,3.33
	c4.664-5.253,0.521-11.447-2.566-15.487C239.201,165.901,235.54,162.656,231.638,160.242"/>
<path fill="#FFFFFF" stroke="#231F20" stroke-width="2" stroke-miterlimit="10" d="M232.965,141.566
	c-4.721-1.661-11.882-2.66-11.97,4.635c-0.068,5.756,4.07,9.471,8.527,11.512c4.744,2.169,9.771,3.236,14.799,3.563
	c4.534,0.298,10.975-2.608,8.474-8.399c-1.564-3.626-6.438-6.394-9.836-7.798C238.895,143.398,237.139,143.033,232.965,141.566"/>
<path fill="#FFFFFF" stroke="#231F20" stroke-width="2" stroke-miterlimit="10" d="M224.793,202.17
	c-3.777-0.784-9.369-0.759-8.737,5.082c0.496,4.608,4.026,7.101,7.639,8.222c3.847,1.188,7.803,1.465,11.692,1.148
	c3.505-0.285,8.172-3.349,5.699-7.689c-1.547-2.718-5.55-4.372-8.292-5.104c-3.276-0.875-6.434-1.6-9.775-2.292"/>
<path fill="#FFFFFF" stroke="#231F20" stroke-width="2" stroke-miterlimit="10" d="M340.091,321.002
	c-26.73-25.307-68.3-67.085-72.523-71.811h0.001c-0.286,0.047,21.843,6.107,22.062,3.33c0.972-12.304,6.347-49.217,6.146-51.026
	c-0.367-3.276-2.589-16.242-3.12-19.461c-1.387-8.354,10.582-12.005,13.123-11.012c11.337,4.436,11.131,26.82,9.89,39.193
	c-0.534,5.32-2.117,10.442-3.147,15.662c-1.299,6.576-3.615,12.715-3.295,17.327c7.554,14.853,80.954,76.704,80.711,76.813"/>
<path fill="#FFFFFF" stroke="#231F20" stroke-width="2" stroke-miterlimit="10" d="M109.772,115.948
	c5.587,17.474,23.3,85.434,27.542,111.749c1.767,10.946,3.358,9.973-7.316,12.924c-7.034,1.946-43.05,9.688-60.669,13.657
	c-12.623-39.924-20.681-81.415-31.439-121.833C51.635,129.784,96.204,118.77,109.772,115.948z"/>
<path fill="#FFFFFF" stroke="#231F20" stroke-width="0.5" stroke-miterlimit="10" d="M106.12,124.103
	c4.954,15.572,20.731,76.077,24.611,99.48c1.626,9.748,2.969,8.899-6.102,11.406c-5.973,1.663-36.59,8.179-51.568,11.501
	c-11.166-35.566-18.266-71.753-27.849-107.746C57.577,135.325,94.586,126.472,106.12,124.103z"/>
<path fill="#FFFFFF" stroke="#231F20" stroke-width="2" stroke-miterlimit="10" d="M144.312,196.519
	c4.061-2.758,6.387-8.631,4.745-12.55c-2.079-4.959-8.188-4.339-12.36-3.547c-7.789,1.479-21.107,10.749-14.687,20.533
	C126.358,207.581,140.423,199.929,144.312,196.519"/>
<path fill="#FFFFFF" stroke="#231F20" stroke-width="2" stroke-miterlimit="10" d="M126.932,160.242
	c2.921-2.184,10.268-4.314,10.39,4.047c0.101,6.855-5.51,13.876-9.881,17.666c-3.159,2.741-9.569,7.892-13.62,3.33
	c-4.664-5.253-0.521-11.447,2.566-15.487C119.368,165.901,123.028,162.656,126.932,160.242"/>
<path fill="#FFFFFF" stroke="#231F20" stroke-width="2" stroke-miterlimit="10" d="M125.604,141.566
	c4.721-1.661,11.881-2.66,11.97,4.635c0.068,5.756-4.07,9.471-8.527,11.512c-4.745,2.169-9.771,3.236-14.799,3.563
	c-4.534,0.298-10.976-2.608-8.474-8.399c1.565-3.626,6.439-6.394,9.837-7.798C119.673,143.398,121.431,143.033,125.604,141.566"/>
<path fill="#FFFFFF" stroke="#231F20" stroke-width="2" stroke-miterlimit="10" d="M133.775,202.17
	c3.778-0.784,9.369-0.759,8.738,5.082c-0.498,4.608-4.026,7.101-7.64,8.222c-3.846,1.188-7.803,1.465-11.691,1.148
	c-3.506-0.285-8.172-3.349-5.699-7.689c1.545-2.718,5.55-4.372,8.29-5.104c3.277-0.875,6.436-1.6,9.776-2.292"/>
<path fill="#FFFFFF" stroke="#231F20" stroke-width="2" stroke-miterlimit="10" d="M18.477,321.002
	c26.73-25.307,68.3-67.085,72.524-71.811H91c0.286,0.047-21.843,6.107-22.062,3.33c-0.972-12.304-6.347-49.217-6.146-51.026
	c0.367-3.276,2.588-16.242,3.121-19.461c1.386-8.354-10.583-12.005-13.122-11.012c-11.338,4.436-11.131,26.82-9.891,39.193
	c0.534,5.32,2.116,10.442,3.147,15.662c1.299,6.576,3.616,12.715,3.295,17.327c-7.553,14.853-80.954,76.704-80.711,76.813"/>
<path fill="#92938D" d="M232.994,78.147V64.513c0-22.039-15.418-39.967-37.459-39.967h-2.103v19.985h2.103
	c11.021,0,17.48,8.962,17.48,19.985v13.637h-9.789l9.789,13.067v0.003h0.006l9.985,13.326l9.979-13.326h0.009v-0.005l9.791-13.067
	h-9.791V78.147z"/>
<path fill="#92938D" d="M163.777,24.544h-1.084c-22.038,0-37.457,17.928-37.457,39.962V93.93h19.983V64.506
	c0-11.016,6.46-19.981,17.477-19.981h1.081v9.895l26.401-19.78l-26.401-19.778V24.544z"/>
</svg>
