<?xml version="1.0" encoding="utf-8"?>
<!-- Generator: Adobe Illustrator 15.0.0, SVG Export Plug-In . SVG Version: 6.00 Build 0)  -->
<!DOCTYPE svg PUBLIC "-//W3C//DTD SVG 1.1//EN" "http://www.w3.org/Graphics/SVG/1.1/DTD/svg11.dtd" [
	<!ENTITY ns_extend "http://ns.adobe.com/Extensibility/1.0/">
	<!ENTITY ns_ai "http://ns.adobe.com/AdobeIllustrator/10.0/">
	<!ENTITY ns_graphs "http://ns.adobe.com/Graphs/1.0/">
	<!ENTITY ns_vars "http://ns.adobe.com/Variables/1.0/">
	<!ENTITY ns_imrep "http://ns.adobe.com/ImageReplacement/1.0/">
	<!ENTITY ns_sfw "http://ns.adobe.com/SaveForWeb/1.0/">
	<!ENTITY ns_custom "http://ns.adobe.com/GenericCustomNamespace/1.0/">
	<!ENTITY ns_adobe_xpath "http://ns.adobe.com/XPath/1.0/">
]>
<svg version="1.1" id="Layer_1" xmlns:x="&ns_extend;" xmlns:i="&ns_ai;" xmlns:graph="&ns_graphs;"
	 xmlns="http://www.w3.org/2000/svg" xmlns:xlink="http://www.w3.org/1999/xlink" x="0px" y="0px" width="350px" height="219px"
	 viewBox="0 0 350 219" enable-background="new 0 0 350 219" xml:space="preserve">
<metadata>
	<sfw  xmlns="&ns_sfw;">
		<slices></slices>
		<sliceSourceBounds  width="234.768" height="187.246" x="844.267" y="114.54" bottomLeftOrigin="true"></sliceSourceBounds>
	</sfw>
</metadata>
<path fill="#FFFFFF" stroke="#231F20" stroke-width="2" stroke-miterlimit="10" d="M95.7,47.137
	c-4.901,15.332-20.442,74.96-24.166,98.048c-1.55,9.604-2.944,8.75,6.419,11.34c6.174,1.707,37.771,8.5,53.23,11.981
	c11.074-35.028,18.146-71.433,27.586-106.896C146.711,59.277,107.605,49.612,95.7,47.137z"/>
<path fill="#FFFFFF" stroke="#231F20" stroke-width="0.5" stroke-miterlimit="10" d="M98.904,54.292
	c-4.346,13.664-18.188,66.75-21.593,87.285c-1.429,8.554-2.605,7.81,5.354,10.008c5.239,1.46,32.104,7.177,45.245,10.092
	c9.799-31.206,16.026-62.956,24.436-94.536C141.496,64.139,109.025,56.371,98.904,54.292z"/>
<line fill="none" stroke="#231F20" stroke-width="0.5" stroke-miterlimit="10" x1="95.842" y1="64.749" x2="133.706" y2="73.909"/>
<line fill="none" stroke="#231F20" stroke-width="0.5" stroke-miterlimit="10" x1="92.666" y1="75.779" x2="131.051" y2="84.656"/>
<line fill="none" stroke="#231F20" stroke-width="0.5" stroke-miterlimit="10" x1="90.172" y1="85.912" x2="128.524" y2="94.88"/>
<line fill="none" stroke="#231F20" stroke-width="0.5" stroke-miterlimit="10" x1="87.42" y1="95.92" x2="126.209" y2="105.496"/>
<line fill="none" stroke="#231F20" stroke-width="0.5" stroke-miterlimit="10" x1="85.16" y1="105.837" x2="123.949" y2="115.412"/>
<line fill="none" stroke="#231F20" stroke-width="0.5" stroke-miterlimit="10" x1="82.758" y1="116.963" x2="121.076" y2="126.229"/>
<line fill="none" stroke="#231F20" stroke-width="0.5" stroke-miterlimit="10" x1="136.758" y1="62.79" x2="113.119" y2="158.459"/>
<path fill="#FFFFFF" stroke="#231F20" stroke-width="2" stroke-miterlimit="10" d="M65.396,117.83
	c-3.562-2.42-5.604-7.573-4.163-11.013c1.822-4.351,7.186-3.807,10.845-3.111c6.834,1.296,18.521,9.431,12.888,18.015
	C81.148,127.535,68.805,120.82,65.396,117.83"/>
<path fill="#FFFFFF" stroke="#231F20" stroke-width="2" stroke-miterlimit="10" d="M80.645,86.001
	c-2.563-1.916-9.01-3.786-9.116,3.55c-0.088,6.016,4.835,12.176,8.67,15.501c2.771,2.404,8.396,6.925,11.95,2.921
	c4.092-4.608,0.457-10.043-2.252-13.588C87.281,90.966,84.069,88.119,80.645,86.001"/>
<path fill="#FFFFFF" stroke="#231F20" stroke-width="2" stroke-miterlimit="10" d="M81.809,69.614
	c-4.144-1.457-10.426-2.333-10.502,4.067c-0.062,5.051,3.57,8.31,7.479,10.101c4.163,1.904,8.573,2.84,12.985,3.127
	c3.979,0.261,9.63-2.289,7.435-7.37c-1.372-3.182-5.647-5.61-8.631-6.843C87.012,71.222,85.469,70.902,81.809,69.614"/>
<path fill="#FFFFFF" stroke="#231F20" stroke-width="2" stroke-miterlimit="10" d="M74.639,122.787
	c-3.314-0.688-8.221-0.666-7.668,4.459c0.438,4.045,3.533,6.23,6.703,7.215c3.375,1.043,6.849,1.283,10.258,1.007
	c3.076-0.249,7.172-2.937,5-6.745c-1.354-2.386-4.867-3.838-7.272-4.479c-2.875-0.77-5.646-1.404-8.575-2.014"/>
<path fill="#FFFFFF" stroke="#231F20" stroke-width="2" stroke-miterlimit="10" d="M137.512,222.029
	c-9.75-20.408-10.162-28.061-16.373-44.779c-1.791-4.825-7.474-9.297-11.181-13.441l2.212,0.487
	c-0.252,0.04,19.164,5.108,19.355,2.671c0.854-10.794,5.568-43.182,5.395-44.77c-0.322-2.875-2.271-14.251-2.738-17.076
	c-1.217-7.329,9.285-10.532,11.514-9.661c9.947,3.892,9.768,23.53,8.679,34.388c-0.47,4.668-1.856,9.161-2.763,13.742
	c-1.141,5.771-3.172,11.155-2.893,15.203c6.627,13.029,32.739,62.275,32.526,62.372"/>
<circle fill="#94103C" cx="101.063" cy="94.24" r="6.533"/>
<g>
	
		<rect x="146.625" y="34.977" transform="matrix(0.2276 0.9738 -0.9738 0.2276 194.7496 -79.7213)" fill="#94103C" width="2" height="95.834"/>
</g>
<path fill="#CECECC" d="M211.328,94.56h-17.043V65.663c0-16.789,12.143-30.449,29.695-30.449h23.312v17.043H223.98
	c-8.155,0-12.652,6.012-12.652,13.406V94.56z"/>
<path fill="#92938D" d="M286.182,92.072l8.353-11.145h-8.353V69.3c0-18.795-13.148-34.086-31.942-34.086h-14.625v17.043h14.625
	c9.396,0,14.903,7.644,14.903,17.043v11.627h-8.35l8.35,11.146v0.005h0.006l8.514,11.366l8.515-11.366h0.009L286.182,92.072
	L286.182,92.072z"/>
</svg>
