<?xml version="1.0" encoding="utf-8"?>
<!-- Generator: Adobe Illustrator 15.0.0, SVG Export Plug-In . SVG Version: 6.00 Build 0)  -->
<!DOCTYPE svg PUBLIC "-//W3C//DTD SVG 1.1//EN" "http://www.w3.org/Graphics/SVG/1.1/DTD/svg11.dtd" [
	<!ENTITY ns_extend "http://ns.adobe.com/Extensibility/1.0/">
	<!ENTITY ns_ai "http://ns.adobe.com/AdobeIllustrator/10.0/">
	<!ENTITY ns_graphs "http://ns.adobe.com/Graphs/1.0/">
	<!ENTITY ns_vars "http://ns.adobe.com/Variables/1.0/">
	<!ENTITY ns_imrep "http://ns.adobe.com/ImageReplacement/1.0/">
	<!ENTITY ns_sfw "http://ns.adobe.com/SaveForWeb/1.0/">
	<!ENTITY ns_custom "http://ns.adobe.com/GenericCustomNamespace/1.0/">
	<!ENTITY ns_adobe_xpath "http://ns.adobe.com/XPath/1.0/">
]>
<svg version="1.1" id="Layer_1" xmlns:x="&ns_extend;" xmlns:i="&ns_ai;" xmlns:graph="&ns_graphs;"
	 xmlns="http://www.w3.org/2000/svg" xmlns:xlink="http://www.w3.org/1999/xlink" x="0px" y="0px" width="350px" height="219px"
	 viewBox="0 0 350 219" enable-background="new 0 0 350 219" xml:space="preserve">
<metadata>
	<sfw  xmlns="&ns_sfw;">
		<slices></slices>
		<sliceSourceBounds  height="235.552" width="396.245" y="120.443" x="312.489" bottomLeftOrigin="true"></sliceSourceBounds>
	</sfw>
</metadata>
<path fill="#FFFFFF" stroke="#231F20" stroke-width="2" stroke-miterlimit="10" d="M247.397,58.917
	c-4.902,15.332-20.443,74.96-24.166,98.048c-1.551,9.604-2.946,8.75,6.419,11.34c6.172,1.707,37.772,8.5,53.231,11.982
	c11.074-35.029,18.145-71.433,27.584-106.896C298.407,71.057,259.302,61.393,247.397,58.917z"/>
<path fill="#FFFFFF" stroke="#231F20" stroke-width="0.5" stroke-miterlimit="10" d="M250.601,66.072
	c-4.346,13.663-18.188,66.75-21.592,87.284c-1.428,8.553-2.605,7.809,5.354,10.008c5.24,1.459,32.104,7.176,45.246,10.092
	c9.797-31.207,16.025-62.956,24.434-94.536C293.193,75.919,260.722,68.151,250.601,66.072z"/>
<path fill="#FFFFFF" stroke="#231F20" stroke-width="2" stroke-miterlimit="10" d="M217.093,129.609
	c-3.562-2.42-5.604-7.572-4.162-11.012c1.824-4.351,7.184-3.807,10.845-3.111c6.834,1.297,18.519,9.432,12.886,18.016
	C232.845,139.316,220.505,132.602,217.093,129.609"/>
<path fill="#FFFFFF" stroke="#231F20" stroke-width="2" stroke-miterlimit="10" d="M232.343,97.781
	c-2.563-1.916-9.01-3.786-9.117,3.55c-0.088,6.016,4.836,12.176,8.671,15.501c2.772,2.404,8.396,6.924,11.95,2.921
	c4.092-4.608,0.457-10.043-2.252-13.588C238.979,102.746,235.767,99.9,232.343,97.781"/>
<path fill="#FFFFFF" stroke="#231F20" stroke-width="2" stroke-miterlimit="10" d="M233.507,81.395
	c-4.142-1.457-10.425-2.334-10.502,4.066c-0.06,5.051,3.571,8.31,7.481,10.101c4.163,1.904,8.573,2.84,12.985,3.127
	c3.978,0.261,9.629-2.289,7.435-7.37c-1.373-3.182-5.649-5.61-8.631-6.843C238.71,83.002,237.169,82.682,233.507,81.395"/>
<path fill="#FFFFFF" stroke="#231F20" stroke-width="2" stroke-miterlimit="10" d="M226.337,134.568
	c-3.314-0.688-8.22-0.666-7.666,4.459c0.436,4.043,3.532,6.229,6.702,7.213c3.375,1.043,6.847,1.285,10.259,1.008
	c3.075-0.25,7.17-2.938,5-6.746c-1.356-2.385-4.869-3.837-7.274-4.479c-2.875-0.769-5.646-1.404-8.577-2.012"/>
<path fill="#FFFFFF" stroke="#231F20" stroke-width="2" stroke-miterlimit="10" d="M327.499,238.831
	c-23.453-22.204-59.926-58.86-63.632-63.007h0.001c-0.251,0.041,19.165,5.358,19.357,2.922c0.853-10.795,5.568-43.182,5.393-44.77
	c-0.322-2.875-2.271-14.252-2.738-17.076c-1.217-7.329,9.285-10.532,11.514-9.661c9.947,3.892,9.767,23.532,8.678,34.387
	c-0.469,4.668-1.857,9.162-2.762,13.742c-1.139,5.771-3.172,11.156-2.891,15.203c6.627,13.031,71.028,67.3,70.815,67.396"/>
<path fill="#FFFFFF" stroke="#231F20" stroke-width="2" stroke-miterlimit="10" d="M100.827,58.917
	c4.902,15.332,20.443,74.96,24.166,98.048c1.551,9.604,2.946,8.75-6.419,11.34c-6.172,1.707-37.772,8.5-53.231,11.982
	c-11.074-35.029-18.145-71.433-27.584-106.896C49.817,71.057,88.923,61.393,100.827,58.917z"/>
<path fill="#FFFFFF" stroke="#231F20" stroke-width="0.5" stroke-miterlimit="10" d="M97.623,66.072
	c4.347,13.663,18.189,66.75,21.593,87.284c1.428,8.553,2.605,7.809-5.354,10.008c-5.24,1.459-32.104,7.176-45.246,10.092
	c-9.797-31.207-16.025-62.956-24.434-94.536C55.031,75.919,87.503,68.151,97.623,66.072z"/>
<path fill="#FFFFFF" stroke="#231F20" stroke-width="2" stroke-miterlimit="10" d="M131.132,129.609
	c3.563-2.42,5.604-7.572,4.164-11.012c-1.824-4.351-7.185-3.807-10.846-3.111c-6.834,1.297-18.52,9.432-12.886,18.016
	C115.38,139.316,127.72,132.602,131.132,129.609"/>
<path fill="#FFFFFF" stroke="#231F20" stroke-width="2" stroke-miterlimit="10" d="M115.884,97.781
	c2.562-1.916,9.008-3.786,9.115,3.55c0.088,6.016-4.835,12.176-8.67,15.501c-2.771,2.404-8.396,6.924-11.949,2.921
	c-4.093-4.608-0.457-10.043,2.252-13.588C109.246,102.746,112.458,99.9,115.884,97.781"/>
<path fill="#FFFFFF" stroke="#231F20" stroke-width="2" stroke-miterlimit="10" d="M114.718,81.395
	c4.143-1.457,10.426-2.334,10.502,4.066c0.061,5.051-3.57,8.31-7.48,10.101c-4.163,1.904-8.573,2.84-12.984,3.127
	c-3.979,0.261-9.631-2.289-7.436-7.37c1.373-3.182,5.65-5.61,8.631-6.843C109.515,83.002,111.056,82.682,114.718,81.395"/>
<path fill="#FFFFFF" stroke="#231F20" stroke-width="2" stroke-miterlimit="10" d="M121.888,134.568
	c3.314-0.688,8.22-0.666,7.666,4.459c-0.436,4.043-3.532,6.229-6.703,7.213c-3.375,1.043-6.846,1.285-10.258,1.008
	c-3.076-0.25-7.17-2.938-5-6.746c1.356-2.385,4.869-3.837,7.274-4.479c2.875-0.769,5.646-1.404,8.577-2.012"/>
<path fill="#FFFFFF" stroke="#231F20" stroke-width="2" stroke-miterlimit="10" d="M20.726,238.831
	c23.453-22.204,59.926-58.86,63.632-63.007h-0.001c0.251,0.041-19.165,5.358-19.357,2.922c-0.853-10.795-5.568-43.182-5.393-44.77
	c0.322-2.875,2.271-14.252,2.738-17.076c1.217-7.329-9.285-10.532-11.514-9.661c-9.947,3.892-9.767,23.532-8.678,34.387
	c0.469,4.668,1.857,9.162,2.762,13.742c1.139,5.771,3.172,11.156,2.891,15.203c-6.627,13.031-71.028,67.3-70.815,67.396"/>
<path fill="#92938D" d="M221.237,59.533V47.57c0-19.337-13.527-35.067-32.866-35.067h-1.845v17.535h1.845
	c9.669,0,15.337,7.863,15.337,17.535v11.965h-8.589l8.589,11.465v0.003h0.006l8.76,11.692l8.756-11.692h0.008v-0.004l8.591-11.465
	h-8.591V59.533z"/>
<path fill="#92938D" d="M160.507,12.501h-0.951c-19.336,0-32.864,15.73-32.864,35.063V73.38h17.532V47.564
	c0-9.665,5.668-17.531,15.334-17.531h0.949v8.681l23.164-17.355L160.507,4.006V12.501z"/>
</svg>
